
<svg width="209px" height="55px" viewBox="0 0 209 55" version="1.1" xmlns="http://www.w3.org/2000/svg" xmlns:xlink="http://www.w3.org/1999/xlink">
    <g id="Page-1" stroke="none" stroke-width="1" fill="none" fill-rule="evenodd">
        <g id="footer-logo" transform="translate(-0.639537, 0.054669)" fill-rule="nonzero">
            <g id="Group" transform="translate(165.000000, 0.000000)">
                <path d="M43.8,7.9 C41,-4.5 22.9,0.4 11.6,6.6 C-1.7,13.8 -0.3,20.8 2,25.9 C4.1,30.6 11.3,42.7 24.7,42.5 C37.7,42.3 46.6,21.5 43.8,7.9" id="Path" fill="#FF7320"></path>
                <path d="M28.3,22.1 C28.3,24.7 26.2,26.7 23.6,26.7 C21,26.7 19,24.6 19,22.1 C19,19.5 21.1,17.5 23.6,17.5 C26.2,17.4 28.3,19.5 28.3,22.1" id="Path" fill="#FFFFFF"></path>
                <path d="M14.8,16.9 C13.9,16 13.9,14.6 14.8,13.7 L22.1,6.4 C23,5.5 24.4,5.5 25.3,6.4 L32.6,13.7 C33.5,14.6 33.5,16 32.6,16.9 C31.7,17.8 30.3,17.8 29.4,16.9 L23.7,11.2 L18,16.9 C17.1,17.8 15.7,17.8 14.8,16.9" id="Path" fill="#FFFFFF"></path>
                <path d="M32.5,27.2 C33.4,28.1 33.4,29.5 32.5,30.4 L25.2,37.7 C24.3,38.6 22.9,38.6 22,37.7 L14.7,30.4 C13.8,29.5 13.8,28.1 14.7,27.2 C15.6,26.3 17,26.3 17.9,27.2 L23.6,32.9 L29.3,27.2 C30.2,26.4 31.6,26.3 32.5,27.2" id="Path" fill="#FFFFFF"></path>
            </g>
            <g id="Group" transform="translate(0.000000, 35.000000)" fill="#FFFFFF">
                <path d="M94.2,6 C90.2,6 87.6,9.1 87.6,13.1 C87.6,17.8 90,19.8 93.7,19.8 C97.6,19.8 100.3,16.7 100.3,12.7 C100.2,8 97.7,6 94.2,6 Z M93.9,17.4 C91.7,17.4 90.5,15.8 90.5,12.8 C90.5,9.8 92.2,8.4 93.9,8.4 C96.2,8.4 97.3,10 97.3,12.8 C97.3,15.9 95.7,17.4 93.9,17.4 Z" id="Shape"></path>
                <path d="M133.4,6 C129.5,6 127.4,9 127.4,13 C127.4,17.7 129.7,19.8 133.8,19.8 C135.2,19.8 136.6,19.6 137.8,19.2 L137.9,19.2 C138.2,19.1 138.4,18.8 138.3,18.5 L138.2,17.2 L138.2,17.2 C138.2,17 138,16.9 137.7,17 L137.7,17 C136.7,17.4 135.5,17.7 134.3,17.7 C131.7,17.7 130.3,16.3 130.4,13.3 L138.3,13.3 C138.6,13.3 138.9,13.1 138.9,12.7 L138.9,12.6 C138.9,12.4 138.9,12.2 138.9,12 C138.8,8.6 137.1,6 133.4,6 Z M130.3,11.1 C130.5,9.3 131.7,8.1 133.3,8.1 C135,8.1 136,9.2 136,11.1 L130.3,11.1 Z" id="Shape"></path>
                <path d="M147.1,6 C143.2,6 141.1,9 141.1,13 C141.1,17.7 143.4,19.8 147.5,19.8 C148.9,19.8 150.3,19.6 151.5,19.2 L151.6,19.2 C151.9,19.1 152.1,18.8 152,18.5 L151.9,17.2 L151.9,17.2 C151.9,17 151.7,16.9 151.4,17 L151.4,17 C150.4,17.4 149.2,17.7 148,17.7 C145.4,17.7 144,16.3 144.1,13.3 L152,13.3 C152.3,13.3 152.6,13.1 152.6,12.7 L152.6,12.6 C152.6,12.4 152.6,12.2 152.6,12 C152.5,8.6 150.9,6 147.1,6 Z M144,11.1 C144.2,9.3 145.4,8.1 147,8.1 C148.7,8.1 149.7,9.2 149.7,11.1 L144,11.1 Z" id="Shape"></path>
                <path d="M22,6 C18.1,6 16,9 16,13 C16,17.7 18.3,19.8 22.4,19.8 C23.8,19.8 25.2,19.6 26.4,19.2 L26.5,19.2 C26.8,19.1 27,18.8 26.9,18.5 L26.8,17.2 L26.8,17.2 C26.8,17 26.6,16.9 26.3,17 L26.3,17 C25.3,17.4 24.1,17.7 22.9,17.7 C20.3,17.7 18.9,16.3 19,13.3 L26.9,13.3 C27.2,13.3 27.5,13.1 27.5,12.7 L27.5,12.6 C27.5,12.4 27.5,12.2 27.5,12 C27.4,8.6 25.8,6 22,6 Z M18.9,11.1 C19.1,9.3 20.3,8.1 21.9,8.1 C23.6,8.1 24.6,9.2 24.6,11.1 L18.9,11.1 Z" id="Shape"></path>
                <path d="M76.5,0 L72.8,0 C72.6,0 72.4,0.1 72.3,0.2 C72.1,0.4 72,0.6 72,0.9 L72,1.4 C72,1.7 72.1,1.9 72.3,2 C72.4,2.1 72.6,2.2 72.9,2.2 C72.9,2.2 74.3,2.2 74.3,2.2 L74.3,18.8 C74.3,19.1 74.6,19.4 74.9,19.4 L76.6,19.4 C76.9,19.4 77.2,19.1 77.2,18.8 L77.2,0.5 C77.1,0.3 76.8,0 76.5,0 Z" id="Path"></path>
                <path d="M66.1,6 C64.3,6 62.8,6.9 62.1,8.3 L62.1,0.6 C62.1,0.3 61.8,-7.10542736e-15 61.5,-7.10542736e-15 L57.9,-7.10542736e-15 L57.9,-7.10542736e-15 C57.7,-7.10542736e-15 57.5,0.1 57.3,0.2 C57.1,0.4 57,0.6 57,0.9 L57,1.4 C57,1.7 57.1,1.9 57.3,2 C57.4,2.1 57.6,2.2 57.9,2.2 C57.9,2.2 59.3,2.2 59.3,2.2 L59.3,18.6 C59.3,18.9 59.5,19.2 59.8,19.3 L59.9,19.3 C61.1,19.6 62.4,19.7 64,19.7 C68.4,19.7 71,16.8 71,12.2 C71,8.3 69.2,6 66.1,6 Z M64.2,17.5 C63.4,17.5 62.7,17.4 62.1,17.2 L62.1,13.1 C62.1,10.9 63.2,8.4 65.4,8.4 C67.2,8.4 68,9.9 68,12.5 C68,16.1 66.4,17.5 64.2,17.5 Z" id="Shape"></path>
                <path d="M13.8,17.4 L12.4,17.4 L12.4,0.7 C12.4,0.4 12.1,0.1 11.8,0.1 L8.2,0.1 C8,0.1 7.8,0.2 7.7,0.3 C7.5,0.5 7.4,0.7 7.4,0.9 L7.4,1.4 C7.4,1.7 7.5,1.9 7.7,2 C7.8,2.1 8,2.2 8.3,2.2 C8.3,2.2 9.7,2.2 9.7,2.2 L9.7,6.1 C9,6 8.3,6 7.7,6 C3.4,6 0.8,8.9 0.8,13.5 C0.8,17.3 2.4,19.7 5.7,19.7 C7.5,19.7 8.9,18.8 9.7,17.5 L9.7,19 C9.7,19.3 10,19.6 10.3,19.6 L14,19.6 C14.2,19.6 14.4,19.5 14.5,19.4 C14.7,19.2 14.8,19 14.8,18.7 L14.8,18.2 C14.8,18 14.7,17.8 14.6,17.6 C14.3,17.5 14.1,17.4 13.8,17.4 Z M9.6,12.9 C9.5,15.1 8.4,17.5 6.3,17.5 C4.5,17.5 3.7,16 3.7,13.3 C3.7,9.7 5.2,8.3 7.5,8.3 C8.2,8.3 8.9,8.4 9.6,8.5 L9.6,12.9 Z" id="Shape"></path>
                <path d="M83.1,0.8 C82.1,0.8 81.3,1.6 81.3,2.6 C81.3,3.6 82.1,4.4 83.1,4.4 C84.1,4.4 84.9,3.6 84.9,2.6 C84.9,1.5 84.1,0.8 83.1,0.8 Z" id="Path"></path>
                <path d="M84,6.3 L80.3,6.3 C80.1,6.3 79.9,6.4 79.8,6.5 C79.6,6.7 79.5,6.9 79.5,7.2 L79.5,7.7 C79.5,8 79.6,8.2 79.8,8.3 C79.9,8.4 80.1,8.5 80.4,8.5 C80.4,8.5 81.8,8.5 81.8,8.5 L81.8,18.8 C81.8,19.1 82.1,19.4 82.4,19.4 L84,19.4 C84.3,19.4 84.6,19.1 84.6,18.8 L84.6,6.8 C84.6,6.6 84.3,6.3 84,6.3 Z" id="Path"></path>
                <path d="M53.6,0.8 C52.6,0.8 51.8,1.6 51.8,2.6 C51.8,3.6 52.6,4.4 53.6,4.4 C54.6,4.4 55.4,3.6 55.4,2.6 C55.4,1.5 54.6,0.8 53.6,0.8 Z" id="Path"></path>
                <path d="M54.4,6.3 L50.7,6.3 C50.5,6.3 50.3,6.4 50.2,6.5 C50,6.7 49.9,6.9 49.9,7.2 L49.9,7.7 C49.9,8 50,8.2 50.2,8.3 C50.3,8.4 50.5,8.5 50.8,8.5 C50.8,8.5 52.2,8.5 52.2,8.5 L52.2,18.8 C52.2,19.1 52.5,19.4 52.8,19.4 L54.5,19.4 C54.8,19.4 55.1,19.1 55.1,18.8 L55.1,6.8 C55,6.6 54.7,6.3 54.4,6.3 Z" id="Path"></path>
                <path d="M120.3,6 C118.3,6 116.8,6.9 116,8.4 L116,0.6 C116,0.3 115.7,0 115.4,0 L111.7,0 C111.5,0 111.3,0.1 111.2,0.2 C111,0.4 110.9,0.6 110.9,0.9 L110.9,1.4 C110.9,1.7 111,1.9 111.2,2 C111.3,2.1 111.5,2.2 111.8,2.2 C111.8,2.2 113.2,2.2 113.2,2.2 L113.2,18.8 C113.2,19.1 113.5,19.4 113.8,19.4 L115.5,19.4 C115.8,19.4 116.1,19.1 116.1,18.8 L116.1,12.6 C116.2,10.1 117.7,8.2 119.6,8.2 C121.1,8.2 121.6,9.2 121.6,10.8 L121.6,18.7 C121.6,19 121.9,19.3 122.2,19.3 L123.9,19.3 C124.2,19.3 124.5,19 124.5,18.7 L124.5,10 C124.2,7.9 123.3,6 120.3,6 Z" id="Path"></path>
                <path d="M109.8,17.2 C109.8,17.2 109.6,17.2 109.6,17.2 C109.2,17.3 108.8,17.3 108.3,17.3 C107,17.3 106.6,16.8 106.6,14.8 L106.6,8.4 L109.5,8.4 C109.8,8.4 110.1,8.1 110.1,7.8 L110.1,6.8 C110.1,6.5 109.8,6.2 109.5,6.2 L106.6,6.2 L106.6,1.9 C106.6,1.6 106.4,1.4 106.1,1.4 C106.1,1.4 106,1.4 106,1.4 L104.1,1.9 C103.9,2 103.8,2.1 103.8,2.4 L103.8,6.2 L101.9,6.2 C101.6,6.2 101.3,6.5 101.3,6.8 L101.3,7.8 C101.3,8.1 101.6,8.4 101.9,8.4 L103.8,8.4 L103.8,15.6 C103.8,18.6 104.7,19.6 107.5,19.6 C108.2,19.6 108.9,19.5 109.6,19.4 L109.6,19.4 L109.7,19.4 C110.1,19.3 110.2,19 110.2,18.7 L110.2,17.4 C110.1,17.3 110,17.2 109.8,17.2 Z" id="Path"></path>
                <path d="M166.4,19.1 L161.5,12.4 L166,6.8 C166.2,6.5 166.1,6.3 165.8,6.3 L163.5,6.3 C162.9,6.3 162.7,6.5 162.5,6.8 L158.6,12 L158.6,0.7 C158.6,0.4 158.3,0.1 158,0.1 L154.3,0.1 C154.1,0.1 153.9,0.2 153.8,0.3 C153.6,0.5 153.5,0.7 153.5,1 L153.5,1.5 C153.5,1.8 153.6,2 153.8,2.1 C153.9,2.2 154.1,2.3 154.4,2.3 C154.4,2.3 155.8,2.3 155.8,2.3 L155.8,18.9 C155.8,19.2 156.1,19.5 156.4,19.5 L158.1,19.5 C158.4,19.5 158.7,19.2 158.7,18.9 L158.7,12.8 L162.9,19 C163.1,19.3 163.2,19.5 163.8,19.5 L166.2,19.5 C166.4,19.5 166.5,19.3 166.4,19.1 Z" id="Path"></path>
                <path d="M44.8,10 L44.8,10 C46.6,9.3 47.9,7.7 47.9,5.8 C47.9,3 45.9,1.4 42,1.4 C40.9,1.4 36.9,1.4 36.9,1.4 C36.6,1.4 36.3,1.7 36.3,2 L36.3,19 C36.3,19.3 36.6,19.6 36.9,19.6 C36.9,19.6 40.1,19.6 41.2,19.6 C46.7,19.6 48.3,16.4 48.3,14.1 C48.2,12.2 47.2,10.5 44.8,10 Z M39.2,3.8 C39.4,3.8 40.7,3.8 41.4,3.8 C44,3.8 44.8,4.8 44.8,6.3 C44.8,8.1 43.4,9.2 40.7,9.2 C40.1,9.2 39.7,9.2 39.2,9.2 L39.2,3.8 Z M41.3,17.3 C40.5,17.3 39.5,17.3 39.2,17.3 L39.2,11.4 C39.6,11.4 40.5,11.4 40.8,11.4 C43.3,11.4 45.2,12.1 45.2,14.2 C45.2,16 43.9,17.3 41.3,17.3 Z" id="Shape"></path>
            </g>
        </g>
    </g>
</svg>