<?xml version="1.0" encoding="utf-8"?>
<!-- Generator: Adobe Illustrator 23.0.1, SVG Export Plug-In . SVG Version: 6.00 Build 0)  -->
<svg version="1.1" id="Layer_1" xmlns="http://www.w3.org/2000/svg" xmlns:xlink="http://www.w3.org/1999/xlink" x="0px" y="0px"
	 viewBox="0 0 51 51" style="enable-background:new 0 0 51 51;" xml:space="preserve">
<style type="text/css">
	.st0{fill:#3CC382;}
	.st1{fill:#F07DB9;}
	.st2{fill:#FF7320;}
	.st3{fill:#FFFFFF;}
	.st4{fill:#B84040;}
	.st5{fill:#0987B4;}
	.st6{fill:#B45E8B;}
	.st7{fill:#2D8F62;}
	.st8{fill:#BF9B23;}
	.st9{fill:none;stroke:#B45E8B;}
</style>
<g>
	<path class="st4" d="M27.4,18.3c0-1,0.7-1.2,1.1-1.2h2.9v-4.4l-3.9,0c-4.4,0-5.4,3.3-5.4,5.4V21h-2.5v4.5h2.5v12.8h5.3V25.5H31
		l0.5-4.5h-4V18.3z"/>
	<path class="st4" d="M25.5,0.5c-13.8,0-25,11.2-25,25s11.2,25,25,25c13.8,0,25-11.2,25-25S39.3,0.5,25.5,0.5z M25.5,48.5
		c-12.7,0-23-10.3-23-23c0-12.7,10.3-23,23-23s23,10.3,23,23C48.5,38.2,38.2,48.5,25.5,48.5z"/>
</g>
</svg>
