<?xml version="1.0" encoding="utf-8"?>
<!-- Generator: Adobe Illustrator 23.0.1, SVG Export Plug-In . SVG Version: 6.00 Build 0)  -->
<svg version="1.1" id="Layer_1" xmlns="http://www.w3.org/2000/svg" xmlns:xlink="http://www.w3.org/1999/xlink" x="0px" y="0px"
	 viewBox="0 0 51 51" style="enable-background:new 0 0 51 51;" xml:space="preserve">
<style type="text/css">
	.st0{fill:#3CC382;}
	.st1{fill:#F07DB9;}
	.st2{fill:#FF7320;}
	.st3{fill:#FFFFFF;}
	.st4{fill:#B84040;}
	.st5{fill:#0987B4;}
	.st6{fill:#B45E8B;}
	.st7{fill:#2D8F62;}
	.st8{fill:#BF9B23;}
	.st9{fill:none;stroke:#B45E8B;}
</style>
<g>
	<path class="st4" d="M25.5,0.5c-13.8,0-25,11.2-25,25s11.2,25,25,25c13.8,0,25-11.2,25-25S39.3,0.5,25.5,0.5z M25.5,48.5
		c-12.7,0-23-10.3-23-23s10.3-23,23-23s23,10.3,23,23S38.2,48.5,25.5,48.5z"/>
	<path class="st4" d="M25.5,18.9c-3.6,0-6.6,3-6.6,6.6s3,6.6,6.6,6.6c3.6,0,6.6-3,6.6-6.6S29.1,18.9,25.5,18.9z M25.5,29.5
		c-2.2,0-4-1.8-4-4c0-2.2,1.8-4,4-4c2.2,0,4,1.8,4,4C29.5,27.7,27.7,29.5,25.5,29.5z"/>
	<path class="st4" d="M32.1,17.4c-0.9,0-1.6,0.7-1.6,1.6c0,0.9,0.7,1.6,1.6,1.6c0.9,0,1.6-0.7,1.6-1.6C33.7,18.1,33,17.4,32.1,17.4z
		"/>
	<path class="st4" d="M30.7,12.7H20.3c-4.2,0-7.6,3.4-7.6,7.6v10.3c0,4.2,3.4,7.6,7.6,7.6h10.3c4.2,0,7.6-3.4,7.6-7.6V20.3
		C38.3,16.1,34.9,12.7,30.7,12.7z M35.7,30.7c0,2.8-2.3,5-5,5H20.3c-2.8,0-5-2.3-5-5V20.3c0-2.8,2.3-5,5-5h10.3c2.8,0,5,2.3,5,5
		V30.7z"/>
</g>
</svg>
