<?xml version="1.0" encoding="utf-8"?>
<!-- Generator: Adobe Illustrator 23.0.1, SVG Export Plug-In . SVG Version: 6.00 Build 0)  -->
<svg version="1.1" id="Layer_1" xmlns="http://www.w3.org/2000/svg" xmlns:xlink="http://www.w3.org/1999/xlink" x="0px" y="0px"
	 viewBox="0 0 51 51" style="enable-background:new 0 0 51 51;" xml:space="preserve">
<style type="text/css">
	.st0{fill:#3CC382;}
	.st1{fill:#F07DB9;}
	.st2{fill:#FF7320;}
	.st3{fill:#FFFFFF;}
	.st4{fill:#B84040;}
	.st5{fill:#0987B4;}
	.st6{fill:#B45E8B;}
	.st7{fill:#2D8F62;}
	.st8{fill:#BF9B23;}
	.st9{fill:none;stroke:#B45E8B;}
</style>
<g>
	<path class="st4" d="M25.5,0.5c-13.8,0-25,11.2-25,25s11.2,25,25,25c13.8,0,25-11.2,25-25S39.3,0.5,25.5,0.5z M25.5,48.5
		c-12.7,0-23-10.3-23-23s10.3-23,23-23s23,10.3,23,23S38.2,48.5,25.5,48.5z"/>
	<path class="st4" d="M18,12.8c-1.7,0-2.7,1.1-2.7,2.5c0,1.4,1.1,2.5,2.7,2.5h0c1.7,0,2.7-1.1,2.7-2.5C20.7,13.8,19.6,12.8,18,12.8z
		"/>
	<path class="st4" d="M32.3,19.4c-2.6,0-3.7,1.4-4.4,2.4v-2.1h-4.8c0.1,1.4,0,14.5,0,14.5h4.8v-8.1c0-0.4,0-0.9,0.2-1.2
		c0.3-0.9,1.1-1.8,2.5-1.8c1.8,0,2.5,1.3,2.5,3.3v7.8h4.8v-8.3C37.9,21.5,35.5,19.4,32.3,19.4z"/>
	<rect x="15.5" y="19.7" class="st4" width="4.8" height="14.5"/>
</g>
</svg>
