<?xml version="1.0" encoding="utf-8"?>
<!-- Generator: Adobe Illustrator 23.0.1, SVG Export Plug-In . SVG Version: 6.00 Build 0)  -->
<svg version="1.1" id="Layer_1" xmlns="http://www.w3.org/2000/svg" xmlns:xlink="http://www.w3.org/1999/xlink" x="0px" y="0px"
	 viewBox="0 0 51 51" style="enable-background:new 0 0 51 51;" xml:space="preserve">
<style type="text/css">
	.st0{fill:#3CC382;}
	.st1{fill:#F07DB9;}
	.st2{fill:#FF7320;}
	.st3{fill:#FFFFFF;}
	.st4{fill:#B84040;}
	.st5{fill:#0987B4;}
	.st6{fill:#B45E8B;}
	.st7{fill:#2D8F62;}
	.st8{fill:#BF9B23;}
	.st9{fill:none;stroke:#B45E8B;}
</style>
<g>
	<path class="st4" d="M25.5,0.5c-13.8,0-25,11.2-25,25s11.2,25,25,25c13.8,0,25-11.2,25-25S39.3,0.5,25.5,0.5z M25.5,48.5
		c-12.7,0-23-10.3-23-23s10.3-23,23-23s23,10.3,23,23S38.2,48.5,25.5,48.5z"/>
	<path class="st4" d="M37.1,15.9c-1,0.6-2.1,1-3.2,1.2c-0.9-1-2.2-1.6-3.7-1.6c-2.8,0-5.1,2.3-5.1,5c0,0.4,0,0.8,0.1,1.2
		c-4.2-0.2-7.9-2.2-10.4-5.3c-0.4,0.7-0.7,1.6-0.7,2.5c0,1.8,0.9,3.3,2.2,4.2c-0.8,0-1.6-0.2-2.3-0.6c0,0,0,0,0,0.1
		c0,2.4,1.7,4.5,4.1,5c-0.4,0.1-0.9,0.2-1.3,0.2c-0.3,0-0.6,0-0.9-0.1c0.6,2,2.5,3.5,4.7,3.5c-1.7,1.4-3.9,2.2-6.3,2.2
		c-0.4,0-0.8,0-1.2-0.1c2.2,1.4,4.9,2.3,7.7,2.3c9.3,0,14.4-7.7,14.4-14.4c0-0.2,0-0.4,0-0.7c1-0.7,1.8-1.6,2.5-2.6
		c-0.9,0.4-1.9,0.7-2.9,0.8C36,18,36.8,17,37.1,15.9z"/>
</g>
</svg>
