<?xml version="1.0" encoding="utf-8"?>
<!-- Generator: Adobe Illustrator 23.0.1, SVG Export Plug-In . SVG Version: 6.00 Build 0)  -->
<svg version="1.1" id="Layer_1" xmlns="http://www.w3.org/2000/svg" xmlns:xlink="http://www.w3.org/1999/xlink" x="0px" y="0px"
	 viewBox="0 0 190 190" style="enable-background:new 0 0 190 190;" xml:space="preserve">
<style type="text/css">
	.st0{fill:#3CC382;}
	.st1{fill:#F07DB9;}
	.st2{fill:#FF7320;}
	.st3{fill:#FFFFFF;}
	.st4{fill:#B84040;}
	.st5{font-family:'TheMix-B7Bold';}
	.st6{font-size:17px;}
	.st7{fill:#0987B4;}
	.st8{fill:#B45E8B;}
	.st9{fill:#2D8F62;}
	.st10{fill:#BF9B23;}
	.st11{fill:none;stroke:#B45E8B;}
</style>
<text transform="matrix(1 0 0 1 159.7534 79.3667)" class="st4 st5 st6"> </text>
<g>
	<path class="st4" d="M36.4,70.9c0-0.8,0.6-1.4,1.9-1.4c0.7,0,1.3,0.1,2,0.3l0.2-1.9c-0.6-0.1-1.4-0.2-2.1-0.2
		c-2.8,0-4.3,1.4-4.3,3.5c0,3.8,4.8,2.8,4.8,5c0,1.1-0.9,1.5-1.9,1.5c-0.9,0-1.8-0.2-2.5-0.5l-0.2,2.1c0.8,0.2,1.6,0.3,2.7,0.3
		c2.7,0,4.4-1.6,4.4-3.7C41.3,72.2,36.4,73,36.4,70.9z"/>
	<path class="st4" d="M43.5,76.9c0,2,0.6,2.7,2.4,2.7c0.6,0,1.3-0.1,1.8-0.2l-0.2-1.7c-0.3,0.1-0.6,0.1-1,0.1c-0.7,0-1-0.3-1-1.4
		v-3.7h2.1v-1.7h-2.1v-3.2l-2.2,0.6v2.6H42v1.7h1.5V76.9z"/>
	<path class="st4" d="M56.1,79l-0.2-1.6c-0.8,0.3-1.6,0.5-2.4,0.5c-1.6,0-2.3-0.8-2.3-2.3h5.2c0.1-0.4,0.1-0.7,0.1-1
		c0-2.1-1.1-3.8-3.6-3.8c-2.5,0-4,1.9-4,4.5c0,3,1.5,4.3,4.2,4.3C54.1,79.5,55.2,79.3,56.1,79z M52.8,72.3c0.9,0,1.5,0.6,1.5,1.7
		h-3.1C51.3,73,51.9,72.3,52.8,72.3z"/>
	<path class="st4" d="M58.3,79.4h2.2V66.9c-1.3,0-2.6,0-3.7,0.2v1.4c0.5,0,1.1,0.1,1.5,0.2V79.4z"/>
	<path class="st4" d="M69.9,79.5c2.5,0,4.3-1.9,4.3-4.6c0-2.9-1.5-4.2-3.9-4.2c-2.6,0-4.3,1.9-4.3,4.5
		C65.9,78.3,67.5,79.5,69.9,79.5z M70.1,72.6c1.3,0,1.9,0.9,1.9,2.5c0,1.7-0.8,2.6-1.9,2.6c-1.3,0-1.9-0.9-1.9-2.6
		C68.2,73.3,69.1,72.6,70.1,72.6z"/>
	<path class="st4" d="M76.5,79.4h2.2v-4.1c0-1.5,0.9-2.7,2-2.7c0.8,0,1,0.5,1,1.4v5.4h2.2v-5.9c0-1.5-0.6-2.7-2.5-2.7
		c-1.4,0-2.4,0.7-2.9,1.7h0c0.1-0.5,0.1-1.1,0.1-1.5c-1.1,0-2.4,0-3.5,0.2v1.4c0.5,0,1.1,0.1,1.5,0.2V79.4z"/>
	<path class="st4" d="M89.2,76.9c0,0.5-0.5,0.9-1.4,0.9c-0.6,0-1.3-0.1-1.8-0.3l-0.2,1.8c0.5,0.2,1.2,0.2,1.9,0.2
		c2.2,0,3.7-1.1,3.7-2.8c0-2.8-3.5-2.1-3.5-3.5c0-0.5,0.4-0.9,1.2-0.9c0.5,0,1.1,0.1,1.5,0.2l0.1-1.7c-0.5-0.1-1.1-0.2-1.5-0.2
		c-2.4,0-3.6,1.2-3.6,2.7C85.7,76.3,89.2,75.4,89.2,76.9z"/>
	<path class="st4" d="M98.7,69.7c0.7,0,1.3-0.6,1.3-1.3c0-0.7-0.6-1.3-1.3-1.3c-0.7,0-1.4,0.6-1.4,1.3S97.9,69.7,98.7,69.7z"/>
	<path class="st4" d="M99.7,80v-9.1c-1.3,0-2.6,0-3.7,0.2v1.4c0.5,0,1.1,0.1,1.5,0.2v7.6c0,1.2-0.3,1.5-1.2,1.5
		c-0.3,0-0.7-0.1-1-0.2l-0.1,1.9c0.4,0.1,0.8,0.2,1.2,0.2C98.9,83.6,99.7,82.3,99.7,80z"/>
	<path class="st4" d="M105.7,79.5c1,0,2.1-0.2,3.1-0.6l-0.2-1.6c-0.8,0.3-1.6,0.5-2.4,0.5c-1.6,0-2.3-0.8-2.3-2.3h5.2
		c0.1-0.4,0.1-0.7,0.1-1c0-2.1-1.1-3.8-3.6-3.8c-2.5,0-4,1.9-4,4.5C101.5,78.2,103,79.5,105.7,79.5z M105.4,72.3
		c0.9,0,1.5,0.6,1.5,1.7h-3.1C103.9,73,104.5,72.3,105.4,72.3z"/>
	<path class="st4" d="M118.7,79.4l3.2-8.4h-2.3l-1.4,3.9c-0.2,0.6-0.4,1.2-0.5,1.8h0c-0.2-0.6-0.4-1.3-0.6-1.9l-1.3-3.8h-2.4
		l3.1,8.4H118.7z"/>
	<path class="st4" d="M123.8,79.4h2.2v-3.5c0-2.3,0.8-3.4,2.4-3l0.1-2.1c-1.5-0.1-2.3,0.8-2.7,1.9h0c0.1-0.6,0.2-1.3,0.2-1.7
		c-1.1,0-2.4,0-3.5,0.2v1.4c0.5,0,1.1,0.1,1.5,0.2V79.4z"/>
	<path class="st4" d="M129,77.2c0,1.4,0.9,2.3,2.4,2.3c1.3,0,2.3-0.7,2.7-1.6l0,0c-0.1,0.4-0.1,1-0.1,1.4c1.1,0,2.4,0,3.5-0.2v-1.4
		c-0.5,0-1.1-0.1-1.5-0.2v-4c0-1.9-0.8-2.9-3.5-2.9c-1,0-2.2,0.2-3,0.5l0.3,1.8c0.7-0.4,1.7-0.6,2.5-0.6c1.2,0,1.6,0.5,1.6,1.3v0.4
		C131.1,74.2,129,75.2,129,77.2z M133.9,75.8c0,1-0.7,2-1.8,2c-0.6,0-1-0.4-1-1c0-0.7,0.6-1.3,2.8-1.3V75.8z"/>
	<path class="st4" d="M138.4,77.2c0,1.4,0.9,2.3,2.4,2.3c1.3,0,2.3-0.7,2.7-1.6l0,0c-0.1,0.4-0.1,1-0.1,1.4c1.1,0,2.4,0,3.5-0.2
		v-1.4c-0.5,0-1.1-0.1-1.5-0.2v-4c0-1.9-0.8-2.9-3.5-2.9c-1,0-2.2,0.2-3,0.5l0.3,1.8c0.7-0.4,1.7-0.6,2.5-0.6c1.2,0,1.6,0.5,1.6,1.3
		v0.4C140.4,74.2,138.4,75.2,138.4,77.2z M143.3,75.8c0,1-0.7,2-1.8,2c-0.6,0-1-0.4-1-1c0-0.7,0.6-1.3,2.8-1.3V75.8z"/>
	<path class="st4" d="M150.9,79.5c1.1,0,2.1-0.6,2.5-1.6h0c-0.1,0.4-0.1,0.8-0.1,1.2v0.4c0,1.5-0.8,2.1-2.4,2.1
		c-0.8,0-1.8-0.2-2.5-0.5l-0.2,2c0.7,0.2,1.6,0.3,2.6,0.3c3.8,0,4.7-2,4.7-4V71c-0.9-0.2-1.9-0.3-3.1-0.3c-3,0-4.6,2-4.6,4.8
		C147.8,78.2,148.9,79.5,150.9,79.5z M152.2,72.5c0.4,0,0.8,0,1.1,0.1v2.3c0,1.5-0.7,2.8-1.8,2.8c-1,0-1.4-0.8-1.4-2.4
		C150,73.3,150.9,72.5,152.2,72.5z"/>
	<path class="st4" d="M35.8,92.7c-2.6,0-4.3,1.9-4.3,4.5c0,3,1.5,4.2,3.9,4.2c2.5,0,4.3-1.9,4.3-4.6C39.8,94.1,38.2,92.7,35.8,92.7z
		 M35.6,99.7c-1.3,0-1.9-0.9-1.9-2.6c0-1.7,1-2.5,1.9-2.5c1.3,0,1.9,0.9,1.9,2.5C37.5,98.8,36.7,99.7,35.6,99.7z"/>
	<path class="st4" d="M46.7,92.7c-1.3,0-2.2,0.6-2.7,1.6h0c0.1-0.4,0.1-1,0.1-1.4c-1.1,0-2.4,0-3.5,0.2v1.4c0.5,0,1.1,0.1,1.5,0.2
		v10.9h2.2v-4c0.4,0.1,0.7,0.1,1.1,0.1c2.9,0,4.5-1.9,4.5-4.8C49.8,94.2,48.7,92.7,46.7,92.7z M45.4,99.8c-0.4,0-0.8-0.1-1.1-0.2
		v-2.3c0-1.4,0.7-2.8,1.8-2.8c1,0,1.4,0.8,1.4,2.4C47.5,99,46.6,99.8,45.4,99.8z"/>
	<path class="st4" d="M69.3,89.9h-2.2l-1.6,6.4c-0.2,0.7-0.3,1.4-0.4,2.2h0c-0.1-0.8-0.3-1.6-0.5-2.2l-1.8-6.4h-2.3l-1.8,6.4
		c-0.2,0.7-0.3,1.5-0.4,2.3h0c-0.1-0.8-0.2-1.6-0.4-2.3l-1.6-6.3H54l2.9,11.5h2.6l1.7-6.4c0.2-0.8,0.3-1.5,0.4-2.3h0
		c0.1,0.8,0.2,1.6,0.4,2.4l1.7,6.3h2.7L69.3,89.9z"/>
	<path class="st4" d="M75.7,94.6c0.8,0,1.1,0.5,1.1,1.4v5.4h2.2v-5.9c0-1.5-0.6-2.7-2.5-2.7c-1.3,0-2.3,0.6-2.8,1.6h0
		c0.1-0.5,0.2-1.2,0.2-1.7v-3.7c-1.3,0-2.6,0-3.7,0.2v1.4c0.5,0,1.1,0.1,1.5,0.2v10.7h2.2v-4.1C73.7,95.8,74.5,94.6,75.7,94.6z"/>
	<path class="st4" d="M89.2,101.2v-1.4c-0.5,0-1.1-0.1-1.5-0.2v-4c0-1.9-0.8-2.9-3.5-2.9c-1,0-2.2,0.2-3,0.5l0.3,1.8
		c0.7-0.4,1.7-0.6,2.5-0.6c1.2,0,1.6,0.5,1.6,1.3v0.4c-2.9,0-4.9,1.1-4.9,3.1c0,1.4,0.9,2.3,2.4,2.3c1.3,0,2.3-0.7,2.7-1.6l0,0
		c-0.1,0.4-0.1,1-0.1,1.4C86.9,101.4,88.2,101.4,89.2,101.2z M85.6,97.8c0,1-0.7,2-1.8,2c-0.6,0-1-0.4-1-1c0-0.7,0.6-1.3,2.8-1.3
		V97.8z"/>
	<path class="st4" d="M94.1,99.7c-0.7,0-1-0.3-1-1.4v-3.7h2.1v-1.7h-2.1v-3.2L91,90.3v2.6h-1.5v1.7H91v4.3c0,2,0.6,2.7,2.4,2.7
		c0.6,0,1.3-0.1,1.8-0.2l-0.2-1.7C94.8,99.7,94.5,99.7,94.1,99.7z"/>
	<path class="st4" d="M96.5,95.4c0,2.9,3.4,2,3.4,3.5c0,0.5-0.5,0.9-1.4,0.9c-0.6,0-1.3-0.1-1.8-0.3l-0.2,1.8
		c0.5,0.2,1.2,0.2,1.9,0.2c2.2,0,3.7-1.1,3.7-2.8c0-2.8-3.5-2.1-3.5-3.5c0-0.5,0.4-0.9,1.2-0.9c0.5,0,1.1,0.1,1.5,0.2l0.1-1.7
		c-0.5-0.1-1.1-0.2-1.5-0.2C97.6,92.7,96.5,93.9,96.5,95.4z"/>
	<path class="st4" d="M112,101.2v-1.4c-0.5,0-1.1-0.1-1.5-0.2v-4c0-1.9-0.8-2.9-3.5-2.9c-1,0-2.2,0.2-3,0.5l0.3,1.8
		c0.7-0.4,1.7-0.6,2.5-0.6c1.2,0,1.6,0.5,1.6,1.3v0.4c-2.9,0-4.9,1.1-4.9,3.1c0,1.4,0.9,2.3,2.4,2.3c1.3,0,2.3-0.7,2.7-1.6l0,0
		c-0.1,0.4-0.1,1-0.1,1.4C109.6,101.4,110.9,101.4,112,101.2z M108.4,97.8c0,1-0.7,2-1.8,2c-0.6,0-1-0.4-1-1c0-0.7,0.6-1.3,2.8-1.3
		V97.8z"/>
	<path class="st4" d="M121.7,96.7c0-2.5-1.1-3.9-3.1-3.9c-1.3,0-2.2,0.6-2.7,1.6h0c0.1-0.4,0.1-1,0.1-1.4c-1.1,0-2.4,0-3.5,0.2v1.4
		c0.5,0,1.1,0.1,1.5,0.2v10.9h2.2v-4c0.4,0.1,0.7,0.1,1.1,0.1C120.1,101.5,121.7,99.6,121.7,96.7z M117.3,99.8
		c-0.4,0-0.8-0.1-1.1-0.2v-2.3c0-1.4,0.7-2.8,1.8-2.8c1,0,1.4,0.8,1.4,2.4C119.4,99,118.5,99.8,117.3,99.8z"/>
	<path class="st4" d="M128.6,92.7c-1.3,0-2.2,0.6-2.7,1.6h0c0.1-0.4,0.1-1,0.1-1.4c-1.1,0-2.4,0-3.5,0.2v1.4c0.5,0,1.1,0.1,1.5,0.2
		v10.9h2.2v-4c0.4,0.1,0.7,0.1,1.1,0.1c2.9,0,4.5-1.9,4.5-4.8C131.7,94.2,130.6,92.7,128.6,92.7z M127.3,99.8
		c-0.4,0-0.8-0.1-1.1-0.2v-2.3c0-1.4,0.7-2.8,1.8-2.8c1,0,1.4,0.8,1.4,2.4C129.4,99,128.5,99.8,127.3,99.8z"/>
	<path class="st4" d="M144.6,92.9h-2.3l-1.4,3.9c-0.2,0.6-0.4,1.2-0.5,1.8h0c-0.2-0.6-0.4-1.3-0.6-1.9l-1.3-3.8h-2.4l3.1,8.4h2.2
		L144.6,92.9z"/>
	<path class="st4" d="M148.5,101.4v-8.5c-1.3,0-2.6,0-3.6,0.2v1.4c0.5,0,1.1,0.1,1.5,0.2v6.8H148.5z"/>
	<path class="st4" d="M146.1,90.3c0,0.7,0.6,1.3,1.3,1.3c0.7,0,1.4-0.6,1.4-1.3c0-0.7-0.6-1.3-1.4-1.3
		C146.7,89,146.1,89.6,146.1,90.3z"/>
	<path class="st4" d="M157.4,99.7v-4c0-1.9-0.8-2.9-3.5-2.9c-1,0-2.2,0.2-3,0.5l0.3,1.8c0.7-0.4,1.7-0.6,2.5-0.6
		c1.2,0,1.6,0.5,1.6,1.3v0.4c-2.9,0-4.9,1.1-4.9,3.1c0,1.4,0.9,2.3,2.4,2.3c1.3,0,2.3-0.7,2.7-1.6l0,0c-0.1,0.4-0.1,1-0.1,1.4
		c1.1,0,2.4,0,3.5-0.2v-1.4C158.4,99.8,157.8,99.8,157.4,99.7z M155.2,97.8c0,1-0.7,2-1.8,2c-0.6,0-1-0.4-1-1c0-0.7,0.6-1.3,2.8-1.3
		V97.8z"/>
	<path class="st4" d="M45.6,112.1c-2.4,0-4.2,1.8-4.2,5.7c0,4.4,1.5,5.8,4,5.8c2.2,0,4.2-1.7,4.2-5.8
		C49.6,113.6,48.1,112.1,45.6,112.1z M45.5,121.7c-1.3,0-1.7-0.9-1.7-4c0-2.9,0.7-3.8,1.7-3.8c1.2,0,1.7,0.7,1.7,3.9
		C47.2,120.7,46.6,121.7,45.5,121.7z"/>
	<path class="st4" d="M55.5,116.3c-1.1,0-1.9,0.4-2.4,1.1h0c0.1-0.3,0.1-0.5,0.2-0.7c0.4-1.7,1.5-2.7,3.3-2.7c0.5,0,0.9,0,1.4,0.1
		v-1.9c-0.4-0.1-0.8-0.1-1.3-0.1c-3.5,0-5.8,2.2-5.8,6.6c0,3.2,1.6,4.8,4,4.8c2.4,0,4-1.5,4-4C58.9,117.8,57.7,116.3,55.5,116.3z
		 M55,121.8c-1.2,0-1.9-0.9-1.9-2c0-0.8,0.7-1.7,1.8-1.7c1.2,0,1.8,0.7,1.8,1.8C56.7,121,56.1,121.8,55,121.8z"/>
	<polygon class="st4" points="69.4,112.3 67.7,112.3 64.3,113.5 64.7,115.5 67.1,114.6 67.1,121.4 64.4,121.4 64.4,123.4 
		71.8,123.4 71.8,121.4 69.4,121.4 	"/>
	<path class="st4" d="M78.6,117.4L78.6,117.4c1.2-0.4,1.9-1.3,1.9-2.5c0-1.6-1.2-2.7-3.7-2.7c-1.2,0-2.2,0.2-3,0.5l0.2,1.8
		c0.6-0.3,1.4-0.6,2.4-0.6c1.2,0,1.8,0.5,1.8,1.3c0,1.2-1.4,1.7-3.5,1.7h-0.5v1.7c0.6-0.1,1.1-0.1,1.7-0.1c1.7,0,2.4,0.6,2.4,1.6
		c0,1-0.8,1.6-2.4,1.6c-0.8,0-1.5-0.1-2.1-0.3l-0.2,1.9c0.5,0.2,1.4,0.3,2.2,0.3c2.9,0,4.9-1.4,4.9-3.7
		C80.8,118.6,79.9,117.5,78.6,117.4z"/>
	<path class="st4" d="M86.5,114.4H88c1.3,0,3.2,0,3.7,0c-1.3,2.4-2.8,6-3.8,9h2.5c0.8-2.7,2.2-6.2,3.8-9.2v-1.9h-7.6V114.4z"/>
	<polygon class="st4" points="101.2,112.3 99.5,112.3 96.1,113.5 96.4,115.5 98.9,114.6 98.9,121.4 96.1,121.4 96.1,123.4 
		103.6,123.4 103.6,121.4 101.2,121.4 	"/>
	<path class="st4" d="M112.7,112.1c-2.3,0-4,1.5-4,3.9c0,1.9,1.2,3.3,3.5,3.3c1,0,1.8-0.4,2.4-1h0c-0.1,0.3-0.1,0.4-0.2,0.7
		c-0.4,1.7-1.4,2.6-3.3,2.6c-0.6,0-1.1-0.1-1.7-0.2v1.9c0.5,0.1,1.1,0.1,1.6,0.1c3.5,0,5.8-2.1,5.8-6.6
		C116.7,113.6,115.1,112.1,112.7,112.1z M112.6,117.6c-1.1,0-1.8-0.7-1.8-1.8c0-1,0.6-1.9,1.7-1.9c1.2,0,1.8,0.8,1.8,2
		C114.3,116.8,113.7,117.6,112.6,117.6z"/>
	<path class="st4" d="M121.6,116.5c-0.2,0-0.5,0-0.7,0v-2.2h4.3v-2h-6.3v6.1c0.5-0.1,1.2-0.1,1.9-0.1c1.5,0,2.5,0.6,2.5,1.7
		c0,1.1-0.8,1.8-2.3,1.8c-0.9,0-1.6-0.1-2.3-0.3v2c0.6,0.2,1.3,0.2,2.1,0.2c2.9,0,4.9-1.5,4.9-3.9
		C125.7,117.8,124.3,116.5,121.6,116.5z"/>
	<path class="st4" d="M135.1,112.1c-2.3,0-4,1.5-4,3.9c0,1.9,1.2,3.3,3.5,3.3c1,0,1.8-0.4,2.4-1h0c-0.1,0.3-0.1,0.4-0.2,0.7
		c-0.4,1.7-1.4,2.6-3.3,2.6c-0.6,0-1.1-0.1-1.7-0.2v1.9c0.5,0.1,1.1,0.1,1.6,0.1c3.5,0,5.8-2.1,5.8-6.6
		C139.1,113.6,137.5,112.1,135.1,112.1z M135,117.6c-1.1,0-1.8-0.7-1.8-1.8c0-1,0.6-1.9,1.7-1.9c1.2,0,1.8,0.8,1.8,2
		C136.7,116.8,136.1,117.6,135,117.6z"/>
	<path class="st4" d="M147.3,112.3h-3l-4.2,6.8l0.2,1.8h4.8v2.4h2.1V121h1.5v-2h-1.5V112.3z M145.2,119c-0.5,0-2.1,0-2.9,0l2.8-4.6
		h0V119z"/>
	<path class="st4" d="M94.9,4.9c-49.6,0-90,40.4-90,90s40.4,90,90,90s90-40.4,90-90S144.5,4.9,94.9,4.9z M94.9,182.9
		c-48.5,0-88-39.5-88-88c0-48.5,39.5-88,88-88s88,39.5,88,88C182.9,143.4,143.4,182.9,94.9,182.9z"/>
</g>
</svg>
