<?xml version="1.0" encoding="utf-8"?>
<!-- Generator: Adobe Illustrator 23.0.1, SVG Export Plug-In . SVG Version: 6.00 Build 0)  -->
<svg version="1.1" id="Layer_1" xmlns="http://www.w3.org/2000/svg" xmlns:xlink="http://www.w3.org/1999/xlink" x="0px" y="0px"
	 viewBox="0 0 340 340" style="enable-background:new 0 0 340 340;" xml:space="preserve">
<style type="text/css">
	.st0{fill:#3CC382;}
	.st1{fill:#F07DB9;}
	.st2{fill:#FF7320;}
	.st3{fill:#FFFFFF;}
	.st4{fill:#B84040;}
	.st5{fill:#0987B4;}
	.st6{fill:#B45E8B;}
	.st7{fill:#2D8F62;}
	.st8{fill:#BF9B23;}
	.st9{fill:none;stroke:#B45E8B;}
</style>
<path class="st5" d="M338.2,210.2l0.3-4.2l-2.9-1.4l-1.2-3.6l-1-4l-2.9,0.1l-1.2-1.6v-2.9l-4.4-6.4l1.9-2.5l-2.4-3.1l3.4-5.8
	l-1.9-3.8l-0.8-3.4l-5.1-3.2l-3.6-2v-3.9l-1.9-0.1l-1-4.1l-1.6-1.5l2.1-5.2l-4.1-0.4c0.3-0.9,0.6-2.6-0.1-3.6
	c-0.3-0.4-0.8-0.8-1.7-0.8c-2.6,0-7.5-1.7-7.5-1.7c0,0,0,0,0,0l-5-2.8l-0.7-3.2h-2l-1.3-1.8l-3-1.2l-2.1-4.7l-5-3.1l0-0.3h0
	l-0.1-0.8l0-0.2h0l-0.3-2l-4-0.8l-2.1-3.1h0l-3.4-4.9l2.7-0.3l-4.1-4.4l1.8-16.4l-2-5.2l3.4,0.1l-8-12.7l4.4-7l1.1-6.5L275,63
	l1.6-5.8l2.3-0.8v-6.5l5.3-5.7l-1-0.1c0,0-2.2-0.3-3.7-3.7l-1.6-3.7l-2.7-2.4l-54.9,1.5l0,0l-1-0.2l0,0l-6.6-1.3l-8.8,3.2
	c-0.9,0.4-2.5,1-3.2,0.7c-0.2-0.1-0.3-0.1-0.3-0.3c-0.7-1.6-1.8-3.3-1.9-3.4l-0.2-0.2l-0.3,0c-0.9,0.1-22.3,1.9-27.3,3l-0.4,0.1v0
	l-0.6,0.2c-6.8,1.7-26.2,6.9-34.6,11.1c-9,4.5-17.8,8.8-17.9,8.9l-17.9,11l-1,0.3l-0.1-0.1l-0.3,0.2l-0.7,0.2l0,0l-8.6,2.3
	c-0.8-1.3-3.7-5.6-7.1-5.7c-3.5-0.1-6.1,2.8-7.1,3.9c-0.1,0.1-0.2,0.3-0.3,0.3c-0.4,0.2-2.5,0-4.6-0.5l-0.6-0.1v4.2l3.2,5l1.6,1.1
	l0.3,0.2l0.3-0.1c0,0,0.3,0.2,0.3,1.3c0,2.1-2.6,7.7-2.6,7.7l0,1.8l-0.9,1.5l-2.7,8.4l-6.2,1.6l-1.7,7.5l-5.7,3.6l0.9,4.2l-6,1.8
	l-10.7,9.2l-16.4-5l-3.8,18.3l-7.1-2.7L0.4,157.6l5.8,9.4l0.4,20.5l-6.1,11v3.2l9.4,5.9v2l7.7-2.3l0.3-4.3c1.8-1.1,6.1-3.4,7.8-3
	c2.1,0.6,3.2,2.9,3.2,2.9L29,203l11.6,3.3l-0.1,3h3.3l12.4-7.5l10.7,11.3l0.1,0.1l11.8,4l0.2-0.4c2.5-5.6,5.9-11.8,6.8-12
	c0.9,0,4.7,3.9,7.7,7.5l0.2,0.2l3-0.6l1.9,10.5l4.6,3.8l0.3-0.5c2.1-3.5,5.6-8.4,7-8.2c1.7,0.2,10.7,4.7,14,6.4l0.3,0.2l1.6,23.3
	l0,0l1,14.3h-2l0.6,8.1l3.2,4l1.4,15.9l-8.5,6.6l5.8,6.9l0.3,0c0,0,1.5-0.1,3.1,0.5c0.7,0.3,1.7,0.5,2.9,0.5c1.7,0,3.8-0.5,5.5-2.2
	c2.2-2.2,2.1-4,2-4.7l0.6-0.8l0,0l0,0l70.9,1.4v0l37.6,0.7c0.1,0,5.9,0.6,8.4,3.9l0.1,0.1c0.1,0.1,0.2,0.2,0.2,0.3
	c1.7,2.5,2.1,3.1,2.5,3.1c0.1,0,0.2,0,0.3-0.1c0.2-0.1,0.3-0.3,0.3-0.6c0.4-0.9,2.8-6.1,5.4-7c3.1-1,14.6-0.9,14.8-0.9l19.4-0.1
	l-1.6-66.1l9.2,2.5l3.3-2.5l-1.2-2.8l0.5-8.3l0,0l0-0.3l15.5,1.8l11.9-6.7v-3.1L338.2,210.2z M280,122.1l0.2,1.1h-9.6v5.4l-1.6,1.4
	l-1.6,1.4h-5.4l-4.2,2.5v0v8.1h-5.8v0v7.3l-2.8,1.7l-2.8,1.7v0v3.2l-2.8,5.9l-13.8-1.5h-16.3l-0.8-20.1l-0.8-21.5l18.3,0.9l0,0
	l21.4,1.1l0.6,0l0,0l0,0l22.2-2.1l2,2.9L280,122.1z M248.5,164.6l10.2,19.8l-16.3,2.9l-14.6,2.6v7.2l2.7,1.2l-1.1,3.8l-2.1,4.4
	l0,12.4l-7.1-5.2l-3.1,6.1v2.7l-11.6-13.1l0.1-0.1l-0.4-0.3l-0.3-0.3l-0.1,0.1l-5.3-4.3v-8.9l3.5-4.8l1.4-1.8l1.9-4.5l2.6-1.6h5.7h0
	v-4.4h3.3l9.3-17.2l2.5,0l14,1.6l1.2,0.5L248.5,164.6z M251.1,209.8l9.3,1.7l-4.1,17.5l-11.9,10.7l-4.2,3.8l-8.7-0.9l-15.2-1.7
	l-5.5-7.5l6.1-4.9l0.9-3.6l0.2,0.3v-1.3l0-0.2l0-0.1v-3.6l2.5-4.8l7.7,5.7v0l0,0v-1l0.5-14.2l0.3-0.6l1.1-2.3l0.6,0.2l8.6,2.2
	L251.1,209.8L251.1,209.8L251.1,209.8z M137.3,114l7.7-6.2l8.2-6.7l21.6,33.8l22.8-17.1l13.1,0.7l0.9,24.2l0.7,17.4h-9.6l-22.9,7.3
	L154,135L137.3,114z M180.6,168.2l22.3-7.1h10.6H226l-0.2,0.3l-8.6,15.9h-3.7v0h0v4.4h-5h0l-1.7,1l-1.4,0.9l-0.1,0.1l-3.1,5.9
	l-7.4-4.3L180.6,168.2z M183.2,100.3l4.2-7.9l42.9,2.3l2.7,0.1l-3.7,23.5l-18.5-1v0l-13.2-0.7l-0.2,0l-22.2,16.7L154,100.5
	l22.8-11.8l6.1,11.2L183.2,100.3z M179.6,168.6l14.5,17.4l7.6,4.5l-1,1.4l-2.3,3.2v9.7l0.5,0.4l5,4.1l-6.7,6.1l-7-5l0,0l0,0
	l-3.3,1.9l-13.7,8l-9.8-41.1l8.2-5.4L179.6,168.6z M174,221.1l3.3-1.9l12.9-7.5l4.2,3l2.9,2.1l7.3-6.7l12.3,13.9l-1,4l-6.6,5.3
	l5.5,7.5l-9.7-1.4L174,221.1z M260.6,210.4l-9.3-1.7l-7-2.7l-4.7-1.8l-9.2-2.3l1.2-4.1l-2.9-1.3v-5.7l19.6-3.5l10.6-1.9l3.2,17.6
	L260.6,210.4z M277.1,37.1l1.5,3.6c1.1,2.6,2.7,3.6,3.6,4l-4.3,4.7v6.2l-2.2,0.8l-1.3,5l-4.4-2.9l-1.3,7.8l-4.7,7.4l7.3,11.6l-3-0.1
	l2.5,6.4l-1.9,16.6l3,3.3l-2.3,0.2l4,5.8l-21.6,2.1l-21.8-1.1l3.8-24l3.5-20L221,36.6l53.9-1.4L277.1,37.1z M171.1,38.2
	c4.6-1.1,24.2-2.8,26.8-3c0.3,0.5,1.1,1.8,1.6,3c0.2,0.4,0.5,0.7,0.9,0.8c1.4,0.5,3.8-0.6,4-0.7l8.4-3.1l7,1.4l16.7,38l-3.4,19.3
	l-46-2.4l-0.3,0l-3.6,6.8l-2.8-5.1l-2.9-5.3l-7-24.5V38.4L171.1,38.2z M117.9,58.4c0,0,8.8-4.4,17.8-8.8c8.1-4.1,26.6-9.1,33.8-10.9
	v24.8v0l7,24.4l-23,11.9l-0.1-0.1l-0.4,0.3l-0.4,0.2l0.1,0.1l-16,13l0,0l-0.5,0.4l-0.1,0.1l-0.2,0.2l-20.6-25L99.2,69.7l0.6-0.2
	L117.9,58.4z M110.5,216.5c-2.3-0.2-6.4,6-7.7,8.2l-3.4-2.8l-2-11.1l-3.4,0.7c-1.7-2.1-6.5-7.6-8.2-7.6c-1.8,0-5.7,8.2-7.5,12.2
	l-10.7-3.6l-11.1-11.8l-12.9,7.8h-2l0.1-2.8l-11.9-3.3c-0.4-0.7-1.6-2.6-3.8-3.2c-2.5-0.7-8.2,2.8-8.8,3.2l-0.2,0.1l-0.3,4.1
	l-5.8,1.7v-1.2L1.5,201v-2.4l6.1-11l-0.4-21l-5.6-9.1L12.4,140l7.4,2.8l3.8-18.4l15.8,4.8l10.8-9.3l6.8-2.1l-0.9-4.5l5.4-3.5
	l1.7-7.3l6.2-1.6l2.8-8.8l1-1.7v-1.7c0.4-0.8,2.6-5.8,2.6-8c0-1.1-0.2-1.8-0.7-2.1c-0.2-0.2-0.5-0.2-0.7-0.1l-1.2-0.7l-3-4.7v-2.7
	c1.8,0.4,4.2,0.8,4.9,0.1c0.1-0.1,0.2-0.2,0.3-0.4c1-1.1,3.3-3.7,6.3-3.6c3.4,0.1,6.4,5.5,6.4,5.6l0.2,0.3l7-1.8L85.5,77l-2.4,7.4
	l8.6,48.4l1.8,10.4l0,0.2l33.2,30.4l-3.5,36.8l1.4,12.3C118.5,219.8,112.1,216.6,110.5,216.5z M125.7,223.8l0-0.3l-1.4-13l3.5-37.2
	l0,0v0l-33.3-30.5l-1.8-10.3l-8.5-48.1l2.2-6.8L98.3,70l37.4,45.3l0.8-0.7l42.4,53l0,0l0.1,0.1l-7.9,5.2l-8.7,5.7l0,0l0,0l3.1,13.2
	l6.9,28.8l-6.5,3.2v0l-13.9,6.9l-1.9,4.7l-3.8-0.7l-17.6,9.9l-1.6,0.9l-1.4-21.2l0,0L125.7,223.8z M138.7,301.2
	c-2.3,2.3-5.6,2.1-7.3,1.5c-1.3-0.5-2.5-0.6-3.1-0.6c0,0-0.1,0-0.1,0l-4.8-5.7l8.1-6.3l-1.5-16.8l-3.2-4l-0.5-6.7h2l-1.1-15.8
	l4.8-2.7l14.5-8.1l4.3,0.7l2-5.1l12.1-6v6.8l-8.5,20.3l-0.1,0.2l6.3,19.5l-1.8,4.1h-4.2l-4.7,4.9l-2.4,2.5h-7.1l-1.4,12.1l-0.7,0.9
	l0.1,0.2C140.4,297.3,140.9,299,138.7,301.2z M142.2,295.4l1.2-10.5h6.6h0l2.4-2.5l4.7-4.9h4.4l2.3-5l-6.3-19.5l8.5-20.2l0-7.5
	l6.8-3.4l0,0l0.3-0.2l31.8,18.5l10.8,1.6v5.7v0h3.9l2,5.2v3.9l-7.7,2.3l-1.1,5.4l-3.1,3.1l3.1,6.7v7l-1.1,3.1l0,0l0,0l1.1,1.9
	l-1,3.4l1.2,7.1L142.2,295.4z M250.6,297.5l-36.8-0.7l-1.2-7.1l1.1-3.6l-1-1.9l1-2.8l0-7.4l-2.9-6.4l2.9-2.9l1-5.1l7.8-2.3v-4.8v0
	l-2.3-6.1h-3.6v-4.6l0.6,0.1l0,0l22.9,2.5l2.1,5.7l17.1,46.4l-0.3,4.4C255.9,298.1,250.9,297.5,250.6,297.5z M311.6,230.8l-2.3,1.7
	l-10-2.8l1.6,66.4l-18.4,0.1c-0.5,0-11.9-0.1-15.1,0.9c-2.8,0.9-5.1,5.5-5.9,7.1c-0.3-0.4-0.7-1-1.5-2.2c-0.1-0.1-0.2-0.2-0.2-0.3
	l0.4-5.6v0v0L241,244.1l16.1-14.6l0.1-0.1l4.2-17.8l0,0l0,0l49.8,8.3l-0.5,8.6L311.6,230.8z M338.5,214.3l-11.1,6.2l-16.2-1.9l0,0.3
	l-14-2.3l-35.6-5.9l1.7-7.7l0,0l0,0l-1.1-5.8l-2.2-12l0.2,0l-0.3-0.5l-0.1-0.4l0,0l-0.1-0.5L249.3,164l0-0.1l0-0.1l0,0l0,0l-4.8-2
	l2.8-5.9l0-2.9l2.8-1.7l2.8-1.7v0v-6.8h5.8v0v-8.5l3.5-2.1h5.5l1.9-1.6l1.9-1.6v0v-4.8h8.8l0.1,0.9l5.1,3.2l2.1,4.8l3.1,1.2l1.4,1.9
	h1.7l0.6,2.9l5.4,3.1c0.2,0.1,5.1,1.7,7.9,1.7c0.6,0,0.8,0.2,0.9,0.4c0.6,0.8,0.1,2.7-0.2,3.3l-0.2,0.6l4.1,0.4l-1.9,4.6l1.9,1.7
	l1.1,4.6l1.7,0.1v3.5l4.1,2.2l4.7,2.9l0.7,3.1l1.8,3.4l-3.5,5.9l2.4,3l-1.8,2.5l4.6,6.8v2.9l1.7,2.3l2.6-0.1l0.8,3.2l1.4,4l2.7,1.3
	l-0.3,4l1.3,1.6V214.3z"/>
<g>
	<path class="st3" d="M215.7,193.9c0,4.9-4,8.9-8.9,8.9c-4.9,0-8.9-4-8.9-8.9c0-4.9,4-8.9,8.9-8.9C211.8,185,215.7,189,215.7,193.9"
		/>
</g>
</svg>
