<?xml version="1.0" encoding="utf-8"?>
<!-- Generator: Adobe Illustrator 23.0.1, SVG Export Plug-In . SVG Version: 6.00 Build 0)  -->
<svg version="1.1" id="Layer_1" xmlns="http://www.w3.org/2000/svg" xmlns:xlink="http://www.w3.org/1999/xlink" x="0px" y="0px"
	 viewBox="0 0 340 220" style="enable-background:new 0 0 340 220;" xml:space="preserve">
<style type="text/css">
	.st0{fill:#3CC382;}
	.st1{fill:#F07DB9;}
	.st2{fill:#FF7320;}
	.st3{fill:#FFFFFF;}
	.st4{fill:#B84040;}
	.st5{fill:#0987B4;}
	.st6{fill:#B45E8B;}
	.st7{fill:#2D8F62;}
	.st8{fill:#BF9B23;}
	.st9{fill:none;stroke:#B45E8B;}
</style>
<path class="st5" d="M269.2,133.7l-0.2-0.1c-0.3-0.6-1.3-2.7-2.3-4.9c-5-10.7-5.9-12.4-6.3-12.7c-0.9-2.2-7-26.1-11-41.9
	c-3.6-13.6-4.2-14.9-4.7-15c-0.2-0.2-1-1-1.6-1.7c-1.4-1.7-3.2-3.7-4.4-4.3c-1.9-0.9-8-2.6-12.7-3.1c-4.7-0.4-32.5-2.1-32.8-2.2
	c-0.4,0-38.7-1.1-43.5-1.3l-1,0v0c-3.1,0.1-20.6,0.8-21,0.8c-0.4,0-9.6,2.1-13.5,3l-8.7,4.3l-3.3,0.4c-0.9-0.2-3.5-0.9-3.9-0.9h-4.1
	l-9.8,11.6l1.3,3.1l-0.8,1.9c-3.9,4.8-3.9,5.2-3.9,5.4c0,0.4,0.5,1.8,0.8,2.6l-0.9,2.2l0.8,1.7l-1.2,2v2l-4.2,2.3l1.1,1.1L77,91.5
	l-2.6,1.8l-0.5,2.5l0.3,0.5c-0.6,0.3-1.1,0.6-1.1,1.1v5.9l1.4,0.9L86,129.1l0.1,0.2l1.9,0.8c-1.9,6.4-4.2,13.9-4.2,14.4
	c0,0.2,0.1,0.7,0.2,1.4c0.1,0.4,0.2,1,0.2,1.2c0,0.4,0,0.5,5.4,4.5c2,1.5,4.5,3.4,5,3.9c0.1,0.8,0.9,3.5,1.3,4.7l0.1,0.3l0.3,0
	c1.2,0.2,2.7,0.4,3.1,0.6c0.2,0.4,1.5,1.2,7.4,4l2.9,4.1l0.5,2.8l2.7,1.1l1-1l2-0.4l0.1,0c6-2.6,6.8-3,6.8-3.4
	c0.3-0.2,0.9-0.6,1.4-0.9l47.8-7.8l49.8-12.9l2.6,1.7l0.2-0.1c0.7-0.3,1.2-0.5,1.5-0.6c0.2,0.1,0.5,0.3,1,0.5l0.9,1.8l2.1,0.5
	l0.2-0.1c5.3-2.7,7.3-3.7,8.1-4.2c1.2,0.5,4.8,1.6,14.8,4.7l0.3,0.1l0.2-0.2c5.6-6.1,14.2-15.3,15.3-16.2l0.3-0.1L269.2,133.7z
	 M197.5,49.1l-1.1,8.7l-4.5,0.4L178.6,62l-10.2-0.4l-8.6-2l1.6-8.2l0.4-3.5l31.4,0.9C193.3,48.8,195,48.9,197.5,49.1z M94.8,55.3
	h3.6c0.3,0,2.1,0.4,3.8,0.8l0.1,0l3.5-0.4l8.7-4.3c5.1-1.2,12.7-2.9,13.2-3c0.3,0,7-0.3,11-0.4l7.3-0.3c1.8-0.1,2.7-0.1,3.2-0.2
	c0,0,0,0,0.1,0c0.3,0,0.9,0.1,1.9,0.1l9.6,0.3l-0.4,3.4l-1.8,9.1l9.6,2.3l10.3,0.4l0.1,0l13.3-3.9l4.1-0.4l-9.3,28.3c0,0,0,0,0,0
	c-0.7-0.2-2.5-0.4-6.8-0.9c-3.5-0.4-6.9-0.8-6.9-0.8l-0.1,0l-12.6,3.5l-18.6,10.4c-3.4,2-6.4,3.7-9.1,5.3l-0.5-1.7l-5.1-4.3
	l-0.4-11.7l-5.8-2.2L93.3,57.1L94.8,55.3z M132.6,121.6l2.6-9.1l-2.3-7.1c3.2-1.9,6.4-3.7,9.3-5.4l18.5-10.3l12.3-3.4
	c5.1,0.6,12.7,1.5,13.6,1.7l-17.1,70.9l-41.3,6.7l-1.6-13.7c2.4-3.3,5-6.8,5.7-7.4l0.2-0.2C132.6,144.1,133,143.8,132.6,121.6z
	 M75.2,103.6l-1.2-0.8v-5.2c0.1-0.1,0.6-0.3,1-0.5l0.5-0.2l-0.6-1.2l0.4-1.8l2.5-1.7l1.1-2.2l-0.6-0.6l3.6-2v-2.3l1.4-2.3L82.2,81
	l0.9-2.1L83,78.7c-0.4-0.9-0.8-2-0.8-2.3c0.3-0.5,2.1-2.9,3.8-4.9l1-2.5l-1.3-2.9l7-8.2l27.4,27.4l5.5,2.1L126,99l5.2,4.4l0.5,1.6
	c-15.6,9-19.8,11.5-20.9,12.4l0,0c-0.3,0.1-4.1,0.8-6.4,1.3l-9.5,3.9l-5.1,0.4c-3,0.4-4.5,0.6-5.3,0.8l-9.3-19.9L75.2,103.6z
	 M123.8,166.3l-0.2,0.1c-1.4,0.9-1.9,1.2-2,1.5c-0.8,0.4-3.6,1.7-6.1,2.8l-2.2,0.5l-0.7,0.7l-1.6-0.6l-0.4-2.4l-3.2-4.5l-0.1-0.1
	c-3.1-1.4-6.4-3.1-7.1-3.6c-0.1-0.3-0.6-0.7-3.5-1.1c-0.6-1.9-1.2-4-1.2-4.3c0-0.4,0-0.5-5.4-4.5c-2-1.5-4.5-3.4-5-3.9
	c0-0.3-0.1-0.7-0.2-1.2c-0.1-0.4-0.2-1-0.2-1.1c0.1-0.6,2.6-9,4.3-14.6l0.1-0.4l-2.4-1l-1.8-4c1.1-0.2,3.4-0.5,5-0.7l5.2-0.4
	l9.6-3.9c3.9-0.7,5.6-1,6.3-1.3l0,0c0.1,0,0.3-0.1,0.3-0.1l0,0c0.5-0.4,10.6-6.3,20.7-12.1l2.1,6.6l-2.6,9l0,0.1
	c0.2,8.2,0.3,20.6,0.1,22.1c-0.6,0.5-2,2.1-6,7.8l-0.1,0.2l1.7,14.2L123.8,166.3z M253,149.9c-5.4-1.6-13.1-4-14.5-4.5l0-0.1l-0.8,0
	l0,0.3c-0.9,0.5-5.1,2.7-7.8,4l-1.3-0.3l-0.8-1.7l-0.1-0.1c-0.3-0.2-0.7-0.4-1-0.5c-0.1-0.2-0.2-0.4-0.5-0.4l-0.5,0l-0.1,0.3
	c-0.3,0.1-0.7,0.3-1.1,0.5l-2.6-1.7l-50.2,13l-1.1,0.2l17.1-71l9.5-29l1.3-9.6c8.3,0.5,24.1,1.5,27.5,1.8c4.8,0.4,10.7,2.2,12.3,3
	c0.9,0.5,2.7,2.5,4.1,4c1.1,1.3,1.6,1.8,1.9,2c0.5,1.1,2.8,9.3,4.1,14.4c10.1,40,11.1,42.3,11.5,42.6c0.7,1,4,8,5.9,12.3
	c1.3,2.8,1.9,4.1,2.3,4.8C266.9,135,263.5,138.5,253,149.9z"/>
<path class="st3" d="M169.5,85.3c0,4.9-4,8.9-8.9,8.9c-4.9,0-8.9-4-8.9-8.9c0-4.9,4-8.9,8.9-8.9C165.5,76.4,169.5,80.4,169.5,85.3"
	/>
</svg>
