<?xml version="1.0" encoding="UTF-8"?>
<svg xmlns="http://www.w3.org/2000/svg" xmlns:xlink="http://www.w3.org/1999/xlink" version="1.2" >
<font id="TheMix B6 SemiBold Italic">
<font-face  font-family="TheMix" units-per-em="1000" ascent="750" descent="-250" font-style="italic" font-weight="600" font-stretch="normal" slope="-11" cap-height="750" x-height="500" underline-position="-162" underline-thickness="86" />
<missing-glyph  horiz-adv-x="550" d="" />
<glyph glyph-name="NULL" d="" />
<glyph glyph-name="CR" unicode="&#xd;" horiz-adv-x="250" d="" />
<glyph glyph-name="space" unicode="&#x20;" horiz-adv-x="218" d="" />
<glyph glyph-name="exclam" unicode="&#x21;" horiz-adv-x="314" d="M318 705 L195 705 L112 177 L201 177 L318 705 Z M201 60 C201 94 175 123 137 123 C98 123 66 94 66 53 C66 19 92 -10 131 -10 C169 -10 201 19 201 60 L201 60 Z " />
<glyph glyph-name="quotedbl" unicode="&#x22;" horiz-adv-x="375" d="M417 701 L310 701 L280 460 L357 460 L417 701 Z M244 701 L137 701 L106 460 L183 460 L244 701 Z " />
<glyph glyph-name="numbersign" unicode="&#x23;" horiz-adv-x="550" d="M567 478 L486 478 L536 650 L457 650 L407 478 L269 478 L319 650 L240 650 L190 478 L99 478 L85 405 L168 405 L123 251 L32 251 L18 177 L101 177 L48 0 L127 0 L180 177 L318 177 L265 0 L344 0 L397 177 L486 177 L500 251 L419 251 L464 405 L553 405 L567 478 Z M385 405 L339 251 L202 251 L247 405 L385 405 Z " />
<glyph glyph-name="dollar" unicode="&#x24;" horiz-adv-x="550" d="M491 628 C462 634 429 638 394 640 L411 730 L333 730 L315 635 C201 620 124 542 124 450 C124 282 344 310 344 196 C344 149 293 105 211 105 C163 105 112 117 84 127 L64 30 C98 22 141 16 179 16 L160 -85 L238 -85 L258 20 C377 39 459 123 459 219 C459 386 236 366 236 468 C236 515 279 552 360 552 C394 552 436 547 472 535 L491 628 Z " />
<glyph glyph-name="percent" unicode="&#x25;" horiz-adv-x="740" d="M387 549 C387 621 344 660 265 660 C180 660 87 587 87 458 C87 387 127 345 208 345 C294 345 387 418 387 549 L387 549 Z M721 618 L663 669 L52 30 L109 -21 L721 618 Z M689 193 C689 265 646 305 567 305 C483 305 389 232 389 103 C389 32 429 -10 510 -10 C596 -10 689 63 689 193 L689 193 Z M304 539 C304 468 265 414 216 414 C185 414 169 430 169 467 C169 536 209 591 258 591 C290 591 304 575 304 539 L304 539 Z M607 184 C607 113 567 59 518 59 C487 59 471 75 471 111 C471 181 511 236 560 236 C592 236 607 219 607 184 L607 184 Z " />
<glyph glyph-name="ampersand" unicode="&#x26;" horiz-adv-x="782" d="M735 452 C675 455 605 452 550 445 L539 383 C562 381 593 377 614 373 C598 303 563 245 526 206 C462 267 400 333 354 395 C438 456 515 522 515 614 C515 685 469 738 361 738 C240 738 158 651 158 558 C158 514 181 461 218 403 C129 340 44 268 44 154 C44 64 103 -10 239 -10 C333 -10 431 20 513 80 C555 42 594 11 638 -23 L711 50 C675 79 635 111 595 147 C672 227 724 335 735 452 L735 452 Z M409 599 C409 544 361 505 303 463 C278 505 264 541 264 569 C264 618 298 656 350 656 C390 656 409 633 409 599 L409 599 Z M441 143 C382 100 318 81 262 81 C187 81 156 127 156 177 C156 243 210 289 270 333 C320 268 383 200 441 143 L441 143 Z " />
<glyph glyph-name="quotesingle" unicode="&#x27;" horiz-adv-x="202" d="M244 701 L137 701 L106 460 L183 460 L244 701 Z " />
<glyph glyph-name="parenleft" unicode="&#x28;" horiz-adv-x="298" d="M381 746 L309 784 C145 584 53 346 53 129 C53 7 76 -103 122 -211 L207 -175 C170 -81 156 18 156 135 C156 339 254 585 381 746 L381 746 Z " />
<glyph glyph-name="parenright" unicode="&#x29;" horiz-adv-x="298" d="M269 444 C269 565 247 675 200 784 L116 747 C152 653 167 554 167 438 C167 234 68 -13 -58 -174 L14 -211 C178 -12 269 226 269 444 L269 444 Z " />
<glyph glyph-name="asterisk" unicode="&#x2a;" horiz-adv-x="371" d="M409 610 L382 680 L285 619 L321 724 L244 734 L234 621 L160 692 L110 630 L201 580 L93 543 L120 473 L215 534 L179 430 L256 420 L266 532 L341 460 L391 524 L300 573 L409 610 Z " />
<glyph glyph-name="plus" unicode="&#x2b;" horiz-adv-x="550" d="M530 342 L346 342 L382 536 L281 536 L244 342 L61 342 L44 253 L227 253 L190 58 L291 58 L328 253 L512 253 L530 342 Z " />
<glyph glyph-name="comma" unicode="&#x2c;" horiz-adv-x="237" d="M91 129 C37 129 10 70 34 30 C57 -8 45 -51 -34 -117 L5 -162 C216 -14 175 129 91 129 L91 129 Z " />
<glyph glyph-name="hyphen" unicode="&#x2d;" horiz-adv-x="329" d="M301 326 L63 326 L47 240 L285 240 L301 326 Z " />
<glyph glyph-name="period" unicode="&#x2e;" horiz-adv-x="239" d="M161 64 C161 100 132 132 93 132 C54 132 21 100 21 58 C21 22 51 -10 89 -10 C128 -10 161 22 161 64 L161 64 Z " />
<glyph glyph-name="slash" unicode="&#x2f;" horiz-adv-x="440" d="M539 757 L434 757 L-86 -161 L20 -161 L539 757 Z " />
<glyph glyph-name="zero" unicode="0" horiz-adv-x="550" d="M539 463 C539 594 479 660 357 660 C128 660 46 370 46 187 C46 53 107 -10 229 -10 C457 -10 539 280 539 463 L539 463 Z M426 457 C426 357 377 81 244 81 C179 81 158 120 158 194 C158 295 208 570 342 570 C405 570 426 532 426 457 L426 457 Z " />
<glyph glyph-name="one" unicode="1" horiz-adv-x="550" d="M473 96 L324 96 L430 650 L344 650 L133 581 L135 480 L298 539 L214 96 L44 96 L26 0 L455 0 L473 96 Z " />
<glyph glyph-name="two" unicode="2" horiz-adv-x="550" d="M512 502 C512 590 452 660 326 660 C246 660 179 636 129 610 L139 515 C177 540 236 563 291 563 C359 563 390 527 390 479 C390 409 353 356 183 217 L27 88 L10 0 L443 0 L463 103 L376 103 C295 103 222 102 180 100 L180 102 L301 198 C477 339 512 415 512 502 L512 502 Z " />
<glyph glyph-name="three" unicode="3" horiz-adv-x="550" d="M515 524 C515 606 456 660 327 660 C266 660 204 647 152 628 L154 537 C199 557 249 572 301 572 C366 572 399 545 399 504 C399 437 330 374 162 374 L136 374 L120 290 C155 293 185 295 226 295 C313 295 356 262 356 211 C356 148 299 80 169 80 C127 80 85 88 55 99 L30 5 C58 -4 102 -10 152 -10 C388 -10 474 126 474 225 C474 292 436 341 366 351 L367 353 C459 378 515 444 515 524 L515 524 Z " />
<glyph glyph-name="four" unicode="4" horiz-adv-x="550" d="M508 650 L362 650 L21 235 L13 146 L306 146 L279 0 L384 0 L412 146 L511 146 L530 242 L430 242 L508 650 Z M384 541 L327 242 C291 242 187 242 134 240 L383 541 L384 541 Z " />
<glyph glyph-name="five" unicode="5" horiz-adv-x="550" d="M535 650 L173 650 L107 306 C133 311 176 314 215 314 C312 314 360 286 360 228 C360 142 287 82 174 82 C135 82 93 89 57 100 L38 2 C74 -6 110 -10 163 -10 C345 -10 479 98 479 246 C479 332 416 399 272 399 C260 399 241 399 225 398 L254 549 L515 549 L535 650 Z " />
<glyph glyph-name="six" unicode="6" horiz-adv-x="550" d="M529 655 C514 657 488 659 459 659 C143 659 46 347 46 187 C46 58 112 -10 234 -10 C392 -10 509 104 509 256 C509 347 451 411 336 411 C273 411 211 384 175 337 L174 337 C180 355 189 374 195 387 C244 502 321 569 442 569 C468 569 491 566 512 563 L529 655 Z M398 235 C398 145 334 77 254 77 C187 77 154 118 154 178 C154 252 212 323 302 323 C367 323 398 289 398 235 L398 235 Z " />
<glyph glyph-name="seven" unicode="7" horiz-adv-x="550" d="M576 650 L132 650 L112 545 L205 545 C291 545 405 547 430 548 C313 387 186 178 91 0 L218 0 C303 165 427 376 558 557 L576 650 Z " />
<glyph glyph-name="eight" unicode="8" horiz-adv-x="550" d="M538 526 C538 607 474 660 354 660 C215 660 109 566 109 457 C109 395 149 359 196 330 C99 282 31 225 31 130 C31 42 103 -10 231 -10 C363 -10 491 69 491 199 C491 268 443 307 389 338 C486 389 538 441 538 526 L538 526 Z M427 510 C427 460 395 427 304 382 C258 407 220 432 220 474 C220 527 264 576 341 576 C396 576 427 551 427 510 L427 510 Z M379 185 C379 113 314 76 245 76 C178 76 144 106 144 146 C144 188 169 232 282 286 C333 261 379 234 379 185 L379 185 Z " />
<glyph glyph-name="nine" unicode="9" horiz-adv-x="550" d="M536 467 C536 603 461 660 345 660 C177 660 75 528 75 395 C75 293 140 237 247 237 C307 237 361 260 399 298 L400 298 C395 287 391 276 385 259 C343 149 259 82 140 82 C111 82 76 87 52 93 L34 -2 C60 -7 87 -9 126 -9 C464 -9 536 330 536 467 L536 467 Z M426 474 C426 388 357 326 278 326 C218 326 185 358 185 415 C185 495 242 573 329 573 C393 573 426 532 426 474 L426 474 Z " />
<glyph glyph-name="colon" unicode="&#x3a;" horiz-adv-x="289" d="M252 352 C252 388 222 420 183 420 C144 420 111 388 111 347 C111 310 141 278 180 278 C219 278 252 310 252 352 L252 352 Z M197 63 C197 100 167 132 128 132 C89 132 56 100 56 58 C56 22 86 -10 125 -10 C164 -10 197 22 197 63 L197 63 Z " />
<glyph glyph-name="semicolon" unicode="&#x3b;" horiz-adv-x="289" d="M252 352 C252 388 222 420 183 420 C144 420 111 388 111 347 C111 310 141 278 180 278 C219 278 252 310 252 352 L252 352 Z M128 129 C73 129 46 70 71 30 C94 -8 82 -51 3 -117 L42 -162 C252 -14 212 129 128 129 L128 129 Z " />
<glyph glyph-name="less" unicode="&#x3c;" horiz-adv-x="550" d="M507 516 L445 590 L81 309 L351 13 L428 81 L218 301 L507 516 Z " />
<glyph glyph-name="equal" unicode="&#x3d;" horiz-adv-x="550" d="M532 430 L92 430 L76 343 L516 343 L532 430 Z M498 251 L58 251 L41 164 L482 164 L498 251 Z " />
<glyph glyph-name="greater" unicode="&#x3e;" horiz-adv-x="550" d="M495 295 L225 590 L147 522 L357 302 L69 87 L131 13 L495 295 Z " />
<glyph glyph-name="question" unicode="&#x3f;" horiz-adv-x="439" d="M436 530 C436 622 351 701 180 713 L149 616 C246 606 318 571 318 513 C318 400 96 381 125 177 L228 177 C205 350 436 356 436 530 L436 530 Z M223 60 C223 94 197 123 158 123 C120 123 88 94 88 53 C88 19 114 -10 153 -10 C191 -10 223 19 223 60 L223 60 Z " />
<glyph glyph-name="at" unicode="&#x40;" horiz-adv-x="963" d="M897 446 C897 607 794 735 573 735 C299 735 90 500 90 231 C90 36 209 -84 433 -84 C491 -84 570 -74 634 -53 L627 31 C569 14 512 4 454 4 C275 4 188 97 188 244 C188 454 342 649 560 649 C736 649 801 547 801 436 C801 305 740 215 657 215 C613 215 598 245 617 313 L675 519 C646 528 601 536 553 536 C367 536 299 359 299 239 C299 166 330 129 387 129 C453 129 517 191 539 233 L543 233 C532 178 560 129 639 129 C796 129 897 269 897 446 L897 446 Z M574 456 L561 408 C523 275 462 215 417 215 C397 215 387 231 387 261 C387 362 453 463 527 463 C544 463 561 461 574 456 L574 456 Z " />
<glyph glyph-name="A" unicode="A" horiz-adv-x="609" d="M558 0 L446 675 L327 675 L-39 0 L74 0 L153 149 L421 149 L443 0 L558 0 Z M409 236 L197 236 L318 459 C335 491 349 523 361 551 L363 551 C365 522 368 489 373 458 L409 236 Z " />
<glyph glyph-name="B" unicode="B" horiz-adv-x="562" d="M553 545 C553 630 490 678 361 678 C285 678 213 676 161 675 L33 0 C106 -1 173 -3 216 -3 C406 -3 514 105 514 232 C514 290 479 342 419 356 L419 357 C492 385 553 447 553 545 L553 545 Z M438 521 C438 437 369 388 266 388 C246 388 231 388 213 389 L252 589 C277 590 304 591 333 591 C415 591 438 563 438 521 L438 521 Z M400 224 C400 150 342 86 232 86 C200 86 173 88 157 91 L198 306 C213 307 246 307 271 307 C359 307 400 278 400 224 L400 224 Z " />
<glyph glyph-name="C" unicode="C" horiz-adv-x="556" d="M589 661 C547 674 498 681 442 681 C184 681 50 460 50 226 C50 111 98 -8 297 -8 C356 -8 424 5 476 24 L475 121 C433 103 381 90 329 90 C208 90 170 153 170 245 C170 399 241 585 430 585 C473 585 517 577 560 562 L589 661 Z " />
<glyph glyph-name="D" unicode="D" horiz-adv-x="660" d="M650 434 C650 585 563 678 363 678 C293 678 213 675 161 674 L33 0 C85 -1 138 -4 214 -4 C509 -4 650 210 650 434 L650 434 Z M535 423 C535 276 452 89 229 89 C210 89 179 91 157 94 L251 585 C274 587 309 588 346 588 C490 588 535 520 535 423 L535 423 Z " />
<glyph glyph-name="E" unicode="E" horiz-adv-x="487" d="M510 675 L161 675 L33 0 L382 0 L399 93 L157 93 L197 303 L427 303 L445 392 L214 392 L251 584 L492 584 L510 675 Z " />
<glyph glyph-name="F" unicode="F" horiz-adv-x="457" d="M506 675 L161 675 L33 0 L140 0 L196 296 L421 296 L438 385 L213 385 L251 583 L488 583 L506 675 Z " />
<glyph glyph-name="G" unicode="G" horiz-adv-x="665" d="M665 657 C607 675 543 684 476 684 C234 684 50 502 50 249 C50 97 139 -10 328 -10 C399 -10 483 3 553 29 L615 348 L508 348 L461 104 C427 94 390 87 347 87 C214 87 166 173 166 261 C166 438 284 589 465 589 C519 589 580 576 633 553 L665 657 Z " />
<glyph glyph-name="H" unicode="H" horiz-adv-x="679" d="M687 675 L580 675 L527 396 L215 396 L268 675 L161 675 L33 0 L140 0 L197 303 L509 303 L452 0 L558 0 L687 675 Z " />
<glyph glyph-name="I" unicode="I" horiz-adv-x="260" d="M268 675 L161 675 L33 0 L140 0 L268 675 Z " />
<glyph glyph-name="J" unicode="J" horiz-adv-x="324" d="M333 675 L227 675 L133 184 C119 108 84 84 32 84 C11 84 -10 89 -26 95 L-44 0 C-24 -4 1 -8 33 -8 C161 -8 218 67 238 174 L333 675 Z " />
<glyph glyph-name="K" unicode="K" horiz-adv-x="561" d="M622 675 L484 675 L208 362 L267 675 L161 675 L33 0 L139 0 L202 330 L363 0 L497 0 L312 340 L622 675 Z " />
<glyph glyph-name="L" unicode="L" horiz-adv-x="418" d="M385 95 L158 95 L268 675 L161 675 L33 0 L366 0 L385 95 Z " />
<glyph glyph-name="M" unicode="M" horiz-adv-x="866" d="M809 675 L677 675 L474 281 C450 234 429 190 412 147 L410 147 C409 191 407 237 400 285 L348 675 L223 675 L-4 0 L108 0 L217 349 C236 413 253 468 268 524 L269 524 C269 475 274 420 281 365 L329 0 L438 0 L637 392 C663 442 682 486 697 524 L698 524 C694 473 690 420 688 356 L672 0 L783 0 L809 675 Z " />
<glyph glyph-name="N" unicode="N" horiz-adv-x="678" d="M686 675 L581 675 L527 379 C513 306 500 223 490 156 C475 205 458 258 438 309 L287 675 L161 675 L33 0 L137 0 L193 299 C207 374 221 452 230 524 C242 480 259 429 279 379 L432 0 L557 0 L686 675 Z " />
<glyph glyph-name="O" unicode="O" horiz-adv-x="690" d="M683 439 C683 596 597 685 437 685 C216 685 47 480 47 236 C47 82 126 -10 292 -10 C507 -10 683 181 683 439 L683 439 Z M568 427 C568 239 453 87 307 87 C213 87 163 150 163 253 C163 430 267 589 420 589 C521 589 568 525 568 427 L568 427 Z " />
<glyph glyph-name="P" unicode="P" horiz-adv-x="516" d="M538 512 C538 617 464 679 332 679 C269 679 213 677 161 675 L33 0 L139 0 L186 250 C203 248 223 247 237 247 C400 247 538 360 538 512 L538 512 Z M426 497 C426 407 345 338 250 338 C233 338 218 339 204 342 L251 588 C269 590 286 590 313 590 C396 590 426 553 426 497 L426 497 Z " />
<glyph glyph-name="Q" unicode="Q" horiz-adv-x="691" d="M683 439 C683 596 596 685 436 685 C213 685 47 480 47 236 C47 82 126 -10 292 -10 C507 -10 683 181 683 439 L683 439 Z M626 -97 C463 -119 417 -47 249 -67 L232 -160 C379 -140 429 -216 608 -189 L626 -97 Z M568 427 C568 239 453 87 307 87 C213 87 163 150 163 253 C163 430 267 589 420 589 C521 589 568 525 568 427 L568 427 Z " />
<glyph glyph-name="R" unicode="R" horiz-adv-x="548" d="M539 528 C539 624 476 679 334 679 C265 679 210 678 161 675 L33 0 L140 0 L195 292 L207 292 L351 0 L478 0 L355 231 C342 256 331 280 317 304 C439 324 539 403 539 528 L539 528 Z M426 510 C426 424 354 372 260 372 C238 372 221 373 211 374 L251 588 C267 589 289 590 316 590 C394 590 426 564 426 510 L426 510 Z " />
<glyph glyph-name="S" unicode="S" horiz-adv-x="457" d="M454 676 C416 683 384 685 348 685 C180 685 92 586 92 469 C92 308 291 307 291 199 C291 130 238 86 142 86 C107 86 67 95 37 108 L17 4 C51 -7 95 -10 134 -10 C294 -10 407 89 407 217 C407 378 206 381 206 494 C206 544 246 595 341 595 C367 595 402 590 435 579 L454 676 Z " />
<glyph glyph-name="T" unicode="T" horiz-adv-x="503" d="M571 675 L100 675 L83 583 L265 583 L154 0 L261 0 L372 583 L554 583 L571 675 Z " />
<glyph glyph-name="U" unicode="U" horiz-adv-x="673" d="M680 675 L575 675 L495 258 C471 128 411 80 302 80 C193 80 163 133 182 234 L267 675 L160 675 L77 240 C51 101 87 -10 287 -10 C457 -10 565 71 599 247 L680 675 Z " />
<glyph glyph-name="V" unicode="V" horiz-adv-x="610" d="M686 675 L572 675 L352 266 C327 219 302 169 282 122 L280 122 C277 165 271 219 266 259 L205 675 L92 675 L198 0 L320 0 L686 675 Z " />
<glyph glyph-name="W" unicode="W" horiz-adv-x="935" d="M990 675 L878 675 L694 253 C677 213 663 176 649 134 L648 134 C650 178 649 222 646 260 L608 675 L490 675 L299 261 C280 219 264 175 248 132 L247 132 C249 176 251 219 248 264 L223 675 L114 675 L156 0 L283 0 L474 419 C493 461 509 502 522 544 L523 544 C521 501 521 458 524 417 L557 0 L689 0 L990 675 Z " />
<glyph glyph-name="X" unicode="X" horiz-adv-x="599" d="M648 675 L522 675 L332 429 L231 675 L112 675 L251 350 L-32 0 L98 0 L304 265 L411 0 L539 0 L384 345 L648 675 Z " />
<glyph glyph-name="Y" unicode="Y" horiz-adv-x="536" d="M614 675 L495 675 L366 475 C337 431 309 388 287 348 L285 348 C278 384 270 422 259 462 L202 675 L90 675 L214 241 L169 0 L275 0 L321 241 L614 675 Z " />
<glyph glyph-name="Z" unicode="Z" horiz-adv-x="519" d="M556 675 L138 675 L119 578 L277 578 C344 578 379 578 407 579 C384 555 364 533 343 506 L16 83 L0 0 L431 0 L451 100 L305 100 C221 100 168 100 150 98 C167 117 181 133 195 152 L540 589 L556 675 Z " />
<glyph glyph-name="bracketleft" unicode="&#x5b;" horiz-adv-x="318" d="M385 774 L182 774 L-4 -201 L199 -201 L215 -116 L110 -116 L264 690 L368 690 L385 774 Z " />
<glyph glyph-name="backslash" unicode="&#x5c;" horiz-adv-x="449" d="M380 -161 L205 757 L111 757 L284 -161 L380 -161 Z " />
<glyph glyph-name="bracketright" unicode="&#x5d;" horiz-adv-x="318" d="M344 774 L140 774 L124 690 L229 690 L75 -116 L-30 -116 L-46 -201 L158 -201 L344 774 Z " />
<glyph glyph-name="asciicircum" unicode="&#x5e;" horiz-adv-x="550" d="M495 380 L384 675 L301 675 L83 378 L149 340 L328 597 L414 340 L495 380 Z " />
<glyph glyph-name="underscore" unicode="&#x5f;" horiz-adv-x="550" d="M469 -162 L-70 -162 L-86 -248 L453 -248 L469 -162 Z " />
<glyph glyph-name="grave" unicode="&#x60;" horiz-adv-x="364" d="M341 622 L199 748 L141 680 L294 566 L341 622 Z " />
<glyph glyph-name="a" unicode="a" horiz-adv-x="568" d="M513 490 C462 500 406 505 348 505 C130 505 33 328 33 143 C33 37 73 -11 146 -11 C258 -11 330 108 368 183 L370 182 C343 100 326 42 318 0 C378 -3 450 1 506 7 L518 73 C490 75 457 79 435 83 L513 490 Z M394 413 L387 377 C365 264 270 81 186 81 C158 81 141 105 141 162 C141 277 197 422 330 422 C355 422 376 418 394 413 L394 413 Z " />
<glyph glyph-name="b" unicode="b" horiz-adv-x="546" d="M515 354 C515 460 475 508 401 508 C306 508 231 425 180 315 L178 316 C212 417 225 461 233 502 L277 730 C213 733 141 729 85 723 L73 657 C101 655 134 651 157 647 L35 9 C84 -2 137 -8 199 -8 C417 -8 515 169 515 354 L515 354 Z M406 335 C406 220 351 75 218 75 C192 75 173 79 153 84 L161 122 C183 233 277 416 362 416 C389 416 406 392 406 335 L406 335 Z " />
<glyph glyph-name="c" unicode="c" horiz-adv-x="408" d="M425 492 C393 501 361 506 322 506 C143 506 34 349 34 159 C34 60 81 -9 212 -9 C259 -9 305 1 340 15 L343 105 C315 93 278 85 242 85 C164 85 146 132 146 183 C146 287 199 417 315 417 C348 417 376 410 400 399 L425 492 Z " />
<glyph glyph-name="d" unicode="d" horiz-adv-x="568" d="M559 730 C495 733 423 729 367 723 L355 657 C384 655 416 651 439 647 L410 501 C387 504 369 505 348 505 C130 505 33 328 33 143 C33 37 73 -11 146 -11 C258 -11 330 108 368 183 L370 182 C343 100 326 41 319 0 C379 -3 450 1 506 7 L518 73 C490 75 457 79 435 83 L559 730 Z M394 413 L387 377 C365 264 270 81 186 81 C158 81 141 105 141 162 C141 277 197 422 330 422 C355 422 376 418 394 413 L394 413 Z " />
<glyph glyph-name="e" unicode="e" horiz-adv-x="480" d="M464 390 C464 449 425 507 311 507 C151 507 35 354 35 155 C35 43 87 -10 207 -10 C272 -10 333 2 386 22 L383 105 C339 87 289 76 242 76 C167 76 142 94 142 162 C142 177 144 199 146 212 C351 219 464 278 464 390 L464 390 Z M359 376 C359 319 295 291 159 286 C179 362 227 427 299 427 C336 427 359 409 359 376 L359 376 Z " />
<glyph glyph-name="f" unicode="f" horiz-adv-x="342" d="M467 728 C439 734 413 737 385 737 C251 737 180 668 156 533 L150 497 L57 497 L40 414 L133 414 L50 -22 C29 -131 -7 -163 -71 -163 C-90 -163 -115 -160 -136 -153 L-162 -243 C-134 -249 -104 -252 -75 -252 C47 -252 125 -183 155 -22 L238 414 L363 414 L380 497 L254 497 L260 530 C276 616 311 650 376 650 C396 650 421 647 442 641 L467 728 Z " />
<glyph glyph-name="g" unicode="g" horiz-adv-x="538" d="M513 490 C462 500 406 505 348 505 C131 505 33 328 33 143 C33 37 73 -11 146 -11 C258 -11 330 108 366 179 L368 179 C337 85 325 47 312 -21 C292 -123 234 -161 135 -161 C90 -161 40 -151 1 -132 L-24 -233 C14 -245 59 -253 115 -253 C307 -253 387 -166 411 -39 L513 490 Z M394 413 L387 377 C365 264 270 81 186 81 C158 81 141 105 141 162 C141 277 197 422 330 422 C355 422 376 418 394 413 L394 413 Z " />
<glyph glyph-name="h" unicode="h" horiz-adv-x="567" d="M512 340 C531 441 501 508 407 508 C307 508 233 417 187 319 L185 320 C218 417 232 466 240 507 L282 730 C219 733 146 729 90 723 L78 657 C106 655 140 651 162 647 L38 0 L143 0 L165 118 C188 238 285 416 365 416 C404 416 416 386 403 315 L343 0 L447 0 L512 340 Z " />
<glyph glyph-name="i" unicode="i" horiz-adv-x="286" d="M303 658 C303 689 276 719 239 719 C201 719 167 689 167 646 C167 614 192 585 230 585 C268 585 303 615 303 658 L303 658 Z M260 497 C197 500 124 496 68 490 L56 424 C85 422 118 418 140 414 L60 0 L165 0 L260 497 Z " />
<glyph glyph-name="j" unicode="j" horiz-adv-x="286" d="M303 658 C303 689 276 719 239 719 C201 719 167 689 167 646 C167 614 192 585 230 585 C268 585 303 615 303 658 L303 658 Z M260 497 C197 500 124 496 68 490 L56 424 C85 422 118 418 140 414 L53 -37 C34 -130 12 -162 -49 -162 C-65 -162 -86 -158 -104 -151 L-126 -243 C-108 -248 -84 -252 -60 -252 C72 -252 130 -181 155 -53 L260 497 Z " />
<glyph glyph-name="k" unicode="k" horiz-adv-x="494" d="M503 466 L423 524 L198 289 L282 730 C219 733 146 729 90 723 L78 657 C106 655 140 651 162 647 L38 0 L143 0 L192 257 L312 0 L439 0 L297 270 L503 466 Z " />
<glyph glyph-name="l" unicode="l" horiz-adv-x="263" d="M282 730 C219 733 146 729 90 723 L78 657 C106 655 140 651 162 647 L38 0 L143 0 L282 730 Z " />
<glyph glyph-name="m" unicode="m" horiz-adv-x="884" d="M829 340 C848 441 818 508 726 508 C628 508 554 417 508 317 L506 317 C520 360 526 384 526 410 C526 473 488 508 426 508 C327 508 254 417 209 319 L207 320 C228 379 246 439 257 497 C198 500 124 496 68 490 L56 424 C85 422 118 418 140 414 L60 0 L165 0 L187 118 C214 260 315 416 385 416 C422 416 434 386 420 315 L360 0 L464 0 L486 118 C513 260 614 416 684 416 C721 416 733 386 719 315 L659 0 L764 0 L829 340 Z " />
<glyph glyph-name="n" unicode="n" horiz-adv-x="589" d="M534 340 C553 441 523 508 429 508 C329 508 255 417 209 319 L207 320 C238 413 251 466 257 497 C198 500 124 496 68 490 L56 424 C85 422 118 418 140 414 L60 0 L165 0 L187 118 C210 238 307 416 388 416 C426 416 438 386 425 315 L365 0 L469 0 L534 340 Z " />
<glyph glyph-name="o" unicode="o" horiz-adv-x="542" d="M517 326 C517 432 463 507 327 507 C166 507 34 371 34 168 C34 55 91 -10 222 -10 C374 -10 517 122 517 326 L517 326 Z M406 314 C406 184 331 82 237 82 C170 82 144 120 144 185 C144 299 209 416 311 416 C377 416 406 380 406 314 L406 314 Z " />
<glyph glyph-name="p" unicode="p" horiz-adv-x="568" d="M543 354 C543 460 503 508 429 508 C333 508 259 425 209 316 L207 317 C237 411 249 456 257 497 C198 500 124 496 68 490 L56 424 C85 422 118 418 140 414 L14 -244 L119 -244 L164 -3 C186 -6 205 -8 227 -8 C445 -8 543 169 543 354 L543 354 Z M434 335 C434 220 378 76 246 76 C227 76 201 80 182 87 L189 122 C211 233 305 416 390 416 C417 416 434 392 434 335 L434 335 Z " />
<glyph glyph-name="q" unicode="q" horiz-adv-x="540" d="M513 490 C462 500 406 505 348 505 C130 505 33 328 33 143 C33 37 73 -11 146 -11 C258 -11 330 108 368 183 L370 182 C336 86 322 36 310 -26 L269 -245 C332 -247 405 -243 461 -237 L473 -171 C444 -169 412 -165 389 -161 L513 490 Z M394 413 L387 377 C365 264 270 81 186 81 C158 81 141 105 141 162 C141 277 197 422 330 422 C355 422 376 418 394 413 L394 413 Z " />
<glyph glyph-name="r" unicode="r" horiz-adv-x="386" d="M422 505 C322 527 265 443 210 328 L208 329 C235 407 248 456 256 497 C197 500 124 496 68 490 L56 424 C85 422 118 418 140 414 L60 0 L165 0 L186 110 C213 256 305 437 400 402 L422 505 Z " />
<glyph glyph-name="s" unicode="s" horiz-adv-x="379" d="M357 499 C332 504 305 507 272 507 C137 507 68 438 68 351 C68 232 208 218 208 145 C208 100 169 77 110 77 C83 77 56 82 31 91 L13 -2 C38 -7 65 -10 98 -10 C245 -10 318 73 318 156 C318 266 177 291 177 362 C177 400 207 426 266 426 C290 426 315 423 337 415 L357 499 Z " />
<glyph glyph-name="t" unicode="t" horiz-adv-x="366" d="M380 497 L252 497 L287 678 L178 655 L148 497 L55 497 L38 414 L132 414 L83 156 C60 40 89 -9 193 -9 C222 -9 259 -5 290 2 L298 89 C279 85 259 82 232 82 C187 82 177 101 190 170 L236 414 L363 414 L380 497 Z " />
<glyph glyph-name="u" unicode="u" horiz-adv-x="612" d="M564 497 L459 497 L437 379 C415 259 318 81 237 81 C198 81 186 111 199 182 L260 497 C200 500 125 496 68 490 L56 424 C85 422 118 418 140 414 L90 157 C71 56 102 -11 195 -11 C295 -11 369 80 416 178 L418 177 C386 84 373 31 368 0 C428 -3 499 1 555 7 L568 73 C540 75 506 79 484 83 L564 497 Z " />
<glyph glyph-name="v" unicode="v" horiz-adv-x="481" d="M518 486 L417 518 L223 133 L221 133 C219 167 216 204 210 239 L169 497 L57 497 L145 0 L254 0 L518 486 Z " />
<glyph glyph-name="w" unicode="w" horiz-adv-x="777" d="M810 487 L710 517 C650 390 589 260 530 132 L529 132 C528 167 525 215 518 267 L488 497 L382 497 C323 374 262 249 207 133 L206 133 C205 172 201 219 197 266 L177 497 L66 497 L120 0 L232 0 C290 119 349 237 405 357 L406 357 C407 319 409 284 414 252 L447 0 L566 0 L810 487 Z " />
<glyph glyph-name="x" unicode="x" horiz-adv-x="517" d="M542 471 L459 524 L278 322 L198 497 L79 497 L198 257 L-23 27 L62 -28 L246 177 L328 0 L452 0 L328 244 L542 471 Z " />
<glyph glyph-name="y" unicode="y" horiz-adv-x="497" d="M524 489 L426 517 C353 338 289 201 216 70 L215 70 C218 87 221 107 221 122 C221 228 198 377 167 497 L50 497 C94 335 124 171 124 35 C124 -32 108 -74 73 -110 C42 -142 4 -160 -30 -160 C-51 -160 -72 -157 -91 -150 L-109 -244 C-89 -249 -62 -252 -37 -252 C24 -252 85 -222 147 -161 C269 -40 388 170 524 489 L524 489 Z " />
<glyph glyph-name="z" unicode="z" horiz-adv-x="433" d="M432 497 L102 497 L83 401 L170 401 C220 401 257 402 282 403 L16 76 L1 0 L341 0 L360 98 L272 98 C231 98 178 97 154 96 L417 422 L432 497 Z " />
<glyph glyph-name="braceleft" unicode="&#x7b;" horiz-adv-x="344" d="M417 774 L396 774 C274 774 217 696 193 568 L174 464 C159 381 125 360 52 356 L36 274 C104 270 132 245 116 163 L85 6 C59 -130 91 -201 210 -201 L229 -201 L245 -116 C179 -116 164 -91 183 4 L213 160 C232 257 205 305 151 313 L151 315 C210 322 252 365 272 467 L291 570 C310 665 334 690 401 690 L417 774 Z " />
<glyph glyph-name="bar" unicode="&#x7c;" horiz-adv-x="280" d="M281 756 L197 756 L7 -244 L90 -244 L281 756 Z " />
<glyph glyph-name="braceright" unicode="&#x7d;" horiz-adv-x="344" d="M344 356 C276 360 248 383 264 464 L285 568 C311 698 280 774 159 774 L141 774 L125 691 C191 691 206 666 188 571 L168 467 C149 371 175 325 229 317 L229 315 C171 308 128 262 108 160 L79 5 C61 -90 36 -116 -31 -116 L-47 -201 L-26 -201 C92 -201 149 -137 177 7 L206 163 C222 246 255 270 329 274 L344 356 Z " />
<glyph glyph-name="asciitilde" unicode="&#x7e;" horiz-adv-x="550" d="M563 579 L483 579 C478 527 457 493 420 493 C355 493 356 601 244 601 C157 601 97 540 92 435 L172 435 C177 486 198 520 235 520 C300 520 299 412 411 412 C498 412 558 474 563 579 L563 579 Z " />
<glyph glyph-name="nbspace" unicode="&#xa0;" horiz-adv-x="218" d="" />
<glyph glyph-name="exclamdown" unicode="&#xa1;" horiz-adv-x="314" d="M255 444 C255 478 229 507 190 507 C152 507 120 478 120 437 C120 403 146 374 185 374 C223 374 255 403 255 444 L255 444 Z M209 320 L120 320 L3 -208 L126 -208 L209 320 Z " />
<glyph glyph-name="cent" unicode="&#xa2;" horiz-adv-x="550" d="M522 542 C488 555 450 563 418 565 L435 650 L353 650 L336 562 C194 540 89 433 89 269 C89 163 148 111 248 101 L229 0 L311 0 L330 101 C370 104 416 116 454 133 L440 217 C398 198 359 190 319 190 C239 190 203 225 203 288 C203 395 274 479 381 479 C418 479 453 471 484 455 L522 542 Z " />
<glyph glyph-name="sterling" unicode="&#xa3;" horiz-adv-x="550" d="M535 644 C498 654 449 660 413 660 C199 660 169 504 166 364 L76 364 L60 281 L162 281 C161 192 141 147 40 73 L26 0 L440 0 L458 92 L251 92 C223 92 196 91 175 90 C241 143 268 195 269 281 L414 281 L430 364 L273 364 C275 475 291 573 400 573 C437 573 473 564 502 554 L535 644 Z " />
<glyph glyph-name="currency" unicode="&#xa4;" horiz-adv-x="550" d="M566 543 L497 604 L405 506 C385 517 359 520 335 520 C308 520 281 515 255 504 L201 604 L112 548 L169 453 C119 404 99 340 99 280 C99 248 105 222 117 204 L29 116 L102 55 L191 151 C206 144 226 140 252 140 C279 140 308 147 336 160 L395 54 L484 111 L422 213 C470 266 488 326 488 386 C488 413 483 435 474 449 L566 543 Z M392 369 C392 301 347 218 269 218 C216 218 196 251 196 295 C196 367 240 441 317 441 C370 441 392 412 392 369 L392 369 Z " />
<glyph glyph-name="yen" unicode="&#xa5;" horiz-adv-x="550" d="M603 650 L484 650 L365 469 C341 433 315 391 297 357 L296 357 C289 388 282 426 272 464 L222 650 L107 650 L209 307 L73 307 L60 237 L220 237 L208 171 L48 171 L34 101 L194 101 L175 0 L283 0 L302 101 L463 101 L476 171 L315 171 L327 237 L488 237 L502 307 L367 307 L603 650 Z " />
<glyph glyph-name="brokenbar" unicode="&#xa6;" horiz-adv-x="280" d="M281 756 L197 756 L128 388 L211 388 L281 756 Z M162 134 L79 134 L7 -244 L90 -244 L162 134 Z " />
<glyph glyph-name="section" unicode="&#xa7;" horiz-adv-x="514" d="M467 729 C443 734 414 737 386 737 C222 737 166 625 166 557 C166 529 173 506 189 478 C120 432 84 372 84 303 C84 165 242 96 242 11 C242 -23 218 -78 138 -78 C114 -78 91 -73 65 -65 L43 -156 C68 -162 99 -166 130 -166 C274 -166 355 -74 355 21 C355 50 347 76 335 95 C400 138 439 200 439 266 C439 414 280 484 280 562 C280 597 301 650 380 650 C401 650 421 647 445 639 L467 729 Z M341 248 C341 216 325 180 285 154 C228 221 182 269 182 323 C182 359 198 394 238 419 C295 349 341 303 341 248 L341 248 Z " />
<glyph glyph-name="dieresis" unicode="&#xa8;" horiz-adv-x="535" d="M469 654 C469 685 444 712 411 712 C377 712 348 685 348 650 C348 618 373 591 407 591 C440 591 469 618 469 654 L469 654 Z M273 654 C273 685 248 712 214 712 C181 712 151 685 151 650 C151 618 176 591 210 591 C244 591 273 618 273 654 L273 654 Z " />
<glyph glyph-name="copyright" unicode="&#xa9;" horiz-adv-x="743" d="M729 351 C729 530 588 672 405 672 C217 672 51 519 51 318 C51 139 190 -3 376 -3 C563 -3 729 148 729 351 L729 351 Z M646 347 C646 192 522 76 380 76 C243 76 135 187 135 322 C135 477 259 592 401 592 C539 592 646 481 646 347 L646 347 Z M515 499 C495 507 469 513 431 513 C306 513 228 406 228 283 C228 205 272 157 360 157 C391 157 428 164 460 176 L457 247 C433 237 405 232 380 232 C338 232 318 256 318 297 C318 359 346 442 426 442 C452 442 474 436 490 426 L515 499 Z " />
<glyph glyph-name="ordfeminine" unicode="&#xaa;" horiz-adv-x="395" d="M320 607 L316 583 C300 493 243 404 190 404 C170 404 161 418 161 454 C161 530 203 613 277 613 C291 613 305 611 320 607 L320 607 Z M378 279 L69 279 L54 195 L362 195 L378 279 Z M425 400 C407 402 382 405 366 407 C373 446 408 624 417 673 C375 680 334 682 294 682 C149 682 72 565 72 435 C72 364 101 328 159 328 C216 328 264 366 298 430 L299 430 C286 392 276 359 270 335 C316 333 370 336 414 341 L425 400 Z " />
<glyph glyph-name="guillemotleft" unicode="&#xab;" horiz-adv-x="506" d="M487 435 L412 478 L262 298 L353 110 L439 150 L365 293 L487 435 Z M279 439 L202 481 L60 299 L142 107 L229 146 L163 293 L279 439 Z " />
<glyph glyph-name="logicalnot" unicode="&#xac;" horiz-adv-x="550" d="M506 342 L61 342 L44 253 L395 253 L366 100 L460 100 L506 342 Z " />
<glyph glyph-name="registered" unicode="&#xae;" horiz-adv-x="552" d="M556 542 C556 663 464 754 344 754 C221 754 109 654 109 516 C109 397 200 305 321 305 C442 305 556 406 556 542 L556 542 Z M487 538 C487 441 410 368 324 368 C241 368 178 439 178 522 C178 618 255 691 341 691 C424 691 487 620 487 538 L487 538 Z M428 595 C428 626 408 645 358 645 L279 645 L236 419 L288 419 L305 509 L313 509 L341 419 L403 419 L378 489 C374 499 369 512 365 518 C403 529 428 556 428 595 L428 595 Z M370 585 C370 563 353 547 325 547 L313 547 L324 604 L344 604 C362 604 370 598 370 585 L370 585 Z " />
<glyph glyph-name="macron" unicode="&#xaf;" horiz-adv-x="387" d="M408 687 L153 687 L139 609 L393 609 L408 687 Z " />
<glyph glyph-name="degree" unicode="&#xb0;" horiz-adv-x="374" d="M401 616 C401 681 362 736 270 736 C199 736 120 687 120 592 C120 521 165 471 249 471 C323 471 401 518 401 616 L401 616 Z M319 609 C319 567 293 539 258 539 C222 539 202 563 202 599 C202 642 230 668 265 668 C306 668 319 634 319 609 L319 609 Z " />
<glyph glyph-name="plusminus" unicode="&#xb1;" horiz-adv-x="550" d="M546 429 L362 429 L399 618 L297 618 L261 429 L77 429 L61 340 L244 340 L208 150 L310 150 L346 340 L529 340 L546 429 Z M479 89 L16 89 L-1 0 L462 0 L479 89 Z " />
<glyph glyph-name="twosuperior" unicode="&#xb2;" horiz-adv-x="313" d="M321 583 C321 626 290 659 219 659 C185 659 150 650 121 637 L132 573 C149 583 173 590 190 590 C214 590 225 578 225 561 C225 536 210 516 155 474 L79 416 L67 355 L289 355 L303 425 L192 425 L239 460 C297 504 321 537 321 583 L321 583 Z " />
<glyph glyph-name="threesuperior" unicode="&#xb3;" horiz-adv-x="524" d="M311 592 C311 629 283 659 214 659 C182 659 147 652 123 643 L130 589 C146 596 166 601 186 601 C211 601 221 590 221 577 C221 551 199 529 138 529 L122 529 L112 477 C177 485 203 475 203 452 C203 422 180 405 135 405 C119 405 99 409 86 413 L69 354 C83 350 113 346 137 346 C246 346 296 397 296 454 C296 483 281 504 252 508 C293 525 311 556 311 592 L311 592 Z " />
<glyph glyph-name="acute" unicode="&#xb4;" horiz-adv-x="383" d="M359 675 L313 748 L147 624 L185 566 L359 675 Z " />
<glyph glyph-name="mu" unicode="&#xb5;" horiz-adv-x="618" d="M572 63 L536 107 C523 88 508 75 490 75 C471 75 463 89 475 153 L541 497 L437 497 L407 342 C379 189 280 81 217 81 C184 81 163 112 176 182 L236 497 L132 497 L-10 -244 L101 -244 L135 18 C151 0 174 -8 196 -8 C271 -8 351 66 381 131 L382 131 C373 100 369 82 369 63 C369 15 393 -10 447 -10 C501 -10 541 18 572 63 L572 63 Z " />
<glyph glyph-name="paragraph" unicode="&#xb6;" horiz-adv-x="573" d="M602 675 L444 675 L313 -12 L243 -12 L227 -96 L389 -96 L520 591 L587 591 L602 675 Z M369 675 C196 675 98 542 98 413 C98 311 157 239 286 240 L369 675 Z " />
<glyph glyph-name="periodcentered" unicode="&#xb7;" horiz-adv-x="250" d="M210 300 C210 338 180 370 140 370 C100 370 64 337 64 295 C64 257 95 225 134 225 C175 225 210 258 210 300 L210 300 Z " />
<glyph glyph-name="cedilla" unicode="&#xb8;" horiz-adv-x="392" d="M199 -40 L107 -70 C143 -129 124 -173 65 -235 L152 -235 C215 -173 238 -109 199 -40 L199 -40 Z " />
<glyph glyph-name="onesuperior" unicode="&#xb9;" horiz-adv-x="306" d="M292 650 L213 650 L115 612 L119 547 L191 577 L150 355 L236 355 L292 650 Z " />
<glyph glyph-name="ordmasculine" unicode="&#xba;" horiz-adv-x="414" d="M427 558 C427 631 392 685 291 685 C166 685 88 578 88 452 C88 373 132 328 219 328 C326 328 427 410 427 558 L427 558 Z M360 279 L69 279 L53 195 L344 195 L360 279 Z M335 546 C335 471 295 405 233 405 C195 405 179 428 179 467 C179 522 205 608 280 608 C323 608 335 580 335 546 L335 546 Z " />
<glyph glyph-name="guillemotright" unicode="&#xbb;" horiz-adv-x="506" d="M479 290 L397 482 L309 442 L375 295 L260 150 L336 108 L479 290 Z M277 291 L185 478 L99 438 L174 295 L52 154 L126 111 L277 291 Z " />
<glyph glyph-name="onequarter" unicode="&#xbc;" horiz-adv-x="701" d="M292 650 L212 650 L115 612 L118 547 L191 577 L149 355 L236 355 L292 650 Z M684 618 L626 669 L15 30 L72 -21 L684 618 Z M626 115 L578 115 L613 295 L495 295 L354 110 L349 52 L489 52 L479 0 L557 0 L567 52 L614 52 L626 115 Z M526 240 L501 114 L428 114 L526 240 Z " />
<glyph glyph-name="onehalf" unicode="&#xbd;" horiz-adv-x="704" d="M633 227 C633 271 602 304 531 304 C498 304 463 295 433 282 L444 217 C462 228 486 235 502 235 C526 235 537 222 537 206 C537 181 522 161 468 119 L391 61 L379 0 L602 0 L615 69 L504 69 L551 105 C610 148 633 182 633 227 L633 227 Z M684 618 L626 669 L15 30 L72 -21 L684 618 Z M292 650 L212 650 L115 612 L118 547 L191 577 L149 355 L236 355 L292 650 Z " />
<glyph glyph-name="threequarters" unicode="&#xbe;" horiz-adv-x="703" d="M529 240 L505 114 L432 114 L529 240 Z M630 115 L582 115 L617 295 L499 295 L358 110 L352 52 L493 52 L483 0 L560 0 L570 52 L618 52 L630 115 Z M686 618 L628 669 L17 30 L74 -21 L686 618 Z M313 592 C313 629 286 659 216 659 C184 659 149 652 126 643 L133 589 C149 596 169 601 188 601 C214 601 223 590 223 577 C223 551 202 529 140 529 L124 529 L115 477 C180 485 205 475 205 452 C205 422 182 405 137 405 C121 405 102 409 88 413 L72 354 C86 350 116 346 139 346 C248 346 298 397 298 454 C298 483 283 504 254 508 C295 525 313 556 313 592 L313 592 Z " />
<glyph glyph-name="questiondown" unicode="&#xbf;" horiz-adv-x="439" d="M358 444 C358 478 332 507 293 507 C255 507 223 478 223 437 C223 403 249 374 288 374 C326 374 358 403 358 444 L358 444 Z M321 320 L218 320 C241 147 10 141 10 -33 C10 -125 96 -204 266 -216 L298 -119 C200 -109 128 -74 128 -16 C128 97 351 116 321 320 L321 320 Z " />
<glyph glyph-name="Agrave" unicode="&#xc0;" horiz-adv-x="609" d="M453 781 L265 855 L230 776 L428 721 L453 781 Z M558 0 L446 675 L327 675 L-39 0 L74 0 L153 149 L421 149 L443 0 L558 0 Z M409 236 L197 236 L318 459 C335 491 349 523 361 551 L363 551 C365 522 368 489 373 458 L409 236 Z " />
<glyph glyph-name="Aacute" unicode="&#xc1;" horiz-adv-x="609" d="M541 776 L524 855 L324 781 L338 721 L541 776 Z M558 0 L446 675 L327 675 L-39 0 L74 0 L153 149 L421 149 L443 0 L558 0 Z M409 236 L197 236 L318 459 C335 491 349 523 361 551 L363 551 C365 522 368 489 373 458 L409 236 Z " />
<glyph glyph-name="Acircumflex" unicode="&#xc2;" horiz-adv-x="609" d="M551 776 L404 860 L234 774 L256 720 L396 781 L520 720 L551 776 Z M558 0 L446 675 L327 675 L-39 0 L74 0 L153 149 L421 149 L443 0 L558 0 Z M409 236 L197 236 L318 459 C335 491 349 523 361 551 L363 551 C365 522 368 489 373 458 L409 236 Z " />
<glyph glyph-name="Atilde" unicode="&#xc3;" horiz-adv-x="609" d="M579 809 L527 847 C508 818 489 803 466 803 C425 803 407 853 340 853 C291 853 251 825 222 775 L273 738 C292 767 311 782 335 782 C375 782 393 732 460 732 C508 732 550 759 579 809 L579 809 Z M558 0 L446 675 L327 675 L-39 0 L74 0 L153 149 L421 149 L443 0 L558 0 Z M409 236 L197 236 L318 459 C335 491 349 523 361 551 L363 551 C365 522 368 489 373 458 L409 236 Z " />
<glyph glyph-name="Adieresis" unicode="&#xc4;" horiz-adv-x="609" d="M560 786 C560 815 538 839 507 839 C477 839 451 814 451 781 C451 752 474 728 504 728 C534 728 560 753 560 786 L560 786 Z M349 786 C349 815 327 839 296 839 C266 839 240 814 240 781 C240 752 263 728 293 728 C323 728 349 753 349 786 L349 786 Z M558 0 L446 675 L327 675 L-39 0 L74 0 L153 149 L421 149 L443 0 L558 0 Z M409 236 L197 236 L318 459 C335 491 349 523 361 551 L363 551 C365 522 368 489 373 458 L409 236 Z " />
<glyph glyph-name="Aring" unicode="&#xc5;" horiz-adv-x="609" d="M558 0 L452 636 C485 654 510 691 510 734 C510 796 462 842 398 842 C333 842 272 793 272 721 C272 688 287 661 310 644 L-39 0 L74 0 L153 149 L421 149 L443 0 L558 0 Z M445 731 C445 697 419 672 388 672 C359 672 338 695 338 724 C338 757 363 783 395 783 C425 783 445 759 445 731 L445 731 Z M409 236 L197 236 L310 445 C330 482 347 518 361 550 L362 550 C364 517 368 482 374 448 L409 236 Z " />
<glyph glyph-name="AE" unicode="&#xc6;" horiz-adv-x="760" d="M782 675 L377 675 L-86 0 L31 0 L136 154 L342 154 L313 0 L662 0 L680 93 L433 93 L474 303 L703 303 L720 392 L491 392 L528 584 L765 584 L782 675 Z M425 585 L359 240 L190 240 L332 441 C373 499 399 544 423 585 L425 585 Z " />
<glyph glyph-name="Ccedilla" unicode="&#xc7;" horiz-adv-x="556" d="M589 661 C547 674 498 681 442 681 C184 681 50 460 50 226 C50 111 98 -8 297 -8 C356 -8 424 5 476 24 L475 121 C433 103 381 90 329 90 C208 90 170 153 170 245 C170 399 241 585 430 585 C473 585 517 577 560 562 L589 661 Z M298 -40 L206 -70 C242 -129 223 -173 164 -235 L251 -235 C314 -173 337 -109 298 -40 L298 -40 Z " />
<glyph glyph-name="Egrave" unicode="&#xc8;" horiz-adv-x="487" d="M420 781 L232 855 L197 776 L395 721 L420 781 Z M510 675 L161 675 L33 0 L382 0 L399 93 L157 93 L197 303 L427 303 L445 392 L214 392 L251 584 L492 584 L510 675 Z " />
<glyph glyph-name="Eacute" unicode="&#xc9;" horiz-adv-x="487" d="M498 776 L481 855 L281 781 L295 721 L498 776 Z M510 675 L161 675 L33 0 L382 0 L399 93 L157 93 L197 303 L427 303 L445 392 L214 392 L251 584 L492 584 L510 675 Z " />
<glyph glyph-name="Ecircumflex" unicode="&#xca;" horiz-adv-x="487" d="M513 776 L365 860 L195 774 L218 720 L358 781 L481 720 L513 776 Z M510 675 L161 675 L33 0 L382 0 L399 93 L157 93 L197 303 L427 303 L445 392 L214 392 L251 584 L492 584 L510 675 Z " />
<glyph glyph-name="Edieresis" unicode="&#xcb;" horiz-adv-x="487" d="M508 786 C508 815 485 839 455 839 C424 839 398 814 398 781 C398 752 421 728 451 728 C482 728 508 753 508 786 L508 786 Z M297 786 C297 815 275 839 244 839 C214 839 188 814 188 781 C188 752 210 728 241 728 C271 728 297 753 297 786 L297 786 Z M510 675 L161 675 L33 0 L382 0 L399 93 L157 93 L197 303 L427 303 L445 392 L214 392 L251 584 L492 584 L510 675 Z " />
<glyph glyph-name="Igrave" unicode="&#xcc;" horiz-adv-x="260" d="M300 781 L112 855 L77 776 L275 721 L300 781 Z M268 675 L161 675 L33 0 L140 0 L268 675 Z " />
<glyph glyph-name="Iacute" unicode="&#xcd;" horiz-adv-x="260" d="M374 776 L357 855 L157 781 L170 721 L374 776 Z M268 675 L161 675 L33 0 L140 0 L268 675 Z " />
<glyph glyph-name="Icircumflex" unicode="&#xce;" horiz-adv-x="260" d="M390 776 L242 860 L72 774 L95 720 L235 781 L358 720 L390 776 Z M268 675 L161 675 L33 0 L140 0 L268 675 Z " />
<glyph glyph-name="Idieresis" unicode="&#xcf;" horiz-adv-x="260" d="M390 786 C390 815 368 839 337 839 C307 839 281 814 281 781 C281 752 303 728 334 728 C364 728 390 753 390 786 L390 786 Z M179 786 C179 815 157 839 126 839 C96 839 70 814 70 781 C70 752 93 728 123 728 C153 728 179 753 179 786 L179 786 Z M268 675 L161 675 L33 0 L140 0 L268 675 Z " />
<glyph glyph-name="Eth" unicode="&#xd0;" horiz-adv-x="673" d="M658 434 C658 585 570 678 370 678 C300 678 222 675 171 674 L116 386 L28 386 L12 304 L100 304 L43 0 C94 -1 147 -4 223 -4 C519 -4 658 210 658 434 L658 434 Z M544 423 C544 276 462 89 239 89 C219 89 188 91 167 94 L207 304 L337 304 L353 386 L223 386 L261 585 C284 587 318 588 356 588 C500 588 544 520 544 423 L544 423 Z " />
<glyph glyph-name="Ntilde" unicode="&#xd1;" horiz-adv-x="678" d="M623 809 L571 847 C552 818 533 803 510 803 C469 803 451 853 384 853 C335 853 295 825 265 775 L317 738 C335 767 355 782 378 782 C419 782 437 732 504 732 C552 732 593 759 623 809 L623 809 Z M686 675 L581 675 L527 379 C513 306 500 223 490 156 C475 205 458 258 438 309 L287 675 L161 675 L33 0 L137 0 L193 299 C207 374 221 452 230 524 C242 480 259 429 279 379 L432 0 L557 0 L686 675 Z " />
<glyph glyph-name="Ograve" unicode="&#xd2;" horiz-adv-x="690" d="M521 781 L333 855 L298 776 L496 721 L521 781 Z M683 439 C683 596 597 685 437 685 C216 685 47 480 47 236 C47 82 126 -10 292 -10 C507 -10 683 181 683 439 L683 439 Z M568 427 C568 239 453 87 307 87 C213 87 163 150 163 253 C163 430 267 589 420 589 C521 589 568 525 568 427 L568 427 Z " />
<glyph glyph-name="Oacute" unicode="&#xd3;" horiz-adv-x="690" d="M610 776 L592 855 L392 781 L406 721 L610 776 Z M683 439 C683 596 597 685 437 685 C216 685 47 480 47 236 C47 82 126 -10 292 -10 C507 -10 683 181 683 439 L683 439 Z M568 427 C568 239 453 87 307 87 C213 87 163 150 163 253 C163 430 267 589 420 589 C521 589 568 525 568 427 L568 427 Z " />
<glyph glyph-name="Ocircumflex" unicode="&#xd4;" horiz-adv-x="690" d="M620 776 L473 860 L303 774 L325 720 L465 781 L588 720 L620 776 Z M683 439 C683 596 597 685 437 685 C216 685 47 480 47 236 C47 82 126 -10 292 -10 C507 -10 683 181 683 439 L683 439 Z M568 427 C568 239 453 87 307 87 C213 87 163 150 163 253 C163 430 267 589 420 589 C521 589 568 525 568 427 L568 427 Z " />
<glyph glyph-name="Otilde" unicode="&#xd5;" horiz-adv-x="690" d="M646 809 L595 847 C576 818 556 803 533 803 C492 803 474 853 407 853 C358 853 318 825 289 775 L340 738 C359 767 379 782 402 782 C443 782 461 732 527 732 C575 732 617 759 646 809 L646 809 Z M683 439 C683 596 597 685 437 685 C216 685 47 480 47 236 C47 82 126 -10 292 -10 C507 -10 683 181 683 439 L683 439 Z M568 427 C568 239 453 87 307 87 C213 87 163 150 163 253 C163 430 267 589 420 589 C521 589 568 525 568 427 L568 427 Z " />
<glyph glyph-name="Odieresis" unicode="&#xd6;" horiz-adv-x="690" d="M627 786 C627 815 604 839 574 839 C543 839 518 814 518 781 C518 752 540 728 570 728 C601 728 627 753 627 786 L627 786 Z M416 786 C416 815 394 839 363 839 C333 839 307 814 307 781 C307 752 329 728 360 728 C390 728 416 753 416 786 L416 786 Z M683 439 C683 596 597 685 437 685 C216 685 47 480 47 236 C47 82 126 -10 292 -10 C507 -10 683 181 683 439 L683 439 Z M568 427 C568 239 453 87 307 87 C213 87 163 150 163 253 C163 430 267 589 420 589 C521 589 568 525 568 427 L568 427 Z " />
<glyph glyph-name="multiply" unicode="&#xd7;" horiz-adv-x="550" d="M542 457 L488 521 L297 360 L166 521 L94 463 L226 300 L32 137 L85 73 L278 236 L409 73 L481 131 L349 295 L542 457 Z " />
<glyph glyph-name="Oslash" unicode="&#xd8;" horiz-adv-x="690" d="M683 439 C683 542 646 615 577 653 L626 743 L550 772 L500 679 C480 683 459 685 436 685 C213 685 47 480 47 236 C47 137 79 65 144 25 L92 -73 L168 -102 L221 -2 C242 -7 266 -10 292 -10 C507 -10 683 181 683 439 L683 439 Z M571 428 C571 249 465 106 333 90 C311 87 290 87 271 91 L523 551 C555 525 571 483 571 428 L571 428 Z M450 586 L202 132 C173 159 160 200 160 251 C160 422 257 573 397 588 C416 590 434 589 450 586 L450 586 Z " />
<glyph glyph-name="Ugrave" unicode="&#xd9;" horiz-adv-x="673" d="M495 781 L307 855 L272 776 L470 721 L495 781 Z M680 675 L575 675 L495 258 C471 128 411 80 302 80 C193 80 163 133 182 234 L267 675 L160 675 L77 240 C51 101 87 -10 287 -10 C457 -10 565 71 599 247 L680 675 Z " />
<glyph glyph-name="Uacute" unicode="&#xda;" horiz-adv-x="673" d="M599 776 L581 855 L381 781 L395 721 L599 776 Z M680 675 L575 675 L495 258 C471 128 411 80 302 80 C193 80 163 133 182 234 L267 675 L160 675 L77 240 C51 101 87 -10 287 -10 C457 -10 565 71 599 247 L680 675 Z " />
<glyph glyph-name="Ucircumflex" unicode="&#xdb;" horiz-adv-x="673" d="M597 776 L449 860 L279 774 L301 720 L442 781 L565 720 L597 776 Z M680 675 L575 675 L495 258 C471 128 411 80 302 80 C193 80 163 133 182 234 L267 675 L160 675 L77 240 C51 101 87 -10 287 -10 C457 -10 565 71 599 247 L680 675 Z " />
<glyph glyph-name="Udieresis" unicode="&#xdc;" horiz-adv-x="673" d="M588 786 C588 815 566 839 535 839 C505 839 479 814 479 781 C479 752 502 728 532 728 C562 728 588 753 588 786 L588 786 Z M378 786 C378 815 355 839 325 839 C294 839 268 814 268 781 C268 752 291 728 321 728 C352 728 378 753 378 786 L378 786 Z M680 675 L575 675 L495 258 C471 128 411 80 302 80 C193 80 163 133 182 234 L267 675 L160 675 L77 240 C51 101 87 -10 287 -10 C457 -10 565 71 599 247 L680 675 Z " />
<glyph glyph-name="Yacute" unicode="&#xdd;" horiz-adv-x="536" d="M521 776 L503 855 L303 781 L317 721 L521 776 Z M614 675 L495 675 L366 475 C337 431 309 388 287 348 L285 348 C278 384 270 422 259 462 L202 675 L90 675 L214 241 L169 0 L275 0 L321 241 L614 675 Z " />
<glyph glyph-name="Thorn" unicode="&#xde;" horiz-adv-x="524" d="M539 408 C539 513 470 579 329 579 C300 579 274 578 249 576 L268 675 L161 675 L33 0 L139 0 L164 132 C181 130 198 130 223 130 C418 130 539 260 539 408 L539 408 Z M426 390 C426 299 358 219 240 219 C219 219 200 220 182 223 L231 485 C252 488 281 490 301 490 C390 490 426 449 426 390 L426 390 Z " />
<glyph glyph-name="germandbls" unicode="&#xdf;" horiz-adv-x="577" d="M553 611 C553 687 490 736 387 736 C254 736 159 664 127 497 L28 -23 C7 -134 -24 -164 -89 -164 C-109 -164 -129 -162 -148 -157 L-172 -244 C-150 -249 -122 -252 -100 -252 C26 -252 101 -192 133 -24 L233 503 C253 608 304 653 374 653 C419 653 443 630 443 599 C443 500 288 496 288 362 C288 255 401 225 401 147 C401 103 367 76 307 76 C280 76 256 81 232 89 L213 -2 C238 -7 262 -10 297 -10 C435 -10 512 69 512 158 C512 265 396 299 396 375 C396 470 553 468 553 611 L553 611 Z " />
<glyph glyph-name="agrave" unicode="&#xe0;" horiz-adv-x="568" d="M513 490 C462 500 406 505 348 505 C130 505 33 328 33 143 C33 37 73 -11 146 -11 C258 -11 330 108 368 183 L370 182 C343 100 326 42 318 0 C378 -3 450 1 506 7 L518 73 C490 75 457 79 435 83 L513 490 Z M394 413 L387 377 C365 264 270 81 186 81 C158 81 141 105 141 162 C141 277 197 422 330 422 C355 422 376 418 394 413 L394 413 Z M444 622 L302 748 L244 680 L397 566 L444 622 Z " />
<glyph glyph-name="aacute" unicode="&#xe1;" horiz-adv-x="568" d="M513 490 C462 500 406 505 348 505 C130 505 33 328 33 143 C33 37 73 -11 146 -11 C258 -11 330 108 368 183 L370 182 C343 100 326 42 318 0 C378 -3 450 1 506 7 L518 73 C490 75 457 79 435 83 L513 490 Z M394 413 L387 377 C365 264 270 81 186 81 C158 81 141 105 141 162 C141 277 197 422 330 422 C355 422 376 418 394 413 L394 413 Z M531 675 L485 748 L319 624 L357 566 L531 675 Z " />
<glyph glyph-name="acircumflex" unicode="&#xe2;" horiz-adv-x="568" d="M513 490 C462 500 406 505 348 505 C130 505 33 328 33 143 C33 37 73 -11 146 -11 C258 -11 330 108 368 183 L370 182 C343 100 326 42 318 0 C378 -3 450 1 506 7 L518 73 C490 75 457 79 435 83 L513 490 Z M394 413 L387 377 C365 264 270 81 186 81 C158 81 141 105 141 162 C141 277 197 422 330 422 C355 422 376 418 394 413 L394 413 Z M515 616 L396 748 L230 615 L268 566 L381 649 L466 566 L515 616 Z " />
<glyph glyph-name="atilde" unicode="&#xe3;" horiz-adv-x="568" d="M513 490 C462 500 406 505 348 505 C130 505 33 328 33 143 C33 37 73 -11 146 -11 C258 -11 330 108 368 183 L370 182 C343 100 326 42 318 0 C378 -3 450 1 506 7 L518 73 C490 75 457 79 435 83 L513 490 Z M394 413 L387 377 C365 264 270 81 186 81 C158 81 141 105 141 162 C141 277 197 422 330 422 C355 422 376 418 394 413 L394 413 Z M553 670 L503 711 C485 681 465 665 443 665 C404 665 386 718 322 718 C274 718 234 688 205 635 L256 594 C274 625 294 640 316 640 C355 640 372 588 436 588 C483 588 525 617 553 670 L553 670 Z " />
<glyph glyph-name="adieresis" unicode="&#xe4;" horiz-adv-x="568" d="M513 490 C462 500 406 505 348 505 C130 505 33 328 33 143 C33 37 73 -11 146 -11 C258 -11 330 108 368 183 L370 182 C343 100 326 42 318 0 C378 -3 450 1 506 7 L518 73 C490 75 457 79 435 83 L513 490 Z M394 413 L387 377 C365 264 270 81 186 81 C158 81 141 105 141 162 C141 277 197 422 330 422 C355 422 376 418 394 413 L394 413 Z M531 654 C531 685 506 712 473 712 C439 712 410 685 410 650 C410 618 435 591 469 591 C502 591 531 618 531 654 L531 654 Z M335 654 C335 685 310 712 276 712 C243 712 213 685 213 650 C213 618 238 591 272 591 C306 591 335 618 335 654 L335 654 Z " />
<glyph glyph-name="aring" unicode="&#xe5;" horiz-adv-x="568" d="M513 490 C462 500 406 505 348 505 C130 505 33 328 33 143 C33 37 73 -11 146 -11 C258 -11 330 108 368 183 L370 182 C343 100 326 42 318 0 C378 -3 450 1 506 7 L518 73 C490 75 457 79 435 83 L513 490 Z M394 413 L387 377 C365 264 270 81 186 81 C158 81 141 105 141 162 C141 277 197 422 330 422 C355 422 376 418 394 413 L394 413 Z M511 671 C511 733 463 779 398 779 C333 779 273 730 273 658 C273 595 322 549 386 549 C451 549 511 600 511 671 L511 671 Z M446 668 C446 634 419 609 389 609 C359 609 338 632 338 661 C338 694 364 720 395 720 C425 720 446 696 446 668 L446 668 Z " />
<glyph glyph-name="ae" unicode="&#xe6;" horiz-adv-x="763" d="M746 390 C746 449 708 507 593 507 C523 507 461 472 426 438 C408 476 376 507 284 507 C228 507 167 495 114 474 L114 384 C160 409 218 423 262 423 C339 423 357 385 343 319 L336 289 C152 281 17 236 17 101 C17 41 53 -10 145 -10 C225 -10 298 39 333 96 C348 34 386 -10 489 -10 C554 -10 615 2 666 21 L666 105 C622 87 571 76 524 76 C449 76 423 94 423 162 C423 180 425 201 427 215 C671 226 746 292 746 390 L746 390 Z M642 376 C642 313 560 296 441 289 C462 364 510 428 581 428 C617 428 642 409 642 376 L642 376 Z M322 216 C309 140 250 73 175 73 C143 73 121 93 121 122 C121 192 204 210 322 216 L322 216 Z " />
<glyph glyph-name="ccedilla" unicode="&#xe7;" horiz-adv-x="408" d="M425 492 C393 501 361 506 322 506 C143 506 34 349 34 159 C34 60 81 -9 212 -9 C259 -9 305 1 340 15 L343 105 C315 93 278 85 242 85 C164 85 146 132 146 183 C146 287 199 417 315 417 C348 417 376 410 400 399 L425 492 Z M209 -40 L117 -70 C153 -129 134 -173 75 -235 L162 -235 C225 -173 248 -109 209 -40 L209 -40 Z " />
<glyph glyph-name="egrave" unicode="&#xe8;" horiz-adv-x="480" d="M464 390 C464 449 425 507 311 507 C151 507 35 354 35 155 C35 43 87 -10 207 -10 C272 -10 333 2 386 22 L383 105 C339 87 289 76 242 76 C167 76 142 94 142 162 C142 177 144 199 146 212 C351 219 464 278 464 390 L464 390 Z M359 376 C359 319 295 291 159 286 C179 362 227 427 299 427 C336 427 359 409 359 376 L359 376 Z M407 622 L265 748 L207 680 L360 566 L407 622 Z " />
<glyph glyph-name="eacute" unicode="&#xe9;" horiz-adv-x="480" d="M464 390 C464 449 425 507 311 507 C151 507 35 354 35 155 C35 43 87 -10 207 -10 C272 -10 333 2 386 22 L383 105 C339 87 289 76 242 76 C167 76 142 94 142 162 C142 177 144 199 146 212 C351 219 464 278 464 390 L464 390 Z M359 376 C359 319 295 291 159 286 C179 362 227 427 299 427 C336 427 359 409 359 376 L359 376 Z M475 675 L429 748 L263 624 L301 566 L475 675 Z " />
<glyph glyph-name="ecircumflex" unicode="&#xea;" horiz-adv-x="480" d="M464 390 C464 449 425 507 311 507 C151 507 35 354 35 155 C35 43 87 -10 207 -10 C272 -10 333 2 386 22 L383 105 C339 87 289 76 242 76 C167 76 142 94 142 162 C142 177 144 199 146 212 C351 219 464 278 464 390 L464 390 Z M359 376 C359 319 295 291 159 286 C179 362 227 427 299 427 C336 427 359 409 359 376 L359 376 Z M468 616 L349 748 L183 615 L221 566 L334 649 L419 566 L468 616 Z " />
<glyph glyph-name="edieresis" unicode="&#xeb;" horiz-adv-x="480" d="M464 390 C464 449 425 507 311 507 C151 507 35 354 35 155 C35 43 87 -10 207 -10 C272 -10 333 2 386 22 L383 105 C339 87 289 76 242 76 C167 76 142 94 142 162 C142 177 144 199 146 212 C351 219 464 278 464 390 L464 390 Z M359 376 C359 319 295 291 159 286 C179 362 227 427 299 427 C336 427 359 409 359 376 L359 376 Z M498 654 C498 685 473 712 440 712 C406 712 377 685 377 650 C377 618 402 591 436 591 C469 591 498 618 498 654 L498 654 Z M302 654 C302 685 277 712 243 712 C210 712 180 685 180 650 C180 618 205 591 239 591 C273 591 302 618 302 654 L302 654 Z " />
<glyph glyph-name="igrave" unicode="&#xec;" horiz-adv-x="286" d="M260 497 C197 500 124 496 68 490 L56 424 C85 422 118 418 140 414 L60 0 L165 0 L260 497 Z M298 622 L156 748 L98 680 L251 566 L298 622 Z " />
<glyph glyph-name="iacute" unicode="&#xed;" horiz-adv-x="286" d="M260 497 C197 500 124 496 68 490 L56 424 C85 422 118 418 140 414 L60 0 L165 0 L260 497 Z M343 675 L297 748 L131 624 L169 566 L343 675 Z " />
<glyph glyph-name="icircumflex" unicode="&#xee;" horiz-adv-x="286" d="M260 497 C197 500 124 496 68 490 L56 424 C85 422 118 418 140 414 L60 0 L165 0 L260 497 Z M351 616 L232 748 L66 615 L104 566 L217 649 L302 566 L351 616 Z " />
<glyph glyph-name="idieresis" unicode="&#xef;" horiz-adv-x="286" d="M260 497 C197 500 124 496 68 490 L56 424 C85 422 118 418 140 414 L60 0 L165 0 L260 497 Z M385 654 C385 685 360 712 327 712 C293 712 264 685 264 650 C264 618 289 591 323 591 C356 591 385 618 385 654 L385 654 Z M189 654 C189 685 164 712 130 712 C97 712 67 685 67 650 C67 618 92 591 126 591 C160 591 189 618 189 654 L189 654 Z " />
<glyph glyph-name="eth" unicode="&#xf0;" horiz-adv-x="539" d="M541 672 L509 727 L404 684 C387 706 366 727 345 747 L242 701 C265 681 285 663 304 642 L207 601 L240 546 L347 591 C363 567 377 542 389 513 C394 503 401 485 407 466 C393 494 357 505 316 505 C161 505 51 364 36 206 C23 56 96 -10 226 -10 C387 -10 497 142 512 318 C521 427 504 533 443 631 L541 672 Z M402 304 C396 214 353 82 237 82 C175 82 139 127 144 209 C150 317 211 417 310 417 C376 417 406 371 402 304 L402 304 Z " />
<glyph glyph-name="ntilde" unicode="&#xf1;" horiz-adv-x="589" d="M534 340 C553 441 523 508 429 508 C329 508 255 417 209 319 L207 320 C238 413 251 466 257 497 C198 500 124 496 68 490 L56 424 C85 422 118 418 140 414 L60 0 L165 0 L187 118 C210 238 307 416 388 416 C426 416 438 386 425 315 L365 0 L469 0 L534 340 Z M541 670 L491 711 C473 681 453 665 431 665 C392 665 374 718 310 718 C262 718 222 688 193 635 L244 594 C262 625 282 640 304 640 C343 640 360 588 424 588 C471 588 513 617 541 670 L541 670 Z " />
<glyph glyph-name="ograve" unicode="&#xf2;" horiz-adv-x="542" d="M517 326 C517 432 463 507 327 507 C166 507 34 371 34 168 C34 55 91 -10 222 -10 C374 -10 517 122 517 326 L517 326 Z M406 314 C406 184 331 82 237 82 C170 82 144 120 144 185 C144 299 209 416 311 416 C377 416 406 380 406 314 L406 314 Z M418 622 L276 748 L218 680 L371 566 L418 622 Z " />
<glyph glyph-name="oacute" unicode="&#xf3;" horiz-adv-x="542" d="M517 326 C517 432 463 507 327 507 C166 507 34 371 34 168 C34 55 91 -10 222 -10 C374 -10 517 122 517 326 L517 326 Z M406 314 C406 184 331 82 237 82 C170 82 144 120 144 185 C144 299 209 416 311 416 C377 416 406 380 406 314 L406 314 Z M498 675 L452 748 L286 624 L324 566 L498 675 Z " />
<glyph glyph-name="ocircumflex" unicode="&#xf4;" horiz-adv-x="542" d="M517 326 C517 432 463 507 327 507 C166 507 34 371 34 168 C34 55 91 -10 222 -10 C374 -10 517 122 517 326 L517 326 Z M406 314 C406 184 331 82 237 82 C170 82 144 120 144 185 C144 299 209 416 311 416 C377 416 406 380 406 314 L406 314 Z M500 616 L381 748 L215 615 L253 566 L366 649 L451 566 L500 616 Z " />
<glyph glyph-name="otilde" unicode="&#xf5;" horiz-adv-x="542" d="M517 326 C517 432 463 507 327 507 C166 507 34 371 34 168 C34 55 91 -10 222 -10 C374 -10 517 122 517 326 L517 326 Z M406 314 C406 184 331 82 237 82 C170 82 144 120 144 185 C144 299 209 416 311 416 C377 416 406 380 406 314 L406 314 Z M530 670 L480 711 C462 681 442 665 420 665 C381 665 363 718 299 718 C251 718 211 688 182 635 L233 594 C251 625 271 640 293 640 C332 640 349 588 413 588 C460 588 502 617 530 670 L530 670 Z " />
<glyph glyph-name="odieresis" unicode="&#xf6;" horiz-adv-x="542" d="M517 326 C517 432 463 507 327 507 C166 507 34 371 34 168 C34 55 91 -10 222 -10 C374 -10 517 122 517 326 L517 326 Z M406 314 C406 184 331 82 237 82 C170 82 144 120 144 185 C144 299 209 416 311 416 C377 416 406 380 406 314 L406 314 Z M517 654 C517 685 492 712 459 712 C425 712 396 685 396 650 C396 618 421 591 455 591 C488 591 517 618 517 654 L517 654 Z M321 654 C321 685 296 712 262 712 C229 712 199 685 199 650 C199 618 224 591 258 591 C292 591 321 618 321 654 L321 654 Z " />
<glyph glyph-name="divide" unicode="&#xf7;" horiz-adv-x="550" d="M392 501 C392 536 364 567 326 567 C288 567 256 536 256 497 C256 461 285 430 322 430 C360 430 392 461 392 501 L392 501 Z M530 342 L61 342 L44 253 L512 253 L530 342 Z M314 98 C314 134 286 165 248 165 C210 165 179 134 179 94 C179 59 207 28 245 28 C282 28 314 59 314 98 L314 98 Z " />
<glyph glyph-name="oslash" unicode="&#xf8;" horiz-adv-x="542" d="M518 326 C518 396 494 452 440 482 L493 575 L433 604 L376 502 C362 505 345 507 329 507 C156 507 36 361 36 168 C36 100 57 49 102 20 L48 -74 L109 -104 L166 -3 C183 -7 202 -10 224 -10 C376 -10 518 122 518 326 L518 326 Z M415 314 C415 193 345 86 253 78 C237 77 224 78 212 82 L386 390 C405 373 415 347 415 314 L415 314 Z M330 419 L159 117 C145 134 138 159 138 190 C138 309 206 414 299 420 C310 420 320 420 330 419 L330 419 Z " />
<glyph glyph-name="ugrave" unicode="&#xf9;" horiz-adv-x="612" d="M564 497 L459 497 L437 379 C415 259 318 81 237 81 C198 81 186 111 199 182 L260 497 C200 500 125 496 68 490 L56 424 C85 422 118 418 140 414 L90 157 C71 56 102 -11 195 -11 C295 -11 369 80 416 178 L418 177 C386 84 373 31 368 0 C428 -3 499 1 555 7 L568 73 C540 75 506 79 484 83 L564 497 Z M435 622 L293 748 L235 680 L388 566 L435 622 Z " />
<glyph glyph-name="uacute" unicode="&#xfa;" horiz-adv-x="612" d="M564 497 L459 497 L437 379 C415 259 318 81 237 81 C198 81 186 111 199 182 L260 497 C200 500 125 496 68 490 L56 424 C85 422 118 418 140 414 L90 157 C71 56 102 -11 195 -11 C295 -11 369 80 416 178 L418 177 C386 84 373 31 368 0 C428 -3 499 1 555 7 L568 73 C540 75 506 79 484 83 L564 497 Z M521 675 L475 748 L309 624 L347 566 L521 675 Z " />
<glyph glyph-name="ucircumflex" unicode="&#xfb;" horiz-adv-x="612" d="M564 497 L459 497 L437 379 C415 259 318 81 237 81 C198 81 186 111 199 182 L260 497 C200 500 125 496 68 490 L56 424 C85 422 118 418 140 414 L90 157 C71 56 102 -11 195 -11 C295 -11 369 80 416 178 L418 177 C386 84 373 31 368 0 C428 -3 499 1 555 7 L568 73 C540 75 506 79 484 83 L564 497 Z M510 616 L391 748 L225 615 L263 566 L376 649 L461 566 L510 616 Z " />
<glyph glyph-name="udieresis" unicode="&#xfc;" horiz-adv-x="612" d="M564 497 L459 497 L437 379 C415 259 318 81 237 81 C198 81 186 111 199 182 L260 497 C200 500 125 496 68 490 L56 424 C85 422 118 418 140 414 L90 157 C71 56 102 -11 195 -11 C295 -11 369 80 416 178 L418 177 C386 84 373 31 368 0 C428 -3 499 1 555 7 L568 73 C540 75 506 79 484 83 L564 497 Z M533 654 C533 685 508 712 475 712 C441 712 412 685 412 650 C412 618 437 591 471 591 C504 591 533 618 533 654 L533 654 Z M337 654 C337 685 312 712 278 712 C245 712 215 685 215 650 C215 618 240 591 274 591 C308 591 337 618 337 654 L337 654 Z " />
<glyph glyph-name="yacute" unicode="&#xfd;" horiz-adv-x="497" d="M524 489 L426 517 C353 338 289 201 216 70 L215 70 C218 87 221 107 221 122 C221 228 198 377 167 497 L50 497 C94 335 124 171 124 35 C124 -32 108 -74 73 -110 C42 -142 4 -160 -30 -160 C-51 -160 -72 -157 -91 -150 L-109 -244 C-89 -249 -62 -252 -37 -252 C24 -252 85 -222 147 -161 C269 -40 388 170 524 489 L524 489 Z M462 675 L416 748 L250 624 L288 566 L462 675 Z " />
<glyph glyph-name="thorn" unicode="&#xfe;" horiz-adv-x="546" d="M521 354 C521 460 482 508 408 508 C313 508 238 425 188 319 L186 320 C222 424 234 479 247 546 L283 730 C219 733 147 729 91 723 L79 657 C107 655 140 651 163 647 L-8 -244 L97 -244 L142 -3 C164 -6 183 -8 205 -8 C423 -8 521 169 521 354 L521 354 Z M412 335 C412 220 356 76 224 76 C205 76 179 80 160 87 L167 122 C189 233 283 416 367 416 C395 416 412 392 412 335 L412 335 Z " />
<glyph glyph-name="ydieresis" unicode="&#xff;" horiz-adv-x="497" d="M524 489 L426 517 C353 338 289 201 216 70 L215 70 C218 87 221 107 221 122 C221 228 198 377 167 497 L50 497 C94 335 124 171 124 35 C124 -32 108 -74 73 -110 C42 -142 4 -160 -30 -160 C-51 -160 -72 -157 -91 -150 L-109 -244 C-89 -249 -62 -252 -37 -252 C24 -252 85 -222 147 -161 C269 -40 388 170 524 489 L524 489 Z M465 654 C465 685 440 712 407 712 C373 712 344 685 344 650 C344 618 369 591 403 591 C436 591 465 618 465 654 L465 654 Z M269 654 C269 685 244 712 210 712 C177 712 147 685 147 650 C147 618 172 591 206 591 C240 591 269 618 269 654 L269 654 Z " />
<glyph glyph-name="dotlessi" unicode="&#x131;" horiz-adv-x="286" d="M260 497 C197 500 124 496 68 490 L56 424 C85 422 118 418 140 414 L60 0 L165 0 L260 497 Z " />
<glyph glyph-name="Lslash" unicode="&#x141;" horiz-adv-x="428" d="M394 95 L167 95 L206 305 L334 345 L329 427 L223 393 L277 675 L170 675 L110 361 L5 326 L11 245 L93 273 L40 0 L375 0 L394 95 Z " />
<glyph glyph-name="lslash" unicode="&#x142;" horiz-adv-x="284" d="M331 462 L320 540 L244 498 L289 730 C225 733 153 729 97 723 L85 657 C113 655 146 651 169 647 L129 440 L24 382 L34 304 L111 348 L45 0 L150 0 L227 405 L331 462 Z " />
<glyph glyph-name="OE" unicode="&#x152;" horiz-adv-x="845" d="M867 675 L537 675 C507 682 475 685 437 685 C216 685 47 480 47 236 C47 82 126 -10 292 -10 C328 -10 363 -6 399 0 L738 0 L757 93 L515 93 L554 303 L785 303 L801 392 L571 392 L608 584 L850 584 L867 675 Z M499 575 L410 102 C379 93 345 87 307 87 C212 87 163 150 163 253 C163 430 267 589 420 589 C448 589 474 584 499 575 L499 575 Z " />
<glyph glyph-name="oe" unicode="&#x153;" horiz-adv-x="833" d="M817 390 C817 449 779 507 665 507 C587 507 530 473 487 420 C462 474 409 507 327 507 C166 507 34 371 34 168 C34 55 91 -10 222 -10 C294 -10 363 23 411 77 C428 16 478 -10 560 -10 C625 -10 686 2 739 22 L736 105 C693 87 642 76 595 76 C520 76 495 94 495 162 C495 177 498 199 499 212 C704 219 817 278 817 390 L817 390 Z M713 376 C713 319 648 291 512 286 C533 362 581 427 653 427 C689 427 713 409 713 376 L713 376 Z M406 314 C406 184 331 82 237 82 C170 82 144 120 144 185 C144 299 209 416 311 416 C377 416 406 380 406 314 L406 314 Z " />
<glyph glyph-name="Scaron" unicode="&#x160;" horiz-adv-x="457" d="M504 806 L482 860 L342 799 L219 860 L187 804 L334 720 L504 806 Z M454 676 C416 683 384 685 348 685 C180 685 92 586 92 469 C92 308 291 307 291 199 C291 130 238 86 142 86 C107 86 67 95 37 108 L17 4 C51 -7 95 -10 134 -10 C294 -10 407 89 407 217 C407 378 206 381 206 494 C206 544 246 595 341 595 C367 595 402 590 435 579 L454 676 Z " />
<glyph glyph-name="scaron" unicode="&#x161;" horiz-adv-x="379" d="M357 499 C332 504 305 507 272 507 C137 507 68 438 68 351 C68 232 208 218 208 145 C208 100 169 77 110 77 C83 77 56 82 31 91 L13 -2 C38 -7 65 -10 98 -10 C245 -10 318 73 318 156 C318 266 177 291 177 362 C177 400 207 426 266 426 C290 426 315 423 337 415 L357 499 Z M426 699 L389 748 L275 665 L190 748 L141 698 L261 566 L426 699 Z " />
<glyph glyph-name="Ydieresis" unicode="&#x178;" horiz-adv-x="536" d="M524 786 C524 815 502 839 471 839 C441 839 415 814 415 781 C415 752 438 728 468 728 C498 728 524 753 524 786 L524 786 Z M314 786 C314 815 291 839 261 839 C230 839 204 814 204 781 C204 752 227 728 257 728 C288 728 314 753 314 786 L314 786 Z M614 675 L495 675 L366 475 C337 431 308 388 287 348 L285 348 C278 384 270 422 259 462 L202 675 L90 675 L214 241 L168 0 L275 0 L321 241 L614 675 Z " />
<glyph glyph-name="Zcaron" unicode="&#x17d;" horiz-adv-x="519" d="M542 806 L520 860 L380 799 L256 860 L225 804 L372 720 L542 806 Z M556 675 L138 675 L119 578 L277 578 C344 578 379 578 407 579 C384 555 364 533 343 506 L16 83 L0 0 L431 0 L451 100 L305 100 C221 100 168 100 150 98 C167 117 181 133 195 152 L540 589 L556 675 Z " />
<glyph glyph-name="zcaron" unicode="&#x17e;" horiz-adv-x="433" d="M432 497 L102 497 L83 401 L170 401 C220 401 257 402 282 403 L16 76 L1 0 L341 0 L360 98 L272 98 C231 98 178 97 154 96 L417 422 L432 497 Z M447 699 L410 748 L296 665 L211 748 L162 698 L282 566 L447 699 Z " />
<glyph glyph-name="florin" unicode="&#x192;" horiz-adv-x="550" d="M595 690 C567 697 534 702 506 702 C376 702 300 638 262 503 L223 364 L100 364 L87 281 L202 281 L136 42 C113 -40 74 -73 16 -73 C-10 -73 -44 -66 -70 -58 L-92 -148 C-63 -156 -29 -160 -3 -160 C126 -160 205 -99 243 41 L309 281 L462 281 L475 364 L330 364 L367 498 C390 582 428 615 489 615 C514 615 545 609 573 599 L595 690 Z " />
<glyph glyph-name="circumflex" unicode="&#x2c6;" horiz-adv-x="421" d="M407 616 L288 748 L122 615 L160 566 L273 649 L358 566 L407 616 Z " />
<glyph glyph-name="caron" unicode="&#x2c7;" horiz-adv-x="421" d="M412 699 L375 748 L261 665 L176 748 L127 698 L247 566 L412 699 Z " />
<glyph glyph-name="breve" unicode="&#x2d8;" horiz-adv-x="380" d="M415 721 L342 721 C335 681 309 659 275 659 C237 659 223 686 228 721 L158 721 C147 648 173 579 264 579 C355 579 405 646 415 721 L415 721 Z " />
<glyph glyph-name="dotaccent" unicode="&#x2d9;" horiz-adv-x="279" d="M289 657 C289 689 262 719 224 719 C187 719 153 689 153 648 C153 614 179 585 217 585 C255 585 289 615 289 657 L289 657 Z " />
<glyph glyph-name="ring" unicode="&#x2da;" horiz-adv-x="367" d="M387 655 C387 717 339 763 274 763 C209 763 149 714 149 642 C149 579 198 533 262 533 C327 533 387 584 387 655 L387 655 Z M322 652 C322 618 295 593 265 593 C235 593 214 616 214 645 C214 678 240 704 271 704 C301 704 322 680 322 652 L322 652 Z " />
<glyph glyph-name="ogonek" unicode="&#x2db;" horiz-adv-x="296" d="M173 0 L58 0 C2 -35 -35 -91 -35 -138 C-35 -183 -6 -217 60 -217 C111 -217 156 -194 191 -153 L151 -105 C134 -124 115 -134 98 -134 C80 -134 71 -123 71 -110 C71 -84 93 -43 173 0 L173 0 Z " />
<glyph glyph-name="tilde" unicode="&#x2dc;" horiz-adv-x="474" d="M466 670 L416 711 C398 681 378 665 356 665 C317 665 299 718 235 718 C187 718 147 688 118 635 L169 594 C187 625 207 640 229 640 C268 640 285 588 349 588 C396 588 438 617 466 670 L466 670 Z " />
<glyph glyph-name="hungarumlaut" unicode="&#x2dd;" horiz-adv-x="488" d="M527 692 L473 750 L322 610 L369 566 L527 692 Z M340 702 L283 757 L142 610 L190 566 L340 702 Z " />
<glyph glyph-name="pi" unicode="&#x3c0;" horiz-adv-x="653" d="M640 497 L77 497 L60 411 L162 411 L84 0 L182 0 L260 411 L423 411 L368 126 C351 35 368 -10 453 -10 C489 -10 526 -6 553 1 L559 76 C545 72 526 69 509 69 C465 69 458 85 480 195 L521 411 L623 411 L640 497 Z " />
<glyph glyph-name="endash" unicode="&#x2013;" horiz-adv-x="550" d="M571 344 L21 344 L3 251 L553 251 L571 344 Z " />
<glyph glyph-name="emdash" unicode="&#x2014;" horiz-adv-x="1000" d="M906 344 L136 344 L118 251 L889 251 L906 344 Z " />
<glyph glyph-name="quoteleft" unicode="&#x2018;" horiz-adv-x="249" d="M300 707 L262 752 C51 604 92 461 176 461 C230 461 258 520 233 561 C210 598 222 641 300 707 L300 707 Z " />
<glyph glyph-name="quoteright" unicode="&#x2019;" horiz-adv-x="249" d="M211 745 C156 745 130 686 154 645 C176 608 165 564 86 499 L125 454 C335 602 294 745 211 745 L211 745 Z " />
<glyph glyph-name="quotesinglbase" unicode="&#x201a;" horiz-adv-x="249" d="M92 129 C37 129 10 70 35 30 C58 -8 46 -51 -33 -117 L6 -162 C216 -14 175 129 92 129 L92 129 Z " />
<glyph glyph-name="quotedblleft" unicode="&#x201c;" horiz-adv-x="447" d="M504 707 L465 752 C255 604 296 461 380 461 C434 461 461 520 436 560 C414 598 426 641 504 707 L504 707 Z M300 707 L262 752 C51 604 92 461 176 461 C230 461 257 520 233 560 C210 598 222 641 300 707 L300 707 Z " />
<glyph glyph-name="quotedblright" unicode="&#x201d;" horiz-adv-x="447" d="M414 745 C359 745 333 686 357 645 C380 608 368 564 289 499 L328 454 C538 602 498 745 414 745 L414 745 Z M211 745 C156 745 129 686 154 645 C177 608 165 564 86 499 L125 454 C335 602 294 745 211 745 L211 745 Z " />
<glyph glyph-name="quotedblbase" unicode="&#x201e;" horiz-adv-x="447" d="M295 129 C241 129 214 70 239 30 C261 -8 250 -51 171 -117 L210 -162 C420 -14 379 129 295 129 L295 129 Z M92 129 C37 129 10 70 35 30 C58 -8 46 -51 -33 -117 L6 -162 C216 -14 175 129 92 129 L92 129 Z " />
<glyph glyph-name="dagger" unicode="&#x2020;" horiz-adv-x="443" d="M475 629 L340 629 L384 766 L263 766 L256 629 L120 629 L105 546 L240 546 L204 453 L176 200 L256 200 L325 453 L325 546 L459 546 L475 629 Z " />
<glyph glyph-name="daggerdbl" unicode="&#x2021;" horiz-adv-x="443" d="M477 639 L343 639 L384 766 L263 766 L257 639 L123 639 L107 557 L241 557 L205 465 L206 374 L72 374 L56 292 L190 292 L148 165 L270 165 L276 292 L410 292 L425 374 L292 374 L327 465 L328 557 L461 557 L477 639 Z " />
<glyph glyph-name="bullet" unicode="&#x2022;" horiz-adv-x="421" d="M355 301 C355 371 299 430 226 430 C152 430 91 369 91 293 C91 223 147 164 220 164 C294 164 355 225 355 301 L355 301 Z " />
<glyph glyph-name="ellipsis" unicode="&#x2026;" horiz-adv-x="677" d="M593 61 C593 96 566 127 529 127 C491 127 459 96 459 55 C459 21 486 -10 524 -10 C561 -10 593 21 593 61 L593 61 Z M374 61 C374 96 347 127 310 127 C273 127 240 96 240 55 C240 21 267 -10 305 -10 C342 -10 374 21 374 61 L374 61 Z M156 61 C156 96 128 127 91 127 C54 127 22 96 22 55 C22 21 49 -10 86 -10 C123 -10 156 21 156 61 L156 61 Z " />
<glyph glyph-name="perthousand" unicode="&#x2030;" horiz-adv-x="1022" d="M961 190 C961 267 915 299 846 299 C750 299 676 207 676 99 C676 24 719 -10 790 -10 C886 -10 961 77 961 190 L961 190 Z M375 551 C375 628 330 660 261 660 C164 660 91 569 91 461 C91 386 134 351 204 351 C300 351 375 439 375 551 L375 551 Z M711 614 L657 667 L23 35 L76 -18 L711 614 Z M644 190 C644 267 598 299 529 299 C433 299 359 207 359 99 C359 24 402 -10 473 -10 C569 -10 644 77 644 190 L644 190 Z M881 182 C881 132 857 59 799 59 C770 59 756 73 756 106 C756 155 780 230 838 230 C868 230 881 214 881 182 L881 182 Z M295 544 C295 494 272 420 213 420 C185 420 170 435 170 468 C170 517 195 591 253 591 C282 591 295 576 295 544 L295 544 Z M564 182 C564 132 540 59 482 59 C453 59 439 73 439 106 C439 155 464 230 521 230 C551 230 564 214 564 182 L564 182 Z " />
<glyph glyph-name="guilsinglleft" unicode="&#x2039;" horiz-adv-x="307" d="M281 436 L206 480 L59 299 L145 108 L231 149 L162 293 L281 436 Z " />
<glyph glyph-name="guilsinglright" unicode="&#x203a;" horiz-adv-x="307" d="M274 289 L188 480 L103 439 L171 295 L52 152 L127 108 L274 289 Z " />
<glyph glyph-name="fraction" unicode="&#x2044;" horiz-adv-x="418" d="M558 641 L491 700 L-78 28 L-12 -30 L558 641 Z " />
<glyph glyph-name="Euro" unicode="&#x20ac;" horiz-adv-x="550" d="M583 634 C547 649 497 660 453 660 C282 660 186 557 138 436 L49 436 L36 368 L115 368 C107 340 102 310 99 285 L20 285 L8 217 L93 217 C89 76 147 -10 310 -10 C363 -10 426 1 479 23 L464 105 C425 89 379 77 335 77 C233 77 203 129 204 217 L387 217 L400 285 L208 285 C211 311 216 340 224 368 L415 368 L428 436 L251 436 C284 513 342 575 435 575 C474 575 518 564 548 547 L583 634 Z " />
<glyph glyph-name="trademark" unicode="&#x2122;" horiz-adv-x="681" d="M677 675 L583 675 L515 532 L500 491 L499 535 L487 675 L391 675 L296 394 L368 394 L417 544 L427 580 L428 538 L440 394 L514 394 L580 535 L598 580 L595 530 L589 394 L668 394 L677 675 Z M336 675 L121 675 L108 610 L179 610 L137 394 L215 394 L256 610 L324 610 L336 675 Z " />
<glyph glyph-name="Omega" unicode="&#x2126;" horiz-adv-x="790" d="M703 435 C703 599 608 685 461 685 C226 685 88 473 88 278 C88 173 133 115 177 80 L37 80 L22 0 L262 0 L278 80 C217 127 187 186 187 270 C187 409 270 599 444 599 C547 599 596 525 596 424 C596 291 528 152 405 79 L390 0 L630 0 L645 80 L512 80 C655 164 703 325 703 435 L703 435 Z " />
<glyph glyph-name="partialdiff" unicode="&#x2202;" horiz-adv-x="626" d="M593 464 C593 620 498 732 325 736 L294 647 C409 647 478 579 485 470 C487 431 478 391 478 364 C459 416 399 444 338 444 C187 444 67 327 67 167 C67 71 124 -8 251 -8 C475 -8 593 251 593 464 L593 464 Z M431 256 C431 159 357 85 273 85 C208 85 173 124 173 186 C173 280 237 354 322 354 C399 354 431 308 431 256 L431 256 Z " />
<glyph glyph-name="Delta" unicode="&#x2206;" horiz-adv-x="725" d="M657 0 L509 700 L402 700 L-10 0 L657 0 Z M525 97 L158 97 L430 568 L525 97 Z " />
<glyph glyph-name="product" unicode="&#x220f;" horiz-adv-x="823" d="M822 730 L139 730 L121 639 L221 639 L51 -244 L151 -244 L321 639 L606 639 L436 -244 L535 -244 L705 639 L805 639 L822 730 Z " />
<glyph glyph-name="summation" unicode="&#x2211;" horiz-adv-x="651" d="M626 730 L150 730 L134 647 L336 252 L-37 -161 L-53 -244 L455 -244 L474 -150 L99 -150 L458 244 L255 639 L610 639 L626 730 Z " />
<glyph glyph-name="minus" unicode="&#x2212;" horiz-adv-x="550" d="M530 344 L62 344 L44 251 L512 251 L530 344 Z " />
<glyph glyph-name="radical" unicode="&#x221a;" horiz-adv-x="606" d="M679 758 L563 758 L313 215 C297 181 284 151 270 116 L268 116 C266 152 262 187 258 222 L224 497 L53 497 L37 416 L125 416 L186 0 L307 0 L679 758 Z " />
<glyph glyph-name="infinity" unicode="&#x221e;" horiz-adv-x="980" d="M928 336 C928 411 881 474 767 474 C687 474 592 420 502 362 C434 420 359 474 276 474 C165 474 58 389 58 262 C58 182 107 124 220 124 C303 124 397 177 485 234 C552 176 625 124 704 124 C847 124 928 230 928 336 L928 336 Z M824 319 C824 262 780 217 718 217 C672 217 626 253 577 297 C646 342 708 381 754 381 C801 381 824 353 824 319 L824 319 Z M408 300 C338 255 276 217 230 217 C184 217 162 245 162 280 C162 336 206 381 266 381 C312 381 358 344 408 300 L408 300 Z " />
<glyph glyph-name="integral" unicode="&#x222b;" horiz-adv-x="338" d="M409 730 C394 734 375 737 360 737 C252 737 189 675 150 474 C110 267 98 138 69 -14 C46 -132 20 -161 -25 -161 C-40 -161 -56 -158 -69 -154 L-87 -247 C-71 -251 -52 -254 -35 -254 C75 -254 133 -190 171 9 C210 214 223 341 253 497 C276 617 302 645 346 645 C363 645 380 642 391 638 L409 730 Z " />
<glyph glyph-name="approxequal" unicode="&#x2248;" horiz-adv-x="550" d="M536 374 L501 447 C468 420 435 402 401 402 C334 402 303 462 214 462 C161 462 109 434 72 403 L107 330 C134 351 171 372 210 372 C289 372 310 313 399 313 C454 313 502 341 536 374 L536 374 Z M501 188 L467 260 C433 232 400 218 367 218 C287 218 265 278 174 278 C120 278 70 246 36 218 L73 145 C99 166 135 188 174 188 C248 188 269 129 363 129 C412 129 465 155 501 188 L501 188 Z " />
<glyph glyph-name="notequal" unicode="&#x2260;" horiz-adv-x="550" d="M537 430 L412 430 L491 563 L394 563 L315 430 L87 430 L71 343 L265 343 L211 251 L53 251 L36 164 L160 164 L83 33 L180 33 L257 164 L487 164 L503 251 L307 251 L362 343 L521 343 L537 430 Z " />
<glyph glyph-name="lessequal" unicode="&#x2264;" horiz-adv-x="550" d="M528 564 L472 639 L85 393 L392 135 L466 206 L229 387 L528 564 Z M453 89 L42 89 L24 0 L436 0 L453 89 Z " />
<glyph glyph-name="greaterequal" unicode="&#x2265;" horiz-adv-x="550" d="M521 381 L212 639 L139 569 L376 387 L77 209 L134 135 L521 381 Z M453 89 L42 89 L24 0 L436 0 L453 89 Z " />
<glyph glyph-name="lozenge" unicode="&#x25ca;" horiz-adv-x="610" d="M607 335 L427 684 L362 684 L54 340 L234 -9 L299 -9 L607 335 Z M492 332 L289 108 L169 340 L370 567 L492 332 Z " />
<glyph glyph-name="fi" unicode="&#xfb01;" horiz-adv-x="579" d="M569 718 C525 730 481 737 425 737 C261 737 176 659 153 517 L150 497 L57 497 L40 414 L134 414 L51 -22 C30 -131 -7 -163 -70 -163 C-90 -163 -115 -160 -136 -153 L-161 -243 C-134 -249 -103 -252 -75 -252 C47 -252 125 -184 156 -22 L238 414 L432 414 L354 0 L458 0 L553 497 L254 497 L260 526 C275 607 324 649 419 649 C454 649 499 642 532 630 L569 718 Z " />
<glyph glyph-name="fl" unicode="&#xfb02;" horiz-adv-x="577" d="M596 721 C540 731 477 737 415 737 C269 737 183 673 160 550 L150 497 L57 497 L40 414 L134 414 L51 -22 C30 -131 -7 -163 -70 -163 C-90 -163 -115 -160 -136 -153 L-161 -243 C-134 -249 -103 -252 -75 -252 C47 -252 125 -184 156 -22 L238 414 L358 414 L375 497 L254 497 L263 544 C278 618 322 650 402 650 C424 650 451 648 477 643 L354 0 L459 0 L596 721 Z " />
</font>
</svg>
