<?xml version="1.0" encoding="UTF-8"?>
<svg xmlns="http://www.w3.org/2000/svg" xmlns:xlink="http://www.w3.org/1999/xlink" version="1.2" >
<font id="TheMix B6 SemiBold">
<font-face  font-family="TheMix" units-per-em="1000" ascent="750" descent="-250" font-style="normal" font-weight="600" font-stretch="normal" cap-height="750" x-height="500" underline-position="-162" underline-thickness="86" />
<missing-glyph  horiz-adv-x="550" d="" />
<glyph glyph-name="NULL" d="" />
<glyph glyph-name="CR" unicode="&#xd;" horiz-adv-x="250" d="" />
<glyph glyph-name="space" unicode="&#x20;" horiz-adv-x="218" d="" />
<glyph glyph-name="exclam" unicode="&#x21;" horiz-adv-x="320" d="M232 705 L106 705 L124 177 L215 177 L232 705 Z M237 57 C237 94 207 123 169 123 C130 123 100 94 100 57 C100 19 130 -10 169 -10 C207 -10 237 19 237 57 L237 57 Z " />
<glyph glyph-name="quotedbl" unicode="&#x22;" horiz-adv-x="383" d="M335 701 L225 701 L240 460 L320 460 L335 701 Z M158 701 L48 701 L64 460 L143 460 L158 701 Z " />
<glyph glyph-name="numbersign" unicode="&#x23;" horiz-adv-x="550" d="M521 405 L521 478 L439 478 L457 650 L378 650 L360 478 L222 478 L241 650 L161 650 L143 478 L53 478 L53 405 L135 405 L120 251 L29 251 L29 177 L112 177 L93 0 L173 0 L191 177 L329 177 L310 0 L389 0 L408 177 L497 177 L497 251 L416 251 L431 405 L521 405 Z M352 405 L337 251 L199 251 L215 405 L352 405 Z " />
<glyph glyph-name="dollar" unicode="&#x24;" horiz-adv-x="550" d="M466 204 C466 398 187 360 187 474 C187 513 216 552 299 552 C333 552 372 547 410 535 L420 627 C389 634 352 638 315 639 L315 730 L237 730 L237 634 C141 618 78 548 78 462 C78 264 354 312 354 192 C354 132 303 105 234 105 C195 105 145 113 107 126 L98 29 C136 21 175 16 221 16 L221 -85 L299 -85 L299 21 C404 41 466 116 466 204 L466 204 Z " />
<glyph glyph-name="percent" unicode="&#x25;" horiz-adv-x="755" d="M713 153 C713 253 661 305 569 305 C479 305 416 238 416 144 C416 48 463 -10 560 -10 C649 -10 713 57 713 153 L713 153 Z M659 621 L591 669 L92 27 L161 -21 L659 621 Z M338 509 C338 608 287 660 194 660 C104 660 42 593 42 499 C42 403 89 345 185 345 C275 345 338 412 338 509 L338 509 Z M629 147 C629 93 602 59 566 59 C522 59 500 86 500 149 C500 203 527 236 564 236 C609 236 629 210 629 147 L629 147 Z M255 502 C255 448 228 414 192 414 C148 414 126 441 126 505 C126 558 153 591 190 591 C234 591 255 565 255 502 L255 502 Z " />
<glyph glyph-name="ampersand" unicode="&#x26;" horiz-adv-x="800" d="M746 61 C708 87 664 119 617 155 C679 235 711 338 704 452 C642 455 575 452 518 445 L518 383 C541 381 574 377 596 373 C594 308 570 249 541 210 L541 211 C465 270 383 345 326 401 C406 465 446 524 446 596 C446 679 387 738 278 738 C158 738 91 664 91 579 C91 527 112 480 184 399 C108 339 52 278 52 186 C52 78 127 -10 277 -10 C385 -10 477 27 539 80 C580 48 628 12 676 -21 L746 61 Z M341 587 C341 540 314 504 263 462 C214 519 197 554 197 585 C197 627 227 656 270 656 C319 656 341 625 341 587 L341 587 Z M461 139 C416 106 362 81 295 81 C214 81 162 136 162 200 C162 247 188 287 247 336 C301 279 384 203 461 139 L461 139 Z " />
<glyph glyph-name="quotesingle" unicode="&#x27;" horiz-adv-x="207" d="M158 701 L48 701 L64 460 L143 460 L158 701 Z " />
<glyph glyph-name="parenleft" unicode="&#x28;" horiz-adv-x="304" d="M290 -174 C207 -34 167 119 167 289 C167 452 209 611 287 747 L210 784 C98 608 62 435 62 284 C62 132 94 -30 209 -211 L290 -174 Z " />
<glyph glyph-name="parenright" unicode="&#x29;" horiz-adv-x="304" d="M246 288 C246 441 215 602 101 784 L20 746 C101 607 142 453 142 283 C142 120 100 -38 21 -175 L98 -211 C210 -35 246 137 246 288 L246 288 Z " />
<glyph glyph-name="asterisk" unicode="&#x2a;" horiz-adv-x="378" d="M339 534 L237 577 L339 620 L301 686 L213 620 L226 730 L148 730 L162 620 L74 686 L35 619 L137 576 L35 533 L73 466 L161 533 L148 423 L226 423 L212 533 L300 466 L339 534 Z " />
<glyph glyph-name="plus" unicode="&#x2b;" horiz-adv-x="550" d="M509 253 L509 342 L325 342 L325 536 L224 536 L224 342 L41 342 L41 253 L224 253 L224 58 L325 58 L325 253 L509 253 Z " />
<glyph glyph-name="comma" unicode="&#x2c;" horiz-adv-x="242" d="M119 129 C61 129 36 65 69 25 C95 -7 92 -52 26 -123 L71 -163 C240 -12 202 129 119 129 L119 129 Z " />
<glyph glyph-name="hyphen" unicode="&#x2d;" horiz-adv-x="332" d="M286 240 L286 326 L46 326 L46 240 L286 240 Z " />
<glyph glyph-name="period" unicode="&#x2e;" horiz-adv-x="242" d="M192 61 C192 100 160 132 121 132 C82 132 50 100 50 61 C50 22 82 -10 121 -10 C160 -10 192 22 192 61 L192 61 Z " />
<glyph glyph-name="slash" unicode="&#x2f;" horiz-adv-x="449" d="M451 757 L347 757 L-4 -161 L101 -161 L451 757 Z " />
<glyph glyph-name="zero" unicode="0" horiz-adv-x="550" d="M507 331 C507 580 418 660 281 660 C141 660 42 555 42 328 C42 73 125 -10 269 -10 C392 -10 507 86 507 331 L507 331 Z M392 326 C392 153 348 81 274 81 C188 81 157 150 157 333 C157 513 207 570 274 570 C354 570 392 515 392 326 L392 326 Z " />
<glyph glyph-name="one" unicode="1" horiz-adv-x="550" d="M499 0 L499 96 L351 96 L351 650 L267 650 L69 581 L87 480 L240 540 L240 96 L71 96 L71 0 L499 0 Z " />
<glyph glyph-name="two" unicode="2" horiz-adv-x="550" d="M488 0 L488 103 L397 103 C314 103 245 102 201 100 L201 102 L303 198 C432 320 464 385 464 471 C464 570 395 660 248 660 C175 660 110 638 60 609 L84 515 C117 540 170 563 227 563 C304 563 347 515 347 452 C347 394 322 349 178 207 L55 87 L55 0 L488 0 Z " />
<glyph glyph-name="three" unicode="3" horiz-adv-x="550" d="M478 202 C478 279 421 343 342 351 L343 353 C418 375 462 427 462 503 C462 593 394 660 254 660 C187 660 130 647 82 628 L92 537 C132 557 179 572 234 572 C307 572 350 538 350 484 C350 408 267 374 135 374 L110 374 L110 290 C144 293 173 295 209 295 C312 295 363 254 363 190 C363 125 311 80 207 80 C161 80 120 87 83 99 L72 6 C104 -4 151 -10 198 -10 C367 -10 478 70 478 202 L478 202 Z " />
<glyph glyph-name="four" unicode="4" horiz-adv-x="550" d="M529 146 L529 242 L429 242 L429 650 L284 650 L21 234 L30 146 L323 146 L323 0 L429 0 L429 146 L529 146 Z M325 242 C289 242 182 242 129 240 L324 543 L325 543 L325 242 Z " />
<glyph glyph-name="five" unicode="5" horiz-adv-x="550" d="M481 215 C481 320 398 399 242 399 C229 399 209 399 195 398 L195 549 L455 549 L455 650 L94 650 L94 306 C121 311 162 314 205 314 C302 314 364 276 364 203 C364 129 310 82 212 82 C161 82 120 89 82 101 L82 3 C121 -6 159 -10 204 -10 C370 -10 481 79 481 215 L481 215 Z " />
<glyph glyph-name="six" unicode="6" horiz-adv-x="550" d="M509 221 C509 326 438 411 307 411 C241 411 186 384 154 336 L153 336 C156 356 159 371 161 381 C188 500 252 569 376 569 C404 569 426 567 449 563 L449 656 C431 658 405 659 383 659 C183 659 47 538 47 268 C47 86 135 -10 279 -10 C417 -10 509 80 509 221 L509 221 Z M401 204 C401 130 359 77 286 77 C204 77 162 137 162 211 C162 263 206 323 282 323 C361 323 401 276 401 204 L401 204 Z " />
<glyph glyph-name="seven" unicode="7" horiz-adv-x="550" d="M497 558 L497 650 L53 650 L53 545 L140 545 C227 545 347 547 373 548 C286 387 198 178 136 0 L259 0 C313 165 400 376 497 558 L497 558 Z " />
<glyph glyph-name="eight" unicode="8" horiz-adv-x="550" d="M502 172 C502 261 438 306 370 342 C432 381 486 427 486 500 C486 593 410 660 281 660 C153 660 64 587 64 484 C64 409 108 364 178 326 C109 286 48 236 48 156 C48 54 134 -10 269 -10 C398 -10 502 57 502 172 L502 172 Z M377 491 C377 443 333 412 280 382 C208 417 173 443 173 493 C173 538 209 576 273 576 C338 576 377 543 377 491 L377 491 Z M390 162 C390 108 342 76 278 76 C201 76 159 113 159 164 C159 220 210 253 266 285 C333 256 390 226 390 162 L390 162 Z " />
<glyph glyph-name="nine" unicode="9" horiz-adv-x="550" d="M500 382 C500 575 410 660 270 660 C136 660 40 572 40 432 C40 321 111 237 241 237 C306 237 358 262 389 303 L390 303 C387 287 384 276 381 259 C358 142 292 82 173 82 C142 82 109 86 79 93 L79 -2 C107 -8 137 -9 164 -9 C362 -9 500 107 500 382 L500 382 Z M384 440 C384 379 341 326 263 326 C190 326 148 373 148 448 C148 518 190 573 262 573 C341 573 384 517 384 440 L384 440 Z " />
<glyph glyph-name="colon" unicode="&#x3a;" horiz-adv-x="292" d="M230 349 C230 388 198 420 159 420 C120 420 88 388 88 349 C88 310 120 278 159 278 C198 278 230 310 230 349 L230 349 Z M230 61 C230 100 198 132 159 132 C120 132 88 100 88 61 C88 22 120 -10 159 -10 C198 -10 230 22 230 61 L230 61 Z " />
<glyph glyph-name="semicolon" unicode="&#x3b;" horiz-adv-x="292" d="M230 349 C230 388 198 420 159 420 C120 420 88 388 88 349 C88 310 120 278 159 278 C198 278 230 310 230 349 L230 349 Z M159 129 C101 129 76 65 108 25 C135 -7 132 -52 66 -123 L111 -163 C280 -12 241 129 159 129 L159 129 Z " />
<glyph glyph-name="less" unicode="&#x3c;" horiz-adv-x="550" d="M455 86 L205 303 L454 520 L385 590 L68 302 L386 13 L455 86 Z " />
<glyph glyph-name="equal" unicode="&#x3d;" horiz-adv-x="550" d="M495 343 L495 430 L55 430 L55 343 L495 343 Z M495 164 L495 251 L55 251 L55 164 L495 164 Z " />
<glyph glyph-name="greater" unicode="&#x3e;" horiz-adv-x="550" d="M482 302 L164 590 L95 517 L345 301 L96 83 L165 13 L482 302 Z " />
<glyph glyph-name="question" unicode="&#x3f;" horiz-adv-x="448" d="M394 515 C394 615 291 707 90 713 L76 616 C200 611 276 566 276 503 C276 392 75 371 139 177 L243 177 C192 350 394 348 394 515 L394 515 Z M260 57 C260 94 231 123 192 123 C154 123 124 94 124 57 C124 19 154 -10 192 -10 C231 -10 260 19 260 57 L260 57 Z " />
<glyph glyph-name="at" unicode="&#x40;" horiz-adv-x="975" d="M882 409 C882 585 764 735 524 735 C281 735 83 545 83 281 C83 58 220 -84 466 -84 C525 -84 603 -74 666 -53 L650 31 C594 14 537 4 479 4 C280 4 181 115 181 293 C181 504 331 649 517 649 C713 649 786 527 786 404 C786 276 732 215 663 215 C617 215 598 243 611 313 L648 519 C617 528 571 536 525 536 C370 536 296 415 296 268 C296 177 331 129 395 129 C464 129 523 191 541 233 L544 233 C539 178 571 129 649 129 C782 129 882 227 882 409 L882 409 Z M553 456 L544 408 C518 276 464 215 420 215 C394 215 382 238 382 286 C382 358 420 463 501 463 C521 463 539 461 553 456 L553 456 Z " />
<glyph glyph-name="A" unicode="A" horiz-adv-x="620" d="M614 0 L369 675 L248 675 L6 0 L116 0 L168 149 L441 149 L493 0 L614 0 Z M413 236 L196 236 L276 460 C287 492 296 522 303 551 L305 551 C312 522 322 492 333 459 L413 236 Z " />
<glyph glyph-name="B" unicode="B" horiz-adv-x="574" d="M528 204 C528 274 486 341 398 358 L398 360 C468 386 508 445 508 514 C508 618 432 678 288 678 C206 678 131 676 78 675 L78 0 C153 -1 222 -3 263 -3 C470 -3 528 116 528 204 L528 204 Z M393 497 C393 429 346 388 245 388 C222 388 205 388 187 389 L187 589 C213 590 240 591 269 591 C363 591 393 552 393 497 L393 497 Z M412 202 C412 134 366 86 267 86 C232 86 204 88 187 91 L187 306 C202 307 237 307 248 307 C343 307 412 279 412 202 L412 202 Z " />
<glyph glyph-name="C" unicode="C" horiz-adv-x="575" d="M533 26 L515 122 C477 103 422 90 376 90 C229 90 162 180 162 337 C162 477 226 585 367 585 C416 585 465 576 510 560 L526 660 C480 674 426 681 376 681 C149 681 43 529 43 319 C43 138 126 -8 352 -8 C417 -8 482 5 533 26 L533 26 Z " />
<glyph glyph-name="D" unicode="D" horiz-adv-x="673" d="M631 347 C631 581 500 678 287 678 C209 678 131 675 78 674 L78 0 C131 -1 188 -4 257 -4 C477 -4 631 115 631 347 L631 347 Z M515 339 C515 166 413 89 268 89 C242 89 209 91 187 94 L187 585 C211 587 246 588 279 588 C444 588 515 499 515 339 L515 339 Z " />
<glyph glyph-name="E" unicode="E" horiz-adv-x="498" d="M434 0 L434 93 L187 93 L187 303 L422 303 L422 392 L187 392 L187 584 L434 584 L434 675 L78 675 L78 0 L434 0 Z " />
<glyph glyph-name="F" unicode="F" horiz-adv-x="467" d="M430 583 L430 675 L78 675 L78 0 L187 0 L187 296 L417 296 L417 385 L187 385 L187 583 L430 583 Z " />
<glyph glyph-name="G" unicode="G" horiz-adv-x="679" d="M604 31 L604 348 L495 348 L495 103 C464 93 430 87 391 87 C246 87 157 178 157 334 C157 501 264 589 400 589 C463 589 521 577 574 556 L597 656 C541 673 476 684 408 684 C180 684 40 532 40 323 C40 115 169 -10 378 -10 C455 -10 537 5 604 31 L604 31 Z " />
<glyph glyph-name="H" unicode="H" horiz-adv-x="693" d="M614 0 L614 675 L506 675 L506 396 L187 396 L187 675 L78 675 L78 0 L187 0 L187 303 L506 303 L506 0 L614 0 Z " />
<glyph glyph-name="I" unicode="I" horiz-adv-x="266" d="M187 0 L187 675 L78 675 L78 0 L187 0 Z " />
<glyph glyph-name="J" unicode="J" horiz-adv-x="332" d="M254 182 L254 675 L145 675 L145 187 C145 105 117 84 66 84 C42 84 18 89 1 95 L1 0 C22 -4 47 -8 79 -8 C209 -8 254 70 254 182 L254 182 Z " />
<glyph glyph-name="K" unicode="K" horiz-adv-x="590" d="M577 0 L299 349 L567 675 L433 675 L187 362 L187 675 L78 675 L78 0 L187 0 L187 330 L432 0 L577 0 Z " />
<glyph glyph-name="L" unicode="L" horiz-adv-x="427" d="M419 0 L419 95 L187 95 L187 675 L78 675 L78 0 L419 0 Z " />
<glyph glyph-name="M" unicode="M" horiz-adv-x="886" d="M845 0 L742 675 L611 675 L479 281 C463 235 453 197 441 147 L440 147 C428 198 414 247 402 285 L272 675 L142 675 L41 0 L152 0 L195 349 C202 413 209 466 213 524 L215 524 C225 473 239 421 258 365 L379 0 L492 0 L619 392 C636 443 646 486 654 524 L656 524 C661 480 667 427 677 359 L730 0 L845 0 Z " />
<glyph glyph-name="N" unicode="N" horiz-adv-x="704" d="M625 0 L625 675 L519 675 L519 475 C519 376 522 231 526 154 C501 203 474 257 444 307 L221 675 L78 675 L78 0 L184 0 L184 227 C184 323 182 460 178 526 C199 481 223 433 253 384 L484 0 L625 0 Z " />
<glyph glyph-name="O" unicode="O" horiz-adv-x="704" d="M666 346 C666 572 544 685 362 685 C184 685 38 554 38 330 C38 123 137 -10 342 -10 C521 -10 666 122 666 346 L666 346 Z M550 335 C550 167 450 87 350 87 C217 87 154 190 154 343 C154 505 248 589 352 589 C478 589 550 498 550 335 L550 335 Z " />
<glyph glyph-name="P" unicode="P" horiz-adv-x="527" d="M499 476 C499 601 411 679 251 679 C188 679 130 677 78 675 L78 0 L187 0 L187 249 C204 247 222 247 237 247 C394 247 499 345 499 476 L499 476 Z M386 467 C386 388 326 338 235 337 C219 337 202 339 187 341 L187 588 C205 590 222 590 243 590 C341 590 386 544 386 467 L386 467 Z " />
<glyph glyph-name="Q" unicode="Q" horiz-adv-x="703" d="M666 346 C666 572 544 685 362 685 C184 685 38 554 38 330 C38 123 137 -10 342 -10 C521 -10 666 122 666 346 L666 346 Z M702 -193 L702 -97 C540 -119 480 -47 312 -67 L312 -164 C458 -144 524 -220 702 -193 L702 -193 Z M550 335 C550 167 450 87 350 87 C217 87 154 190 154 343 C154 505 248 589 352 589 C478 589 550 498 550 335 L550 335 Z " />
<glyph glyph-name="R" unicode="R" horiz-adv-x="559" d="M539 0 L367 235 C351 258 330 283 311 307 C412 319 495 388 495 496 C495 630 399 679 259 679 C183 679 127 678 78 675 L78 0 L187 0 L187 292 L199 292 L402 0 L539 0 Z M381 484 C381 417 328 372 240 372 C216 372 197 373 187 374 L187 588 C203 589 223 590 244 590 C335 590 381 558 381 484 L381 484 Z " />
<glyph glyph-name="S" unicode="S" horiz-adv-x="503" d="M460 202 C460 415 161 366 161 501 C161 557 200 595 285 595 C325 595 365 588 401 576 L412 672 C375 680 328 685 290 685 C134 685 46 604 46 488 C46 270 342 330 342 188 C342 114 281 85 210 85 C159 85 110 96 66 113 L54 9 C97 -3 148 -10 206 -10 C359 -10 460 79 460 202 L460 202 Z " />
<glyph glyph-name="T" unicode="T" horiz-adv-x="514" d="M497 583 L497 675 L17 675 L17 583 L202 583 L202 0 L311 0 L311 583 L497 583 Z " />
<glyph glyph-name="U" unicode="U" horiz-adv-x="687" d="M609 260 L609 675 L502 675 L502 252 C502 126 452 80 342 80 C217 80 187 148 187 238 L187 675 L78 675 L78 230 C78 106 123 -10 335 -10 C512 -10 609 80 609 260 L609 260 Z " />
<glyph glyph-name="V" unicode="V" horiz-adv-x="622" d="M614 675 L502 675 L357 266 C340 219 324 169 312 124 L311 124 C299 168 283 220 269 259 L127 675 L7 675 L247 0 L371 0 L614 675 Z " />
<glyph glyph-name="W" unicode="W" horiz-adv-x="952" d="M922 675 L813 675 L708 253 C698 216 691 177 684 135 L683 135 C676 178 666 223 656 259 L538 675 L419 675 L304 260 C292 219 284 176 277 132 L276 132 C270 177 262 220 250 265 L146 675 L30 675 L205 0 L333 0 L447 419 C458 461 466 502 471 544 L472 544 C479 501 486 458 498 417 L613 0 L747 0 L922 675 Z " />
<glyph glyph-name="X" unicode="X" horiz-adv-x="612" d="M598 0 L372 349 L574 675 L451 675 L303 428 L153 675 L27 675 L233 347 L14 0 L142 0 L301 265 L461 0 L598 0 Z " />
<glyph glyph-name="Y" unicode="Y" horiz-adv-x="548" d="M541 675 L426 675 L331 474 C310 431 290 388 275 348 L273 348 C259 384 243 422 225 462 L125 675 L6 675 L217 241 L217 0 L326 0 L326 241 L541 675 Z " />
<glyph glyph-name="Z" unicode="Z" horiz-adv-x="538" d="M494 0 L494 100 L333 100 C247 100 193 100 175 98 C188 117 199 133 210 152 L490 589 L490 675 L55 675 L55 578 L224 578 C293 578 332 578 361 579 C343 555 327 532 311 506 L45 83 L45 0 L494 0 Z " />
<glyph glyph-name="bracketleft" unicode="&#x5b;" horiz-adv-x="324" d="M287 -201 L287 -116 L179 -116 L179 690 L287 690 L287 774 L79 774 L79 -201 L287 -201 Z " />
<glyph glyph-name="backslash" unicode="&#x5c;" horiz-adv-x="459" d="M464 -161 L113 757 L9 757 L359 -161 L464 -161 Z " />
<glyph glyph-name="bracketright" unicode="&#x5d;" horiz-adv-x="324" d="M245 -201 L245 774 L37 774 L37 690 L145 690 L145 -116 L37 -116 L37 -201 L245 -201 Z " />
<glyph glyph-name="asciicircum" unicode="&#x5e;" horiz-adv-x="550" d="M481 380 L309 675 L225 675 L60 378 L132 340 L264 597 L403 340 L481 380 Z " />
<glyph glyph-name="underscore" unicode="&#x5f;" horiz-adv-x="550" d="M550 -248 L550 -162 L0 -162 L0 -248 L550 -248 Z " />
<glyph glyph-name="grave" unicode="&#x60;" horiz-adv-x="371" d="M296 623 L143 748 L89 677 L253 566 L296 623 Z " />
<glyph glyph-name="a" unicode="a" horiz-adv-x="545" d="M530 7 L530 73 C501 75 467 79 443 83 L443 339 C443 441 401 507 248 507 C186 507 121 494 72 475 L87 387 C127 408 186 423 232 423 C310 423 336 391 336 329 L336 301 C157 301 43 236 43 124 C43 43 97 -10 182 -10 C261 -10 323 34 347 93 L348 92 C344 65 343 32 343 0 C401 -3 474 1 530 7 L530 7 Z M336 215 C336 144 287 74 214 74 C172 74 146 102 146 141 C146 187 187 229 336 229 L336 215 Z " />
<glyph glyph-name="b" unicode="b" horiz-adv-x="565" d="M525 273 C525 423 460 507 342 507 C269 507 210 468 184 406 L183 406 C188 432 191 472 191 501 L191 730 C126 733 53 729 -3 723 L-3 657 C26 655 60 651 84 647 L84 13 C139 -1 191 -8 261 -8 C427 -8 525 101 525 273 L525 273 Z M413 263 C413 129 354 77 270 77 C238 77 213 80 191 87 L191 241 C191 325 234 418 314 418 C381 418 413 363 413 263 L413 263 Z " />
<glyph glyph-name="c" unicode="c" horiz-adv-x="431" d="M403 17 L387 106 C356 91 319 84 280 84 C182 84 150 153 150 244 C150 346 195 416 279 416 C316 416 353 407 383 395 L401 486 C368 499 327 505 285 505 C119 505 38 390 38 232 C38 55 131 -8 259 -8 C309 -8 362 0 403 17 L403 17 Z " />
<glyph glyph-name="d" unicode="d" horiz-adv-x="580" d="M566 7 L566 73 C537 75 503 79 479 83 L479 730 C414 733 342 729 286 723 L286 657 C315 655 349 651 373 647 L373 501 C346 503 322 505 298 505 C137 505 38 395 38 224 C38 80 99 -10 221 -10 C298 -10 356 32 383 93 L385 93 C380 65 378 26 378 0 C438 -3 510 1 566 7 L566 7 Z M373 257 C373 172 329 78 250 78 C182 78 151 134 151 234 C151 368 209 420 294 420 C320 420 346 417 373 411 L373 257 Z " />
<glyph glyph-name="e" unicode="e" horiz-adv-x="511" d="M468 292 C468 410 407 507 265 507 C120 507 38 395 38 245 C38 70 123 -10 276 -10 C338 -10 400 1 452 22 L438 106 C393 86 343 76 295 76 C196 76 145 127 148 240 L465 240 C467 261 468 278 468 292 L468 292 Z M361 314 L150 314 C159 384 201 428 261 428 C324 428 363 385 361 314 L361 314 Z " />
<glyph glyph-name="f" unicode="f" horiz-adv-x="352" d="M378 728 C352 734 325 737 297 737 C168 737 103 671 103 535 L103 497 L8 497 L8 414 L103 414 L103 0 L209 0 L209 414 L338 414 L338 497 L209 497 L209 537 C209 615 238 650 302 650 C324 650 348 647 370 640 L378 728 Z " />
<glyph glyph-name="g" unicode="g" horiz-adv-x="556" d="M479 -28 L479 491 C427 500 369 505 305 505 C136 505 38 395 38 224 C38 71 105 -9 223 -9 C293 -9 351 30 378 93 L380 92 C375 66 374 41 374 12 L374 -21 C374 -124 321 -160 221 -160 C174 -160 120 -150 77 -133 L65 -233 C106 -245 159 -252 214 -252 C431 -252 479 -132 479 -28 L479 -28 Z M373 259 C373 172 329 79 249 79 C182 79 151 134 151 234 C151 368 209 420 294 420 C321 420 347 417 373 411 L373 259 Z " />
<glyph glyph-name="h" unicode="h" horiz-adv-x="580" d="M502 0 L502 348 C502 435 466 507 353 507 C272 507 213 466 184 403 L182 404 C189 432 191 473 191 504 L191 730 C126 733 53 729 -3 723 L-3 657 C26 655 60 651 84 647 L84 0 L191 0 L191 239 C191 339 246 418 321 418 C378 418 395 381 395 319 L395 0 L502 0 Z " />
<glyph glyph-name="i" unicode="i" horiz-adv-x="291" d="M229 652 C229 689 198 719 160 719 C123 719 92 689 92 652 C92 614 123 585 160 585 C198 585 229 615 229 652 L229 652 Z M213 0 L213 497 C148 500 76 496 20 490 L20 424 C49 422 83 418 107 414 L107 0 L213 0 Z " />
<glyph glyph-name="j" unicode="j" horiz-adv-x="294" d="M231 652 C231 689 200 719 162 719 C124 719 94 689 94 652 C94 614 124 585 162 585 C200 585 231 615 231 652 L231 652 Z M216 -47 L216 497 C151 500 78 496 22 490 L22 424 C51 422 85 418 109 414 L109 -57 C109 -136 92 -161 34 -161 C14 -161 -9 -157 -27 -150 L-35 -242 C-15 -248 12 -251 34 -251 C171 -251 216 -180 216 -47 L216 -47 Z " />
<glyph glyph-name="k" unicode="k" horiz-adv-x="513" d="M497 0 L299 270 L483 497 L352 497 L191 284 L191 730 C126 733 53 729 -3 723 L-3 657 C26 655 60 651 84 647 L84 0 L191 0 L191 252 L361 0 L497 0 Z " />
<glyph glyph-name="l" unicode="l" horiz-adv-x="269" d="M191 0 L191 730 C126 733 53 729 -3 723 L-3 657 C26 655 60 651 84 647 L84 0 L191 0 Z " />
<glyph glyph-name="m" unicode="m" horiz-adv-x="902" d="M824 0 L824 343 C824 455 771 507 676 507 C585 507 531 447 509 400 C501 444 469 507 372 507 C295 507 233 464 203 398 L202 399 C207 429 209 471 209 497 C149 500 76 496 20 490 L20 424 C49 422 83 418 107 414 L107 0 L213 0 L213 237 C213 342 273 418 341 418 C401 418 412 374 412 317 L412 0 L518 0 L518 237 C518 347 582 418 646 418 C703 418 717 378 717 317 L717 0 L824 0 Z " />
<glyph glyph-name="n" unicode="n" horiz-adv-x="602" d="M524 0 L524 348 C524 435 488 507 375 507 C292 507 232 463 203 399 L201 399 C206 428 209 471 209 497 C148 500 76 496 20 490 L20 424 C49 422 83 418 107 414 L107 0 L213 0 L213 239 C213 339 269 418 343 418 C401 418 418 381 418 319 L418 0 L524 0 Z " />
<glyph glyph-name="o" unicode="o" horiz-adv-x="549" d="M511 258 C511 433 417 507 284 507 C133 507 36 392 36 242 C36 67 126 -10 264 -10 C411 -10 511 105 511 258 L511 258 Z M401 251 C401 136 343 82 274 82 C191 82 147 141 147 253 C147 367 210 417 275 417 C360 417 401 357 401 251 L401 251 Z " />
<glyph glyph-name="p" unicode="p" horiz-adv-x="587" d="M548 273 C548 423 482 507 365 507 C288 507 231 467 203 404 L201 404 C206 431 207 471 207 497 C148 500 76 496 20 490 L20 424 C49 422 83 418 107 414 L107 -244 L213 -244 L213 -1 C239 -6 261 -7 289 -7 C454 -7 548 98 548 273 L548 273 Z M435 263 C435 129 377 77 292 77 C262 77 237 80 213 87 L213 240 C213 325 257 419 336 419 C404 419 435 363 435 263 L435 263 Z " />
<glyph glyph-name="q" unicode="q" horiz-adv-x="558" d="M567 -237 L567 -171 C538 -169 504 -165 480 -161 L480 491 C428 500 370 505 306 505 C137 505 40 395 40 223 C40 69 106 -10 224 -10 C294 -10 353 29 379 92 L381 91 C375 60 374 24 374 -1 L374 -245 C439 -247 511 -243 567 -237 L567 -237 Z M374 259 C374 172 330 78 250 78 C183 78 152 134 152 234 C152 368 210 421 295 421 C323 421 348 418 374 412 L374 259 Z " />
<glyph glyph-name="r" unicode="r" horiz-adv-x="387" d="M370 506 C272 516 223 454 201 387 L199 387 C205 425 209 469 209 497 C148 500 76 496 20 490 L20 424 C49 422 83 418 107 414 L107 0 L213 0 L213 202 C213 351 261 421 365 401 L370 506 Z " />
<glyph glyph-name="s" unicode="s" horiz-adv-x="421" d="M376 152 C376 319 156 265 156 363 C156 401 184 425 243 425 C275 425 308 420 337 411 L343 497 C314 503 279 507 249 507 C112 507 46 440 46 353 C46 181 264 243 264 141 C264 101 225 76 169 76 C131 76 91 83 60 95 L52 4 C83 -5 124 -10 162 -10 C294 -10 376 58 376 152 L376 152 Z " />
<glyph glyph-name="t" unicode="t" horiz-adv-x="373" d="M341 3 L332 89 C314 85 293 82 271 82 C221 82 206 102 206 176 L206 414 L336 414 L336 497 L206 497 L206 684 L99 655 L99 497 L4 497 L4 414 L99 414 L99 143 C99 32 131 -9 237 -9 C270 -9 311 -4 341 3 L341 3 Z " />
<glyph glyph-name="u" unicode="u" horiz-adv-x="622" d="M608 7 L608 73 C579 75 545 79 521 83 L521 497 L415 497 L415 258 C415 158 359 79 285 79 C227 79 211 116 211 178 L211 497 C149 500 76 496 17 490 L17 424 C46 422 80 418 104 414 L104 149 C104 62 140 -10 253 -10 C336 -10 396 34 425 98 L427 98 C422 67 420 26 420 0 C480 -3 552 1 608 7 L608 7 Z " />
<glyph glyph-name="v" unicode="v" horiz-adv-x="495" d="M489 497 L374 497 L279 230 C268 198 258 163 250 132 L249 132 C240 165 229 200 217 234 L124 497 L6 497 L192 0 L301 0 L489 497 Z " />
<glyph glyph-name="w" unicode="w" horiz-adv-x="794" d="M781 497 L670 497 L601 262 C586 213 576 173 566 127 L565 127 C555 170 545 207 526 267 L451 497 L343 497 L269 263 C256 220 244 176 234 127 L233 127 C223 172 209 219 196 266 L130 497 L13 497 L166 0 L279 0 L354 240 C367 282 378 321 388 365 L389 365 C398 327 407 293 418 260 L504 0 L622 0 L781 497 Z " />
<glyph glyph-name="x" unicode="x" horiz-adv-x="523" d="M506 0 L334 252 L498 497 L379 497 L266 320 L155 497 L26 497 L194 250 L16 0 L145 0 L258 180 L370 0 L506 0 Z " />
<glyph glyph-name="y" unicode="y" horiz-adv-x="490" d="M484 497 L369 497 L298 295 C280 245 259 180 249 140 L248 140 C237 182 225 226 209 270 L128 497 L8 497 L194 0 L176 -49 C143 -138 99 -161 52 -161 C32 -161 8 -158 -9 -153 L-21 -246 C-4 -249 23 -252 42 -252 C155 -252 221 -201 283 -35 L484 497 Z " />
<glyph glyph-name="z" unicode="z" horiz-adv-x="449" d="M399 0 L399 98 L302 98 C261 98 202 97 177 96 L395 422 L395 497 L52 497 L52 401 L148 401 C199 401 243 402 268 403 L47 76 L47 0 L399 0 Z " />
<glyph glyph-name="braceleft" unicode="&#x7b;" horiz-adv-x="350" d="M318 -201 L318 -116 C251 -116 230 -91 230 4 L230 160 C230 256 196 306 138 315 L138 316 C197 327 230 371 230 467 L230 570 C230 665 251 690 318 690 L318 774 L299 774 C174 774 131 696 131 568 L131 464 C131 381 102 360 28 356 L28 274 C101 270 131 244 131 163 L131 6 C131 -135 178 -201 299 -201 L318 -201 Z " />
<glyph glyph-name="bar" unicode="&#x7c;" horiz-adv-x="286" d="M184 -244 L184 756 L99 756 L99 -244 L184 -244 Z " />
<glyph glyph-name="braceright" unicode="&#x7d;" horiz-adv-x="348" d="M327 274 L327 356 C253 360 224 381 224 467 L224 568 C224 696 181 774 56 774 L37 774 L37 690 C104 690 125 665 125 570 L125 464 C125 371 158 324 217 316 L217 315 C159 306 125 256 125 160 L125 4 C125 -91 104 -116 37 -116 L37 -201 L56 -201 C177 -201 224 -135 224 6 L224 163 C224 244 255 270 327 274 L327 274 Z " />
<glyph glyph-name="asciitilde" unicode="&#x7e;" horiz-adv-x="550" d="M502 565 L502 579 L423 579 C422 526 406 493 368 493 C304 493 302 601 190 601 C103 601 49 539 49 448 L49 435 L128 435 C129 488 145 520 183 520 C247 520 249 412 361 412 C448 412 502 474 502 565 L502 565 Z " />
<glyph glyph-name="nbspace" unicode="&#xa0;" horiz-adv-x="218" d="" />
<glyph glyph-name="exclamdown" unicode="&#xa1;" horiz-adv-x="320" d="M220 440 C220 478 190 507 152 507 C113 507 84 478 84 440 C84 403 113 374 152 374 C190 374 220 403 220 440 L220 440 Z M214 -208 L196 320 L105 320 L88 -208 L214 -208 Z " />
<glyph glyph-name="cent" unicode="&#xa2;" horiz-adv-x="550" d="M472 132 L446 218 C414 200 373 190 333 190 C233 190 188 248 188 332 C188 428 245 479 334 479 C374 479 412 469 443 455 L464 543 C430 555 389 563 355 565 L355 650 L273 650 L273 562 C149 538 77 453 77 328 C77 194 145 111 273 101 L273 0 L355 0 L355 101 C395 104 437 116 472 132 L472 132 Z " />
<glyph glyph-name="sterling" unicode="&#xa3;" horiz-adv-x="550" d="M485 0 L485 92 L275 92 C247 92 220 91 198 90 C243 130 265 167 265 223 C265 242 264 262 260 281 L405 281 L405 364 L250 364 C245 400 239 438 239 473 C239 538 270 573 332 573 C369 573 407 564 437 554 L460 644 C422 654 372 660 339 660 C212 660 131 606 131 463 C131 432 136 398 141 364 L51 364 L51 281 L152 281 C156 260 158 239 158 219 C158 166 128 121 71 73 L71 0 L485 0 Z " />
<glyph glyph-name="currency" unicode="&#xa4;" horiz-adv-x="550" d="M507 113 L425 215 C450 246 464 288 464 336 C464 388 452 425 433 452 L507 545 L428 604 L355 506 C333 517 306 520 283 520 C255 520 229 515 206 504 L133 604 L53 546 L128 452 C101 420 86 378 86 328 C86 272 100 230 123 201 L52 113 L134 55 L204 151 C222 144 243 140 266 140 C296 140 324 147 348 160 L427 54 L507 113 Z M369 334 C369 258 324 218 276 218 C207 218 181 268 181 331 C181 401 223 441 273 441 C342 441 369 398 369 334 L369 334 Z " />
<glyph glyph-name="yen" unicode="&#xa5;" horiz-adv-x="550" d="M523 650 L408 650 L324 469 C307 433 289 391 276 356 L274 356 C263 387 249 426 231 464 L146 650 L27 650 L194 307 L60 307 L60 237 L220 237 L220 171 L60 171 L60 101 L220 101 L220 0 L328 0 L328 101 L488 101 L488 171 L328 171 L328 237 L488 237 L488 307 L354 307 L523 650 Z " />
<glyph glyph-name="brokenbar" unicode="&#xa6;" horiz-adv-x="286" d="M184 388 L184 756 L99 756 L99 388 L184 388 Z M184 -244 L184 134 L99 134 L99 -244 L184 -244 Z " />
<glyph glyph-name="section" unicode="&#xa7;" horiz-adv-x="524" d="M444 240 C444 411 220 488 220 585 C220 626 246 650 301 650 C325 650 346 647 371 639 L378 729 C354 734 324 737 300 737 C163 737 106 665 106 580 C106 539 120 507 144 476 C95 439 67 389 67 333 C67 160 291 91 291 -8 C291 -48 261 -78 202 -78 C177 -78 154 -74 126 -66 L119 -156 C145 -162 177 -166 199 -166 C344 -166 405 -87 405 -7 C405 34 389 68 367 97 C415 133 444 184 444 240 L444 240 Z M346 226 C346 200 335 173 308 154 C227 230 166 280 166 347 C166 372 177 400 204 420 C274 348 346 298 346 226 L346 226 Z " />
<glyph glyph-name="dieresis" unicode="&#xa8;" horiz-adv-x="546" d="M423 652 C423 685 396 712 363 712 C329 712 302 685 302 652 C302 618 329 591 363 591 C396 591 423 618 423 652 L423 652 Z M227 652 C227 685 200 712 166 712 C132 712 106 685 106 652 C106 618 132 591 166 591 C200 591 227 618 227 652 L227 652 Z " />
<glyph glyph-name="copyright" unicode="&#xa9;" horiz-adv-x="758" d="M716 335 C716 522 566 672 378 672 C190 672 39 521 39 334 C39 146 187 -3 378 -3 C565 -3 716 148 716 335 L716 335 Z M634 334 C634 192 520 77 378 77 C236 77 122 193 122 335 C122 477 236 592 378 592 C520 592 634 475 634 334 L634 334 Z M477 176 L464 247 C441 237 417 232 390 232 C334 232 308 268 308 333 C308 396 331 442 394 442 C419 442 444 435 462 425 L473 499 C451 507 424 513 392 513 C268 513 218 426 218 330 C218 228 270 157 377 157 C413 157 447 164 477 176 L477 176 Z " />
<glyph glyph-name="ordfeminine" unicode="&#xaa;" horiz-adv-x="412" d="M395 341 L395 399 C376 401 352 404 333 407 L333 570 C333 629 300 684 196 684 C148 684 103 676 65 662 L73 587 C107 603 144 614 183 614 C237 614 245 583 245 560 L245 543 C127 544 44 500 44 418 C44 365 79 327 150 327 C194 327 237 355 251 387 L252 386 C249 370 247 350 247 335 C294 333 350 336 395 341 L395 341 Z M370 193 L370 279 L59 279 L59 193 L370 193 Z M244 476 C244 449 222 396 170 396 C145 396 130 410 130 431 C130 467 164 486 244 486 L244 476 Z " />
<glyph glyph-name="guillemotleft" unicode="&#xab;" horiz-adv-x="520" d="M455 151 L357 293 L454 438 L374 478 L252 293 L372 110 L455 151 Z M244 147 L153 293 L242 442 L161 481 L49 293 L159 107 L244 147 Z " />
<glyph glyph-name="logicalnot" unicode="&#xac;" horiz-adv-x="550" d="M485 100 L485 342 L41 342 L41 253 L391 253 L391 100 L485 100 Z " />
<glyph glyph-name="registered" unicode="&#xae;" horiz-adv-x="563" d="M508 529 C508 656 408 754 281 754 C156 754 55 654 55 529 C55 404 154 305 281 305 C405 305 508 406 508 529 L508 529 Z M440 528 C440 441 369 369 281 369 C194 369 123 443 123 531 C123 618 194 690 281 690 C369 690 440 616 440 528 L440 528 Z M375 418 L336 490 C330 502 323 513 318 518 C348 525 368 546 368 582 C368 619 345 643 289 643 L204 643 L204 418 L258 418 L258 508 L263 508 L310 418 L375 418 Z M309 576 C309 560 298 544 270 544 L258 544 L258 602 L277 602 C300 602 309 594 309 576 L309 576 Z " />
<glyph glyph-name="macron" unicode="&#xaf;" horiz-adv-x="395" d="M327 609 L327 687 L68 687 L68 609 L327 609 Z " />
<glyph glyph-name="degree" unicode="&#xb0;" horiz-adv-x="381" d="M328 605 C328 676 287 736 190 736 C120 736 48 687 48 602 C48 521 100 471 184 471 C257 471 328 520 328 605 L328 605 Z M247 605 C247 567 223 539 188 539 C153 539 130 563 130 604 C130 642 155 668 189 668 C232 668 247 634 247 605 L247 605 Z " />
<glyph glyph-name="plusminus" unicode="&#xb1;" horiz-adv-x="550" d="M509 340 L509 429 L326 429 L326 618 L224 618 L224 429 L41 429 L41 340 L224 340 L224 150 L326 150 L326 340 L509 340 Z M507 0 L507 89 L43 89 L43 0 L507 0 Z " />
<glyph glyph-name="twosuperior" unicode="&#xb2;" horiz-adv-x="319" d="M271 355 L271 425 L156 425 L197 460 C244 501 262 531 262 568 C262 615 229 659 145 659 C110 659 75 649 47 637 L66 572 C82 583 104 590 122 590 C150 590 166 574 166 551 C166 529 153 510 111 473 L44 415 L44 355 L271 355 Z " />
<glyph glyph-name="threesuperior" unicode="&#xb3;" horiz-adv-x="308" d="M259 443 C259 475 239 505 202 509 C234 524 248 547 248 580 C248 621 218 659 137 659 C104 659 69 652 47 643 L61 589 C75 596 95 601 114 601 C146 601 158 587 158 569 C158 547 141 529 84 529 L66 529 L66 477 C140 485 164 473 164 442 C164 419 147 405 106 405 C88 405 68 409 54 413 L44 354 C59 350 90 346 113 346 C206 346 259 380 259 443 L259 443 Z " />
<glyph glyph-name="acute" unicode="&#xb4;" horiz-adv-x="391" d="M300 677 L246 748 L93 623 L136 566 L300 677 Z " />
<glyph glyph-name="mu" unicode="&#xb5;" horiz-adv-x="631" d="M613 64 L570 109 C562 91 547 75 529 75 C508 75 500 89 500 153 L500 497 L393 497 L393 245 C393 154 340 80 269 80 C208 80 189 119 189 183 L189 497 L83 497 L83 -244 L195 -244 L179 17 C198 1 225 -8 260 -8 C329 -8 384 33 408 92 L409 92 C404 43 421 -10 490 -10 C552 -10 592 22 613 64 L613 64 Z " />
<glyph glyph-name="paragraph" unicode="&#xb6;" horiz-adv-x="585" d="M528 591 L528 675 L367 675 L367 -12 L295 -12 L295 -96 L460 -96 L460 591 L528 591 Z M290 240 L290 675 C154 675 61 587 61 459 C61 340 132 239 290 240 L290 240 Z " />
<glyph glyph-name="periodcentered" unicode="&#xb7;" horiz-adv-x="250" d="M198 297 C198 338 165 370 125 370 C85 370 52 338 52 297 C52 257 85 225 125 225 C165 225 198 257 198 297 L198 297 Z " />
<glyph glyph-name="cedilla" unicode="&#xb8;" horiz-adv-x="400" d="M257 -40 L167 -71 C215 -130 204 -173 153 -235 L236 -235 C293 -173 309 -109 257 -40 L257 -40 Z " />
<glyph glyph-name="onesuperior" unicode="&#xb9;" horiz-adv-x="312" d="M216 355 L216 650 L135 650 L42 612 L60 548 L128 579 L128 355 L216 355 Z " />
<glyph glyph-name="ordmasculine" unicode="&#xba;" horiz-adv-x="422" d="M376 511 C376 643 300 685 215 685 C117 685 43 614 43 505 C43 376 110 328 201 328 C302 328 376 400 376 511 L376 511 Z M362 195 L362 279 L58 279 L58 195 L362 195 Z M285 510 C285 435 251 405 207 405 C150 405 134 455 134 507 C134 580 172 608 210 608 C267 608 285 563 285 510 L285 510 Z " />
<glyph glyph-name="guillemotright" unicode="&#xbb;" horiz-adv-x="520" d="M472 295 L362 481 L277 441 L367 295 L277 146 L359 107 L472 295 Z M268 295 L148 478 L66 437 L163 295 L66 150 L145 110 L268 295 Z " />
<glyph glyph-name="onequarter" unicode="&#xbc;" horiz-adv-x="715" d="M534 114 L459 114 L534 241 L534 114 Z M662 52 L662 115 L613 115 L613 295 L495 295 L386 109 L391 52 L534 52 L534 0 L613 0 L613 52 L662 52 Z M622 621 L554 669 L55 27 L123 -21 L622 621 Z M216 355 L216 650 L135 650 L42 612 L60 548 L128 579 L128 355 L216 355 Z " />
<glyph glyph-name="onehalf" unicode="&#xbd;" horiz-adv-x="718" d="M658 0 L658 69 L543 69 L584 105 C632 145 649 176 649 212 C649 260 616 304 533 304 C498 304 462 294 435 282 L454 217 C469 228 491 235 509 235 C538 235 553 218 553 196 C553 173 541 155 498 118 L431 60 L431 0 L658 0 Z M621 621 L553 669 L54 27 L122 -21 L621 621 Z M216 355 L216 650 L135 650 L42 612 L60 548 L128 579 L128 355 L216 355 Z " />
<glyph glyph-name="threequarters" unicode="&#xbe;" horiz-adv-x="718" d="M537 114 L462 114 L537 241 L537 114 Z M665 52 L665 115 L616 115 L616 295 L498 295 L389 109 L394 52 L537 52 L537 0 L616 0 L616 52 L665 52 Z M625 621 L557 669 L58 27 L126 -21 L625 621 Z M262 443 C262 475 242 505 205 509 C237 524 251 547 251 580 C251 621 221 659 141 659 C107 659 72 652 50 643 L64 589 C79 596 99 601 117 601 C149 601 161 587 161 569 C161 547 144 529 87 529 L69 529 L69 477 C143 485 167 473 167 442 C167 419 150 404 110 404 C92 404 71 408 57 412 L47 353 C62 350 94 346 117 346 C209 346 262 380 262 443 L262 443 Z " />
<glyph glyph-name="questiondown" unicode="&#xbf;" horiz-adv-x="448" d="M324 440 C324 478 294 507 256 507 C217 507 187 478 187 440 C187 403 217 374 256 374 C294 374 324 403 324 440 L324 440 Z M372 -119 C248 -114 171 -69 171 -6 C171 105 373 126 309 320 L205 320 C256 147 54 149 54 -18 C54 -118 157 -210 358 -216 L372 -119 Z " />
<glyph glyph-name="Agrave" unicode="&#xc0;" horiz-adv-x="620" d="M366 781 L173 855 L146 776 L347 721 L366 781 Z M614 0 L369 675 L248 675 L6 0 L116 0 L168 149 L441 149 L493 0 L614 0 Z M413 236 L196 236 L276 460 C287 492 296 522 303 551 L305 551 C312 522 322 492 333 459 L413 236 Z " />
<glyph glyph-name="Aacute" unicode="&#xc1;" horiz-adv-x="620" d="M453 776 L426 855 L233 781 L252 721 L453 776 Z M614 0 L369 675 L248 675 L6 0 L116 0 L168 149 L441 149 L493 0 L614 0 Z M413 236 L196 236 L276 460 C287 492 296 522 303 551 L305 551 C312 522 322 492 333 459 L413 236 Z " />
<glyph glyph-name="Acircumflex" unicode="&#xc2;" horiz-adv-x="620" d="M468 776 L306 860 L145 774 L171 720 L304 781 L440 720 L468 776 Z M614 0 L369 675 L248 675 L6 0 L116 0 L168 149 L441 149 L493 0 L614 0 Z M413 236 L196 236 L276 460 C287 492 296 522 303 551 L305 551 C312 522 322 492 333 459 L413 236 Z " />
<glyph glyph-name="Atilde" unicode="&#xc3;" horiz-adv-x="620" d="M491 809 L437 847 C419 818 400 803 377 803 C335 803 314 853 246 853 C197 853 156 825 128 775 L182 738 C199 767 219 782 243 782 C284 782 305 732 373 732 C423 732 462 759 491 809 L491 809 Z M614 0 L369 675 L248 675 L6 0 L116 0 L168 149 L441 149 L493 0 L614 0 Z M413 236 L196 236 L276 460 C287 492 296 522 303 551 L305 551 C312 522 322 492 333 459 L413 236 Z " />
<glyph glyph-name="Adieresis" unicode="&#xc4;" horiz-adv-x="620" d="M468 783 C468 814 444 839 413 839 C382 839 358 814 358 783 C358 753 382 728 413 728 C444 728 468 753 468 783 L468 783 Z M254 783 C254 814 229 839 199 839 C168 839 143 814 143 783 C143 753 168 728 199 728 C229 728 254 753 254 783 L254 783 Z M614 0 L369 675 L248 675 L6 0 L116 0 L168 149 L441 149 L493 0 L614 0 Z M413 236 L196 236 L276 460 C287 492 296 522 303 551 L305 551 C312 522 322 492 333 459 L413 236 Z " />
<glyph glyph-name="Aring" unicode="&#xc5;" horiz-adv-x="620" d="M614 0 L381 641 C410 658 429 691 429 727 C429 793 377 842 310 842 C244 842 190 793 190 727 C190 689 208 659 236 642 L6 0 L116 0 L168 149 L441 149 L493 0 L614 0 Z M363 727 C363 697 340 672 310 672 C279 672 256 697 256 727 C256 757 279 782 310 782 C340 782 363 757 363 727 L363 727 Z M412 236 L196 236 L272 446 C285 482 296 518 303 550 L305 550 C313 517 321 483 336 449 L412 236 Z " />
<glyph glyph-name="AE" unicode="&#xc6;" horiz-adv-x="783" d="M719 0 L719 93 L469 93 L469 303 L702 303 L702 392 L469 392 L469 584 L711 584 L711 675 L307 675 L-41 0 L72 0 L151 157 L363 157 L363 0 L719 0 Z M363 243 L189 243 L296 445 C327 503 343 542 361 583 L363 583 L363 243 Z " />
<glyph glyph-name="Ccedilla" unicode="&#xc7;" horiz-adv-x="575" d="M533 26 L515 122 C477 103 422 90 376 90 C229 90 162 180 162 337 C162 477 226 585 367 585 C416 585 465 576 510 560 L526 660 C480 674 426 681 376 681 C149 681 43 529 43 319 C43 138 126 -8 352 -8 C417 -8 482 5 533 26 L533 26 Z M360 -40 L270 -71 C318 -130 307 -173 256 -235 L339 -235 C396 -173 412 -109 360 -40 L360 -40 Z " />
<glyph glyph-name="Egrave" unicode="&#xc8;" horiz-adv-x="498" d="M326 781 L133 855 L106 776 L307 721 L326 781 Z M434 0 L434 93 L187 93 L187 303 L422 303 L422 392 L187 392 L187 584 L434 584 L434 675 L78 675 L78 0 L434 0 Z " />
<glyph glyph-name="Eacute" unicode="&#xc9;" horiz-adv-x="498" d="M410 776 L383 855 L190 781 L209 721 L410 776 Z M434 0 L434 93 L187 93 L187 303 L422 303 L422 392 L187 392 L187 584 L434 584 L434 675 L78 675 L78 0 L434 0 Z " />
<glyph glyph-name="Ecircumflex" unicode="&#xca;" horiz-adv-x="498" d="M414 776 L252 860 L91 774 L117 720 L250 781 L386 720 L414 776 Z M434 0 L434 93 L187 93 L187 303 L422 303 L422 392 L187 392 L187 584 L434 584 L434 675 L78 675 L78 0 L434 0 Z " />
<glyph glyph-name="Edieresis" unicode="&#xcb;" horiz-adv-x="498" d="M414 783 C414 814 390 839 359 839 C328 839 304 814 304 783 C304 753 328 728 359 728 C390 728 414 753 414 783 L414 783 Z M200 783 C200 814 175 839 144 839 C114 839 89 814 89 783 C89 753 114 728 144 728 C175 728 200 753 200 783 L200 783 Z M434 0 L434 93 L187 93 L187 303 L422 303 L422 392 L187 392 L187 584 L434 584 L434 675 L78 675 L78 0 L434 0 Z " />
<glyph glyph-name="Igrave" unicode="&#xcc;" horiz-adv-x="266" d="M208 781 L15 855 L-12 776 L189 721 L208 781 Z M187 0 L187 675 L78 675 L78 0 L187 0 Z " />
<glyph glyph-name="Iacute" unicode="&#xcd;" horiz-adv-x="266" d="M273 776 L245 855 L52 781 L71 721 L273 776 Z M187 0 L187 675 L78 675 L78 0 L187 0 Z " />
<glyph glyph-name="Icircumflex" unicode="&#xce;" horiz-adv-x="266" d="M296 776 L133 860 L-28 774 L-2 720 L131 781 L268 720 L296 776 Z M187 0 L187 675 L78 675 L78 0 L187 0 Z " />
<glyph glyph-name="Idieresis" unicode="&#xcf;" horiz-adv-x="266" d="M284 783 C284 814 260 839 229 839 C198 839 174 814 174 783 C174 753 198 728 229 728 C260 728 284 753 284 783 L284 783 Z M87 783 C87 814 63 839 32 839 C1 839 -23 814 -23 783 C-23 753 1 728 32 728 C63 728 87 753 87 783 L87 783 Z M187 0 L187 675 L78 675 L78 0 L187 0 Z " />
<glyph glyph-name="Eth" unicode="&#xd0;" horiz-adv-x="682" d="M639 346 C639 580 509 678 296 678 C218 678 141 675 88 674 L88 386 L2 386 L2 304 L88 304 L88 0 C141 -1 197 -4 265 -4 C486 -4 639 115 639 346 L639 346 Z M524 338 C524 166 422 89 277 89 C250 89 204 92 196 93 L196 304 L327 304 L327 386 L196 386 L196 585 C220 587 254 588 288 588 C453 588 524 498 524 338 L524 338 Z " />
<glyph glyph-name="Ntilde" unicode="&#xd1;" horiz-adv-x="704" d="M529 809 L475 847 C457 818 438 803 414 803 C373 803 352 853 284 853 C234 853 194 825 166 775 L220 738 C237 767 257 782 280 782 C322 782 343 732 411 732 C461 732 500 759 529 809 L529 809 Z M625 0 L625 675 L519 675 L519 475 C519 376 522 231 526 154 C501 203 474 257 444 307 L221 675 L78 675 L78 0 L184 0 L184 227 C184 323 182 460 178 526 C199 481 223 433 253 384 L484 0 L625 0 Z " />
<glyph glyph-name="Ograve" unicode="&#xd2;" horiz-adv-x="704" d="M427 781 L234 855 L206 776 L408 721 L427 781 Z M666 346 C666 572 544 685 362 685 C184 685 38 554 38 330 C38 123 137 -10 342 -10 C521 -10 666 122 666 346 L666 346 Z M550 335 C550 167 450 87 350 87 C217 87 154 190 154 343 C154 505 248 589 352 589 C478 589 550 498 550 335 L550 335 Z " />
<glyph glyph-name="Oacute" unicode="&#xd3;" horiz-adv-x="704" d="M507 776 L479 855 L286 781 L305 721 L507 776 Z M666 346 C666 572 544 685 362 685 C184 685 38 554 38 330 C38 123 137 -10 342 -10 C521 -10 666 122 666 346 L666 346 Z M550 335 C550 167 450 87 350 87 C217 87 154 190 154 343 C154 505 248 589 352 589 C478 589 550 498 550 335 L550 335 Z " />
<glyph glyph-name="Ocircumflex" unicode="&#xd4;" horiz-adv-x="704" d="M520 776 L357 860 L196 774 L222 720 L355 781 L491 720 L520 776 Z M666 346 C666 572 544 685 362 685 C184 685 38 554 38 330 C38 123 137 -10 342 -10 C521 -10 666 122 666 346 L666 346 Z M550 335 C550 167 450 87 350 87 C217 87 154 190 154 343 C154 505 248 589 352 589 C478 589 550 498 550 335 L550 335 Z " />
<glyph glyph-name="Otilde" unicode="&#xd5;" horiz-adv-x="704" d="M536 809 L482 847 C464 818 445 803 422 803 C380 803 359 853 291 853 C242 853 201 825 173 775 L227 738 C244 767 264 782 288 782 C329 782 350 732 418 732 C468 732 507 759 536 809 L536 809 Z M666 346 C666 572 544 685 362 685 C184 685 38 554 38 330 C38 123 137 -10 342 -10 C521 -10 666 122 666 346 L666 346 Z M550 335 C550 167 450 87 350 87 C217 87 154 190 154 343 C154 505 248 589 352 589 C478 589 550 498 550 335 L550 335 Z " />
<glyph glyph-name="Odieresis" unicode="&#xd6;" horiz-adv-x="704" d="M516 783 C516 814 492 839 461 839 C430 839 406 814 406 783 C406 753 430 728 461 728 C492 728 516 753 516 783 L516 783 Z M302 783 C302 814 277 839 247 839 C216 839 191 814 191 783 C191 753 216 728 247 728 C277 728 302 753 302 783 L302 783 Z M666 346 C666 572 544 685 362 685 C184 685 38 554 38 330 C38 123 137 -10 342 -10 C521 -10 666 122 666 346 L666 346 Z M550 335 C550 167 450 87 350 87 C217 87 154 190 154 343 C154 505 248 589 352 589 C478 589 550 498 550 335 L550 335 Z " />
<glyph glyph-name="multiply" unicode="&#xd7;" horiz-adv-x="550" d="M499 139 L337 300 L499 462 L440 521 L278 359 L117 521 L51 455 L213 294 L51 132 L110 73 L272 235 L433 73 L499 139 Z " />
<glyph glyph-name="Oslash" unicode="&#xd8;" horiz-adv-x="704" d="M666 344 C666 508 604 611 505 657 L539 749 L458 775 L424 679 C404 683 383 685 362 685 C183 685 38 554 38 331 C38 188 85 74 189 21 L153 -78 L234 -104 L270 -3 C291 -8 313 -10 339 -10 C524 -10 666 120 666 344 L666 344 Z M554 334 C554 173 466 91 360 86 C341 85 320 86 302 92 L468 552 C525 514 554 434 554 334 L554 334 Z M392 585 L227 130 C173 170 150 246 150 341 C150 493 232 577 329 587 C353 589 372 588 392 585 L392 585 Z " />
<glyph glyph-name="Ugrave" unicode="&#xd9;" horiz-adv-x="687" d="M412 781 L219 855 L192 776 L393 721 L412 781 Z M609 260 L609 675 L502 675 L502 252 C502 126 452 80 342 80 C217 80 187 148 187 238 L187 675 L78 675 L78 230 C78 106 123 -10 335 -10 C512 -10 609 80 609 260 L609 260 Z " />
<glyph glyph-name="Uacute" unicode="&#xda;" horiz-adv-x="687" d="M513 776 L485 855 L292 781 L311 721 L513 776 Z M609 260 L609 675 L502 675 L502 252 C502 126 452 80 342 80 C217 80 187 148 187 238 L187 675 L78 675 L78 230 C78 106 123 -10 335 -10 C512 -10 609 80 609 260 L609 260 Z " />
<glyph glyph-name="Ucircumflex" unicode="&#xdb;" horiz-adv-x="687" d="M506 776 L344 860 L183 774 L209 720 L342 781 L478 720 L506 776 Z M609 260 L609 675 L502 675 L502 252 C502 126 452 80 342 80 C217 80 187 148 187 238 L187 675 L78 675 L78 230 C78 106 123 -10 335 -10 C512 -10 609 80 609 260 L609 260 Z " />
<glyph glyph-name="Udieresis" unicode="&#xdc;" horiz-adv-x="687" d="M497 783 C497 814 473 839 442 839 C411 839 387 814 387 783 C387 753 411 728 442 728 C473 728 497 753 497 783 L497 783 Z M283 783 C283 814 258 839 228 839 C197 839 172 814 172 783 C172 753 197 728 228 728 C258 728 283 753 283 783 L283 783 Z M609 260 L609 675 L502 675 L502 252 C502 126 452 80 342 80 C217 80 187 148 187 238 L187 675 L78 675 L78 230 C78 106 123 -10 335 -10 C512 -10 609 80 609 260 L609 260 Z " />
<glyph glyph-name="Yacute" unicode="&#xdd;" horiz-adv-x="548" d="M459 776 L432 855 L239 781 L258 721 L459 776 Z M541 675 L426 675 L331 474 C310 431 290 388 275 348 L273 348 C259 384 243 422 225 462 L125 675 L6 675 L217 241 L217 0 L326 0 L326 241 L541 675 Z " />
<glyph glyph-name="Thorn" unicode="&#xde;" horiz-adv-x="537" d="M519 366 C519 506 423 579 266 579 C236 579 212 578 187 576 L187 675 L78 675 L78 0 L187 0 L187 132 C205 130 222 130 243 130 C408 130 519 227 519 366 L519 366 Z M407 359 C407 267 346 219 251 219 C228 219 206 220 187 223 L187 485 C208 488 228 490 248 490 C361 490 407 436 407 359 L407 359 Z " />
<glyph glyph-name="germandbls" unicode="&#xdf;" horiz-adv-x="599" d="M563 153 C563 306 373 296 373 391 C373 474 500 463 500 595 C500 680 427 736 308 736 C182 736 78 672 78 497 L78 0 L185 0 L185 503 C185 608 229 653 303 653 C355 653 389 631 389 587 C389 498 264 497 264 379 C264 223 453 239 453 141 C453 106 425 74 356 74 C325 74 292 81 265 93 L258 2 C283 -5 320 -10 360 -10 C483 -10 563 56 563 153 L563 153 Z " />
<glyph glyph-name="agrave" unicode="&#xe0;" horiz-adv-x="545" d="M530 7 L530 73 C501 75 467 79 443 83 L443 339 C443 441 401 507 248 507 C186 507 121 494 72 475 L87 387 C127 408 186 423 232 423 C310 423 336 391 336 329 L336 301 C157 301 43 236 43 124 C43 43 97 -10 182 -10 C261 -10 323 34 347 93 L348 92 C344 65 343 32 343 0 C401 -3 474 1 530 7 L530 7 Z M336 215 C336 144 287 74 214 74 C172 74 146 102 146 141 C146 187 187 229 336 229 L336 215 Z M342 623 L189 748 L135 677 L299 566 L342 623 Z " />
<glyph glyph-name="aacute" unicode="&#xe1;" horiz-adv-x="545" d="M530 7 L530 73 C501 75 467 79 443 83 L443 339 C443 441 401 507 248 507 C186 507 121 494 72 475 L87 387 C127 408 186 423 232 423 C310 423 336 391 336 329 L336 301 C157 301 43 236 43 124 C43 43 97 -10 182 -10 C261 -10 323 34 347 93 L348 92 C344 65 343 32 343 0 C401 -3 474 1 530 7 L530 7 Z M336 215 C336 144 287 74 214 74 C172 74 146 102 146 141 C146 187 187 229 336 229 L336 215 Z M392 677 L338 748 L185 623 L228 566 L392 677 Z " />
<glyph glyph-name="acircumflex" unicode="&#xe2;" horiz-adv-x="545" d="M530 7 L530 73 C501 75 467 79 443 83 L443 339 C443 441 401 507 248 507 C186 507 121 494 72 475 L87 387 C127 408 186 423 232 423 C310 423 336 391 336 329 L336 301 C157 301 43 236 43 124 C43 43 97 -10 182 -10 C261 -10 323 34 347 93 L348 92 C344 65 343 32 343 0 C401 -3 474 1 530 7 L530 7 Z M336 215 C336 144 287 74 214 74 C172 74 146 102 146 141 C146 187 187 229 336 229 L336 215 Z M405 616 L260 748 L114 615 L157 566 L259 649 L360 566 L405 616 Z " />
<glyph glyph-name="atilde" unicode="&#xe3;" horiz-adv-x="545" d="M530 7 L530 73 C501 75 467 79 443 83 L443 339 C443 441 401 507 248 507 C186 507 121 494 72 475 L87 387 C127 408 186 423 232 423 C310 423 336 391 336 329 L336 301 C157 301 43 236 43 124 C43 43 97 -10 182 -10 C261 -10 323 34 347 93 L348 92 C344 65 343 32 343 0 C401 -3 474 1 530 7 L530 7 Z M336 215 C336 144 287 74 214 74 C172 74 146 102 146 141 C146 187 187 229 336 229 L336 215 Z M430 670 L378 711 C361 681 342 665 320 665 C280 665 260 718 195 718 C146 718 107 688 80 635 L132 594 C149 625 167 640 190 640 C230 640 249 588 315 588 C363 588 402 617 430 670 L430 670 Z " />
<glyph glyph-name="adieresis" unicode="&#xe4;" horiz-adv-x="545" d="M530 7 L530 73 C501 75 467 79 443 83 L443 339 C443 441 401 507 248 507 C186 507 121 494 72 475 L87 387 C127 408 186 423 232 423 C310 423 336 391 336 329 L336 301 C157 301 43 236 43 124 C43 43 97 -10 182 -10 C261 -10 323 34 347 93 L348 92 C344 65 343 32 343 0 C401 -3 474 1 530 7 L530 7 Z M336 215 C336 144 287 74 214 74 C172 74 146 102 146 141 C146 187 187 229 336 229 L336 215 Z M416 652 C416 685 389 712 356 712 C322 712 295 685 295 652 C295 618 322 591 356 591 C389 591 416 618 416 652 L416 652 Z M220 652 C220 685 193 712 159 712 C125 712 99 685 99 652 C99 618 125 591 159 591 C193 591 220 618 220 652 L220 652 Z " />
<glyph glyph-name="aring" unicode="&#xe5;" horiz-adv-x="545" d="M530 7 L530 73 C501 75 467 79 443 83 L443 339 C443 441 401 507 248 507 C186 507 121 494 72 475 L87 387 C127 408 186 423 232 423 C310 423 336 391 336 329 L336 301 C157 301 43 236 43 124 C43 43 97 -10 182 -10 C261 -10 323 34 347 93 L348 92 C344 65 343 32 343 0 C401 -3 474 1 530 7 L530 7 Z M336 215 C336 144 287 74 214 74 C172 74 146 102 146 141 C146 187 187 229 336 229 L336 215 Z M378 664 C378 730 326 779 259 779 C193 779 139 730 139 664 C139 597 192 549 259 549 C324 549 378 600 378 664 L378 664 Z M312 664 C312 634 289 609 259 609 C228 609 205 634 205 664 C205 695 228 719 259 719 C289 719 312 695 312 664 L312 664 Z " />
<glyph glyph-name="ae" unicode="&#xe6;" horiz-adv-x="804" d="M761 292 C761 410 701 507 558 507 C491 507 436 477 406 437 L405 437 C376 489 320 507 250 507 C186 507 119 493 69 474 L90 388 C130 409 186 424 232 424 C310 424 336 391 336 330 L336 301 C154 301 43 240 43 128 C43 47 97 -10 184 -10 C276 -10 340 40 369 99 L370 99 C395 36 460 -10 569 -10 C631 -10 693 1 745 22 L731 106 C687 86 637 76 588 76 C489 76 438 127 441 240 L758 240 C760 261 761 278 761 292 L761 292 Z M654 314 L443 314 C453 384 495 428 554 428 C617 428 656 385 654 314 L654 314 Z M336 215 C336 144 287 74 214 74 C172 74 146 103 146 141 C146 188 187 229 336 229 L336 215 Z " />
<glyph glyph-name="ccedilla" unicode="&#xe7;" horiz-adv-x="431" d="M403 17 L387 106 C356 91 319 84 280 84 C182 84 150 153 150 244 C150 346 195 416 279 416 C316 416 353 407 383 395 L401 486 C368 499 327 505 285 505 C119 505 38 390 38 232 C38 55 131 -8 259 -8 C309 -8 362 0 403 17 L403 17 Z M270 -40 L180 -71 C228 -130 217 -173 166 -235 L249 -235 C306 -173 322 -109 270 -40 L270 -40 Z " />
<glyph glyph-name="egrave" unicode="&#xe8;" horiz-adv-x="511" d="M468 292 C468 410 407 507 265 507 C120 507 38 395 38 245 C38 70 123 -10 276 -10 C338 -10 400 1 452 22 L438 106 C393 86 343 76 295 76 C196 76 145 127 148 240 L465 240 C467 261 468 278 468 292 L468 292 Z M361 314 L150 314 C159 384 201 428 261 428 C324 428 363 385 361 314 L361 314 Z M343 623 L190 748 L136 677 L300 566 L343 623 Z " />
<glyph glyph-name="eacute" unicode="&#xe9;" horiz-adv-x="511" d="M468 292 C468 410 407 507 265 507 C120 507 38 395 38 245 C38 70 123 -10 276 -10 C338 -10 400 1 452 22 L438 106 C393 86 343 76 295 76 C196 76 145 127 148 240 L465 240 C467 261 468 278 468 292 L468 292 Z M361 314 L150 314 C159 384 201 428 261 428 C324 428 363 385 361 314 L361 314 Z M397 677 L343 748 L190 623 L233 566 L397 677 Z " />
<glyph glyph-name="ecircumflex" unicode="&#xea;" horiz-adv-x="511" d="M468 292 C468 410 407 507 265 507 C120 507 38 395 38 245 C38 70 123 -10 276 -10 C338 -10 400 1 452 22 L438 106 C393 86 343 76 295 76 C196 76 145 127 148 240 L465 240 C467 261 468 278 468 292 L468 292 Z M361 314 L150 314 C159 384 201 428 261 428 C324 428 363 385 361 314 L361 314 Z M409 616 L264 748 L118 615 L161 566 L263 649 L364 566 L409 616 Z " />
<glyph glyph-name="edieresis" unicode="&#xeb;" horiz-adv-x="511" d="M468 292 C468 410 407 507 265 507 C120 507 38 395 38 245 C38 70 123 -10 276 -10 C338 -10 400 1 452 22 L438 106 C393 86 343 76 295 76 C196 76 145 127 148 240 L465 240 C467 261 468 278 468 292 L468 292 Z M361 314 L150 314 C159 384 201 428 261 428 C324 428 363 385 361 314 L361 314 Z M423 652 C423 685 396 712 363 712 C329 712 302 685 302 652 C302 618 329 591 363 591 C396 591 423 618 423 652 L423 652 Z M227 652 C227 685 200 712 166 712 C132 712 106 685 106 652 C106 618 132 591 166 591 C200 591 227 618 227 652 L227 652 Z " />
<glyph glyph-name="igrave" unicode="&#xec;" horiz-adv-x="291" d="M213 0 L213 497 C148 500 76 496 20 490 L20 424 C49 422 83 418 107 414 L107 0 L213 0 Z M228 623 L75 748 L21 677 L185 566 L228 623 Z " />
<glyph glyph-name="iacute" unicode="&#xed;" horiz-adv-x="291" d="M213 0 L213 497 C148 500 76 496 20 490 L20 424 C49 422 83 418 107 414 L107 0 L213 0 Z M261 677 L207 748 L54 623 L97 566 L261 677 Z " />
<glyph glyph-name="icircumflex" unicode="&#xee;" horiz-adv-x="291" d="M213 0 L213 497 C148 500 76 496 20 490 L20 424 C49 422 83 418 107 414 L107 0 L213 0 Z M302 616 L157 748 L11 615 L54 566 L156 649 L257 566 L302 616 Z " />
<glyph glyph-name="idieresis" unicode="&#xef;" horiz-adv-x="291" d="M213 0 L213 497 C148 500 76 496 20 490 L20 424 C49 422 83 418 107 414 L107 0 L213 0 Z M319 652 C319 685 292 712 259 712 C225 712 198 685 198 652 C198 618 225 591 259 591 C292 591 319 618 319 652 L319 652 Z M123 652 C123 685 96 712 62 712 C28 712 2 685 2 652 C2 618 28 591 62 591 C96 591 123 618 123 652 L123 652 Z " />
<glyph glyph-name="eth" unicode="&#xf0;" horiz-adv-x="550" d="M510 275 C510 405 461 528 375 631 L467 671 L423 724 L328 683 C305 706 281 727 256 747 L150 702 C180 680 206 660 229 640 L139 600 L183 548 L281 591 C307 564 325 538 340 513 C346 503 358 485 368 466 C350 494 311 505 274 505 C133 505 37 395 37 242 C37 70 131 -10 267 -10 C402 -10 510 82 510 275 L510 275 Z M399 261 C399 134 346 82 278 82 C197 82 148 142 148 251 C148 365 208 417 274 417 C358 417 399 356 399 261 L399 261 Z " />
<glyph glyph-name="ntilde" unicode="&#xf1;" horiz-adv-x="602" d="M524 0 L524 348 C524 435 488 507 375 507 C292 507 232 463 203 399 L201 399 C206 428 209 471 209 497 C148 500 76 496 20 490 L20 424 C49 422 83 418 107 414 L107 0 L213 0 L213 239 C213 339 269 418 343 418 C401 418 418 381 418 319 L418 0 L524 0 Z M478 670 L426 711 C409 681 390 665 368 665 C328 665 308 718 243 718 C194 718 155 688 128 635 L180 594 C197 625 215 640 238 640 C278 640 297 588 363 588 C411 588 450 617 478 670 L478 670 Z " />
<glyph glyph-name="ograve" unicode="&#xf2;" horiz-adv-x="549" d="M511 258 C511 433 417 507 284 507 C133 507 36 392 36 242 C36 67 126 -10 264 -10 C411 -10 511 105 511 258 L511 258 Z M401 251 C401 136 343 82 274 82 C191 82 147 141 147 253 C147 367 210 417 275 417 C360 417 401 357 401 251 L401 251 Z M359 623 L206 748 L152 677 L316 566 L359 623 Z " />
<glyph glyph-name="oacute" unicode="&#xf3;" horiz-adv-x="549" d="M511 258 C511 433 417 507 284 507 C133 507 36 392 36 242 C36 67 126 -10 264 -10 C411 -10 511 105 511 258 L511 258 Z M401 251 C401 136 343 82 274 82 C191 82 147 141 147 253 C147 367 210 417 275 417 C360 417 401 357 401 251 L401 251 Z M411 677 L357 748 L204 623 L247 566 L411 677 Z " />
<glyph glyph-name="ocircumflex" unicode="&#xf4;" horiz-adv-x="549" d="M511 258 C511 433 417 507 284 507 C133 507 36 392 36 242 C36 67 126 -10 264 -10 C411 -10 511 105 511 258 L511 258 Z M401 251 C401 136 343 82 274 82 C191 82 147 141 147 253 C147 367 210 417 275 417 C360 417 401 357 401 251 L401 251 Z M421 616 L276 748 L130 615 L173 566 L275 649 L376 566 L421 616 Z " />
<glyph glyph-name="otilde" unicode="&#xf5;" horiz-adv-x="549" d="M511 258 C511 433 417 507 284 507 C133 507 36 392 36 242 C36 67 126 -10 264 -10 C411 -10 511 105 511 258 L511 258 Z M401 251 C401 136 343 82 274 82 C191 82 147 141 147 253 C147 367 210 417 275 417 C360 417 401 357 401 251 L401 251 Z M444 670 L392 711 C375 681 356 665 334 665 C294 665 274 718 209 718 C160 718 121 688 94 635 L146 594 C163 625 181 640 204 640 C244 640 263 588 329 588 C377 588 416 617 444 670 L444 670 Z " />
<glyph glyph-name="odieresis" unicode="&#xf6;" horiz-adv-x="549" d="M511 258 C511 433 417 507 284 507 C133 507 36 392 36 242 C36 67 126 -10 264 -10 C411 -10 511 105 511 258 L511 258 Z M401 251 C401 136 343 82 274 82 C191 82 147 141 147 253 C147 367 210 417 275 417 C360 417 401 357 401 251 L401 251 Z M434 652 C434 685 407 712 374 712 C340 712 313 685 313 652 C313 618 340 591 374 591 C407 591 434 618 434 652 L434 652 Z M238 652 C238 685 211 712 177 712 C143 712 117 685 117 652 C117 618 143 591 177 591 C211 591 238 618 238 652 L238 652 Z " />
<glyph glyph-name="divide" unicode="&#xf7;" horiz-adv-x="550" d="M342 498 C342 536 312 566 274 566 C236 566 205 536 205 498 C205 460 236 430 274 430 C312 430 342 460 342 498 L342 498 Z M509 253 L509 342 L41 342 L41 253 L509 253 Z M342 96 C342 134 312 165 274 165 C236 165 205 134 205 96 C205 59 236 28 274 28 C312 28 342 59 342 96 L342 96 Z " />
<glyph glyph-name="oslash" unicode="&#xf8;" horiz-adv-x="549" d="M511 258 C511 385 460 453 393 485 L429 576 L364 597 L328 503 C313 505 298 507 284 507 C134 507 36 395 36 242 C36 140 70 59 141 18 L101 -85 L166 -105 L206 -2 C223 -7 244 -10 264 -10 C411 -10 511 104 511 258 L511 258 Z M409 251 C409 134 350 81 285 78 C268 77 252 79 238 84 L356 392 C392 364 409 317 409 251 L409 251 Z M295 419 L180 118 C152 146 139 196 139 253 C139 371 201 415 261 420 C272 421 284 420 295 419 L295 419 Z " />
<glyph glyph-name="ugrave" unicode="&#xf9;" horiz-adv-x="622" d="M608 7 L608 73 C579 75 545 79 521 83 L521 497 L415 497 L415 258 C415 158 359 79 285 79 C227 79 211 116 211 178 L211 497 C149 500 76 496 17 490 L17 424 C46 422 80 418 104 414 L104 149 C104 62 140 -10 253 -10 C336 -10 396 34 425 98 L427 98 C422 67 420 26 420 0 C480 -3 552 1 608 7 L608 7 Z M371 623 L218 748 L164 677 L328 566 L371 623 Z " />
<glyph glyph-name="uacute" unicode="&#xfa;" horiz-adv-x="622" d="M608 7 L608 73 C579 75 545 79 521 83 L521 497 L415 497 L415 258 C415 158 359 79 285 79 C227 79 211 116 211 178 L211 497 C149 500 76 496 17 490 L17 424 C46 422 80 418 104 414 L104 149 C104 62 140 -10 253 -10 C336 -10 396 34 425 98 L427 98 C422 67 420 26 420 0 C480 -3 552 1 608 7 L608 7 Z M455 677 L401 748 L248 623 L291 566 L455 677 Z " />
<glyph glyph-name="ucircumflex" unicode="&#xfb;" horiz-adv-x="622" d="M608 7 L608 73 C579 75 545 79 521 83 L521 497 L415 497 L415 258 C415 158 359 79 285 79 C227 79 211 116 211 178 L211 497 C149 500 76 496 17 490 L17 424 C46 422 80 418 104 414 L104 149 C104 62 140 -10 253 -10 C336 -10 396 34 425 98 L427 98 C422 67 420 26 420 0 C480 -3 552 1 608 7 L608 7 Z M454 616 L309 748 L163 615 L206 566 L308 649 L409 566 L454 616 Z " />
<glyph glyph-name="udieresis" unicode="&#xfc;" horiz-adv-x="622" d="M608 7 L608 73 C579 75 545 79 521 83 L521 497 L415 497 L415 258 C415 158 359 79 285 79 C227 79 211 116 211 178 L211 497 C149 500 76 496 17 490 L17 424 C46 422 80 418 104 414 L104 149 C104 62 140 -10 253 -10 C336 -10 396 34 425 98 L427 98 C422 67 420 26 420 0 C480 -3 552 1 608 7 L608 7 Z M466 652 C466 685 439 712 406 712 C372 712 345 685 345 652 C345 618 372 591 406 591 C439 591 466 618 466 652 L466 652 Z M270 652 C270 685 243 712 209 712 C175 712 149 685 149 652 C149 618 175 591 209 591 C243 591 270 618 270 652 L270 652 Z " />
<glyph glyph-name="yacute" unicode="&#xfd;" horiz-adv-x="490" d="M484 497 L369 497 L298 295 C280 245 259 180 249 140 L248 140 C237 182 225 226 209 270 L128 497 L8 497 L194 0 L176 -49 C143 -138 99 -161 52 -161 C32 -161 8 -158 -9 -153 L-21 -246 C-4 -249 23 -252 42 -252 C155 -252 221 -201 283 -35 L484 497 Z M403 677 L349 748 L196 623 L239 566 L403 677 Z " />
<glyph glyph-name="thorn" unicode="&#xfe;" horiz-adv-x="565" d="M525 273 C525 423 460 507 343 507 C267 507 213 468 187 411 L185 411 C190 439 191 484 191 518 L191 730 C126 733 53 729 -3 723 L-3 657 C26 655 60 651 84 647 L84 -244 L191 -244 L191 -1 C217 -6 238 -7 266 -7 C432 -7 525 98 525 273 L525 273 Z M413 263 C413 129 354 77 270 77 C239 77 214 80 191 87 L191 240 C191 325 234 419 314 419 C381 419 413 363 413 263 L413 263 Z " />
<glyph glyph-name="ydieresis" unicode="&#xff;" horiz-adv-x="490" d="M484 497 L369 497 L298 295 C280 245 259 180 249 140 L248 140 C237 182 225 226 209 270 L128 497 L8 497 L194 0 L176 -49 C143 -138 99 -161 52 -161 C32 -161 8 -158 -9 -153 L-21 -246 C-4 -249 23 -252 42 -252 C155 -252 221 -201 283 -35 L484 497 Z M404 652 C404 685 377 712 344 712 C310 712 283 685 283 652 C283 618 310 591 344 591 C377 591 404 618 404 652 L404 652 Z M208 652 C208 685 181 712 147 712 C113 712 87 685 87 652 C87 618 113 591 147 591 C181 591 208 618 208 652 L208 652 Z " />
<glyph glyph-name="dotlessi" unicode="&#x131;" horiz-adv-x="291" d="M213 0 L213 497 C148 500 76 496 20 490 L20 424 C49 422 83 418 107 414 L107 0 L213 0 Z " />
<glyph glyph-name="Lslash" unicode="&#x141;" horiz-adv-x="440" d="M432 0 L432 95 L201 95 L201 304 L327 345 L311 427 L201 391 L201 675 L92 675 L92 359 L-7 326 L10 245 L92 273 L92 0 L432 0 Z " />
<glyph glyph-name="lslash" unicode="&#x142;" horiz-adv-x="294" d="M294 463 L269 540 L202 499 L202 730 C138 733 65 729 9 723 L9 657 C38 655 72 651 96 647 L96 440 L2 382 L27 305 L96 348 L96 0 L202 0 L202 407 L294 463 Z " />
<glyph glyph-name="OE" unicode="&#x152;" horiz-adv-x="862" d="M799 0 L799 93 L552 93 L552 303 L786 303 L786 392 L552 392 L552 584 L799 584 L799 675 L462 675 C430 682 396 685 359 685 C184 685 38 554 38 330 C38 123 137 -10 342 -10 C379 -10 416 -6 451 0 L799 0 Z M443 102 C414 93 380 87 350 87 C217 87 154 190 154 343 C154 505 248 589 353 589 C387 589 415 584 443 575 L443 102 Z " />
<glyph glyph-name="oe" unicode="&#x153;" horiz-adv-x="867" d="M824 292 C824 410 763 507 621 507 C546 507 491 473 456 422 C419 480 352 507 284 507 C133 507 36 393 36 242 C36 66 126 -10 264 -10 C347 -10 408 29 444 83 C478 25 537 -10 632 -10 C694 -10 756 1 808 22 L794 106 C749 86 699 76 651 76 C552 76 501 127 504 240 L821 240 C823 261 824 278 824 292 L824 292 Z M717 314 L506 314 C515 384 558 428 617 428 C680 428 719 385 717 314 L717 314 Z M401 251 C401 136 343 82 274 82 C191 82 147 141 147 253 C147 367 210 417 275 417 C360 417 401 357 401 251 L401 251 Z " />
<glyph glyph-name="Scaron" unicode="&#x160;" horiz-adv-x="503" d="M421 806 L395 860 L262 799 L126 860 L97 804 L260 720 L421 806 Z M460 202 C460 415 161 366 161 501 C161 557 200 595 285 595 C325 595 365 588 401 576 L412 672 C375 680 328 685 290 685 C134 685 46 604 46 488 C46 270 342 330 342 188 C342 114 281 85 210 85 C159 85 110 96 66 113 L54 9 C97 -3 148 -10 206 -10 C359 -10 460 79 460 202 L460 202 Z " />
<glyph glyph-name="scaron" unicode="&#x161;" horiz-adv-x="421" d="M376 152 C376 319 156 265 156 363 C156 401 184 425 243 425 C275 425 308 420 337 411 L343 497 C314 503 279 507 249 507 C112 507 46 440 46 353 C46 181 264 243 264 141 C264 101 225 76 169 76 C131 76 91 83 60 95 L52 4 C83 -5 124 -10 162 -10 C294 -10 376 58 376 152 L376 152 Z M363 699 L319 748 L218 665 L117 748 L72 698 L217 566 L363 699 Z " />
<glyph glyph-name="Ydieresis" unicode="&#x178;" horiz-adv-x="548" d="M433 783 C433 814 408 839 377 839 C347 839 322 814 322 783 C322 753 347 728 377 728 C408 728 433 753 433 783 L433 783 Z M218 783 C218 814 194 839 163 839 C132 839 108 814 108 783 C108 753 132 728 163 728 C194 728 218 753 218 783 L218 783 Z M541 675 L426 675 L331 474 C310 431 290 388 275 348 L273 348 C259 384 243 422 225 462 L125 675 L6 675 L217 241 L217 0 L326 0 L326 241 L541 675 Z " />
<glyph glyph-name="Zcaron" unicode="&#x17d;" horiz-adv-x="538" d="M445 806 L418 860 L285 799 L149 860 L121 804 L284 720 L445 806 Z M494 0 L494 100 L333 100 C247 100 193 100 175 98 C188 117 199 133 210 152 L490 589 L490 675 L55 675 L55 578 L224 578 C293 578 332 578 361 579 C343 555 327 532 311 506 L45 83 L45 0 L494 0 Z " />
<glyph glyph-name="zcaron" unicode="&#x17e;" horiz-adv-x="449" d="M399 0 L399 98 L302 98 C261 98 202 97 177 96 L395 422 L395 497 L52 497 L52 401 L148 401 C199 401 243 402 268 403 L47 76 L47 0 L399 0 Z M371 699 L327 748 L226 665 L125 748 L80 698 L225 566 L371 699 Z " />
<glyph glyph-name="florin" unicode="&#x192;" horiz-adv-x="550" d="M517 690 C489 697 455 702 427 702 C300 702 228 639 213 493 L200 364 L78 364 L78 281 L192 281 L169 39 C162 -41 132 -73 74 -73 C47 -73 13 -66 -15 -58 L-29 -148 C1 -156 36 -160 63 -160 C190 -160 264 -97 277 49 L299 281 L453 281 L453 364 L307 364 L320 502 C328 582 356 615 417 615 C442 615 474 609 504 599 L517 690 Z " />
<glyph glyph-name="circumflex" unicode="&#x2c6;" horiz-adv-x="430" d="M359 616 L214 748 L68 615 L111 566 L213 649 L314 566 L359 616 Z " />
<glyph glyph-name="caron" unicode="&#x2c7;" horiz-adv-x="430" d="M357 699 L313 748 L212 665 L111 748 L66 698 L211 566 L357 699 Z " />
<glyph glyph-name="breve" unicode="&#x2d8;" horiz-adv-x="388" d="M324 721 L251 721 C251 681 229 659 193 659 C155 659 135 686 135 721 L63 721 C63 648 100 579 192 579 C284 579 324 646 324 721 L324 721 Z " />
<glyph glyph-name="dotaccent" unicode="&#x2d9;" horiz-adv-x="285" d="M208 652 C208 689 177 719 139 719 C101 719 71 689 71 652 C71 614 101 585 139 585 C177 585 208 615 208 652 L208 652 Z " />
<glyph glyph-name="ring" unicode="&#x2da;" horiz-adv-x="375" d="M307 648 C307 714 255 763 188 763 C122 763 68 714 68 648 C68 581 121 533 188 533 C253 533 307 584 307 648 L307 648 Z M241 648 C241 618 218 593 188 593 C157 593 134 618 134 648 C134 679 157 703 188 703 C218 703 241 679 241 648 L241 648 Z " />
<glyph glyph-name="ogonek" unicode="&#x2db;" horiz-adv-x="302" d="M260 -154 L217 -105 C202 -123 183 -134 164 -134 C147 -134 134 -124 134 -104 C134 -74 159 -34 223 0 L109 0 C56 -37 28 -88 28 -131 C28 -180 59 -217 128 -217 C184 -217 228 -192 260 -154 L260 -154 Z " />
<glyph glyph-name="tilde" unicode="&#x2dc;" horiz-adv-x="483" d="M415 670 L363 711 C346 681 327 665 305 665 C265 665 245 718 180 718 C131 718 92 688 65 635 L117 594 C134 625 152 640 175 640 C215 640 234 588 300 588 C348 588 387 617 415 670 L415 670 Z " />
<glyph glyph-name="hungarumlaut" unicode="&#x2dd;" horiz-adv-x="498" d="M448 693 L388 750 L253 610 L302 566 L448 693 Z M257 703 L193 757 L70 610 L121 566 L257 703 Z " />
<glyph glyph-name="pi" unicode="&#x3c0;" horiz-adv-x="670" d="M623 1 L616 77 C601 73 583 69 565 69 C520 69 511 85 511 195 L511 411 L615 411 L615 497 L40 497 L40 411 L144 411 L144 0 L244 0 L244 411 L410 411 L410 126 C410 35 436 -10 523 -10 C559 -10 596 -6 623 1 L623 1 Z " />
<glyph glyph-name="endash" unicode="&#x2013;" horiz-adv-x="550" d="M550 251 L550 344 L0 344 L0 251 L550 251 Z " />
<glyph glyph-name="emdash" unicode="&#x2014;" horiz-adv-x="1000" d="M885 251 L885 344 L115 344 L115 251 L885 251 Z " />
<glyph glyph-name="quoteleft" unicode="&#x2018;" horiz-adv-x="254" d="M215 712 L170 752 C1 601 40 460 123 460 C180 460 205 525 173 564 C146 597 149 642 215 712 L215 712 Z " />
<glyph glyph-name="quoteright" unicode="&#x2019;" horiz-adv-x="254" d="M130 745 C72 745 47 680 80 641 C106 608 103 564 38 493 L83 453 C251 604 213 745 130 745 L130 745 Z " />
<glyph glyph-name="quotesinglbase" unicode="&#x201a;" horiz-adv-x="254" d="M130 129 C72 129 47 65 80 25 C106 -7 103 -52 38 -123 L83 -163 C251 -12 213 129 130 129 L130 129 Z " />
<glyph glyph-name="quotedblleft" unicode="&#x201c;" horiz-adv-x="457" d="M418 712 L373 752 C204 601 242 460 325 460 C383 460 408 525 376 564 C349 597 352 642 418 712 L418 712 Z M215 712 L170 752 C1 601 40 460 123 460 C180 460 205 525 173 564 C146 597 149 642 215 712 L215 712 Z " />
<glyph glyph-name="quotedblright" unicode="&#x201d;" horiz-adv-x="457" d="M333 745 C275 745 250 680 282 641 C309 608 306 564 240 493 L285 453 C454 604 416 745 333 745 L333 745 Z M130 745 C72 745 47 680 80 641 C106 608 103 564 38 493 L83 453 C251 604 213 745 130 745 L130 745 Z " />
<glyph glyph-name="quotedblbase" unicode="&#x201e;" horiz-adv-x="457" d="M333 129 C275 129 250 65 282 25 C309 -7 306 -52 240 -123 L285 -163 C454 -12 416 129 333 129 L333 129 Z M130 129 C72 129 47 65 80 25 C106 -7 103 -52 38 -123 L83 -163 C251 -12 213 129 130 129 L130 129 Z " />
<glyph glyph-name="dagger" unicode="&#x2020;" horiz-adv-x="452" d="M407 546 L407 629 L269 629 L288 766 L164 766 L183 629 L45 629 L45 546 L183 546 L164 453 L185 200 L267 200 L288 453 L269 546 L407 546 Z " />
<glyph glyph-name="daggerdbl" unicode="&#x2021;" horiz-adv-x="452" d="M407 292 L407 374 L270 374 L288 465 L270 557 L407 557 L407 639 L270 639 L288 766 L164 766 L182 639 L45 639 L45 557 L182 557 L164 465 L182 374 L45 374 L45 292 L182 292 L163 165 L289 165 L270 292 L407 292 Z " />
<glyph glyph-name="bullet" unicode="&#x2022;" horiz-adv-x="421" d="M344 297 C344 370 284 430 211 430 C137 430 78 370 78 297 C78 224 137 164 211 164 C284 164 344 224 344 297 L344 297 Z " />
<glyph glyph-name="ellipsis" unicode="&#x2026;" horiz-adv-x="691" d="M633 58 C633 96 602 127 565 127 C527 127 496 96 496 58 C496 21 527 -10 565 -10 C602 -10 633 21 633 58 L633 58 Z M410 58 C410 96 379 127 341 127 C304 127 273 96 273 58 C273 21 304 -10 341 -10 C379 -10 410 21 410 58 L410 58 Z M187 58 C187 96 156 127 118 127 C81 127 50 96 50 58 C50 21 81 -10 118 -10 C156 -10 187 21 187 58 L187 58 Z " />
<glyph glyph-name="perthousand" unicode="&#x2030;" horiz-adv-x="1037" d="M905 145 C905 91 881 59 844 59 C805 59 786 84 786 144 C786 197 810 230 846 230 C886 230 905 204 905 145 L905 145 Z M985 152 C985 257 927 299 849 299 C772 299 705 239 705 139 C705 38 759 -10 840 -10 C918 -10 985 50 985 152 L985 152 Z M582 145 C582 91 558 59 522 59 C482 59 463 84 463 144 C463 197 487 230 524 230 C564 230 582 204 582 145 L582 145 Z M662 152 C662 257 604 299 526 299 C449 299 382 239 382 139 C382 38 436 -10 518 -10 C595 -10 662 50 662 152 L662 152 Z M647 617 L582 667 L58 32 L123 -18 L647 617 Z M244 507 C244 453 220 420 184 420 C145 420 125 446 125 506 C125 559 149 591 186 591 C226 591 244 566 244 507 L244 507 Z M324 513 C324 618 266 660 188 660 C111 660 44 601 44 501 C44 400 98 351 180 351 C257 351 324 411 324 513 L324 513 Z " />
<glyph glyph-name="guilsinglleft" unicode="&#x2039;" horiz-adv-x="313" d="M247 150 L152 293 L246 439 L165 480 L48 293 L164 108 L247 150 Z " />
<glyph glyph-name="guilsinglright" unicode="&#x203a;" horiz-adv-x="313" d="M265 295 L150 480 L67 438 L161 295 L67 149 L147 108 L265 295 Z " />
<glyph glyph-name="fraction" unicode="&#x2044;" horiz-adv-x="426" d="M505 644 L428 700 L-57 25 L20 -30 L505 644 Z " />
<glyph glyph-name="Euro" unicode="&#x20ac;" horiz-adv-x="550" d="M517 23 L492 105 C454 88 410 77 369 77 C275 77 226 122 209 217 L390 217 L390 285 L199 285 C199 298 199 312 199 325 C199 340 199 354 200 368 L390 368 L390 436 L212 436 C230 515 273 575 361 575 C405 575 452 564 484 549 L510 634 C472 649 419 660 372 660 C211 660 128 567 101 436 L11 436 L11 368 L91 368 C90 350 89 333 89 315 C89 304 89 294 90 285 L11 285 L11 217 L96 217 C119 57 207 -10 351 -10 C406 -10 467 1 517 23 L517 23 Z " />
<glyph glyph-name="trademark" unicode="&#x2122;" horiz-adv-x="694" d="M650 394 L605 675 L509 675 L468 532 L460 491 L450 535 L411 675 L314 675 L270 394 L344 394 L365 544 L368 580 L378 538 L417 394 L493 394 L533 535 L543 580 L549 530 L569 394 L650 394 Z M257 610 L257 675 L37 675 L37 610 L109 610 L109 394 L187 394 L187 610 L257 610 Z " />
<glyph glyph-name="Omega" unicode="&#x2126;" horiz-adv-x="749" d="M683 0 L683 80 L542 80 C624 135 680 237 680 360 C680 570 556 685 381 685 C192 685 67 544 67 350 C67 232 115 137 200 80 L62 80 L62 0 L308 0 L308 80 C213 143 173 224 173 352 C173 498 252 599 375 599 C504 599 571 489 571 348 C571 220 520 133 438 79 L438 0 L683 0 Z " />
<glyph glyph-name="partialdiff" unicode="&#x2202;" horiz-adv-x="636" d="M568 404 C568 610 443 734 253 736 L240 647 C354 648 442 578 453 439 C455 417 455 395 457 363 C432 412 381 444 312 444 C166 444 69 340 69 202 C69 75 140 -8 276 -8 C355 -8 425 28 471 82 C540 164 568 285 568 404 L568 404 Z M428 238 C428 151 369 85 290 85 C221 85 175 127 175 211 C175 292 229 354 307 354 C387 354 428 304 428 238 L428 238 Z " />
<glyph glyph-name="Delta" unicode="&#x2206;" horiz-adv-x="740" d="M711 0 L424 700 L314 700 L30 0 L711 0 Z M553 97 L179 97 L364 568 L553 97 Z " />
<glyph glyph-name="product" unicode="&#x220f;" horiz-adv-x="784" d="M740 639 L740 730 L43 730 L43 639 L145 639 L145 -244 L247 -244 L247 639 L538 639 L538 -244 L639 -244 L639 639 L740 639 Z " />
<glyph glyph-name="summation" unicode="&#x2211;" horiz-adv-x="608" d="M555 -244 L555 -150 L163 -150 L461 256 L187 639 L540 639 L540 730 L54 730 L54 647 L337 252 L36 -161 L36 -244 L555 -244 Z " />
<glyph glyph-name="minus" unicode="&#x2212;" horiz-adv-x="550" d="M509 251 L509 344 L41 344 L41 251 L509 251 Z " />
<glyph glyph-name="radical" unicode="&#x221a;" horiz-adv-x="612" d="M591 758 L474 758 L324 215 C315 184 307 151 300 116 L298 116 C289 152 278 187 267 222 L179 497 L2 497 L2 416 L91 416 L234 0 L358 0 L591 758 Z " />
<glyph glyph-name="infinity" unicode="&#x221e;" horiz-adv-x="979" d="M928 304 C928 399 862 474 741 474 C653 474 565 416 493 362 C406 427 325 474 242 474 C127 474 51 396 51 294 C51 202 112 124 236 124 C326 124 411 179 486 235 C575 168 655 124 733 124 C858 124 928 206 928 304 L928 304 Z M824 299 C824 255 794 217 739 217 C691 217 638 251 573 300 C634 346 689 381 736 381 C792 381 824 346 824 299 L824 299 Z M406 297 C344 251 290 217 243 217 C187 217 156 252 156 299 C156 343 185 381 241 381 C288 381 341 346 406 297 L406 297 Z " />
<glyph glyph-name="integral" unicode="&#x222b;" horiz-adv-x="341" d="M321 638 L321 730 C305 734 285 737 269 737 C165 737 107 667 107 474 C107 267 119 138 119 -14 C119 -137 98 -161 51 -161 C36 -161 18 -158 5 -154 L5 -248 C21 -251 42 -254 59 -254 C167 -254 219 -181 219 9 C219 214 207 338 207 497 C207 621 226 645 273 645 C289 645 308 642 321 638 L321 638 Z " />
<glyph glyph-name="approxequal" unicode="&#x2248;" horiz-adv-x="550" d="M507 374 L472 447 C442 420 411 402 376 402 C308 402 269 462 179 462 C126 462 76 434 42 403 L77 330 C102 351 136 372 175 372 C255 372 284 313 374 313 C429 313 475 341 507 374 L507 374 Z M508 185 L473 258 C443 231 411 218 378 218 C297 218 266 278 174 278 C120 278 73 246 42 218 L78 145 C103 166 136 188 175 188 C250 188 279 129 373 129 C424 129 474 155 508 185 L508 185 Z " />
<glyph glyph-name="notequal" unicode="&#x2260;" horiz-adv-x="550" d="M500 164 L500 251 L303 251 L340 343 L500 343 L500 430 L375 430 L428 563 L332 563 L279 430 L50 430 L50 343 L245 343 L208 251 L50 251 L50 164 L174 164 L122 33 L217 33 L269 164 L500 164 Z " />
<glyph glyph-name="lessequal" unicode="&#x2264;" horiz-adv-x="550" d="M469 211 L203 388 L469 566 L404 639 L56 387 L405 135 L469 211 Z M481 0 L481 89 L69 89 L69 0 L481 0 Z " />
<glyph glyph-name="greaterequal" unicode="&#x2265;" horiz-adv-x="550" d="M494 388 L145 639 L81 563 L347 387 L81 208 L146 135 L494 388 Z M481 0 L481 89 L69 89 L69 0 L481 0 Z " />
<glyph glyph-name="lozenge" unicode="&#x25ca;" horiz-adv-x="622" d="M594 335 L342 684 L277 684 L28 340 L280 -9 L347 -9 L594 335 Z M477 331 L316 108 L146 343 L306 567 L477 331 Z " />
<glyph glyph-name="fi" unicode="&#xfb01;" horiz-adv-x="592" d="M514 0 L514 497 L209 497 L209 526 C209 605 249 649 346 649 C383 649 430 641 468 629 L487 718 C440 730 394 737 340 737 C178 737 103 660 103 517 L103 497 L8 497 L8 414 L103 414 L103 0 L209 0 L209 414 L408 414 L408 0 L514 0 Z " />
<glyph glyph-name="fl" unicode="&#xfb02;" horiz-adv-x="592" d="M514 0 L514 721 C454 731 390 737 339 737 C173 737 103 663 103 550 L103 497 L8 497 L8 414 L103 414 L103 0 L209 0 L209 414 L333 414 L333 497 L209 497 L209 543 C209 618 249 650 329 650 C356 650 381 648 408 643 L408 0 L514 0 Z " />
</font>
</svg>
