<?xml version="1.0" encoding="UTF-8"?>
<svg xmlns="http://www.w3.org/2000/svg" xmlns:xlink="http://www.w3.org/1999/xlink" version="1.2" >
<font id="TheMix B8 ExtraBold">
<font-face  font-family="TheMix" units-per-em="1000" ascent="750" descent="-250" font-style="normal" font-weight="800" font-stretch="normal" cap-height="750" x-height="500" underline-position="-121.5" underline-thickness="123" />
<missing-glyph  horiz-adv-x="550" d="" />
<glyph glyph-name="NULL" d="" />
<glyph glyph-name="CR" unicode="&#xd;" horiz-adv-x="250" d="" />
<glyph glyph-name="space" unicode="&#x20;" horiz-adv-x="218" d="" />
<glyph glyph-name="exclam" unicode="&#x21;" horiz-adv-x="323" d="M259 711 L80 711 L104 201 L237 201 L259 711 Z M258 74 C258 123 219 161 168 161 C117 161 78 123 78 74 C78 26 117 -12 168 -12 C219 -12 258 26 258 74 L258 74 Z " />
<glyph glyph-name="quotedbl" unicode="&#x22;" horiz-adv-x="430" d="M392 704 L241 704 L260 434 L374 434 L392 704 Z M189 704 L38 704 L57 434 L171 434 L189 704 Z " />
<glyph glyph-name="numbersign" unicode="&#x23;" horiz-adv-x="550" d="M526 384 L526 490 L458 490 L475 650 L365 650 L348 490 L235 490 L252 650 L143 650 L126 490 L46 490 L46 384 L115 384 L104 269 L24 269 L24 164 L93 164 L76 0 L185 0 L202 164 L315 164 L298 0 L407 0 L424 164 L504 164 L504 269 L435 269 L447 384 L526 384 Z M337 384 L326 269 L213 269 L225 384 L337 384 Z " />
<glyph glyph-name="dollar" unicode="&#x24;" horiz-adv-x="550" d="M482 214 C482 418 223 384 223 468 C223 497 246 521 306 521 C337 521 375 517 416 505 L427 632 C393 640 359 643 326 644 L326 730 L219 730 L219 636 C126 614 64 542 64 454 C64 248 320 293 320 200 C320 160 283 141 226 141 C188 141 144 147 102 161 L91 26 C130 20 167 15 210 15 L210 -85 L318 -85 L318 22 C419 48 482 124 482 214 L482 214 Z " />
<glyph glyph-name="percent" unicode="&#x25;" horiz-adv-x="767" d="M732 156 C732 261 668 311 579 311 C490 311 418 245 418 146 C418 49 473 -13 571 -13 C658 -13 732 54 732 156 L732 156 Z M681 603 L586 672 L82 45 L177 -24 L681 603 Z M349 508 C349 613 285 663 195 663 C107 663 35 597 35 498 C35 401 90 339 188 339 C275 339 349 406 349 508 L349 508 Z M621 149 C621 104 600 81 576 81 C549 81 530 96 530 150 C530 194 551 217 576 217 C604 217 621 203 621 149 L621 149 Z M237 501 C237 456 216 433 193 433 C166 433 147 448 147 502 C147 546 168 569 193 569 C221 569 237 555 237 501 L237 501 Z " />
<glyph glyph-name="ampersand" unicode="&#x26;" horiz-adv-x="805" d="M765 90 C726 116 687 144 649 171 C710 254 739 355 730 465 C652 468 581 466 505 458 L505 367 C524 365 555 361 576 357 C574 317 557 275 539 249 L539 250 C475 296 409 350 361 393 C428 448 474 506 474 585 C474 679 407 741 284 741 C146 741 71 659 71 565 C71 513 91 463 156 389 C92 337 42 277 42 189 C42 83 114 -13 278 -13 C383 -13 476 21 536 66 C574 37 618 5 664 -26 L765 90 Z M323 575 C323 539 303 510 269 480 C235 520 222 549 222 573 C222 604 243 626 273 626 C308 626 323 603 323 575 L323 575 Z M420 151 C377 130 341 118 302 118 C239 118 200 162 200 207 C200 239 216 267 249 298 C294 255 356 202 420 151 L420 151 Z " />
<glyph glyph-name="quotesingle" unicode="&#x27;" horiz-adv-x="227" d="M189 704 L38 704 L57 434 L171 434 L189 704 Z " />
<glyph glyph-name="parenleft" unicode="&#x28;" horiz-adv-x="308" d="M306 -167 C231 -32 191 122 191 290 C191 455 231 610 303 740 L190 791 C83 624 40 451 40 285 C40 117 82 -50 189 -218 L306 -167 Z " />
<glyph glyph-name="parenright" unicode="&#x29;" horiz-adv-x="308" d="M268 287 C268 456 227 622 121 791 L4 739 C78 604 118 450 118 282 C118 118 78 -37 5 -168 L118 -218 C226 -51 268 121 268 287 L268 287 Z " />
<glyph glyph-name="asterisk" unicode="&#x2a;" horiz-adv-x="391" d="M364 529 L263 565 L364 602 L311 693 L229 624 L248 730 L141 730 L161 624 L79 693 L26 602 L127 565 L26 529 L78 438 L160 506 L141 401 L248 401 L229 506 L310 437 L364 529 Z " />
<glyph glyph-name="plus" unicode="&#x2b;" horiz-adv-x="550" d="M513 234 L513 362 L347 362 L347 537 L202 537 L202 362 L37 362 L37 234 L202 234 L202 57 L347 57 L347 234 L513 234 Z " />
<glyph glyph-name="comma" unicode="&#x2c;" horiz-adv-x="277" d="M138 172 C54 172 25 80 68 30 C105 -12 99 -54 29 -130 L91 -185 C298 -9 246 172 138 172 L138 172 Z " />
<glyph glyph-name="hyphen" unicode="&#x2d;" horiz-adv-x="337" d="M294 210 L294 332 L42 332 L42 210 L294 210 Z " />
<glyph glyph-name="period" unicode="&#x2e;" horiz-adv-x="277" d="M233 82 C233 134 190 177 138 177 C87 177 44 134 44 82 C44 30 87 -12 138 -12 C190 -12 233 30 233 82 L233 82 Z " />
<glyph glyph-name="slash" unicode="&#x2f;" horiz-adv-x="480" d="M482 757 L331 757 L-20 -161 L132 -161 L482 757 Z " />
<glyph glyph-name="zero" unicode="0" horiz-adv-x="550" d="M522 329 C522 569 440 663 280 663 C130 663 27 554 27 327 C27 60 122 -13 270 -13 C407 -13 522 94 522 329 L522 329 Z M358 326 C358 162 328 119 275 119 C217 119 191 153 191 331 C191 494 224 533 274 533 C330 533 358 502 358 326 L358 326 Z " />
<glyph glyph-name="one" unicode="1" horiz-adv-x="550" d="M510 0 L510 137 L375 137 L375 650 L259 650 L57 583 L81 438 L216 491 L216 137 L60 137 L60 0 L510 0 Z " />
<glyph glyph-name="two" unicode="2" horiz-adv-x="550" d="M498 0 L498 148 L432 148 C371 148 311 147 261 145 L261 147 L311 194 C440 313 476 381 476 468 C476 567 408 662 246 662 C172 662 102 643 51 616 L78 479 C112 502 159 520 211 520 C273 520 305 486 305 440 C305 395 279 351 114 191 L46 125 L46 0 L498 0 Z " />
<glyph glyph-name="three" unicode="3" horiz-adv-x="550" d="M491 212 C491 283 442 342 368 354 L369 356 C435 378 475 426 475 499 C475 596 403 663 250 663 C179 663 118 651 67 632 L80 505 C115 523 161 536 217 536 C285 536 315 510 315 469 C315 408 236 383 126 383 L92 383 L92 266 C128 271 160 273 198 273 C290 273 326 242 326 197 C326 151 289 114 199 114 C151 114 111 120 71 133 L58 3 C89 -5 139 -13 191 -13 C367 -13 491 68 491 212 L491 212 Z " />
<glyph glyph-name="four" unicode="4" horiz-adv-x="550" d="M530 135 L530 272 L451 272 L451 650 L243 650 L15 264 L29 135 L301 135 L301 0 L451 0 L451 135 L530 135 Z M304 272 C278 272 201 272 167 270 L303 497 L304 497 L304 272 Z " />
<glyph glyph-name="five" unicode="5" horiz-adv-x="550" d="M497 220 C497 332 409 408 254 408 C245 408 235 408 226 408 L226 507 L468 507 L468 650 L80 650 L80 281 C111 285 150 289 194 289 C278 289 328 260 328 205 C328 152 285 119 211 119 C154 119 115 126 74 138 L74 2 C113 -7 153 -12 202 -12 C378 -12 497 78 497 220 L497 220 Z " />
<glyph glyph-name="six" unicode="6" horiz-adv-x="550" d="M522 225 C522 331 451 417 317 417 C262 417 217 400 187 369 L186 369 C189 384 192 394 195 403 C222 485 276 533 373 533 C405 533 434 530 464 524 L464 656 C438 659 406 660 378 660 C165 660 31 526 31 278 C31 76 128 -13 278 -13 C423 -13 522 75 522 225 L522 225 Z M368 203 C368 150 337 111 284 111 C222 111 191 153 191 210 C191 251 222 293 279 293 C337 293 368 260 368 203 L368 203 Z " />
<glyph glyph-name="seven" unicode="7" horiz-adv-x="550" d="M502 519 L502 650 L46 650 L46 500 L131 500 C198 500 292 502 324 503 C260 380 174 170 124 0 L298 0 C343 151 417 354 502 519 L502 519 Z " />
<glyph glyph-name="eight" unicode="8" horiz-adv-x="550" d="M518 187 C518 268 468 313 409 346 C462 382 503 428 503 497 C503 592 421 663 283 663 C146 663 46 588 46 471 C46 400 84 356 138 323 C79 285 32 237 32 164 C32 55 120 -13 268 -13 C401 -13 518 55 518 187 L518 187 Z M350 484 C350 449 321 424 283 402 C230 426 199 448 199 485 C199 516 223 545 273 545 C328 545 350 517 350 484 L350 484 Z M360 174 C360 135 328 109 279 109 C219 109 189 138 189 176 C189 215 222 240 263 265 C317 241 360 218 360 174 L360 174 Z " />
<glyph glyph-name="nine" unicode="9" horiz-adv-x="550" d="M518 372 C518 569 422 663 272 663 C129 663 27 574 27 426 C27 318 99 232 232 232 C287 232 330 249 361 277 L362 277 C358 263 355 255 352 243 C327 161 274 118 179 118 C145 118 109 121 73 130 L73 -3 C106 -9 143 -10 172 -10 C385 -10 518 122 518 372 L518 372 Z M354 441 C354 395 323 357 267 357 C210 357 179 389 179 447 C179 498 210 539 262 539 C324 539 354 498 354 441 L354 441 Z " />
<glyph glyph-name="colon" unicode="&#x3a;" horiz-adv-x="306" d="M257 359 C257 410 214 453 163 453 C111 453 68 410 68 359 C68 307 111 264 163 264 C214 264 257 307 257 359 L257 359 Z M257 82 C257 134 214 177 163 177 C111 177 68 134 68 82 C68 30 111 -12 163 -12 C214 -12 257 30 257 82 L257 82 Z " />
<glyph glyph-name="semicolon" unicode="&#x3b;" horiz-adv-x="306" d="M257 359 C257 410 214 453 163 453 C111 453 68 410 68 359 C68 307 111 264 163 264 C214 264 257 307 257 359 L257 359 Z M162 172 C79 172 49 80 93 30 C130 -12 124 -54 53 -130 L115 -185 C322 -9 271 172 162 172 L162 172 Z " />
<glyph glyph-name="less" unicode="&#x3c;" horiz-adv-x="550" d="M479 101 L254 300 L478 500 L377 601 L58 299 L379 -3 L479 101 Z " />
<glyph glyph-name="equal" unicode="&#x3d;" horiz-adv-x="550" d="M498 338 L498 460 L52 460 L52 338 L498 338 Z M498 134 L498 256 L52 256 L52 134 L498 134 Z " />
<glyph glyph-name="greater" unicode="&#x3e;" horiz-adv-x="550" d="M492 299 L171 601 L71 498 L296 298 L72 98 L173 -3 L492 299 Z " />
<glyph glyph-name="question" unicode="&#x3f;" horiz-adv-x="455" d="M416 510 C416 616 317 717 75 721 L56 583 C179 580 250 550 250 494 C250 405 53 384 117 201 L266 201 C223 344 416 341 416 510 L416 510 Z M284 74 C284 123 245 161 194 161 C143 161 104 123 104 74 C104 26 143 -12 194 -12 C245 -12 284 26 284 74 L284 74 Z " />
<glyph glyph-name="at" unicode="&#x40;" horiz-adv-x="965" d="M879 418 C879 599 757 738 521 738 C271 738 76 546 76 280 C76 61 207 -79 463 -79 C526 -79 614 -66 683 -41 L660 76 C602 57 540 45 482 45 C293 45 214 137 214 294 C214 489 347 616 514 616 C683 616 743 517 743 411 C743 292 699 248 645 248 C610 248 601 270 612 333 L644 522 C616 534 569 545 522 545 C357 545 283 427 283 280 C283 178 324 130 387 130 C448 130 497 175 521 218 L525 218 C526 166 561 130 628 130 C774 130 879 227 879 418 L879 418 Z M519 440 L512 402 C490 291 452 246 422 246 C404 246 397 262 397 302 C397 363 429 445 485 445 C497 445 509 444 519 440 L519 440 Z " />
<glyph glyph-name="A" unicode="A" horiz-adv-x="633" d="M638 0 L401 675 L224 675 L-4 0 L151 0 L192 125 L425 125 L467 0 L638 0 Z M386 248 L229 248 L281 402 C292 435 299 466 306 496 L308 496 C315 466 323 435 334 402 L386 248 Z " />
<glyph glyph-name="B" unicode="B" horiz-adv-x="586" d="M553 211 C553 278 511 342 442 360 L442 363 C501 389 534 446 534 509 C534 622 447 679 302 679 C219 679 122 677 60 674 L60 0 C158 0 234 -2 275 -2 C474 -2 553 103 553 211 L553 211 Z M369 485 C369 434 338 403 262 403 C244 403 229 403 216 404 L216 552 C235 553 252 554 276 554 C340 554 369 528 369 485 L369 485 Z M386 209 C386 157 347 125 277 125 C254 125 229 126 216 128 L216 287 C228 288 260 288 268 288 C341 288 386 261 386 209 L386 209 Z " />
<glyph glyph-name="C" unicode="C" horiz-adv-x="555" d="M517 20 L495 158 C463 142 415 133 380 133 C258 133 204 206 204 339 C204 461 263 540 372 540 C414 540 455 533 493 519 L513 661 C472 674 422 680 375 680 C152 680 33 532 33 313 C33 160 100 -9 349 -9 C407 -9 469 2 517 20 L517 20 Z " />
<glyph glyph-name="D" unicode="D" horiz-adv-x="660" d="M628 351 C628 591 493 679 290 679 C199 679 113 676 60 673 L60 1 C122 -2 189 -5 260 -5 C480 -5 628 120 628 351 L628 351 Z M461 339 C461 195 381 129 274 129 C250 129 229 131 216 133 L216 546 C233 548 254 548 280 548 C420 548 461 466 461 339 L461 339 Z " />
<glyph glyph-name="E" unicode="E" horiz-adv-x="487" d="M440 0 L440 134 L216 134 L216 283 L428 283 L428 410 L216 410 L216 544 L440 544 L440 675 L60 675 L60 0 L440 0 Z " />
<glyph glyph-name="F" unicode="F" horiz-adv-x="463" d="M432 542 L432 675 L60 675 L60 0 L216 0 L216 270 L420 270 L420 398 L216 398 L216 542 L432 542 Z " />
<glyph glyph-name="G" unicode="G" horiz-adv-x="670" d="M612 33 L612 360 L456 360 L456 139 C438 133 416 130 392 130 C266 130 200 208 200 333 C200 465 279 546 407 546 C472 546 529 534 578 515 L609 657 C557 673 487 685 414 685 C179 685 32 536 32 321 C32 116 156 -11 375 -11 C462 -11 546 6 612 33 L612 33 Z " />
<glyph glyph-name="H" unicode="H" horiz-adv-x="679" d="M619 0 L619 675 L463 675 L463 416 L216 416 L216 675 L60 675 L60 0 L216 0 L216 281 L463 281 L463 0 L619 0 Z " />
<glyph glyph-name="I" unicode="I" horiz-adv-x="276" d="M216 0 L216 675 L60 675 L60 0 L216 0 Z " />
<glyph glyph-name="J" unicode="J" horiz-adv-x="339" d="M280 197 L280 675 L125 675 L125 202 C125 140 100 121 57 121 C33 121 14 125 0 130 L0 -2 C25 -7 48 -10 89 -10 C236 -10 280 88 280 197 L280 197 Z " />
<glyph glyph-name="K" unicode="K" horiz-adv-x="605" d="M601 0 L367 350 L590 675 L401 675 L216 377 L216 675 L60 675 L60 0 L216 0 L216 317 L399 0 L601 0 Z " />
<glyph glyph-name="L" unicode="L" horiz-adv-x="430" d="M420 0 L420 138 L216 138 L216 675 L60 675 L60 0 L420 0 Z " />
<glyph glyph-name="M" unicode="M" horiz-adv-x="876" d="M857 0 L749 675 L573 675 L478 380 C461 329 450 286 439 232 L437 232 C426 288 414 336 401 379 L307 675 L128 675 L20 0 L177 0 L211 264 C218 320 225 372 231 435 L232 435 C242 374 257 314 276 255 L356 0 L506 0 L589 276 C606 334 618 385 628 435 L630 435 C635 383 641 332 650 278 L693 0 L857 0 Z " />
<glyph glyph-name="N" unicode="N" horiz-adv-x="693" d="M633 0 L633 675 L483 675 L483 453 C483 389 485 300 490 242 C466 294 438 353 408 408 L260 675 L60 675 L60 0 L210 0 L210 257 C210 321 208 389 205 439 C223 395 247 343 275 291 L434 0 L633 0 Z " />
<glyph glyph-name="O" unicode="O" horiz-adv-x="702" d="M674 348 C674 585 541 688 363 688 C179 688 28 549 28 329 C28 117 130 -13 339 -13 C526 -13 674 126 674 348 L674 348 Z M509 338 C509 185 422 130 348 130 C241 130 193 212 193 342 C193 483 270 546 351 546 C454 546 509 474 509 338 L509 338 Z " />
<glyph glyph-name="P" unicode="P" horiz-adv-x="536" d="M518 463 C518 602 424 680 252 680 C182 680 118 678 60 675 L60 0 L216 0 L216 224 C230 223 244 223 252 223 C424 223 518 332 518 463 L518 463 Z M357 456 C357 390 308 353 243 352 C235 352 226 353 216 354 L216 552 C227 553 238 553 249 553 C326 553 357 513 357 456 L357 456 Z " />
<glyph glyph-name="Q" unicode="Q" horiz-adv-x="702" d="M674 348 C674 585 541 688 363 688 C179 688 28 549 28 329 C28 117 130 -13 339 -13 C526 -13 674 126 674 348 L674 348 Z M700 -215 L700 -79 C525 -105 475 -34 290 -56 L290 -192 C450 -172 508 -246 700 -215 L700 -215 Z M509 338 C509 185 422 130 348 130 C241 130 193 212 193 342 C193 483 270 546 351 546 C454 546 509 474 509 338 L509 338 Z " />
<glyph glyph-name="R" unicode="R" horiz-adv-x="575" d="M572 0 L433 217 C417 242 399 267 381 293 C466 315 526 389 526 480 C526 623 430 680 271 680 C190 680 117 679 60 675 L60 0 L216 0 L216 264 L225 264 L382 0 L572 0 Z M363 467 C363 410 321 375 255 375 C240 375 224 376 216 377 L216 550 C225 551 243 552 259 552 C332 552 363 520 363 467 L363 467 Z " />
<glyph glyph-name="S" unicode="S" horiz-adv-x="502" d="M475 214 C475 428 200 389 200 494 C200 532 229 558 293 558 C334 558 372 551 409 538 L423 674 C384 683 335 687 300 687 C130 687 33 603 33 476 C33 250 303 309 303 194 C303 145 261 124 211 124 C155 124 105 136 61 154 L46 6 C93 -6 144 -12 207 -12 C366 -12 475 85 475 214 L475 214 Z " />
<glyph glyph-name="T" unicode="T" horiz-adv-x="507" d="M493 542 L493 675 L14 675 L14 542 L176 542 L176 0 L331 0 L331 542 L493 542 Z " />
<glyph glyph-name="U" unicode="U" horiz-adv-x="673" d="M613 265 L613 675 L459 675 L459 256 C459 155 425 118 337 118 C241 118 216 168 216 247 L216 675 L60 675 L60 238 C60 103 112 -13 327 -13 C506 -13 613 75 613 265 L613 265 Z " />
<glyph glyph-name="V" unicode="V" horiz-adv-x="635" d="M637 675 L478 675 L360 315 C346 271 332 223 322 180 L320 180 C311 220 297 269 285 306 L166 675 L-2 675 L227 0 L409 0 L637 675 Z " />
<glyph glyph-name="W" unicode="W" horiz-adv-x="951" d="M933 675 L777 675 L701 351 C691 308 683 261 676 209 L675 209 C668 260 658 310 648 348 L560 675 L399 675 L311 342 C299 297 292 252 285 205 L284 205 C280 253 272 302 262 346 L183 675 L18 675 L185 0 L363 0 L444 323 C456 371 464 420 469 472 L470 472 C476 416 484 363 495 318 L575 0 L764 0 L933 675 Z " />
<glyph glyph-name="X" unicode="X" horiz-adv-x="648" d="M642 0 L424 343 L619 675 L442 675 L321 456 L198 675 L18 675 L217 344 L6 0 L190 0 L318 228 L446 0 L642 0 Z " />
<glyph glyph-name="Y" unicode="Y" horiz-adv-x="578" d="M579 675 L415 675 L342 517 C322 474 303 433 290 395 L288 395 C277 428 263 463 245 503 L168 675 L-2 675 L209 235 L209 0 L365 0 L365 236 L579 675 Z " />
<glyph glyph-name="Z" unicode="Z" horiz-adv-x="536" d="M492 0 L492 144 L364 144 C284 144 246 144 233 142 C243 156 251 167 259 180 L488 548 L488 675 L51 675 L51 535 L191 535 C256 535 279 536 297 537 C284 520 272 503 261 485 L44 122 L44 0 L492 0 Z " />
<glyph glyph-name="bracketleft" unicode="&#x5b;" horiz-adv-x="331" d="M297 -208 L297 -85 L205 -85 L205 659 L297 659 L297 781 L62 781 L62 -208 L297 -208 Z " />
<glyph glyph-name="backslash" unicode="&#x5c;" horiz-adv-x="504" d="M506 -161 L156 757 L4 757 L354 -161 L506 -161 Z " />
<glyph glyph-name="bracketright" unicode="&#x5d;" horiz-adv-x="331" d="M270 -208 L270 781 L35 781 L35 659 L126 659 L126 -85 L35 -85 L35 -208 L270 -208 Z " />
<glyph glyph-name="asciicircum" unicode="&#x5e;" horiz-adv-x="550" d="M497 387 L327 675 L212 675 L49 385 L150 333 L267 568 L389 333 L497 387 Z " />
<glyph glyph-name="underscore" unicode="&#x5f;" horiz-adv-x="550" d="M550 -244 L550 -121 L0 -121 L0 -244 L550 -244 Z " />
<glyph glyph-name="grave" unicode="&#x60;" horiz-adv-x="377" d="M330 636 L142 760 L76 658 L277 553 L330 636 Z " />
<glyph glyph-name="a" unicode="a" horiz-adv-x="560" d="M552 8 L552 106 C523 108 489 112 465 116 L465 332 C465 446 417 510 245 510 C184 510 116 497 65 481 L80 357 C120 377 179 391 223 391 C289 391 312 371 312 330 L312 312 C154 312 32 253 32 127 C32 47 82 -11 177 -11 C246 -11 305 23 329 75 L330 75 C326 50 326 24 326 -1 C398 -4 480 0 552 8 L552 8 Z M312 200 C312 151 277 105 226 105 C194 105 176 124 176 151 C176 188 205 216 312 216 L312 200 Z " />
<glyph glyph-name="b" unicode="b" horiz-adv-x="562" d="M531 275 C531 419 468 508 349 508 C283 508 232 479 208 434 L207 435 C212 461 215 503 215 534 L215 731 C130 734 48 730 -25 722 L-25 624 C4 622 38 618 62 614 L62 14 C121 -2 182 -11 256 -11 C435 -11 531 112 531 275 L531 275 Z M370 260 C370 149 326 111 267 111 C244 111 228 113 215 117 L215 242 C215 322 250 381 302 381 C348 381 370 343 370 260 L370 260 Z " />
<glyph glyph-name="c" unicode="c" horiz-adv-x="418" d="M391 11 L373 139 C348 127 318 122 289 122 C221 122 189 169 189 245 C189 326 221 377 289 377 C316 377 343 371 368 360 L391 492 C360 502 324 508 290 508 C110 508 30 383 30 233 C30 73 107 -11 258 -11 C304 -11 354 -3 391 11 L391 11 Z " />
<glyph glyph-name="d" unicode="d" horiz-adv-x="592" d="M586 8 L586 106 C557 108 523 112 499 116 L499 731 C415 734 332 730 260 722 L260 624 C289 622 323 618 347 614 L347 504 C331 506 314 507 297 507 C127 507 30 384 30 221 C30 79 91 -12 211 -12 C285 -12 335 23 362 71 L364 71 C360 46 359 21 359 -1 C431 -4 514 0 586 8 L586 8 Z M347 258 C347 175 311 115 260 115 C213 115 191 154 191 237 C191 348 236 386 295 386 C313 386 330 384 347 380 L347 258 Z " />
<glyph glyph-name="e" unicode="e" horiz-adv-x="519" d="M485 278 C485 408 419 509 269 509 C115 509 30 396 30 243 C30 68 120 -11 282 -11 C343 -11 411 0 468 23 L453 138 C405 117 355 107 307 107 C225 107 185 145 184 210 L480 210 C483 235 485 257 485 278 L485 278 Z M335 311 L184 311 C189 363 221 398 265 398 C309 398 337 368 335 311 L335 311 Z " />
<glyph glyph-name="f" unicode="f" horiz-adv-x="357" d="M369 731 C343 737 315 739 289 739 C144 739 85 672 85 540 L85 497 L9 497 L9 380 L85 380 L85 0 L237 0 L237 380 L339 380 L339 497 L237 497 L237 541 C237 594 258 616 304 616 C321 616 341 613 359 607 L369 731 Z " />
<glyph glyph-name="g" unicode="g" horiz-adv-x="555" d="M499 -2 L499 492 C443 501 384 508 307 508 C125 508 30 384 30 221 C30 72 95 -10 215 -10 C276 -10 327 20 352 69 L354 69 C349 44 349 26 349 7 L349 -11 C349 -86 308 -116 220 -116 C173 -116 116 -105 71 -86 L58 -225 C103 -238 158 -245 214 -245 C439 -245 499 -131 499 -2 L499 -2 Z M347 261 C347 175 311 117 259 117 C213 117 191 154 191 237 C191 348 236 386 295 386 C316 386 332 383 347 380 L347 261 Z " />
<glyph glyph-name="h" unicode="h" horiz-adv-x="571" d="M512 0 L512 350 C512 436 475 508 364 508 C290 508 236 476 207 429 L206 429 C213 460 215 502 215 531 L215 731 C130 734 48 730 -25 722 L-25 624 C4 622 38 618 62 614 L62 0 L215 0 L215 240 C215 313 259 380 313 380 C348 380 359 356 359 316 L359 0 L512 0 Z " />
<glyph glyph-name="i" unicode="i" horiz-adv-x="307" d="M265 645 C265 695 223 735 172 735 C120 735 79 694 79 645 C79 595 120 555 172 555 C223 555 265 595 265 645 L265 645 Z M248 0 L248 498 C163 501 81 497 8 489 L8 391 C37 389 71 385 95 381 L95 0 L248 0 Z " />
<glyph glyph-name="j" unicode="j" horiz-adv-x="308" d="M265 645 C265 695 223 735 172 735 C121 735 79 694 79 645 C79 595 121 555 172 555 C223 555 265 595 265 645 L265 645 Z M249 -25 L249 498 C164 501 82 497 9 489 L9 391 C38 389 72 385 96 381 L96 -42 C96 -95 81 -116 35 -116 C19 -116 -4 -112 -22 -105 L-31 -234 C-9 -240 18 -244 41 -244 C196 -244 249 -160 249 -25 L249 -25 Z " />
<glyph glyph-name="k" unicode="k" horiz-adv-x="545" d="M539 0 L363 269 L527 497 L340 497 L215 297 L215 731 C130 734 48 730 -25 722 L-25 624 C4 622 38 618 62 614 L62 0 L215 0 L215 239 L349 0 L539 0 Z " />
<glyph glyph-name="l" unicode="l" horiz-adv-x="274" d="M215 0 L215 731 C130 734 48 730 -25 722 L-25 624 C4 622 38 618 62 614 L62 0 L215 0 Z " />
<glyph glyph-name="m" unicode="m" horiz-adv-x="894" d="M835 0 L835 340 C835 453 782 508 685 508 C609 508 554 467 529 418 C512 470 468 508 393 508 C322 508 264 473 233 418 L232 418 C237 445 238 479 238 498 C164 501 81 497 8 489 L8 391 C37 389 71 385 95 381 L95 0 L248 0 L248 239 C248 318 297 380 345 380 C381 380 390 352 390 312 L390 0 L540 0 L540 239 C540 320 591 380 638 380 C673 380 683 354 683 311 L683 0 L835 0 Z " />
<glyph glyph-name="n" unicode="n" horiz-adv-x="604" d="M545 0 L545 350 C545 436 508 508 397 508 C318 508 263 470 233 418 L231 419 C236 443 237 479 237 498 C163 501 81 497 8 489 L8 391 C37 389 71 385 95 381 L95 0 L248 0 L248 241 C248 313 293 380 346 380 C381 380 392 356 392 316 L392 0 L545 0 Z " />
<glyph glyph-name="o" unicode="o" horiz-adv-x="558" d="M529 259 C529 424 442 508 291 508 C139 508 28 399 28 237 C28 60 123 -11 267 -11 C417 -11 529 98 529 259 L529 259 Z M371 250 C371 167 333 121 278 121 C215 121 186 163 186 254 C186 341 233 378 281 378 C344 378 371 335 371 250 L371 250 Z " />
<glyph glyph-name="p" unicode="p" horiz-adv-x="595" d="M564 276 C564 420 502 508 383 508 C310 508 261 478 233 426 L231 426 C235 451 235 476 235 498 C161 501 81 497 8 489 L8 391 C37 389 71 385 95 381 L95 -237 L248 -237 L248 -4 C263 -7 279 -8 299 -8 C478 -8 564 106 564 276 L564 276 Z M404 260 C404 149 359 111 300 111 C279 111 263 113 248 117 L248 239 C248 322 283 382 335 382 C382 382 404 343 404 260 L404 260 Z " />
<glyph glyph-name="q" unicode="q" horiz-adv-x="559" d="M587 -230 L587 -132 C558 -130 524 -126 500 -122 L500 492 C444 501 385 508 308 508 C125 508 31 383 31 220 C31 68 96 -12 216 -12 C277 -12 327 18 352 68 L354 67 C349 34 347 -4 347 -34 L347 -238 C432 -241 514 -238 587 -230 L587 -230 Z M347 261 C347 175 311 115 259 115 C213 115 191 154 191 237 C191 348 236 386 295 386 C316 386 332 384 347 381 L347 261 Z " />
<glyph glyph-name="r" unicode="r" horiz-adv-x="393" d="M383 508 C305 514 258 468 232 409 L230 409 C235 440 237 476 237 498 C163 501 81 497 8 489 L8 391 C37 389 71 385 95 381 L95 0 L248 0 L248 205 C248 329 291 378 376 358 L383 508 Z " />
<glyph glyph-name="s" unicode="s" horiz-adv-x="411" d="M379 159 C379 318 193 290 193 356 C193 379 211 394 250 394 C279 394 311 390 336 381 L341 500 C313 505 281 509 254 509 C102 509 34 434 34 343 C34 178 217 219 217 146 C217 122 194 107 156 107 C119 107 82 114 52 127 L44 3 C76 -6 115 -11 154 -11 C289 -11 379 54 379 159 L379 159 Z " />
<glyph glyph-name="t" unicode="t" horiz-adv-x="377" d="M348 4 L339 123 C322 119 305 116 287 116 C249 116 236 133 236 184 L236 380 L343 380 L343 497 L236 497 L236 685 L83 644 L83 497 L8 497 L8 380 L83 380 L83 149 C83 27 120 -11 235 -11 C271 -11 314 -5 348 4 L348 4 Z " />
<glyph glyph-name="u" unicode="u" horiz-adv-x="636" d="M630 8 L630 106 C601 108 567 112 543 116 L543 497 L391 497 L391 256 C391 184 346 117 292 117 C257 117 246 141 246 181 L246 498 C169 501 84 497 7 489 L7 391 C36 389 70 385 94 381 L94 147 C94 61 130 -11 241 -11 C320 -11 375 27 406 79 L407 78 C402 51 402 18 402 -1 C475 -4 558 0 630 8 L630 8 Z " />
<glyph glyph-name="v" unicode="v" horiz-adv-x="519" d="M520 497 L358 497 L297 316 C284 279 273 237 265 200 L263 200 C253 238 240 284 227 321 L166 497 L-1 497 L182 0 L337 0 L520 497 Z " />
<glyph glyph-name="w" unicode="w" horiz-adv-x="798" d="M793 497 L637 497 L596 352 C582 303 572 254 561 197 L559 197 C548 254 534 305 517 360 L473 497 L332 497 L289 352 C275 306 262 258 252 197 L250 197 C237 256 223 309 209 359 L171 497 L5 497 L156 0 L309 0 L359 167 C371 208 382 245 391 292 L392 292 C402 246 410 209 421 173 L476 0 L638 0 L793 497 Z " />
<glyph glyph-name="x" unicode="x" horiz-adv-x="534" d="M530 0 L376 252 L521 497 L353 497 L274 348 L196 497 L15 497 L169 252 L5 0 L186 0 L263 152 L340 0 L530 0 Z " />
<glyph glyph-name="y" unicode="y" horiz-adv-x="516" d="M517 497 L354 497 L309 367 C295 326 274 257 262 207 L261 207 C250 255 236 310 221 352 L171 497 L3 497 L183 0 L171 -37 C150 -102 105 -118 70 -118 C48 -118 24 -114 4 -108 L-13 -238 C8 -242 41 -245 64 -245 C180 -245 256 -199 324 -19 L517 497 Z " />
<glyph glyph-name="z" unicode="z" horiz-adv-x="452" d="M407 0 L407 140 L332 140 C300 140 251 140 235 139 L404 388 L404 497 L50 497 L50 360 L128 360 C173 360 204 361 218 362 L44 109 L44 0 L407 0 Z " />
<glyph glyph-name="braceleft" unicode="&#x7b;" horiz-adv-x="376" d="M344 -208 L344 -85 C282 -85 264 -66 264 33 L264 140 C264 257 225 302 172 310 L172 312 C225 320 264 360 264 477 L264 543 C264 641 282 659 344 659 L344 781 L321 781 C179 781 122 708 122 542 L122 476 C122 388 86 370 26 368 L26 254 C86 251 122 228 122 141 L122 33 C122 -139 180 -208 321 -208 L344 -208 Z " />
<glyph glyph-name="bar" unicode="&#x7c;" horiz-adv-x="290" d="M203 -237 L203 763 L82 763 L82 -237 L203 -237 Z " />
<glyph glyph-name="braceright" unicode="&#x7d;" horiz-adv-x="374" d="M352 254 L352 368 C291 370 255 388 255 477 L255 542 C255 708 198 781 57 781 L33 781 L33 659 C96 659 113 641 113 543 L113 476 C113 360 152 319 205 312 L205 310 C152 302 113 257 113 140 L113 33 C113 -66 96 -85 33 -85 L33 -208 L57 -208 C197 -208 255 -139 255 33 L255 141 C255 228 292 251 352 254 L352 254 Z " />
<glyph glyph-name="asciitilde" unicode="&#x7e;" horiz-adv-x="550" d="M516 567 L516 590 L403 590 C403 538 391 515 365 515 C316 515 312 616 196 616 C96 616 34 549 34 447 L34 423 L148 423 C148 476 159 499 186 499 C234 499 239 398 354 398 C454 398 516 465 516 567 L516 567 Z " />
<glyph glyph-name="nbspace" unicode="&#xa0;" horiz-adv-x="218" d="" />
<glyph glyph-name="exclamdown" unicode="&#xa1;" horiz-adv-x="323" d="M244 423 C244 471 205 509 154 509 C103 509 64 471 64 423 C64 374 103 336 154 336 C205 336 244 374 244 423 L244 423 Z M243 -214 L218 296 L86 296 L64 -214 L243 -214 Z " />
<glyph glyph-name="cent" unicode="&#xa2;" horiz-adv-x="550" d="M477 123 L441 244 C413 228 380 221 346 221 C276 221 229 262 229 331 C229 406 276 448 346 448 C379 448 413 441 439 429 L470 551 C442 560 404 568 375 570 L375 650 L261 650 L261 565 C137 536 70 447 70 325 C70 202 131 110 261 95 L261 0 L375 0 L375 95 C407 99 449 109 477 123 L477 123 Z " />
<glyph glyph-name="sterling" unicode="&#xa3;" horiz-adv-x="550" d="M496 0 L496 130 L312 130 C289 130 265 129 243 128 C274 157 289 186 289 231 C289 243 288 255 286 265 L417 265 L417 383 L272 383 C269 410 265 438 265 463 C265 513 290 537 340 537 C379 537 415 528 442 519 L473 647 C432 657 381 663 347 663 C204 663 111 607 111 452 C111 431 114 408 117 383 L44 383 L44 265 L132 265 C134 253 135 240 135 228 C135 182 113 140 65 103 L65 0 L496 0 Z " />
<glyph glyph-name="currency" unicode="&#xa4;" horiz-adv-x="550" d="M523 124 L449 219 C470 251 483 291 483 337 C483 385 474 422 458 450 L523 534 L406 619 L339 526 C322 531 303 533 285 533 C262 533 240 530 220 524 L150 618 L32 535 L102 445 C79 413 67 372 67 325 C67 274 78 236 97 206 L32 124 L151 40 L219 133 C233 130 248 128 265 128 C288 128 311 132 331 139 L405 39 L523 124 Z M352 334 C352 263 313 238 274 238 C222 238 198 276 198 330 C198 393 236 423 275 423 C328 423 352 393 352 334 L352 334 Z " />
<glyph glyph-name="yen" unicode="&#xa5;" horiz-adv-x="550" d="M539 650 L375 650 L314 507 C301 477 285 438 277 413 L275 413 C267 436 255 473 241 506 L179 650 L11 650 L161 335 L49 335 L49 240 L198 240 L198 189 L49 189 L49 94 L198 94 L198 0 L352 0 L352 94 L500 94 L500 189 L352 189 L352 240 L500 240 L500 335 L388 335 L539 650 Z " />
<glyph glyph-name="brokenbar" unicode="&#xa6;" horiz-adv-x="290" d="M203 395 L203 763 L82 763 L82 395 L203 395 Z M203 -237 L203 141 L82 141 L82 -237 L203 -237 Z " />
<glyph glyph-name="section" unicode="&#xa7;" horiz-adv-x="536" d="M474 255 C474 439 254 494 254 570 C254 600 276 615 327 615 C352 615 376 612 399 605 L406 732 C381 737 348 739 320 739 C152 739 90 658 90 567 C90 523 103 492 127 463 C81 431 51 377 51 317 C51 130 270 89 270 7 C270 -20 245 -43 186 -43 C161 -43 134 -40 109 -32 L99 -159 C125 -165 161 -169 185 -169 C369 -169 435 -80 435 3 C435 47 419 82 398 108 C442 140 474 195 474 255 L474 255 Z M338 234 C338 215 329 195 313 182 C221 256 188 287 188 336 C188 356 197 376 213 389 C285 323 338 293 338 234 L338 234 Z " />
<glyph glyph-name="dieresis" unicode="&#xa8;" horiz-adv-x="546" d="M447 645 C447 688 412 724 368 724 C325 724 289 688 289 645 C289 601 325 566 368 566 C412 566 447 601 447 645 L447 645 Z M238 645 C238 688 203 724 159 724 C116 724 80 688 80 645 C80 601 116 566 159 566 C203 566 238 601 238 645 L238 645 Z " />
<glyph glyph-name="copyright" unicode="&#xa9;" horiz-adv-x="765" d="M728 333 C728 525 574 679 382 679 C191 679 36 524 36 333 C36 141 189 -13 382 -13 C573 -13 728 142 728 333 L728 333 Z M615 333 C615 204 511 99 382 99 C254 99 149 205 149 333 C149 462 254 566 382 566 C511 566 615 461 615 333 L615 333 Z M483 178 L462 274 C442 264 420 260 398 260 C362 260 341 283 341 332 C341 384 361 413 403 413 C426 413 448 407 460 397 L478 495 C456 505 428 512 393 512 C273 512 217 429 217 330 C217 222 282 156 379 156 C420 156 453 163 483 178 L483 178 Z " />
<glyph glyph-name="ordfeminine" unicode="&#xaa;" horiz-adv-x="436" d="M430 321 L430 406 C411 408 383 412 363 415 L363 567 C363 629 324 686 205 686 C149 686 100 677 57 663 L69 565 C108 581 145 592 186 592 C234 592 240 572 240 554 L240 541 C133 541 32 504 32 406 C32 348 72 303 149 303 C193 303 235 326 250 360 L251 360 C248 344 248 326 248 313 C306 311 372 314 430 321 L430 321 Z M404 148 L404 270 L56 270 L56 148 L404 148 Z M239 456 C239 429 219 395 182 395 C161 395 150 407 150 423 C150 455 180 466 239 466 L239 456 Z " />
<glyph glyph-name="guillemotleft" unicode="&#xab;" horiz-adv-x="550" d="M503 148 L413 292 L501 439 L386 491 L268 292 L383 94 L503 148 Z M262 140 L179 292 L260 446 L140 497 L34 292 L138 88 L262 140 Z " />
<glyph glyph-name="logicalnot" unicode="&#xac;" horiz-adv-x="550" d="M494 90 L494 362 L37 362 L37 234 L358 234 L358 90 L494 90 Z " />
<glyph glyph-name="registered" unicode="&#xae;" horiz-adv-x="565" d="M525 532 C525 666 417 770 282 770 C148 770 39 666 39 532 C39 397 147 293 282 293 C416 293 525 398 525 532 L525 532 Z M436 531 C436 446 367 377 282 377 C197 377 128 447 128 532 C128 617 197 686 282 686 C367 686 436 616 436 531 L436 531 Z M380 423 L352 493 C348 504 344 512 339 517 C362 527 377 545 377 579 C377 617 353 642 297 642 L196 642 L196 423 L263 423 L263 501 L272 501 L300 423 L380 423 Z M301 570 C301 557 291 547 273 547 L263 547 L263 591 L276 591 C293 591 301 584 301 570 L301 570 Z " />
<glyph glyph-name="macron" unicode="&#xaf;" horiz-adv-x="395" d="M338 588 L338 698 L57 698 L57 588 L338 588 Z " />
<glyph glyph-name="degree" unicode="&#xb0;" horiz-adv-x="396" d="M354 593 C354 672 309 739 197 739 C118 739 35 685 35 591 C35 499 93 443 189 443 C273 443 354 494 354 593 L354 593 Z M243 594 C243 562 225 538 195 538 C165 538 146 558 146 592 C146 624 167 646 196 646 C227 646 243 619 243 594 L243 594 Z " />
<glyph glyph-name="plusminus" unicode="&#xb1;" horiz-adv-x="550" d="M513 353 L513 479 L348 479 L348 653 L202 653 L202 479 L37 479 L37 353 L202 353 L202 179 L348 179 L348 353 L513 353 Z M508 0 L508 127 L42 127 L42 0 L508 0 Z " />
<glyph glyph-name="twosuperior" unicode="&#xb2;" horiz-adv-x="326" d="M284 352 L284 443 L187 443 L210 462 C259 503 278 532 278 565 C278 616 245 661 150 661 C113 661 73 652 42 641 L59 553 C76 562 96 568 114 568 C134 568 144 558 144 542 C144 526 130 507 87 473 L40 435 L40 352 L284 352 Z " />
<glyph glyph-name="threesuperior" unicode="&#xb3;" horiz-adv-x="315" d="M278 442 C278 471 256 502 221 506 C253 521 266 546 266 579 C266 621 235 661 142 661 C103 661 62 653 40 645 L53 574 C68 583 90 587 107 587 C132 587 140 579 140 565 C140 546 126 533 66 533 L57 533 L57 467 C129 478 146 463 146 443 C146 426 132 415 99 415 C81 415 61 419 48 423 L38 350 C52 347 91 341 118 341 C225 341 278 379 278 442 L278 442 Z " />
<glyph glyph-name="acute" unicode="&#xb4;" horiz-adv-x="396" d="M338 658 L272 760 L83 636 L137 553 L338 658 Z " />
<glyph glyph-name="mu" unicode="&#xb5;" horiz-adv-x="638" d="M631 59 L580 129 C570 115 557 103 542 103 C524 103 517 113 517 173 L517 497 L365 497 L365 253 C365 174 324 118 268 118 C233 118 220 141 220 183 L220 497 L68 497 L68 -237 L228 -237 L206 7 C219 -2 238 -7 259 -7 C321 -7 364 26 386 74 L387 74 C391 34 411 -11 488 -11 C559 -11 602 19 631 59 L631 59 Z " />
<glyph glyph-name="paragraph" unicode="&#xb6;" horiz-adv-x="607" d="M563 552 L563 675 L374 675 L374 27 L307 27 L307 -96 L501 -96 L501 552 L563 552 Z M295 219 L295 675 C150 675 47 589 47 447 C47 325 120 219 295 219 L295 219 Z " />
<glyph glyph-name="periodcentered" unicode="&#xb7;" horiz-adv-x="292" d="M241 298 C241 350 198 393 146 393 C94 393 51 350 51 298 C51 246 94 203 146 203 C198 203 241 246 241 298 L241 298 Z " />
<glyph glyph-name="cedilla" unicode="&#xb8;" horiz-adv-x="400" d="M254 -39 L130 -75 C178 -136 169 -180 123 -234 L235 -234 C291 -180 306 -113 254 -39 L254 -39 Z " />
<glyph glyph-name="onesuperior" unicode="&#xb9;" horiz-adv-x="323" d="M242 352 L242 650 L128 650 L37 617 L57 532 L120 557 L120 352 L242 352 Z " />
<glyph glyph-name="ordmasculine" unicode="&#xba;" horiz-adv-x="430" d="M396 499 C396 632 328 687 222 687 C118 687 32 615 32 492 C32 354 110 304 204 304 C313 304 396 380 396 499 L396 499 Z M382 152 L382 270 L46 270 L46 152 L382 152 Z M276 497 C276 429 245 408 212 408 C168 408 152 447 152 496 C152 560 184 583 214 583 C260 583 276 550 276 497 L276 497 Z " />
<glyph glyph-name="guillemotright" unicode="&#xbb;" horiz-adv-x="550" d="M517 294 L413 497 L289 445 L371 294 L290 139 L410 88 L517 294 Z M283 294 L168 491 L47 438 L137 294 L49 147 L165 94 L283 294 Z " />
<glyph glyph-name="onequarter" unicode="&#xbc;" horiz-adv-x="736" d="M546 125 L487 125 L546 231 L546 125 Z M692 44 L692 126 L651 126 L651 298 L494 298 L398 120 L406 44 L545 44 L545 0 L651 0 L651 44 L692 44 Z M652 603 L557 672 L54 45 L148 -24 L652 603 Z M242 352 L242 650 L128 650 L37 617 L57 532 L120 557 L120 352 L242 352 Z " />
<glyph glyph-name="onehalf" unicode="&#xbd;" horiz-adv-x="738" d="M689 0 L689 91 L591 91 L615 110 C664 151 682 180 682 213 C682 264 649 309 555 309 C517 309 477 300 447 289 L464 201 C481 210 500 215 518 215 C539 215 548 206 548 190 C548 174 535 155 492 121 L444 83 L444 0 L689 0 Z M651 603 L557 672 L53 45 L148 -24 L651 603 Z M241 352 L241 650 L127 650 L36 617 L56 532 L119 557 L119 352 L241 352 Z " />
<glyph glyph-name="threequarters" unicode="&#xbe;" horiz-adv-x="743" d="M553 125 L495 125 L553 231 L553 125 Z M699 44 L699 126 L658 126 L658 298 L501 298 L405 120 L413 44 L552 44 L552 0 L658 0 L658 44 L699 44 Z M659 603 L565 672 L61 45 L156 -24 L659 603 Z M284 442 C284 471 263 502 227 506 C259 521 272 546 272 579 C272 621 242 661 148 661 C109 661 69 653 47 645 L59 574 C74 583 96 587 114 587 C138 587 146 579 146 565 C146 546 132 533 72 533 L63 533 L63 467 C135 478 152 463 152 443 C152 426 139 415 105 415 C87 415 67 418 55 422 L44 350 C59 346 97 341 124 341 C231 341 284 379 284 442 L284 442 Z " />
<glyph glyph-name="questiondown" unicode="&#xbf;" horiz-adv-x="455" d="M351 423 C351 471 312 509 261 509 C210 509 171 471 171 423 C171 374 210 336 261 336 C312 336 351 374 351 423 L351 423 Z M398 -86 C276 -83 205 -53 205 3 C205 92 402 113 338 296 L189 296 C232 153 38 156 38 -13 C38 -119 138 -220 380 -224 L398 -86 Z " />
<glyph glyph-name="Agrave" unicode="&#xc0;" horiz-adv-x="633" d="M380 792 L156 867 L124 761 L357 710 L380 792 Z M638 0 L401 675 L224 675 L-4 0 L151 0 L192 125 L425 125 L467 0 L638 0 Z M386 248 L229 248 L281 402 C292 435 299 466 306 496 L308 496 C315 466 323 435 334 402 L386 248 Z " />
<glyph glyph-name="Aacute" unicode="&#xc1;" horiz-adv-x="633" d="M473 761 L441 867 L217 792 L240 710 L473 761 Z M638 0 L401 675 L224 675 L-4 0 L151 0 L192 125 L425 125 L467 0 L638 0 Z M386 248 L229 248 L281 402 C292 435 299 466 306 496 L308 496 C315 466 323 435 334 402 L386 248 Z " />
<glyph glyph-name="Acircumflex" unicode="&#xc2;" horiz-adv-x="633" d="M481 782 L311 869 L141 781 L173 710 L310 767 L448 710 L481 782 Z M638 0 L401 675 L224 675 L-4 0 L151 0 L192 125 L425 125 L467 0 L638 0 Z M386 248 L229 248 L281 402 C292 435 299 466 306 496 L308 496 C315 466 323 435 334 402 L386 248 Z " />
<glyph glyph-name="Atilde" unicode="&#xc3;" horiz-adv-x="633" d="M506 811 L431 861 C416 834 400 820 376 820 C339 820 321 864 252 864 C194 864 149 833 117 776 L192 726 C207 753 223 767 246 767 C283 767 302 723 371 723 C428 723 473 754 506 811 L506 811 Z M638 0 L401 675 L224 675 L-4 0 L151 0 L192 125 L425 125 L467 0 L638 0 Z M386 248 L229 248 L281 402 C292 435 299 466 306 496 L308 496 C315 466 323 435 334 402 L386 248 Z " />
<glyph glyph-name="Adieresis" unicode="&#xc4;" horiz-adv-x="633" d="M486 790 C486 828 455 859 417 859 C379 859 348 828 348 790 C348 752 379 721 417 721 C455 721 486 752 486 790 L486 790 Z M269 790 C269 828 238 859 200 859 C162 859 131 828 131 790 C131 752 162 721 200 721 C238 721 269 752 269 790 L269 790 Z M638 0 L401 675 L224 675 L-4 0 L151 0 L192 125 L425 125 L467 0 L638 0 Z M386 248 L229 248 L281 402 C292 435 299 466 306 496 L308 496 C315 466 323 435 334 402 L386 248 Z " />
<glyph glyph-name="Aring" unicode="&#xc5;" horiz-adv-x="633" d="M638 0 L415 634 C436 655 450 684 450 717 C450 792 389 847 313 847 C239 847 177 792 177 717 C177 684 191 655 211 635 L-4 0 L151 0 L192 125 L425 125 L467 0 L638 0 Z M364 717 C364 690 341 667 313 667 C286 667 263 690 263 717 C263 745 286 768 313 768 C341 768 364 745 364 717 L364 717 Z M386 248 L230 248 L274 376 C288 416 299 458 306 494 L308 494 C315 456 326 421 339 384 L386 248 Z " />
<glyph glyph-name="AE" unicode="&#xc6;" horiz-adv-x="788" d="M741 0 L741 134 L514 134 L514 283 L727 283 L727 410 L514 410 L514 544 L735 544 L735 675 L283 675 L-35 0 L123 0 L185 140 L365 140 L365 0 L741 0 Z M365 261 L236 261 L303 401 C327 450 344 494 363 544 L365 544 L365 261 Z " />
<glyph glyph-name="Ccedilla" unicode="&#xc7;" horiz-adv-x="555" d="M517 20 L495 158 C463 142 415 133 380 133 C258 133 204 206 204 339 C204 461 263 540 372 540 C414 540 455 533 493 519 L513 661 C472 674 422 680 375 680 C152 680 33 532 33 313 C33 160 100 -9 349 -9 C407 -9 469 2 517 20 L517 20 Z M365 -39 L241 -75 C289 -136 280 -180 234 -234 L346 -234 C402 -180 417 -113 365 -39 L365 -39 Z " />
<glyph glyph-name="Egrave" unicode="&#xc8;" horiz-adv-x="487" d="M336 792 L112 867 L80 761 L313 710 L336 792 Z M440 0 L440 134 L216 134 L216 283 L428 283 L428 410 L216 410 L216 544 L440 544 L440 675 L60 675 L60 0 L440 0 Z " />
<glyph glyph-name="Eacute" unicode="&#xc9;" horiz-adv-x="487" d="M430 761 L398 867 L174 792 L197 710 L430 761 Z M440 0 L440 134 L216 134 L216 283 L428 283 L428 410 L216 410 L216 544 L440 544 L440 675 L60 675 L60 0 L440 0 Z " />
<glyph glyph-name="Ecircumflex" unicode="&#xca;" horiz-adv-x="487" d="M416 782 L245 869 L75 781 L107 710 L244 767 L382 710 L416 782 Z M440 0 L440 134 L216 134 L216 283 L428 283 L428 410 L216 410 L216 544 L440 544 L440 675 L60 675 L60 0 L440 0 Z " />
<glyph glyph-name="Edieresis" unicode="&#xcb;" horiz-adv-x="487" d="M424 790 C424 828 393 859 355 859 C317 859 286 828 286 790 C286 752 317 721 355 721 C393 721 424 752 424 790 L424 790 Z M208 790 C208 828 177 859 139 859 C101 859 70 828 70 790 C70 752 101 721 139 721 C177 721 208 752 208 790 L208 790 Z M440 0 L440 134 L216 134 L216 283 L428 283 L428 410 L216 410 L216 544 L440 544 L440 675 L60 675 L60 0 L440 0 Z " />
<glyph glyph-name="Igrave" unicode="&#xcc;" horiz-adv-x="276" d="M238 792 L14 867 L-18 761 L215 710 L238 792 Z M216 0 L216 675 L60 675 L60 0 L216 0 Z " />
<glyph glyph-name="Iacute" unicode="&#xcd;" horiz-adv-x="276" d="M289 761 L257 867 L33 792 L56 710 L289 761 Z M216 0 L216 675 L60 675 L60 0 L216 0 Z " />
<glyph glyph-name="Icircumflex" unicode="&#xce;" horiz-adv-x="276" d="M309 782 L139 869 L-31 781 L1 710 L138 767 L276 710 L309 782 Z M216 0 L216 675 L60 675 L60 0 L216 0 Z " />
<glyph glyph-name="Idieresis" unicode="&#xcf;" horiz-adv-x="276" d="M308 790 C308 828 277 859 239 859 C201 859 170 828 170 790 C170 752 201 721 239 721 C277 721 308 752 308 790 L308 790 Z M99 790 C99 828 68 859 30 859 C-9 859 -39 828 -39 790 C-39 752 -9 721 30 721 C68 721 99 752 99 790 L99 790 Z M216 0 L216 675 L60 675 L60 0 L216 0 Z " />
<glyph glyph-name="Eth" unicode="&#xd0;" horiz-adv-x="666" d="M634 351 C634 591 500 679 297 679 C207 679 121 676 69 673 L69 399 L3 399 L3 282 L69 282 L69 1 C131 -2 196 -5 266 -5 C487 -5 634 120 634 351 L634 351 Z M468 339 C468 194 388 129 281 129 C257 129 230 131 222 133 L222 282 L329 282 L329 399 L222 399 L222 546 C240 548 261 548 287 548 C428 548 468 465 468 339 L468 339 Z " />
<glyph glyph-name="Ntilde" unicode="&#xd1;" horiz-adv-x="693" d="M536 811 L461 861 C446 834 430 820 406 820 C369 820 351 864 282 864 C224 864 179 833 147 776 L222 726 C237 753 253 767 277 767 C314 767 332 723 401 723 C458 723 503 754 536 811 L536 811 Z M633 0 L633 675 L483 675 L483 453 C483 389 485 300 490 242 C466 294 438 353 408 408 L260 675 L60 675 L60 0 L210 0 L210 257 C210 321 208 389 205 439 C223 395 247 343 275 291 L434 0 L633 0 Z " />
<glyph glyph-name="Ograve" unicode="&#xd2;" horiz-adv-x="702" d="M449 792 L225 867 L193 761 L425 710 L449 792 Z M674 348 C674 585 541 688 363 688 C179 688 28 549 28 329 C28 117 130 -13 339 -13 C526 -13 674 126 674 348 L674 348 Z M509 338 C509 185 422 130 348 130 C241 130 193 212 193 342 C193 483 270 546 351 546 C454 546 509 474 509 338 L509 338 Z " />
<glyph glyph-name="Oacute" unicode="&#xd3;" horiz-adv-x="702" d="M522 761 L490 867 L266 792 L289 710 L522 761 Z M674 348 C674 585 541 688 363 688 C179 688 28 549 28 329 C28 117 130 -13 339 -13 C526 -13 674 126 674 348 L674 348 Z M509 338 C509 185 422 130 348 130 C241 130 193 212 193 342 C193 483 270 546 351 546 C454 546 509 474 509 338 L509 338 Z " />
<glyph glyph-name="Ocircumflex" unicode="&#xd4;" horiz-adv-x="702" d="M528 782 L357 869 L187 781 L219 710 L356 767 L494 710 L528 782 Z M674 348 C674 585 541 688 363 688 C179 688 28 549 28 329 C28 117 130 -13 339 -13 C526 -13 674 126 674 348 L674 348 Z M509 338 C509 185 422 130 348 130 C241 130 193 212 193 342 C193 483 270 546 351 546 C454 546 509 474 509 338 L509 338 Z " />
<glyph glyph-name="Otilde" unicode="&#xd5;" horiz-adv-x="702" d="M551 811 L476 861 C461 834 445 820 421 820 C384 820 366 864 297 864 C239 864 194 833 162 776 L237 726 C252 753 268 767 291 767 C328 767 347 723 416 723 C473 723 518 754 551 811 L551 811 Z M674 348 C674 585 541 688 363 688 C179 688 28 549 28 329 C28 117 130 -13 339 -13 C526 -13 674 126 674 348 L674 348 Z M509 338 C509 185 422 130 348 130 C241 130 193 212 193 342 C193 483 270 546 351 546 C454 546 509 474 509 338 L509 338 Z " />
<glyph glyph-name="Odieresis" unicode="&#xd6;" horiz-adv-x="702" d="M536 790 C536 828 505 859 467 859 C429 859 398 828 398 790 C398 752 429 721 467 721 C505 721 536 752 536 790 L536 790 Z M319 790 C319 828 289 859 250 859 C212 859 181 828 181 790 C181 752 212 721 250 721 C289 721 319 752 319 790 L319 790 Z M674 348 C674 585 541 688 363 688 C179 688 28 549 28 329 C28 117 130 -13 339 -13 C526 -13 674 126 674 348 L674 348 Z M509 338 C509 185 422 130 348 130 C241 130 193 212 193 342 C193 483 270 546 351 546 C454 546 509 474 509 338 L509 338 Z " />
<glyph glyph-name="multiply" unicode="&#xd7;" horiz-adv-x="550" d="M509 157 L363 303 L509 447 L425 531 L280 386 L135 531 L41 437 L186 292 L41 147 L125 63 L269 209 L415 63 L509 157 Z " />
<glyph glyph-name="Oslash" unicode="&#xd8;" horiz-adv-x="702" d="M674 347 C674 513 611 610 517 656 L547 743 L434 777 L403 685 C389 687 376 688 363 688 C177 688 28 549 28 329 C28 187 75 75 176 22 L144 -71 L256 -106 L289 -9 C305 -12 320 -13 338 -13 C528 -13 674 125 674 347 L674 347 Z M516 338 C516 198 444 136 371 126 C358 125 346 125 334 127 L465 503 C499 471 516 410 516 338 L516 338 Z M358 549 L230 183 C201 214 186 269 186 342 C186 459 240 526 309 543 C326 548 342 549 358 549 L358 549 Z " />
<glyph glyph-name="Ugrave" unicode="&#xd9;" horiz-adv-x="673" d="M416 792 L192 867 L160 761 L392 710 L416 792 Z M613 265 L613 675 L459 675 L459 256 C459 155 425 118 337 118 C241 118 216 168 216 247 L216 675 L60 675 L60 238 C60 103 112 -13 327 -13 C506 -13 613 75 613 265 L613 265 Z " />
<glyph glyph-name="Uacute" unicode="&#xda;" horiz-adv-x="673" d="M522 761 L490 867 L266 792 L289 710 L522 761 Z M613 265 L613 675 L459 675 L459 256 C459 155 425 118 337 118 C241 118 216 168 216 247 L216 675 L60 675 L60 238 C60 103 112 -13 327 -13 C506 -13 613 75 613 265 L613 265 Z " />
<glyph glyph-name="Ucircumflex" unicode="&#xdb;" horiz-adv-x="673" d="M509 782 L338 869 L168 781 L201 710 L338 767 L476 710 L509 782 Z M613 265 L613 675 L459 675 L459 256 C459 155 425 118 337 118 C241 118 216 168 216 247 L216 675 L60 675 L60 238 C60 103 112 -13 327 -13 C506 -13 613 75 613 265 L613 265 Z " />
<glyph glyph-name="Udieresis" unicode="&#xdc;" horiz-adv-x="673" d="M503 790 C503 828 472 859 434 859 C395 859 365 828 365 790 C365 752 395 721 434 721 C472 721 503 752 503 790 L503 790 Z M286 790 C286 828 255 859 217 859 C179 859 148 828 148 790 C148 752 179 721 217 721 C255 721 286 752 286 790 L286 790 Z M613 265 L613 675 L459 675 L459 256 C459 155 425 118 337 118 C241 118 216 168 216 247 L216 675 L60 675 L60 238 C60 103 112 -13 327 -13 C506 -13 613 75 613 265 L613 265 Z " />
<glyph glyph-name="Yacute" unicode="&#xdd;" horiz-adv-x="578" d="M511 761 L479 867 L255 792 L278 710 L511 761 Z M579 675 L415 675 L342 517 C322 474 303 433 290 395 L288 395 C277 428 263 463 245 503 L168 675 L-2 675 L209 235 L209 0 L365 0 L365 236 L579 675 Z " />
<glyph glyph-name="Thorn" unicode="&#xde;" horiz-adv-x="553" d="M540 364 C540 513 441 588 282 588 C253 588 234 587 216 586 L216 675 L60 675 L60 0 L216 0 L216 118 C229 117 243 117 259 117 C433 117 540 225 540 364 L540 364 Z M379 355 C379 279 330 243 266 243 C248 243 231 244 216 247 L216 459 C232 460 246 461 261 461 C346 461 379 415 379 355 L379 355 Z " />
<glyph glyph-name="germandbls" unicode="&#xdf;" horiz-adv-x="617" d="M592 162 C592 313 423 314 423 387 C423 459 527 456 527 581 C527 682 437 738 309 738 C175 738 59 670 59 490 L59 0 L211 0 L211 497 C211 580 247 620 304 620 C343 620 367 603 367 572 C367 493 268 483 268 367 C268 215 433 222 433 148 C433 125 417 104 368 104 C336 104 303 113 276 127 L269 4 C294 -6 334 -13 380 -13 C503 -13 592 55 592 162 L592 162 Z " />
<glyph glyph-name="agrave" unicode="&#xe0;" horiz-adv-x="560" d="M552 8 L552 106 C523 108 489 112 465 116 L465 332 C465 446 417 510 245 510 C184 510 116 497 65 481 L80 357 C120 377 179 391 223 391 C289 391 312 371 312 330 L312 312 C154 312 32 253 32 127 C32 47 82 -11 177 -11 C246 -11 305 23 329 75 L330 75 C326 50 326 24 326 -1 C398 -4 480 0 552 8 L552 8 Z M312 200 C312 151 277 105 226 105 C194 105 176 124 176 151 C176 188 205 216 312 216 L312 200 Z M376 636 L188 760 L122 658 L323 553 L376 636 Z " />
<glyph glyph-name="aacute" unicode="&#xe1;" horiz-adv-x="560" d="M552 8 L552 106 C523 108 489 112 465 116 L465 332 C465 446 417 510 245 510 C184 510 116 497 65 481 L80 357 C120 377 179 391 223 391 C289 391 312 371 312 330 L312 312 C154 312 32 253 32 127 C32 47 82 -11 177 -11 C246 -11 305 23 329 75 L330 75 C326 50 326 24 326 -1 C398 -4 480 0 552 8 L552 8 Z M312 200 C312 151 277 105 226 105 C194 105 176 124 176 151 C176 188 205 216 312 216 L312 200 Z M419 658 L353 760 L164 636 L218 553 L419 658 Z " />
<glyph glyph-name="acircumflex" unicode="&#xe2;" horiz-adv-x="560" d="M552 8 L552 106 C523 108 489 112 465 116 L465 332 C465 446 417 510 245 510 C184 510 116 497 65 481 L80 357 C120 377 179 391 223 391 C289 391 312 371 312 330 L312 312 C154 312 32 253 32 127 C32 47 82 -11 177 -11 C246 -11 305 23 329 75 L330 75 C326 50 326 24 326 -1 C398 -4 480 0 552 8 L552 8 Z M312 200 C312 151 277 105 226 105 C194 105 176 124 176 151 C176 188 205 216 312 216 L312 200 Z M428 622 L265 760 L102 622 L159 553 L265 632 L371 553 L428 622 Z " />
<glyph glyph-name="atilde" unicode="&#xe3;" horiz-adv-x="560" d="M552 8 L552 106 C523 108 489 112 465 116 L465 332 C465 446 417 510 245 510 C184 510 116 497 65 481 L80 357 C120 377 179 391 223 391 C289 391 312 371 312 330 L312 312 C154 312 32 253 32 127 C32 47 82 -11 177 -11 C246 -11 305 23 329 75 L330 75 C326 50 326 24 326 -1 C398 -4 480 0 552 8 L552 8 Z M312 200 C312 151 277 105 226 105 C194 105 176 124 176 151 C176 188 205 216 312 216 L312 200 Z M448 667 L377 721 C362 692 347 677 325 677 C289 677 271 725 204 725 C149 725 106 691 75 628 L146 574 C162 603 176 618 199 618 C235 618 252 570 319 570 C374 570 418 604 448 667 L448 667 Z " />
<glyph glyph-name="adieresis" unicode="&#xe4;" horiz-adv-x="560" d="M552 8 L552 106 C523 108 489 112 465 116 L465 332 C465 446 417 510 245 510 C184 510 116 497 65 481 L80 357 C120 377 179 391 223 391 C289 391 312 371 312 330 L312 312 C154 312 32 253 32 127 C32 47 82 -11 177 -11 C246 -11 305 23 329 75 L330 75 C326 50 326 24 326 -1 C398 -4 480 0 552 8 L552 8 Z M312 200 C312 151 277 105 226 105 C194 105 176 124 176 151 C176 188 205 216 312 216 L312 200 Z M447 645 C447 688 412 724 368 724 C325 724 289 688 289 645 C289 601 325 566 368 566 C412 566 447 601 447 645 L447 645 Z M238 645 C238 688 203 724 159 724 C116 724 80 688 80 645 C80 601 116 566 159 566 C203 566 238 601 238 645 L238 645 Z " />
<glyph glyph-name="aring" unicode="&#xe5;" horiz-adv-x="560" d="M552 8 L552 106 C523 108 489 112 465 116 L465 332 C465 446 417 510 245 510 C184 510 116 497 65 481 L80 357 C120 377 179 391 223 391 C289 391 312 371 312 330 L312 312 C154 312 32 253 32 127 C32 47 82 -11 177 -11 C246 -11 305 23 329 75 L330 75 C326 50 326 24 326 -1 C398 -4 480 0 552 8 L552 8 Z M312 200 C312 151 277 105 226 105 C194 105 176 124 176 151 C176 188 205 216 312 216 L312 200 Z M397 670 C397 745 336 800 261 800 C186 800 125 745 125 670 C125 595 186 541 261 541 C336 541 397 596 397 670 L397 670 Z M311 670 C311 643 289 620 261 620 C233 620 211 643 211 670 C211 698 233 721 261 721 C289 721 311 698 311 670 L311 670 Z " />
<glyph glyph-name="ae" unicode="&#xe6;" horiz-adv-x="796" d="M762 278 C762 408 696 509 547 509 C488 509 438 488 408 457 L407 457 C369 499 312 510 249 510 C184 510 112 497 60 479 L86 360 C126 379 179 393 223 393 C289 393 312 373 312 332 L312 312 C149 312 32 261 32 136 C32 54 82 -11 179 -11 C267 -11 326 27 358 83 L359 83 C387 25 457 -11 559 -11 C621 -11 688 0 745 23 L730 138 C682 117 632 107 585 107 C502 107 462 145 462 210 L757 210 C761 235 762 257 762 278 L762 278 Z M613 311 L462 311 C467 363 498 398 543 398 C587 398 615 368 613 311 L613 311 Z M312 200 C312 151 277 105 226 105 C194 105 176 126 176 152 C176 189 205 216 312 216 L312 200 Z " />
<glyph glyph-name="ccedilla" unicode="&#xe7;" horiz-adv-x="418" d="M391 11 L373 139 C348 127 318 122 289 122 C221 122 189 169 189 245 C189 326 221 377 289 377 C316 377 343 371 368 360 L391 492 C360 502 324 508 290 508 C110 508 30 383 30 233 C30 73 107 -11 258 -11 C304 -11 354 -3 391 11 L391 11 Z M279 -39 L155 -75 C203 -136 194 -180 148 -234 L260 -234 C316 -180 331 -113 279 -39 L279 -39 Z " />
<glyph glyph-name="egrave" unicode="&#xe8;" horiz-adv-x="519" d="M485 278 C485 408 419 509 269 509 C115 509 30 396 30 243 C30 68 120 -11 282 -11 C343 -11 411 0 468 23 L453 138 C405 117 355 107 307 107 C225 107 185 145 184 210 L480 210 C483 235 485 257 485 278 L485 278 Z M335 311 L184 311 C189 363 221 398 265 398 C309 398 337 368 335 311 L335 311 Z M377 636 L189 760 L123 658 L324 553 L377 636 Z " />
<glyph glyph-name="eacute" unicode="&#xe9;" horiz-adv-x="519" d="M485 278 C485 408 419 509 269 509 C115 509 30 396 30 243 C30 68 120 -11 282 -11 C343 -11 411 0 468 23 L453 138 C405 117 355 107 307 107 C225 107 185 145 184 210 L480 210 C483 235 485 257 485 278 L485 278 Z M335 311 L184 311 C189 363 221 398 265 398 C309 398 337 368 335 311 L335 311 Z M427 658 L361 760 L172 636 L226 553 L427 658 Z " />
<glyph glyph-name="ecircumflex" unicode="&#xea;" horiz-adv-x="519" d="M485 278 C485 408 419 509 269 509 C115 509 30 396 30 243 C30 68 120 -11 282 -11 C343 -11 411 0 468 23 L453 138 C405 117 355 107 307 107 C225 107 185 145 184 210 L480 210 C483 235 485 257 485 278 L485 278 Z M335 311 L184 311 C189 363 221 398 265 398 C309 398 337 368 335 311 L335 311 Z M429 622 L266 760 L103 622 L160 553 L266 632 L372 553 L429 622 Z " />
<glyph glyph-name="edieresis" unicode="&#xeb;" horiz-adv-x="519" d="M485 278 C485 408 419 509 269 509 C115 509 30 396 30 243 C30 68 120 -11 282 -11 C343 -11 411 0 468 23 L453 138 C405 117 355 107 307 107 C225 107 185 145 184 210 L480 210 C483 235 485 257 485 278 L485 278 Z M335 311 L184 311 C189 363 221 398 265 398 C309 398 337 368 335 311 L335 311 Z M453 645 C453 688 418 724 374 724 C331 724 295 688 295 645 C295 601 331 566 374 566 C418 566 453 601 453 645 L453 645 Z M244 645 C244 688 209 724 165 724 C122 724 86 688 86 645 C86 601 122 566 165 566 C209 566 244 601 244 645 L244 645 Z " />
<glyph glyph-name="igrave" unicode="&#xec;" horiz-adv-x="307" d="M248 0 L248 498 C163 501 81 497 8 489 L8 391 C37 389 71 385 95 381 L95 0 L248 0 Z M262 636 L74 760 L8 658 L209 553 L262 636 Z " />
<glyph glyph-name="iacute" unicode="&#xed;" horiz-adv-x="307" d="M248 0 L248 498 C163 501 81 497 8 489 L8 391 C37 389 71 385 95 381 L95 0 L248 0 Z M290 658 L224 760 L35 636 L89 553 L290 658 Z " />
<glyph glyph-name="icircumflex" unicode="&#xee;" horiz-adv-x="307" d="M248 0 L248 498 C163 501 81 497 8 489 L8 391 C37 389 71 385 95 381 L95 0 L248 0 Z M334 622 L171 760 L8 622 L65 553 L171 632 L277 553 L334 622 Z " />
<glyph glyph-name="idieresis" unicode="&#xef;" horiz-adv-x="307" d="M248 0 L248 498 C163 501 81 497 8 489 L8 391 C37 389 71 385 95 381 L95 0 L248 0 Z M345 645 C345 688 310 724 266 724 C223 724 187 688 187 645 C187 601 223 566 266 566 C310 566 345 601 345 645 L345 645 Z M136 645 C136 688 101 724 57 724 C14 724 -22 688 -22 645 C-22 601 14 566 57 566 C101 566 136 601 136 645 L136 645 Z " />
<glyph glyph-name="eth" unicode="&#xf0;" horiz-adv-x="560" d="M527 282 C527 410 483 530 400 632 L480 666 L420 734 L338 699 C318 719 296 737 274 754 L126 692 C152 675 176 658 198 640 L122 607 L182 538 L268 576 C287 556 303 536 314 518 C320 508 328 497 335 484 C322 499 297 505 273 505 C138 505 29 403 29 237 C29 67 130 -11 272 -11 C412 -11 527 85 527 282 L527 282 Z M369 260 C369 164 335 121 281 121 C224 121 187 164 187 250 C187 338 229 378 278 378 C340 378 369 332 369 260 L369 260 Z " />
<glyph glyph-name="ntilde" unicode="&#xf1;" horiz-adv-x="604" d="M545 0 L545 350 C545 436 508 508 397 508 C318 508 263 470 233 418 L231 419 C236 443 237 479 237 498 C163 501 81 497 8 489 L8 391 C37 389 71 385 95 381 L95 0 L248 0 L248 241 C248 313 293 380 346 380 C381 380 392 356 392 316 L392 0 L545 0 Z M489 667 L418 721 C403 692 388 677 366 677 C330 677 312 725 245 725 C190 725 147 691 116 628 L187 574 C203 603 217 618 240 618 C276 618 293 570 360 570 C415 570 459 604 489 667 L489 667 Z " />
<glyph glyph-name="ograve" unicode="&#xf2;" horiz-adv-x="558" d="M529 259 C529 424 442 508 291 508 C139 508 28 399 28 237 C28 60 123 -11 267 -11 C417 -11 529 98 529 259 L529 259 Z M371 250 C371 167 333 121 278 121 C215 121 186 163 186 254 C186 341 233 378 281 378 C344 378 371 335 371 250 L371 250 Z M390 636 L202 760 L136 658 L337 553 L390 636 Z " />
<glyph glyph-name="oacute" unicode="&#xf3;" horiz-adv-x="558" d="M529 259 C529 424 442 508 291 508 C139 508 28 399 28 237 C28 60 123 -11 267 -11 C417 -11 529 98 529 259 L529 259 Z M371 250 C371 167 333 121 278 121 C215 121 186 163 186 254 C186 341 233 378 281 378 C344 378 371 335 371 250 L371 250 Z M440 658 L374 760 L185 636 L239 553 L440 658 Z " />
<glyph glyph-name="ocircumflex" unicode="&#xf4;" horiz-adv-x="558" d="M529 259 C529 424 442 508 291 508 C139 508 28 399 28 237 C28 60 123 -11 267 -11 C417 -11 529 98 529 259 L529 259 Z M371 250 C371 167 333 121 278 121 C215 121 186 163 186 254 C186 341 233 378 281 378 C344 378 371 335 371 250 L371 250 Z M447 622 L284 760 L121 622 L178 553 L284 632 L390 553 L447 622 Z " />
<glyph glyph-name="otilde" unicode="&#xf5;" horiz-adv-x="558" d="M529 259 C529 424 442 508 291 508 C139 508 28 399 28 237 C28 60 123 -11 267 -11 C417 -11 529 98 529 259 L529 259 Z M371 250 C371 167 333 121 278 121 C215 121 186 163 186 254 C186 341 233 378 281 378 C344 378 371 335 371 250 L371 250 Z M469 667 L398 721 C383 692 368 677 346 677 C310 677 292 725 225 725 C170 725 127 691 96 628 L167 574 C183 603 197 618 220 618 C256 618 273 570 340 570 C395 570 439 604 469 667 L469 667 Z " />
<glyph glyph-name="odieresis" unicode="&#xf6;" horiz-adv-x="558" d="M529 259 C529 424 442 508 291 508 C139 508 28 399 28 237 C28 60 123 -11 267 -11 C417 -11 529 98 529 259 L529 259 Z M371 250 C371 167 333 121 278 121 C215 121 186 163 186 254 C186 341 233 378 281 378 C344 378 371 335 371 250 L371 250 Z M469 645 C469 688 434 724 390 724 C347 724 311 688 311 645 C311 601 347 566 390 566 C434 566 469 601 469 645 L469 645 Z M260 645 C260 688 225 724 181 724 C138 724 102 688 102 645 C102 601 138 566 181 566 C225 566 260 601 260 645 L260 645 Z " />
<glyph glyph-name="divide" unicode="&#xf7;" horiz-adv-x="550" d="M364 498 C364 547 324 588 275 588 C225 588 185 547 185 498 C185 449 225 408 275 408 C324 408 364 449 364 498 L364 498 Z M513 234 L513 362 L37 362 L37 234 L513 234 Z M364 97 C364 147 324 187 275 187 C225 187 185 147 185 97 C185 48 225 7 275 7 C324 7 364 48 364 97 L364 97 Z " />
<glyph glyph-name="oslash" unicode="&#xf8;" horiz-adv-x="558" d="M529 259 C529 384 478 450 413 484 L448 574 L363 599 L327 506 C314 508 301 508 291 508 C140 508 28 403 28 237 C28 128 66 53 136 16 L98 -82 L182 -108 L222 -7 C235 -9 252 -11 267 -11 C416 -11 529 97 529 259 L529 259 Z M386 249 C386 162 345 121 297 114 C287 113 277 114 268 115 L359 349 C377 323 386 293 386 249 L386 249 Z M280 385 L193 159 C178 180 172 217 172 254 C172 339 212 373 255 383 C263 385 272 386 280 385 L280 385 Z " />
<glyph glyph-name="ugrave" unicode="&#xf9;" horiz-adv-x="636" d="M630 8 L630 106 C601 108 567 112 543 116 L543 497 L391 497 L391 256 C391 184 346 117 292 117 C257 117 246 141 246 181 L246 498 C169 501 84 497 7 489 L7 391 C36 389 70 385 94 381 L94 147 C94 61 130 -11 241 -11 C320 -11 375 27 406 79 L407 78 C402 51 402 18 402 -1 C475 -4 558 0 630 8 L630 8 Z M399 636 L211 760 L145 658 L346 553 L399 636 Z " />
<glyph glyph-name="uacute" unicode="&#xfa;" horiz-adv-x="636" d="M630 8 L630 106 C601 108 567 112 543 116 L543 497 L391 497 L391 256 C391 184 346 117 292 117 C257 117 246 141 246 181 L246 498 C169 501 84 497 7 489 L7 391 C36 389 70 385 94 381 L94 147 C94 61 130 -11 241 -11 C320 -11 375 27 406 79 L407 78 C402 51 402 18 402 -1 C475 -4 558 0 630 8 L630 8 Z M483 658 L417 760 L228 636 L282 553 L483 658 Z " />
<glyph glyph-name="ucircumflex" unicode="&#xfb;" horiz-adv-x="636" d="M630 8 L630 106 C601 108 567 112 543 116 L543 497 L391 497 L391 256 C391 184 346 117 292 117 C257 117 246 141 246 181 L246 498 C169 501 84 497 7 489 L7 391 C36 389 70 385 94 381 L94 147 C94 61 130 -11 241 -11 C320 -11 375 27 406 79 L407 78 C402 51 402 18 402 -1 C475 -4 558 0 630 8 L630 8 Z M477 622 L314 760 L151 622 L208 553 L314 632 L420 553 L477 622 Z " />
<glyph glyph-name="udieresis" unicode="&#xfc;" horiz-adv-x="636" d="M630 8 L630 106 C601 108 567 112 543 116 L543 497 L391 497 L391 256 C391 184 346 117 292 117 C257 117 246 141 246 181 L246 498 C169 501 84 497 7 489 L7 391 C36 389 70 385 94 381 L94 147 C94 61 130 -11 241 -11 C320 -11 375 27 406 79 L407 78 C402 51 402 18 402 -1 C475 -4 558 0 630 8 L630 8 Z M496 645 C496 688 461 724 417 724 C374 724 338 688 338 645 C338 601 374 566 417 566 C461 566 496 601 496 645 L496 645 Z M287 645 C287 688 252 724 208 724 C165 724 129 688 129 645 C129 601 165 566 208 566 C252 566 287 601 287 645 L287 645 Z " />
<glyph glyph-name="yacute" unicode="&#xfd;" horiz-adv-x="516" d="M517 497 L354 497 L309 367 C295 326 274 257 262 207 L261 207 C250 255 236 310 221 352 L171 497 L3 497 L183 0 L171 -37 C150 -102 105 -118 70 -118 C48 -118 24 -114 4 -108 L-13 -238 C8 -242 41 -245 64 -245 C180 -245 256 -199 324 -19 L517 497 Z M453 658 L387 760 L198 636 L252 553 L453 658 Z " />
<glyph glyph-name="thorn" unicode="&#xfe;" horiz-adv-x="562" d="M531 276 C531 420 468 508 350 508 C279 508 236 479 212 439 L210 440 C214 471 215 508 215 536 L215 731 C130 734 48 730 -25 722 L-25 624 C4 622 38 618 62 614 L62 -237 L215 -237 L215 -4 C230 -7 246 -8 265 -8 C445 -8 531 106 531 276 L531 276 Z M370 260 C370 149 326 111 267 111 C246 111 230 113 215 117 L215 239 C215 322 250 382 302 382 C348 382 370 343 370 260 L370 260 Z " />
<glyph glyph-name="ydieresis" unicode="&#xff;" horiz-adv-x="516" d="M517 497 L354 497 L309 367 C295 326 274 257 262 207 L261 207 C250 255 236 310 221 352 L171 497 L3 497 L183 0 L171 -37 C150 -102 105 -118 70 -118 C48 -118 24 -114 4 -108 L-13 -238 C8 -242 41 -245 64 -245 C180 -245 256 -199 324 -19 L517 497 Z M445 645 C445 688 410 724 366 724 C323 724 287 688 287 645 C287 601 323 566 366 566 C410 566 445 601 445 645 L445 645 Z M236 645 C236 688 201 724 157 724 C114 724 78 688 78 645 C78 601 114 566 157 566 C201 566 236 601 236 645 L236 645 Z " />
<glyph glyph-name="dotlessi" unicode="&#x131;" horiz-adv-x="307" d="M248 0 L248 498 C163 501 81 497 8 489 L8 391 C37 389 71 385 95 381 L95 0 L248 0 Z " />
<glyph glyph-name="Lslash" unicode="&#x141;" horiz-adv-x="436" d="M427 0 L427 138 L223 138 L223 289 L334 321 L315 438 L223 411 L223 675 L68 675 L68 370 L-10 347 L9 231 L68 249 L68 0 L427 0 Z " />
<glyph glyph-name="lslash" unicode="&#x142;" horiz-adv-x="303" d="M305 437 L277 548 L228 521 L228 731 C143 734 61 730 -12 722 L-12 624 C17 622 51 618 75 614 L75 441 L-4 397 L24 285 L75 314 L75 0 L228 0 L228 394 L305 437 Z " />
<glyph glyph-name="OE" unicode="&#x152;" horiz-adv-x="858" d="M811 0 L811 134 L587 134 L587 283 L799 283 L799 410 L587 410 L587 544 L811 544 L811 675 L465 675 C432 683 397 688 357 688 C179 688 28 549 28 329 C28 117 130 -13 339 -13 C376 -13 414 -7 447 0 L811 0 Z M431 147 C406 137 375 130 348 130 C241 130 193 212 193 342 C193 483 270 546 351 546 C381 546 408 541 431 533 L431 147 Z " />
<glyph glyph-name="oe" unicode="&#x153;" horiz-adv-x="851" d="M817 278 C817 408 751 509 602 509 C536 509 486 486 449 448 C411 489 349 508 291 508 C138 508 28 400 28 237 C28 59 124 -11 267 -11 C336 -11 397 16 434 57 C474 13 530 -11 615 -11 C676 -11 743 0 800 23 L785 138 C737 117 687 107 640 107 C558 107 517 145 517 210 L813 210 C816 235 817 257 817 278 L817 278 Z M668 311 L517 311 C522 363 553 398 598 398 C642 398 670 368 668 311 L668 311 Z M371 250 C371 167 333 121 278 121 C215 121 186 163 186 254 C186 341 233 378 281 378 C344 378 371 335 371 250 L371 250 Z " />
<glyph glyph-name="Scaron" unicode="&#x160;" horiz-adv-x="502" d="M426 798 L394 869 L256 812 L119 869 L85 797 L256 710 L426 798 Z M475 214 C475 428 200 389 200 494 C200 532 229 558 293 558 C334 558 372 551 409 538 L423 674 C384 683 335 687 300 687 C130 687 33 603 33 476 C33 250 303 309 303 194 C303 145 261 124 211 124 C155 124 105 136 61 154 L46 6 C93 -6 144 -12 207 -12 C366 -12 475 85 475 214 L475 214 Z " />
<glyph glyph-name="scaron" unicode="&#x161;" horiz-adv-x="411" d="M379 159 C379 318 193 290 193 356 C193 379 211 394 250 394 C279 394 311 390 336 381 L341 500 C313 505 281 509 254 509 C102 509 34 434 34 343 C34 178 217 219 217 146 C217 122 194 107 156 107 C119 107 82 114 52 127 L44 3 C76 -6 115 -11 154 -11 C289 -11 379 54 379 159 L379 159 Z M376 691 L320 760 L214 681 L108 760 L51 691 L213 553 L376 691 Z " />
<glyph glyph-name="Ydieresis" unicode="&#x178;" horiz-adv-x="578" d="M461 790 C461 828 430 859 392 859 C354 859 323 828 323 790 C323 752 354 721 392 721 C430 721 461 752 461 790 L461 790 Z M245 790 C245 828 214 859 176 859 C138 859 107 828 107 790 C107 752 138 721 176 721 C214 721 245 752 245 790 L245 790 Z M579 675 L415 675 L342 517 C322 474 303 433 290 395 L288 395 C277 428 263 463 245 503 L168 675 L-2 675 L209 235 L209 0 L365 0 L365 236 L579 675 Z " />
<glyph glyph-name="Zcaron" unicode="&#x17d;" horiz-adv-x="536" d="M457 798 L425 869 L288 812 L150 869 L116 797 L287 710 L457 798 Z M492 0 L492 144 L364 144 C284 144 246 144 233 142 C243 156 251 167 259 180 L488 548 L488 675 L51 675 L51 535 L191 535 C256 535 279 536 297 537 C284 520 272 503 261 485 L44 122 L44 0 L492 0 Z " />
<glyph glyph-name="zcaron" unicode="&#x17e;" horiz-adv-x="452" d="M407 0 L407 140 L332 140 C300 140 251 140 235 139 L404 388 L404 497 L50 497 L50 360 L128 360 C173 360 204 361 218 362 L44 109 L44 0 L407 0 Z M391 691 L335 760 L229 681 L123 760 L66 691 L228 553 L391 691 Z " />
<glyph glyph-name="florin" unicode="&#x192;" horiz-adv-x="550" d="M520 694 C492 700 456 704 429 704 C284 704 203 634 188 474 L179 383 L54 383 L54 265 L168 265 L149 60 C142 -11 116 -36 69 -36 C44 -36 9 -29 -16 -22 L-32 -151 C-3 -158 34 -161 60 -161 C204 -161 286 -90 301 69 L320 265 L467 265 L467 383 L331 383 L340 483 C347 554 369 579 421 579 C444 579 475 573 503 564 L520 694 Z " />
<glyph glyph-name="circumflex" unicode="&#x2c6;" horiz-adv-x="422" d="M373 622 L210 760 L47 622 L104 553 L210 632 L316 553 L373 622 Z " />
<glyph glyph-name="caron" unicode="&#x2c7;" horiz-adv-x="422" d="M372 691 L316 760 L210 681 L104 760 L47 691 L209 553 L372 691 Z " />
<glyph glyph-name="breve" unicode="&#x2d8;" horiz-adv-x="355" d="M321 727 L221 727 C221 690 203 673 176 673 C147 673 132 694 132 727 L32 727 C32 641 71 561 175 561 C278 561 321 639 321 727 L321 727 Z " />
<glyph glyph-name="dotaccent" unicode="&#x2d9;" horiz-adv-x="289" d="M232 645 C232 695 190 735 138 735 C87 735 45 694 45 645 C45 595 87 555 138 555 C190 555 232 595 232 645 L232 645 Z " />
<glyph glyph-name="ring" unicode="&#x2da;" horiz-adv-x="354" d="M313 640 C313 715 252 770 177 770 C102 770 41 715 41 640 C41 565 102 511 177 511 C252 511 313 566 313 640 L313 640 Z M227 640 C227 613 205 590 177 590 C149 590 127 613 127 640 C127 668 149 691 177 691 C205 691 227 668 227 640 L227 640 Z " />
<glyph glyph-name="ogonek" unicode="&#x2db;" horiz-adv-x="335" d="M308 -161 L252 -90 C236 -108 215 -118 197 -118 C180 -118 167 -109 167 -92 C167 -62 194 -28 254 0 L96 0 C49 -35 21 -85 21 -130 C21 -182 53 -232 144 -232 C216 -232 267 -205 308 -161 L308 -161 Z " />
<glyph glyph-name="tilde" unicode="&#x2dc;" horiz-adv-x="448" d="M412 667 L341 721 C326 692 311 677 289 677 C253 677 235 725 168 725 C113 725 70 691 39 628 L110 574 C126 603 140 618 163 618 C199 618 216 570 283 570 C338 570 382 604 412 667 L412 667 Z " />
<glyph glyph-name="hungarumlaut" unicode="&#x2dd;" horiz-adv-x="511" d="M489 690 L410 767 L257 613 L323 553 L489 690 Z M274 705 L189 777 L53 612 L122 553 L274 705 Z " />
<glyph glyph-name="pi" unicode="&#x3c0;" horiz-adv-x="667" d="M628 0 L619 103 C607 99 591 97 575 97 C540 97 529 108 529 193 L529 373 L618 373 L618 497 L39 497 L39 373 L129 373 L129 0 L270 0 L270 373 L388 373 L388 118 C388 32 423 -12 512 -12 C556 -12 597 -7 628 0 L628 0 Z " />
<glyph glyph-name="endash" unicode="&#x2013;" horiz-adv-x="550" d="M550 231 L550 365 L0 365 L0 231 L550 231 Z " />
<glyph glyph-name="emdash" unicode="&#x2014;" horiz-adv-x="1000" d="M894 231 L894 365 L106 365 L106 231 L894 231 Z " />
<glyph glyph-name="quoteleft" unicode="&#x2018;" horiz-adv-x="282" d="M248 704 L186 759 C-21 583 31 402 139 402 C223 402 252 494 209 544 C172 587 178 629 248 704 L248 704 Z " />
<glyph glyph-name="quoteright" unicode="&#x2019;" horiz-adv-x="282" d="M142 750 C59 750 29 658 73 608 C109 565 104 523 33 448 L95 392 C302 569 251 750 142 750 L142 750 Z " />
<glyph glyph-name="quotesinglbase" unicode="&#x201a;" horiz-adv-x="282" d="M142 172 C59 172 29 80 73 30 C109 -12 104 -54 33 -130 L95 -185 C302 -9 251 172 142 172 L142 172 Z " />
<glyph glyph-name="quotedblleft" unicode="&#x201c;" horiz-adv-x="519" d="M486 704 L424 759 C217 583 268 402 377 402 C460 402 490 494 446 544 C409 587 415 629 486 704 L486 704 Z M248 704 L186 759 C-21 583 31 402 139 402 C223 402 252 494 209 544 C172 587 178 629 248 704 L248 704 Z " />
<glyph glyph-name="quotedblright" unicode="&#x201d;" horiz-adv-x="519" d="M380 750 C296 750 267 658 310 608 C347 565 341 523 270 448 L332 392 C539 569 488 750 380 750 L380 750 Z M142 750 C59 750 29 658 73 608 C109 565 104 523 33 448 L95 392 C302 569 251 750 142 750 L142 750 Z " />
<glyph glyph-name="quotedblbase" unicode="&#x201e;" horiz-adv-x="519" d="M380 172 C296 172 267 80 310 30 C347 -12 341 -54 270 -130 L332 -185 C539 -9 488 172 380 172 L380 172 Z M142 172 C59 172 29 80 73 30 C109 -12 104 -54 33 -130 L95 -185 C302 -9 251 172 142 172 L142 172 Z " />
<glyph glyph-name="dagger" unicode="&#x2020;" horiz-adv-x="463" d="M426 518 L426 635 L295 635 L319 771 L144 771 L168 635 L37 635 L37 518 L168 518 L144 436 L171 178 L293 178 L319 436 L295 518 L426 518 Z " />
<glyph glyph-name="daggerdbl" unicode="&#x2021;" horiz-adv-x="463" d="M426 281 L426 398 L296 398 L319 468 L296 537 L426 537 L426 654 L296 654 L319 771 L144 771 L167 654 L37 654 L37 537 L167 537 L144 468 L167 398 L37 398 L37 281 L167 281 L143 164 L320 164 L296 281 L426 281 Z " />
<glyph glyph-name="bullet" unicode="&#x2022;" horiz-adv-x="424" d="M378 297 C378 388 303 463 212 463 C120 463 46 388 46 297 C46 206 120 131 212 131 C303 131 378 206 378 297 L378 297 Z " />
<glyph glyph-name="ellipsis" unicode="&#x2026;" horiz-adv-x="762" d="M715 78 C715 127 674 167 625 167 C575 167 535 127 535 78 C535 28 575 -12 625 -12 C674 -12 715 28 715 78 L715 78 Z M469 78 C469 127 429 167 379 167 C330 167 289 127 289 78 C289 28 330 -12 379 -12 C429 -12 469 28 469 78 L469 78 Z M224 78 C224 127 183 167 134 167 C84 167 44 127 44 78 C44 28 84 -12 134 -12 C183 -12 224 28 224 78 L224 78 Z " />
<glyph glyph-name="perthousand" unicode="&#x2030;" horiz-adv-x="1069" d="M921 149 C921 104 901 81 878 81 C854 81 836 96 836 148 C836 192 856 215 880 215 C906 215 921 201 921 149 L921 149 Z M1028 155 C1028 262 963 308 882 308 C800 308 729 245 729 144 C729 45 785 -13 874 -13 C955 -13 1028 51 1028 155 L1028 155 Z M587 149 C587 104 568 81 544 81 C520 81 502 96 502 148 C502 192 522 215 546 215 C572 215 587 201 587 149 L587 149 Z M694 155 C694 262 629 308 548 308 C466 308 395 245 395 144 C395 45 451 -13 540 -13 C621 -13 694 51 694 155 L694 155 Z M665 601 L575 671 L62 47 L151 -22 L665 601 Z M228 503 C228 458 208 435 185 435 C161 435 143 450 143 502 C143 546 163 569 187 569 C213 569 228 555 228 503 L228 503 Z M335 510 C335 617 270 663 189 663 C107 663 36 600 36 498 C36 399 92 342 181 342 C262 342 335 406 335 510 L335 510 Z " />
<glyph glyph-name="guilsinglleft" unicode="&#x2039;" horiz-adv-x="312" d="M264 145 L177 292 L262 442 L145 495 L32 292 L142 91 L264 145 Z " />
<glyph glyph-name="guilsinglright" unicode="&#x203a;" horiz-adv-x="312" d="M280 294 L170 495 L47 441 L134 294 L49 144 L167 91 L280 294 Z " />
<glyph glyph-name="fraction" unicode="&#x2044;" horiz-adv-x="447" d="M533 624 L423 703 L-77 41 L33 -39 L533 624 Z " />
<glyph glyph-name="Euro" unicode="&#x20ac;" horiz-adv-x="550" d="M525 19 L491 135 C454 118 417 109 376 109 C308 109 267 135 249 202 L400 202 L400 294 L234 294 C233 305 233 317 233 328 C233 338 234 348 234 357 L400 357 L400 449 L251 449 C270 506 308 542 373 542 C412 542 455 532 486 517 L521 637 C480 652 427 663 381 663 C212 663 126 571 94 449 L11 449 L11 357 L79 357 C78 343 78 330 78 317 C78 309 78 301 78 294 L11 294 L11 202 L87 202 C116 45 212 -13 355 -13 C415 -13 477 -1 525 19 L525 19 Z " />
<glyph glyph-name="trademark" unicode="&#x2122;" horiz-adv-x="683" d="M658 394 L610 675 L485 675 L460 571 L454 535 L447 573 L420 675 L297 675 L251 394 L351 394 L366 505 L368 541 L375 503 L400 394 L495 394 L520 500 L527 541 L532 498 L547 394 L658 394 Z M249 583 L249 675 L19 675 L19 583 L83 583 L83 394 L188 394 L188 583 L249 583 Z " />
<glyph glyph-name="Omega" unicode="&#x2126;" horiz-adv-x="749" d="M691 0 L691 114 L569 114 C642 165 688 261 688 365 C688 571 559 688 384 688 C186 688 60 542 60 354 C60 249 100 166 172 114 L55 114 L55 0 L328 0 L328 106 C246 158 209 233 209 354 C209 476 275 563 374 563 C475 563 533 473 533 351 C533 236 490 149 418 106 L418 0 L691 0 Z " />
<glyph glyph-name="partialdiff" unicode="&#x2202;" horiz-adv-x="632" d="M578 393 C578 603 442 737 241 738 L218 609 C314 610 389 558 410 468 C413 454 416 438 420 412 C394 441 354 457 307 457 C153 457 53 351 53 207 C53 79 128 -7 269 -7 C345 -7 418 23 468 73 C544 150 578 264 578 393 L578 393 Z M396 238 C396 171 350 125 291 125 C236 125 203 159 203 219 C203 283 244 328 303 328 C367 328 396 290 396 238 L396 238 Z " />
<glyph glyph-name="Delta" unicode="&#x2206;" horiz-adv-x="767" d="M745 0 L458 700 L309 700 L22 0 L745 0 Z M518 140 L236 140 L377 497 L518 140 Z " />
<glyph glyph-name="product" unicode="&#x220f;" horiz-adv-x="784" d="M745 601 L745 730 L38 730 L38 601 L130 601 L130 -237 L272 -237 L272 601 L513 601 L513 -237 L655 -237 L655 601 L745 601 Z " />
<glyph glyph-name="summation" unicode="&#x2211;" horiz-adv-x="606" d="M561 -237 L561 -105 L215 -105 L491 261 L240 601 L546 601 L546 730 L53 730 L53 610 L315 256 L36 -118 L36 -237 L561 -237 Z " />
<glyph glyph-name="minus" unicode="&#x2212;" horiz-adv-x="550" d="M513 231 L513 365 L37 365 L37 231 L513 231 Z " />
<glyph glyph-name="radical" unicode="&#x221a;" horiz-adv-x="622" d="M622 758 L454 758 L325 256 C318 231 313 204 308 173 L306 173 C301 203 293 232 285 259 L215 497 L4 497 L4 383 L88 383 L213 0 L392 0 L622 758 Z " />
<glyph glyph-name="infinity" unicode="&#x221e;" horiz-adv-x="991" d="M955 305 C955 414 877 494 747 494 C656 494 564 438 498 388 C406 458 328 494 249 494 C123 494 35 411 35 293 C35 190 103 104 239 104 C335 104 419 155 490 207 C586 137 663 104 735 104 C879 104 955 195 955 305 L955 305 Z M811 301 C811 267 788 237 742 237 C711 237 672 257 612 301 C664 338 707 361 743 361 C785 361 811 335 811 301 L811 301 Z M376 296 C323 258 282 237 247 237 C206 237 180 263 180 298 C180 332 203 361 248 361 C279 361 317 340 376 296 L376 296 Z " />
<glyph glyph-name="integral" unicode="&#x222b;" horiz-adv-x="348" d="M323 602 L323 733 C307 737 285 739 270 739 C158 739 89 665 89 468 C89 276 103 153 103 -5 C103 -98 86 -116 49 -116 C37 -116 23 -115 9 -111 L9 -242 C28 -246 50 -248 68 -248 C186 -248 243 -168 243 24 C243 212 229 343 229 502 C229 590 246 608 280 608 C296 608 312 605 323 602 L323 602 Z " />
<glyph glyph-name="approxequal" unicode="&#x2248;" horiz-adv-x="550" d="M517 377 L466 478 C439 453 404 434 371 434 C315 434 272 492 185 492 C131 492 73 461 32 423 L80 323 C112 349 146 365 181 365 C254 365 291 308 370 308 C428 308 478 337 517 377 L517 377 Z M518 161 L470 261 C440 233 406 222 374 222 C295 222 267 280 177 280 C121 280 67 243 32 211 L83 110 C114 136 146 153 181 153 C245 153 281 96 370 96 C418 96 478 123 518 161 L518 161 Z " />
<glyph glyph-name="notequal" unicode="&#x2260;" horiz-adv-x="550" d="M507 134 L507 256 L327 256 L360 338 L507 338 L507 460 L408 460 L450 568 L313 568 L271 460 L43 460 L43 338 L223 338 L191 256 L43 256 L43 134 L143 134 L100 25 L237 25 L280 134 L507 134 Z " />
<glyph glyph-name="lessequal" unicode="&#x2264;" horiz-adv-x="550" d="M466 262 L253 421 L466 580 L367 682 L53 420 L368 157 L466 262 Z M477 0 L477 127 L73 127 L73 0 L477 0 Z " />
<glyph glyph-name="greaterequal" unicode="&#x2265;" horiz-adv-x="550" d="M497 420 L182 682 L84 578 L297 419 L84 260 L183 157 L497 420 Z M477 0 L477 127 L73 127 L73 0 L477 0 Z " />
<glyph glyph-name="lozenge" unicode="&#x25ca;" horiz-adv-x="630" d="M616 336 L363 685 L268 685 L14 338 L269 -10 L365 -10 L616 336 Z M449 332 L319 155 L183 342 L310 518 L449 332 Z " />
<glyph glyph-name="fi" unicode="&#xfb01;" horiz-adv-x="599" d="M540 0 L540 497 L237 497 L237 519 C237 583 271 613 355 613 C393 613 440 605 478 594 L503 721 C447 733 401 739 339 739 C164 739 85 664 85 512 L85 497 L9 497 L9 380 L85 380 L85 0 L237 0 L237 380 L387 380 L387 0 L540 0 Z " />
<glyph glyph-name="fl" unicode="&#xfb02;" horiz-adv-x="599" d="M540 0 L540 720 C466 732 393 739 341 739 C156 739 85 656 85 539 L85 497 L9 497 L9 380 L85 380 L85 0 L237 0 L237 380 L330 380 L330 497 L237 497 L237 535 C237 589 269 614 328 614 C349 614 368 613 387 609 L387 0 L540 0 Z " />
</font>
</svg>
