<?xml version="1.0" encoding="UTF-8"?>
<svg xmlns="http://www.w3.org/2000/svg" xmlns:xlink="http://www.w3.org/1999/xlink" version="1.2" >
<font id="TheMix B8 ExtraBold Italic">
<font-face  font-family="TheMix" units-per-em="1000" ascent="750" descent="-250" font-style="italic" font-weight="800" font-stretch="normal" slope="-11" cap-height="750" x-height="500" underline-position="-121.5" underline-thickness="123" />
<missing-glyph  horiz-adv-x="550" d="" />
<glyph glyph-name="NULL" d="" />
<glyph glyph-name="CR" unicode="&#xd;" horiz-adv-x="250" d="" />
<glyph glyph-name="space" unicode="&#x20;" horiz-adv-x="218" d="" />
<glyph glyph-name="exclam" unicode="&#x21;" horiz-adv-x="317" d="M348 711 L173 711 L99 201 L230 201 L348 711 Z M229 80 C229 123 196 161 145 161 C94 161 50 123 50 68 C50 26 83 -12 134 -12 C185 -12 229 26 229 80 L229 80 Z " />
<glyph glyph-name="quotedbl" unicode="&#x22;" horiz-adv-x="422" d="M476 704 L329 704 L296 434 L408 434 L476 704 Z M278 704 L130 704 L97 434 L209 434 L278 704 Z " />
<glyph glyph-name="numbersign" unicode="&#x23;" horiz-adv-x="550" d="M578 490 L510 490 L557 650 L447 650 L400 490 L287 490 L334 650 L225 650 L178 490 L98 490 L78 384 L147 384 L113 269 L33 269 L13 164 L82 164 L33 0 L143 0 L192 164 L305 164 L256 0 L365 0 L414 164 L493 164 L513 269 L445 269 L479 384 L558 384 L578 490 Z M369 384 L336 269 L223 269 L256 384 L369 384 Z " />
<glyph glyph-name="dollar" unicode="&#x24;" horiz-adv-x="550" d="M500 634 C469 640 438 643 408 645 L424 730 L317 730 L299 638 C188 619 109 535 109 439 C109 262 315 292 315 203 C315 166 273 141 212 141 C171 141 125 149 87 162 L60 26 C93 19 136 15 171 15 L152 -85 L258 -85 L278 21 C391 42 481 126 481 235 C481 405 272 386 272 464 C272 497 304 521 363 521 C395 521 435 516 474 504 L500 634 Z " />
<glyph glyph-name="percent" unicode="&#x25;" horiz-adv-x="752" d="M397 542 C397 622 348 663 265 663 C183 663 82 593 82 462 C82 384 127 339 213 339 C297 339 397 408 397 542 L397 542 Z M741 598 L661 672 L48 50 L128 -24 L741 598 Z M711 190 C711 270 661 311 579 311 C496 311 396 240 396 110 C396 32 441 -13 526 -13 C611 -13 711 56 711 190 L711 190 Z M288 532 C288 481 261 433 223 433 C205 433 191 441 191 470 C191 518 218 569 257 569 C276 569 288 559 288 532 L288 532 Z M601 180 C601 129 575 81 536 81 C518 81 505 89 505 118 C505 166 532 217 570 217 C590 217 601 207 601 180 L601 180 Z " />
<glyph glyph-name="ampersand" unicode="&#x26;" horiz-adv-x="787" d="M763 465 C688 468 611 466 541 458 L524 367 C543 365 573 361 592 357 C580 312 556 273 527 242 C474 291 425 340 387 385 C466 445 539 512 539 602 C539 684 485 741 360 741 C227 741 135 644 135 547 C135 504 156 453 192 397 C111 337 36 266 36 164 C36 65 99 -13 245 -13 C339 -13 430 16 509 65 C551 31 593 0 636 -30 L739 74 C701 101 664 130 628 160 C709 247 760 357 763 465 L763 465 Z M388 583 C388 545 355 515 312 482 C294 513 284 540 284 561 C284 599 313 626 345 626 C374 626 388 609 388 583 L388 583 Z M403 155 C360 130 315 119 276 119 C221 119 195 151 195 192 C195 232 228 265 269 297 C309 249 357 199 403 155 L403 155 Z " />
<glyph glyph-name="quotesingle" unicode="&#x27;" horiz-adv-x="223" d="M278 704 L130 704 L97 434 L209 434 L278 704 Z " />
<glyph glyph-name="parenleft" unicode="&#x28;" horiz-adv-x="302" d="M398 738 L293 789 C118 577 35 334 35 128 C35 0 61 -116 106 -218 L227 -168 C196 -77 181 16 181 134 C181 315 268 569 398 738 L398 738 Z " />
<glyph glyph-name="parenright" unicode="&#x29;" horiz-adv-x="302" d="M294 443 C294 571 267 687 223 789 L102 739 C133 648 147 555 147 437 C147 256 61 2 -69 -167 L36 -218 C211 -6 294 237 294 443 L294 443 Z " />
<glyph glyph-name="asterisk" unicode="&#x2a;" horiz-adv-x="384" d="M434 585 L400 683 L307 621 L347 723 L243 736 L240 628 L174 704 L102 619 L193 573 L87 546 L120 450 L212 510 L171 409 L276 396 L281 504 L347 427 L418 513 L327 558 L434 585 Z " />
<glyph glyph-name="plus" unicode="&#x2b;" horiz-adv-x="550" d="M540 362 L374 362 L408 537 L262 537 L229 362 L64 362 L40 234 L205 234 L171 57 L317 57 L350 234 L515 234 L540 362 Z " />
<glyph glyph-name="comma" unicode="&#x2c;" horiz-adv-x="271" d="M114 172 C36 172 0 86 35 33 C65 -12 53 -53 -31 -122 L23 -185 C284 -6 220 172 114 172 L114 172 Z " />
<glyph glyph-name="hyphen" unicode="&#x2d;" horiz-adv-x="331" d="M312 332 L64 332 L40 210 L288 210 L312 332 Z " />
<glyph glyph-name="period" unicode="&#x2e;" horiz-adv-x="276" d="M208 86 C208 134 168 177 117 177 C65 177 19 134 19 79 C19 30 59 -12 110 -12 C162 -12 208 30 208 86 L208 86 Z " />
<glyph glyph-name="slash" unicode="&#x2f;" horiz-adv-x="470" d="M578 757 L426 757 L-96 -161 L58 -161 L578 757 Z " />
<glyph glyph-name="zero" unicode="0" horiz-adv-x="550" d="M555 456 C555 605 484 663 357 663 C121 663 35 394 35 194 C35 40 109 -13 236 -13 C469 -13 555 256 555 456 L555 456 Z M395 451 C395 377 355 119 254 119 C209 119 195 142 195 201 C195 275 235 533 337 533 C381 533 395 510 395 451 L395 451 Z " />
<glyph glyph-name="one" unicode="1" horiz-adv-x="550" d="M494 137 L359 137 L457 650 L337 650 L123 583 L124 437 L267 488 L201 137 L44 137 L18 0 L468 0 L494 137 Z " />
<glyph glyph-name="two" unicode="2" horiz-adv-x="550" d="M525 496 C525 589 464 662 325 662 C248 662 178 643 124 618 L128 479 C167 502 218 520 269 520 C324 520 348 494 348 461 C348 403 310 356 117 199 L29 127 L4 0 L456 0 L485 148 L419 148 C360 148 298 147 251 145 L251 147 L312 195 C488 334 525 407 525 496 L525 496 Z " />
<glyph glyph-name="three" unicode="3" horiz-adv-x="550" d="M530 516 C530 605 468 663 321 663 C263 663 193 650 139 631 L139 505 C181 523 229 536 279 536 C339 536 363 514 363 484 C363 421 281 383 157 383 L123 383 L101 266 C138 271 169 273 215 273 C291 273 323 247 323 211 C323 161 271 114 166 114 C124 114 82 122 54 132 L18 2 C42 -5 88 -13 145 -13 C406 -13 491 133 491 231 C491 294 457 342 394 354 L396 356 C484 380 530 447 530 516 L530 516 Z " />
<glyph glyph-name="four" unicode="4" horiz-adv-x="550" d="M533 650 L323 650 L23 266 L13 135 L284 135 L259 0 L409 0 L434 135 L514 135 L540 272 L460 272 L533 650 Z M357 496 L314 272 C288 272 213 272 179 270 L356 496 L357 496 Z " />
<glyph glyph-name="five" unicode="5" horiz-adv-x="550" d="M551 650 L162 650 L91 281 C118 285 159 289 196 289 C288 289 326 268 326 225 C326 158 265 119 178 119 C140 119 96 126 59 137 L32 0 C69 -9 106 -12 165 -12 C344 -12 499 87 499 251 C499 339 438 408 288 408 C280 408 271 408 261 408 L280 507 L523 507 L551 650 Z " />
<glyph glyph-name="six" unicode="6" horiz-adv-x="550" d="M546 654 C526 658 493 660 453 660 C165 660 34 405 34 190 C34 55 106 -13 238 -13 C404 -13 525 99 525 258 C525 354 464 417 350 417 C296 417 249 399 218 370 L217 370 C222 382 231 399 240 414 C282 489 345 533 438 533 C466 533 496 529 523 524 L546 654 Z M367 228 C367 163 320 111 259 111 C211 111 187 142 187 185 C187 245 231 293 297 293 C343 293 367 270 367 228 L367 228 Z " />
<glyph glyph-name="seven" unicode="7" horiz-adv-x="550" d="M584 650 L129 650 L100 500 L187 500 C254 500 341 502 373 503 C286 380 164 170 81 0 L262 0 C333 151 443 354 559 518 L584 650 Z " />
<glyph glyph-name="eight" unicode="8" horiz-adv-x="550" d="M558 519 C558 606 488 663 355 663 C210 663 93 565 93 445 C93 390 122 355 159 328 C90 292 20 240 20 137 C20 43 94 -13 236 -13 C374 -13 513 73 513 212 C513 274 477 311 433 340 C512 384 558 442 558 519 L558 519 Z M401 498 C401 459 376 433 312 402 C275 420 249 439 249 469 C249 512 281 545 338 545 C383 545 401 524 401 498 L401 498 Z M353 192 C353 140 310 109 254 109 C204 109 180 132 180 161 C180 196 201 227 279 265 C320 246 353 225 353 192 L353 192 Z " />
<glyph glyph-name="nine" unicode="9" horiz-adv-x="550" d="M553 459 C553 604 473 663 347 663 C170 663 64 530 64 392 C64 286 137 232 242 232 C288 232 331 245 366 272 L367 272 C364 264 360 255 355 244 C323 172 247 118 154 118 C122 118 81 123 57 131 L31 -3 C61 -8 93 -10 138 -10 C463 -10 553 281 553 459 L553 459 Z M398 469 C398 399 345 357 289 357 C244 357 219 378 219 422 C219 482 262 539 328 539 C372 539 398 513 398 469 L398 469 Z " />
<glyph glyph-name="colon" unicode="&#x3a;" horiz-adv-x="301" d="M283 363 C283 410 243 453 191 453 C139 453 93 410 93 354 C93 307 134 264 186 264 C237 264 283 307 283 363 L283 363 Z M230 87 C230 134 190 177 138 177 C87 177 40 134 40 78 C40 30 81 -12 133 -12 C185 -12 230 30 230 87 L230 87 Z " />
<glyph glyph-name="semicolon" unicode="&#x3b;" horiz-adv-x="301" d="M283 363 C283 410 243 453 191 453 C139 453 93 410 93 354 C93 307 134 264 186 264 C237 264 283 307 283 363 L283 363 Z M137 172 C59 172 23 86 58 33 C88 -12 76 -53 -8 -122 L46 -185 C307 -6 243 172 137 172 L137 172 Z " />
<glyph glyph-name="less" unicode="&#x3c;" horiz-adv-x="550" d="M531 496 L441 601 L73 308 L344 -3 L457 94 L270 297 L531 496 Z " />
<glyph glyph-name="equal" unicode="&#x3d;" horiz-adv-x="550" d="M544 460 L97 460 L75 338 L521 338 L544 460 Z M505 256 L59 256 L36 134 L482 134 L505 256 Z " />
<glyph glyph-name="greater" unicode="&#x3e;" horiz-adv-x="550" d="M507 290 L236 601 L123 504 L310 301 L49 103 L139 -3 L507 290 Z " />
<glyph glyph-name="question" unicode="&#x3f;" horiz-adv-x="446" d="M464 533 C464 632 373 714 170 721 L125 583 C221 578 296 557 296 503 C296 408 81 392 111 201 L258 201 C240 343 464 346 464 533 L464 533 Z M253 80 C253 123 220 161 169 161 C118 161 74 123 74 68 C74 26 107 -12 158 -12 C209 -12 253 26 253 80 L253 80 Z " />
<glyph glyph-name="at" unicode="&#x40;" horiz-adv-x="961" d="M902 457 C902 619 795 738 577 738 C282 738 83 491 83 229 C83 39 199 -79 434 -79 C497 -79 586 -66 658 -41 L646 76 C587 57 523 45 465 45 C295 45 223 121 223 250 C223 426 341 616 556 616 C710 616 765 534 765 439 C765 321 714 248 648 248 C614 248 607 271 624 333 L677 522 C650 534 604 545 556 545 C358 545 289 371 289 247 C289 167 325 130 380 130 C441 130 494 175 523 218 L527 218 C522 165 554 130 621 130 C805 130 902 282 902 457 L902 457 Z M543 440 L532 402 C501 291 456 246 426 246 C413 246 406 256 406 278 C406 349 452 445 511 445 C522 445 534 444 543 440 L543 440 Z " />
<glyph glyph-name="A" unicode="A" horiz-adv-x="621" d="M584 0 L481 675 L307 675 L-46 0 L111 0 L175 125 L404 125 L421 0 L584 0 Z M389 248 L236 248 L315 402 C332 434 346 467 358 496 L359 496 C361 466 363 434 368 402 L389 248 Z " />
<glyph glyph-name="B" unicode="B" horiz-adv-x="574" d="M581 538 C581 637 502 679 375 679 C301 679 207 677 146 674 L18 0 C114 0 188 -2 234 -2 C424 -2 542 106 542 237 C542 293 512 343 462 359 L462 360 C533 391 581 449 581 538 L581 538 Z M414 502 C414 442 366 403 286 403 C272 403 260 403 247 404 L276 552 C295 553 315 554 336 554 C393 554 414 535 414 502 L414 502 Z M378 227 C378 174 334 125 249 125 C231 125 207 126 195 128 L224 287 C238 288 266 288 289 288 C348 288 378 267 378 227 L378 227 Z " />
<glyph glyph-name="C" unicode="C" horiz-adv-x="540" d="M584 662 C546 673 499 680 446 680 C179 680 43 455 43 230 C43 125 86 -9 299 -9 C352 -9 418 1 466 16 L471 158 C434 143 391 133 345 133 C249 133 217 182 217 260 C217 371 267 540 433 540 C470 540 509 532 542 520 L584 662 Z " />
<glyph glyph-name="D" unicode="D" horiz-adv-x="647" d="M651 436 C651 601 547 679 368 679 C287 679 198 676 146 673 L18 1 C78 -2 140 -5 222 -5 C505 -5 651 208 651 436 L651 436 Z M484 421 C484 312 426 129 244 129 C228 129 209 131 195 133 L274 546 C292 548 312 548 344 548 C450 548 484 500 484 421 L484 421 Z " />
<glyph glyph-name="E" unicode="E" horiz-adv-x="477" d="M518 675 L146 675 L18 0 L390 0 L415 134 L195 134 L224 283 L432 283 L457 410 L248 410 L273 544 L493 544 L518 675 Z " />
<glyph glyph-name="F" unicode="F" horiz-adv-x="454" d="M511 675 L146 675 L18 0 L170 0 L221 270 L422 270 L446 398 L246 398 L273 542 L485 542 L511 675 Z " />
<glyph glyph-name="G" unicode="G" horiz-adv-x="657" d="M679 659 C618 676 548 685 479 685 C224 685 45 495 45 248 C45 94 132 -11 331 -11 C407 -11 495 4 564 32 L627 360 L475 360 L433 140 C409 133 383 130 357 130 C250 130 211 194 211 268 C211 411 300 546 466 546 C520 546 583 533 634 512 L679 659 Z " />
<glyph glyph-name="H" unicode="H" horiz-adv-x="666" d="M694 675 L541 675 L492 416 L249 416 L298 675 L146 675 L18 0 L170 0 L224 281 L467 281 L413 0 L565 0 L694 675 Z " />
<glyph glyph-name="I" unicode="I" horiz-adv-x="270" d="M298 675 L146 675 L18 0 L170 0 L298 675 Z " />
<glyph glyph-name="J" unicode="J" horiz-adv-x="331" d="M362 675 L209 675 L119 200 C108 141 78 121 33 121 C13 121 -3 125 -16 130 L-42 -2 C-19 -7 4 -10 43 -10 C190 -10 249 83 268 182 L362 675 Z " />
<glyph glyph-name="K" unicode="K" horiz-adv-x="586" d="M660 675 L466 675 L242 377 L298 675 L146 675 L18 0 L170 0 L230 317 L343 0 L532 0 L382 338 L660 675 Z " />
<glyph glyph-name="L" unicode="L" horiz-adv-x="421" d="M396 138 L196 138 L298 675 L146 675 L18 0 L370 0 L396 138 Z " />
<glyph glyph-name="M" unicode="M" horiz-adv-x="858" d="M820 675 L644 675 L495 380 C470 329 449 284 429 232 L428 232 C427 285 426 332 420 379 L384 675 L213 675 L-21 0 L136 0 L220 264 C238 320 254 373 272 435 L273 435 C271 375 275 314 282 255 L311 0 L456 0 L590 276 C618 333 639 385 658 435 L659 435 C655 380 652 329 650 277 L639 0 L799 0 L820 675 Z " />
<glyph glyph-name="N" unicode="N" horiz-adv-x="666" d="M695 675 L547 675 L498 418 C488 364 478 299 472 245 C459 297 443 355 423 411 L326 675 L146 675 L18 0 L166 0 L219 283 C230 339 237 384 243 436 C254 391 268 338 286 287 L387 0 L566 0 L695 675 Z " />
<glyph glyph-name="O" unicode="O" horiz-adv-x="688" d="M693 438 C693 597 607 688 440 688 C213 688 40 477 40 235 C40 83 120 -13 295 -13 C513 -13 693 177 693 438 L693 438 Z M531 420 C531 267 443 130 318 130 C243 130 204 176 204 262 C204 403 283 546 415 546 C495 546 531 494 531 420 L531 420 Z " />
<glyph glyph-name="P" unicode="P" horiz-adv-x="525" d="M559 501 C559 620 471 680 340 680 C267 680 204 678 146 675 L18 0 L170 0 L212 224 C227 223 241 223 250 223 C426 223 559 348 559 501 L559 501 Z M399 482 C399 413 341 353 263 353 C255 353 247 353 238 355 L275 552 C287 553 298 553 316 553 C376 553 399 523 399 482 L399 482 Z " />
<glyph glyph-name="Q" unicode="Q" horiz-adv-x="688" d="M693 438 C693 597 606 688 439 688 C209 688 40 479 40 235 C40 83 120 -13 295 -13 C513 -13 693 177 693 438 L693 438 Z M629 -79 C453 -105 418 -34 233 -56 L208 -188 C368 -168 412 -242 604 -211 L629 -79 Z M531 420 C531 267 443 130 318 130 C243 130 204 176 204 262 C204 403 283 546 415 546 C495 546 531 494 531 420 L531 420 Z " />
<glyph glyph-name="R" unicode="R" horiz-adv-x="564" d="M570 521 C570 623 501 680 349 680 C274 680 203 679 146 675 L18 0 L170 0 L220 264 L229 264 L333 0 L511 0 L416 211 C405 237 393 263 382 286 C498 323 570 406 570 521 L570 521 Z M406 491 C406 426 355 375 280 375 C265 375 251 376 242 377 L275 550 C285 551 304 552 323 552 C382 552 406 530 406 491 L406 491 Z " />
<glyph glyph-name="S" unicode="S" horiz-adv-x="465" d="M475 678 C437 684 399 688 357 688 C171 688 80 579 80 449 C80 288 266 290 266 203 C266 152 227 125 152 125 C115 125 75 133 41 149 L14 3 C50 -8 96 -13 143 -13 C314 -13 433 96 433 231 C433 394 246 397 246 485 C246 524 276 558 353 558 C382 558 417 551 448 541 L475 678 Z " />
<glyph glyph-name="T" unicode="T" horiz-adv-x="496" d="M570 675 L101 675 L76 542 L234 542 L131 0 L283 0 L387 542 L545 542 L570 675 Z " />
<glyph glyph-name="U" unicode="U" horiz-adv-x="660" d="M688 675 L537 675 L458 260 C439 161 396 118 306 118 C225 118 199 160 215 241 L298 675 L145 675 L66 255 C37 106 78 -13 284 -13 C456 -13 572 68 606 248 L688 675 Z " />
<glyph glyph-name="V" unicode="V" horiz-adv-x="623" d="M712 675 L551 675 L367 315 C344 271 322 223 304 180 L302 180 C301 219 297 269 292 306 L245 675 L85 675 L182 0 L359 0 L712 675 Z " />
<glyph glyph-name="W" unicode="W" horiz-adv-x="932" d="M1002 675 L843 675 L707 351 C689 307 672 261 655 209 L654 209 C658 260 658 310 655 349 L630 675 L473 675 L323 343 C303 297 288 251 272 204 L271 204 C275 253 278 302 276 346 L261 675 L105 675 L140 0 L315 0 L456 323 C477 371 494 420 509 472 L510 472 C505 416 503 364 505 318 L523 0 L709 0 L1002 675 Z " />
<glyph glyph-name="X" unicode="X" horiz-adv-x="635" d="M694 675 L515 675 L356 457 L277 675 L107 675 L238 347 L-36 0 L149 0 L318 228 L400 0 L585 0 L437 339 L694 675 Z " />
<glyph glyph-name="Y" unicode="Y" horiz-adv-x="566" d="M655 675 L487 675 L387 517 C360 474 333 433 313 395 L311 395 C306 428 299 463 289 503 L246 675 L85 675 L209 235 L164 0 L316 0 L361 236 L655 675 Z " />
<glyph glyph-name="Z" unicode="Z" horiz-adv-x="521" d="M561 675 L137 675 L111 535 L241 535 C304 535 325 536 343 537 C327 520 312 503 298 485 L25 122 L2 0 L438 0 L465 144 L348 144 C270 144 234 144 220 142 C233 156 243 168 253 180 L537 548 L561 675 Z " />
<glyph glyph-name="bracketleft" unicode="&#x5b;" horiz-adv-x="325" d="M399 781 L169 781 L-20 -208 L211 -208 L233 -85 L144 -85 L286 659 L375 659 L399 781 Z " />
<glyph glyph-name="backslash" unicode="&#x5c;" horiz-adv-x="494" d="M425 -161 L246 757 L109 757 L287 -161 L425 -161 Z " />
<glyph glyph-name="bracketright" unicode="&#x5d;" horiz-adv-x="325" d="M372 781 L142 781 L118 659 L208 659 L66 -85 L-24 -85 L-47 -208 L184 -208 L372 781 Z " />
<glyph glyph-name="asciicircum" unicode="&#x5e;" horiz-adv-x="550" d="M514 387 L404 675 L290 675 L75 385 L167 333 L327 568 L401 333 L514 387 Z " />
<glyph glyph-name="underscore" unicode="&#x5f;" horiz-adv-x="550" d="M477 -121 L-62 -121 L-85 -244 L454 -244 L477 -121 Z " />
<glyph glyph-name="grave" unicode="&#x60;" horiz-adv-x="369" d="M382 636 L197 760 L129 660 L325 553 L382 636 Z " />
<glyph glyph-name="a" unicode="a" horiz-adv-x="580" d="M540 491 C478 503 412 508 350 508 C131 508 26 337 26 146 C26 39 68 -12 147 -12 C232 -12 297 57 340 129 L342 129 C323 76 312 36 304 -1 C378 -4 460 0 533 8 L551 106 C523 108 490 112 468 116 L540 491 Z M369 382 L364 355 C346 260 266 120 210 120 C190 120 181 137 181 175 C181 267 230 388 323 388 C342 388 356 385 369 382 L369 382 Z " />
<glyph glyph-name="b" unicode="b" horiz-adv-x="548" d="M532 351 C532 458 491 509 412 509 C332 509 267 454 218 367 L216 367 C243 437 260 487 270 538 L307 731 C224 734 142 730 69 722 L51 624 C80 622 112 618 135 614 L20 10 C78 -4 140 -11 209 -11 C427 -11 532 160 532 351 L532 351 Z M378 322 C378 230 329 109 235 109 C217 109 203 112 189 115 L195 143 C213 237 292 377 349 377 C369 377 378 360 378 322 L378 322 Z " />
<glyph glyph-name="c" unicode="c" horiz-adv-x="398" d="M420 497 C390 504 359 508 325 508 C144 508 28 357 28 166 C28 56 84 -12 219 -12 C258 -12 298 -6 332 6 L344 137 C320 128 291 123 264 123 C207 123 187 156 187 199 C187 280 227 378 318 378 C343 378 365 374 385 365 L420 497 Z " />
<glyph glyph-name="d" unicode="d" horiz-adv-x="580" d="M585 731 C502 734 420 730 348 722 L329 624 C358 622 391 618 413 614 L393 504 C374 507 362 508 350 508 C131 508 26 337 26 146 C26 39 68 -12 147 -12 C232 -12 297 57 340 129 L342 129 C323 76 311 35 305 -1 C378 -4 460 0 533 8 L551 106 C523 108 490 112 468 116 L585 731 Z M369 382 L364 355 C346 260 266 120 210 120 C190 120 181 137 181 175 C181 267 230 388 323 388 C342 388 356 385 369 382 L369 382 Z " />
<glyph glyph-name="e" unicode="e" horiz-adv-x="491" d="M485 381 C485 441 450 508 314 508 C167 508 28 380 28 162 C28 54 75 -11 210 -11 C277 -11 346 1 406 22 L405 138 C357 119 305 108 258 108 C195 108 178 123 178 166 C178 173 178 184 179 192 C363 197 485 254 485 381 L485 381 Z M339 361 C339 312 285 292 194 290 C209 343 243 396 298 396 C324 396 339 383 339 361 L339 361 Z " />
<glyph glyph-name="f" unicode="f" horiz-adv-x="352" d="M463 731 C438 737 410 739 384 739 C236 739 169 666 146 535 L139 497 L65 497 L41 380 L116 380 L42 -11 C25 -98 -2 -118 -48 -118 C-64 -118 -84 -115 -99 -111 L-134 -236 C-106 -242 -75 -245 -47 -245 C79 -245 162 -171 191 -13 L265 380 L365 380 L388 497 L289 497 L295 529 C307 594 328 616 377 616 C393 616 414 612 430 608 L463 731 Z " />
<glyph glyph-name="g" unicode="g" horiz-adv-x="541" d="M540 491 C478 503 412 508 350 508 C132 508 26 337 26 146 C26 39 68 -12 147 -12 C232 -12 297 57 340 128 L342 127 C317 67 306 34 297 -10 C282 -84 233 -118 145 -118 C100 -118 47 -108 6 -87 L-29 -225 C12 -238 65 -247 122 -247 C319 -247 412 -170 441 -22 L540 491 Z M369 382 L364 355 C346 260 266 120 210 120 C190 120 181 137 181 175 C181 267 230 388 323 388 C342 388 356 385 369 382 L369 382 Z " />
<glyph glyph-name="h" unicode="h" horiz-adv-x="559" d="M526 346 C544 439 516 509 417 509 C329 509 266 447 221 370 L219 370 C246 436 263 488 272 536 L309 731 C226 734 144 730 71 722 L53 624 C82 622 114 618 137 614 L20 0 L170 0 L195 136 C216 246 298 377 349 377 C372 377 379 358 370 308 L311 0 L460 0 L526 346 Z " />
<glyph glyph-name="i" unicode="i" horiz-adv-x="302" d="M342 653 C342 695 306 735 255 735 C204 735 156 694 156 638 C156 595 191 555 243 555 C294 555 342 595 342 653 L342 653 Z M297 498 C214 501 132 497 60 489 L41 391 C70 389 103 385 125 381 L52 0 L202 0 L297 498 Z " />
<glyph glyph-name="j" unicode="j" horiz-adv-x="302" d="M342 653 C342 695 306 735 255 735 C204 735 156 694 156 638 C156 595 191 555 243 555 C294 555 342 595 342 653 L342 653 Z M297 498 C214 501 132 497 60 489 L41 391 C70 389 103 385 125 381 L48 -17 C34 -91 12 -117 -34 -117 C-49 -117 -69 -113 -85 -106 L-117 -235 C-97 -241 -72 -245 -48 -245 C102 -245 171 -160 196 -28 L297 498 Z " />
<glyph glyph-name="k" unicode="k" horiz-adv-x="525" d="M551 454 L431 529 L227 299 L309 731 C226 734 144 730 71 722 L53 624 C82 622 114 618 137 614 L20 0 L170 0 L216 241 L302 0 L483 0 L361 266 L551 454 Z " />
<glyph glyph-name="l" unicode="l" horiz-adv-x="269" d="M309 731 C226 734 144 730 71 722 L53 624 C82 622 114 618 137 614 L20 0 L170 0 L309 731 Z " />
<glyph glyph-name="m" unicode="m" horiz-adv-x="879" d="M845 346 C863 439 835 509 738 509 C650 509 588 448 542 365 L541 366 C546 386 549 399 549 411 C549 478 506 509 447 509 C359 509 299 447 254 370 L252 370 C269 414 282 459 290 498 C215 501 132 497 60 489 L41 391 C70 389 103 385 125 381 L52 0 L202 0 L228 136 C250 255 334 377 380 377 C403 377 410 358 400 308 L341 0 L490 0 L516 136 C538 255 622 377 668 377 C691 377 698 358 688 308 L629 0 L779 0 L845 346 Z " />
<glyph glyph-name="n" unicode="n" horiz-adv-x="592" d="M558 346 C576 439 548 509 450 509 C361 509 299 447 254 370 L252 370 C274 429 284 470 290 498 C215 501 132 497 60 489 L41 391 C70 389 103 385 125 381 L52 0 L202 0 L228 136 C248 246 331 377 381 377 C404 377 412 358 402 308 L343 0 L493 0 L558 346 Z " />
<glyph glyph-name="o" unicode="o" horiz-adv-x="549" d="M535 325 C535 431 482 508 334 508 C176 508 27 383 27 169 C27 57 81 -11 229 -11 C389 -11 535 121 535 325 L535 325 Z M377 306 C377 217 330 121 248 121 C200 121 184 150 184 192 C184 273 228 377 310 377 C359 377 377 352 377 306 L377 306 Z " />
<glyph glyph-name="p" unicode="p" horiz-adv-x="580" d="M567 351 C567 458 525 509 446 509 C367 509 302 454 254 369 L252 369 C272 426 282 462 290 498 C215 501 132 497 60 489 L41 391 C70 389 103 385 125 381 L7 -237 L157 -237 L200 -7 C219 -10 230 -10 243 -10 C462 -10 567 160 567 351 L567 351 Z M412 322 C412 230 363 109 270 109 C254 109 238 112 224 117 L229 143 C248 237 327 377 383 377 C403 377 412 360 412 322 L412 322 Z " />
<glyph glyph-name="q" unicode="q" horiz-adv-x="545" d="M540 491 C478 502 412 508 350 508 C131 508 26 337 26 146 C26 39 68 -12 147 -12 C232 -12 297 57 340 129 L342 129 C314 62 298 12 287 -48 L251 -238 C334 -241 416 -238 489 -230 L507 -132 C478 -130 446 -126 423 -122 L540 491 Z M369 382 L364 355 C346 260 266 120 210 120 C190 120 181 137 181 175 C181 267 230 388 323 388 C342 388 356 385 369 382 L369 382 Z " />
<glyph glyph-name="r" unicode="r" horiz-adv-x="395" d="M442 506 C357 524 304 465 253 369 L251 369 C271 423 281 462 288 498 C214 501 132 497 60 489 L41 391 C70 389 103 385 125 381 L52 0 L202 0 L222 105 C255 280 332 388 410 359 L442 506 Z " />
<glyph glyph-name="s" unicode="s" horiz-adv-x="374" d="M366 502 C341 506 312 508 282 508 C131 508 58 435 58 340 C58 224 171 208 171 150 C171 124 147 109 105 109 C82 109 54 115 32 124 L6 -1 C31 -8 61 -11 94 -11 C257 -11 330 80 330 164 C330 271 214 306 214 355 C214 380 234 396 277 396 C297 396 318 393 338 387 L366 502 Z " />
<glyph glyph-name="t" unicode="t" horiz-adv-x="369" d="M390 497 L284 497 L318 674 L163 644 L135 497 L62 497 L38 380 L112 380 L72 165 C49 41 82 -11 192 -11 C223 -11 264 -6 300 3 L316 123 C299 119 281 116 258 116 C223 116 215 130 224 178 L262 380 L367 380 L390 497 Z " />
<glyph glyph-name="u" unicode="u" horiz-adv-x="624" d="M587 497 L437 497 L412 361 C391 251 309 120 258 120 C235 120 228 139 237 189 L296 498 C220 501 134 497 60 489 L41 391 C70 389 103 385 125 381 L81 151 C63 58 91 -12 190 -12 C278 -12 341 50 386 127 L388 127 C365 68 355 27 351 -1 C424 -4 506 0 579 8 L597 106 C569 108 536 112 514 116 L587 497 Z " />
<glyph glyph-name="v" unicode="v" horiz-adv-x="505" d="M551 478 L404 519 L251 199 L249 199 C247 241 243 287 237 331 L212 497 L54 497 L138 0 L295 0 L551 478 Z " />
<glyph glyph-name="w" unicode="w" horiz-adv-x="785" d="M827 479 L682 518 C635 412 587 304 542 198 L541 198 C539 248 537 303 530 360 L514 497 L374 497 C326 395 277 290 238 199 L237 199 C236 257 232 309 228 359 L217 497 L61 497 L113 0 L262 0 C309 95 356 191 398 289 L399 289 C399 243 401 205 405 170 L424 0 L592 0 L827 479 Z " />
<glyph glyph-name="x" unicode="x" horiz-adv-x="530" d="M566 459 L443 529 L294 348 L237 497 L71 497 L178 262 L-28 39 L99 -33 L249 148 L304 0 L479 0 L369 240 L566 459 Z " />
<glyph glyph-name="y" unicode="y" horiz-adv-x="529" d="M567 479 L425 518 C369 370 315 247 257 136 L255 136 C257 145 258 156 258 165 C258 270 237 401 212 497 L45 497 C91 333 125 169 125 20 C125 -33 111 -65 86 -88 C64 -108 34 -118 4 -118 C-16 -118 -36 -115 -56 -108 L-80 -237 C-59 -242 -28 -245 -3 -245 C65 -245 127 -219 197 -150 C310 -37 416 131 567 479 L567 479 Z " />
<glyph glyph-name="z" unicode="z" horiz-adv-x="441" d="M448 497 L103 497 L76 360 L144 360 C188 360 217 361 230 362 L23 109 L2 0 L356 0 L382 140 L317 140 C286 140 240 140 224 139 L426 388 L448 497 Z " />
<glyph glyph-name="braceleft" unicode="&#x7b;" horiz-adv-x="368" d="M446 781 L422 781 C283 781 211 709 182 542 L170 476 C154 388 114 370 54 368 L32 254 C89 251 123 228 106 141 L84 33 C51 -137 96 -208 234 -208 L256 -208 L279 -85 C218 -85 205 -66 224 33 L245 140 C268 257 236 302 187 309 L187 311 C240 319 286 358 309 477 L321 543 C340 641 361 659 422 659 L446 781 Z " />
<glyph glyph-name="bar" unicode="&#x7c;" horiz-adv-x="284" d="M303 763 L184 763 L-6 -237 L112 -237 L303 763 Z " />
<glyph glyph-name="braceright" unicode="&#x7d;" horiz-adv-x="368" d="M374 368 C316 370 283 389 300 476 L313 542 C346 709 302 781 164 781 L141 781 L118 659 C179 659 193 642 174 543 L161 477 C138 360 170 320 219 312 L219 310 C166 303 120 259 97 140 L76 33 C57 -66 36 -85 -25 -85 L-48 -208 L-25 -208 C112 -208 183 -140 216 33 L236 141 C253 229 292 251 353 254 L374 368 Z " />
<glyph glyph-name="asciitilde" unicode="&#x7e;" horiz-adv-x="550" d="M581 590 L468 590 C462 539 446 515 419 515 C371 515 368 616 252 616 C153 616 85 550 79 423 L192 423 C198 475 214 499 241 499 C289 499 292 398 407 398 C507 398 575 464 581 590 L581 590 Z " />
<glyph glyph-name="nbspace" unicode="&#xa0;" horiz-adv-x="218" d="" />
<glyph glyph-name="exclamdown" unicode="&#xa1;" horiz-adv-x="317" d="M279 429 C279 471 246 509 195 509 C144 509 100 471 100 417 C100 374 133 336 184 336 C235 336 279 374 279 429 L279 429 Z M230 296 L99 296 L-19 -214 L156 -214 L230 296 Z " />
<glyph glyph-name="cent" unicode="&#xa2;" horiz-adv-x="550" d="M532 550 C505 560 470 568 441 570 L457 650 L343 650 L327 565 C178 538 85 419 85 273 C85 168 141 108 238 96 L219 0 L333 0 L351 95 C384 98 430 110 462 124 L442 242 C406 226 376 221 343 221 C284 221 248 247 248 300 C248 377 303 448 388 448 C420 448 453 441 477 429 L532 550 Z " />
<glyph glyph-name="sterling" unicode="&#xa3;" horiz-adv-x="550" d="M550 647 C509 657 460 663 421 663 C187 663 154 507 148 383 L75 383 L53 265 L141 265 C139 201 116 153 42 103 L23 0 L455 0 L480 130 L301 130 C277 130 253 129 232 128 C272 165 294 210 295 265 L426 265 L448 383 L303 383 C306 480 324 537 406 537 C444 537 479 528 504 519 L550 647 Z " />
<glyph glyph-name="currency" unicode="&#xa4;" horiz-adv-x="550" d="M583 531 L479 619 L395 526 C379 531 360 533 342 533 C320 533 297 530 275 524 L223 618 L93 538 L145 448 C100 397 82 337 82 279 C82 251 86 229 95 211 L13 127 L120 40 L205 133 C218 130 233 128 251 128 C273 128 296 132 318 139 L373 39 L505 121 L448 215 C494 272 511 329 511 390 C511 412 507 432 501 446 L583 531 Z M377 366 C377 313 346 238 272 238 C234 238 216 264 216 301 C216 364 256 423 318 423 C358 423 377 402 377 366 L377 366 Z " />
<glyph glyph-name="yen" unicode="&#xa5;" horiz-adv-x="550" d="M622 650 L453 650 L364 507 C345 477 322 438 310 414 L308 414 C304 437 298 473 291 506 L257 650 L93 650 L183 335 L71 335 L53 240 L201 240 L192 189 L43 189 L25 94 L174 94 L156 0 L309 0 L327 94 L476 94 L494 189 L345 189 L355 240 L504 240 L522 335 L410 335 L622 650 Z " />
<glyph glyph-name="brokenbar" unicode="&#xa6;" horiz-adv-x="284" d="M303 763 L184 763 L115 395 L233 395 L303 763 Z M184 141 L66 141 L-6 -237 L112 -237 L184 141 Z " />
<glyph glyph-name="section" unicode="&#xa7;" horiz-adv-x="525" d="M501 732 C474 736 442 739 408 739 C215 739 150 620 150 544 C150 513 157 490 171 466 C108 425 68 360 68 285 C68 144 227 95 227 23 C227 -1 210 -43 132 -43 C107 -43 83 -38 57 -30 L24 -159 C50 -165 85 -169 122 -169 C300 -169 390 -68 390 34 C390 62 382 90 371 106 C429 143 473 208 473 279 C473 438 315 487 315 551 C315 582 332 615 401 615 C423 615 447 612 471 605 L501 732 Z M336 252 C336 227 326 200 300 183 C234 247 206 279 206 316 C206 344 217 370 243 389 C308 321 336 291 336 252 L336 252 Z " />
<glyph glyph-name="dieresis" unicode="&#xa8;" horiz-adv-x="535" d="M513 647 C513 688 480 724 437 724 C393 724 355 688 355 643 C355 601 388 566 431 566 C475 566 513 601 513 647 L513 647 Z M304 647 C304 688 272 724 228 724 C184 724 146 688 146 643 C146 601 179 566 222 566 C266 566 304 601 304 647 L304 647 Z " />
<glyph glyph-name="copyright" unicode="&#xa9;" horiz-adv-x="750" d="M745 352 C745 534 601 679 415 679 C223 679 52 522 52 314 C52 132 195 -13 382 -13 C573 -13 745 142 745 352 L745 352 Z M631 345 C631 204 516 98 388 98 C263 98 166 199 166 319 C166 462 281 568 409 568 C534 568 631 467 631 345 L631 345 Z M522 495 C502 505 476 512 436 512 C309 512 231 403 231 289 C231 204 284 156 366 156 C400 156 435 163 468 178 L464 274 C443 264 419 260 398 260 C369 260 354 276 354 306 C354 358 378 413 433 413 C455 413 475 407 485 397 L522 495 Z " />
<glyph glyph-name="ordfeminine" unicode="&#xaa;" horiz-adv-x="407" d="M309 585 L306 565 C294 490 239 411 201 411 C186 411 181 422 181 449 C181 514 216 589 276 589 C288 589 298 587 309 585 L309 585 Z M406 270 L61 270 L39 152 L384 152 L406 270 Z M458 407 C440 409 412 412 394 415 C397 430 440 655 444 674 C395 683 344 686 299 686 C142 686 58 563 58 422 C58 344 91 304 152 304 C206 304 251 336 286 394 L287 394 C277 364 269 337 262 313 C320 311 383 314 442 321 L458 407 Z " />
<glyph glyph-name="guillemotleft" unicode="&#xab;" horiz-adv-x="538" d="M534 436 L426 491 L278 299 L360 94 L484 147 L421 292 L534 436 Z M299 442 L187 497 L48 300 L119 88 L245 139 L191 292 L299 442 Z " />
<glyph glyph-name="logicalnot" unicode="&#xac;" horiz-adv-x="550" d="M521 362 L64 362 L40 234 L361 234 L334 90 L470 90 L521 362 Z " />
<glyph glyph-name="registered" unicode="&#xae;" horiz-adv-x="554" d="M576 545 C576 673 476 770 347 770 C216 770 96 666 96 517 C96 390 195 293 323 293 C454 293 576 398 576 545 L576 545 Z M486 541 C486 446 411 375 328 375 C247 375 186 443 186 523 C186 617 260 688 344 688 C425 688 486 620 486 541 L486 541 Z M439 592 C439 625 418 645 366 645 L273 645 L231 426 L297 426 L312 504 L321 504 L334 426 L412 426 L397 491 C395 500 391 512 387 519 C423 535 439 559 439 592 L439 592 Z M363 578 C363 561 348 550 330 550 L321 550 L329 594 L342 594 C356 594 363 590 363 578 L363 578 Z " />
<glyph glyph-name="macron" unicode="&#xaf;" horiz-adv-x="387" d="M423 698 L148 698 L127 588 L403 588 L423 698 Z " />
<glyph glyph-name="degree" unicode="&#xb0;" horiz-adv-x="388" d="M425 607 C425 674 388 739 277 739 C198 739 104 685 104 577 C104 499 154 443 250 443 C334 443 425 494 425 607 L425 607 Z M314 598 C314 562 292 538 262 538 C232 538 216 558 216 587 C216 624 240 646 270 646 C301 646 314 619 314 598 L314 598 Z " />
<glyph glyph-name="plusminus" unicode="&#xb1;" horiz-adv-x="550" d="M562 479 L397 479 L430 653 L285 653 L251 479 L86 479 L63 353 L228 353 L195 179 L340 179 L373 353 L538 353 L562 479 Z M491 127 L24 127 L0 0 L466 0 L491 127 Z " />
<glyph glyph-name="twosuperior" unicode="&#xb2;" horiz-adv-x="319" d="M340 582 C340 627 306 661 226 661 C189 661 151 652 120 641 L124 553 C142 562 164 568 180 568 C197 568 204 560 204 548 C204 531 191 514 136 475 L82 437 L65 352 L305 352 L322 443 L229 443 L256 462 C316 506 340 538 340 582 L340 582 Z " />
<glyph glyph-name="threesuperior" unicode="&#xb3;" horiz-adv-x="397" d="M331 590 C331 629 303 661 222 661 C185 661 143 653 120 645 L123 574 C139 583 161 587 179 587 C199 587 206 580 206 570 C206 548 186 533 126 533 L117 533 L105 467 C162 476 188 468 188 449 C188 428 168 415 134 415 C116 415 98 419 86 423 L66 350 C80 347 117 341 144 341 C274 341 317 399 317 451 C317 479 301 502 273 505 C315 522 331 556 331 590 L331 590 Z " />
<glyph glyph-name="acute" unicode="&#xb4;" horiz-adv-x="388" d="M409 657 L352 760 L154 636 L203 553 L409 657 Z " />
<glyph glyph-name="mu" unicode="&#xb5;" horiz-adv-x="625" d="M591 57 L551 127 C538 112 524 103 510 103 C493 103 487 113 499 173 L560 497 L411 497 L381 337 C359 220 283 120 233 120 C214 120 201 138 211 189 L269 497 L120 497 L-20 -237 L138 -237 L162 8 C171 -2 186 -8 202 -8 C261 -8 323 40 359 109 L360 109 C355 91 353 79 353 66 C353 14 379 -11 443 -11 C508 -11 554 15 591 57 L591 57 Z " />
<glyph glyph-name="paragraph" unicode="&#xb6;" horiz-adv-x="595" d="M638 675 L454 675 L331 27 L264 27 L241 -96 L432 -96 L555 552 L615 552 L638 675 Z M376 675 C192 675 85 546 85 404 C85 293 150 219 290 219 L376 675 Z " />
<glyph glyph-name="periodcentered" unicode="&#xb7;" horiz-adv-x="292" d="M257 301 C257 350 218 393 165 393 C111 393 65 350 65 296 C65 246 105 203 158 203 C211 203 257 246 257 301 L257 301 Z " />
<glyph glyph-name="cedilla" unicode="&#xb8;" horiz-adv-x="392" d="M200 -39 L72 -74 C108 -136 89 -180 35 -234 L151 -234 C215 -180 237 -113 200 -39 L200 -39 Z " />
<glyph glyph-name="onesuperior" unicode="&#xb9;" horiz-adv-x="316" d="M319 650 L208 650 L114 617 L115 530 L181 555 L143 352 L263 352 L319 650 Z " />
<glyph glyph-name="ordmasculine" unicode="&#xba;" horiz-adv-x="421" d="M449 548 C449 623 416 687 302 687 C165 687 78 579 78 440 C78 361 122 304 224 304 C345 304 449 398 449 548 L449 548 Z M384 270 L57 270 L35 152 L362 152 L384 270 Z M327 533 C327 472 297 408 242 408 C210 408 199 427 199 458 C199 507 221 583 285 583 C318 583 327 562 327 533 L327 533 Z " />
<glyph glyph-name="guillemotright" unicode="&#xbb;" horiz-adv-x="538" d="M522 286 L451 498 L325 447 L379 294 L271 143 L383 88 L522 286 Z M292 287 L209 491 L86 439 L148 294 L36 150 L144 95 L292 287 Z " />
<glyph glyph-name="onequarter" unicode="&#xbc;" horiz-adv-x="721" d="M318 650 L207 650 L113 617 L115 530 L181 555 L142 352 L262 352 L318 650 Z M712 598 L633 672 L20 50 L99 -24 L712 598 Z M661 126 L621 126 L653 298 L498 298 L370 121 L365 44 L501 44 L493 0 L596 0 L605 44 L645 44 L661 126 Z M538 230 L517 125 L461 125 L538 230 Z " />
<glyph glyph-name="onehalf" unicode="&#xbd;" horiz-adv-x="723" d="M669 230 C669 275 636 309 555 309 C518 309 481 300 449 289 L454 201 C472 210 494 215 509 215 C527 215 534 208 534 196 C534 179 521 162 465 123 L412 85 L395 0 L635 0 L652 91 L558 91 L586 110 C646 153 669 185 669 230 L669 230 Z M712 598 L633 672 L20 50 L99 -24 L712 598 Z M318 650 L207 650 L113 617 L115 530 L181 555 L142 352 L262 352 L318 650 Z " />
<glyph glyph-name="threequarters" unicode="&#xbe;" horiz-adv-x="729" d="M545 230 L525 125 L468 125 L545 230 Z M669 126 L628 126 L660 298 L506 298 L378 121 L372 44 L509 44 L500 0 L604 0 L613 44 L653 44 L669 126 Z M719 598 L640 672 L27 50 L106 -24 L719 598 Z M336 590 C336 629 307 661 226 661 C190 661 148 653 125 645 L127 574 C144 583 165 587 183 587 C204 587 210 580 210 570 C210 548 191 533 130 533 L122 533 L109 467 C167 476 193 468 193 449 C193 428 173 415 138 415 C121 415 103 419 91 423 L70 350 C84 347 121 341 148 341 C278 341 322 399 322 451 C322 479 305 502 278 505 C320 522 336 556 336 590 L336 590 Z " />
<glyph glyph-name="questiondown" unicode="&#xbf;" horiz-adv-x="446" d="M384 429 C384 471 351 509 300 509 C249 509 205 471 205 417 C205 374 238 336 289 336 C340 336 384 374 384 429 L384 429 Z M347 296 L200 296 C219 154 -6 151 -6 -36 C-6 -135 85 -217 288 -224 L333 -86 C238 -81 162 -60 162 -6 C162 89 377 105 347 296 L347 296 Z " />
<glyph glyph-name="Agrave" unicode="&#xc0;" horiz-adv-x="621" d="M477 792 L267 867 L223 761 L444 710 L477 792 Z M584 0 L481 675 L307 675 L-46 0 L111 0 L175 125 L404 125 L421 0 L584 0 Z M389 248 L236 248 L315 402 C332 434 346 467 358 496 L359 496 C361 466 363 434 368 402 L389 248 Z " />
<glyph glyph-name="Aacute" unicode="&#xc1;" horiz-adv-x="621" d="M567 761 L548 867 L321 792 L335 710 L567 761 Z M584 0 L481 675 L307 675 L-46 0 L111 0 L175 125 L404 125 L421 0 L584 0 Z M389 248 L236 248 L315 402 C332 434 346 467 358 496 L359 496 C361 466 363 434 368 402 L389 248 Z " />
<glyph glyph-name="Acircumflex" unicode="&#xc2;" horiz-adv-x="621" d="M571 782 L413 869 L236 781 L262 710 L403 767 L531 710 L571 782 Z M584 0 L481 675 L307 675 L-46 0 L111 0 L175 125 L404 125 L421 0 L584 0 Z M389 248 L236 248 L315 402 C332 434 346 467 358 496 L359 496 C361 466 363 434 368 402 L389 248 Z " />
<glyph glyph-name="Atilde" unicode="&#xc3;" horiz-adv-x="621" d="M603 811 L532 861 C515 834 500 820 477 820 C441 820 424 864 356 864 C299 864 255 833 221 776 L293 726 C309 753 324 767 348 767 C384 767 400 723 468 723 C524 723 570 754 603 811 L603 811 Z M584 0 L481 675 L307 675 L-46 0 L111 0 L175 125 L404 125 L421 0 L584 0 Z M389 248 L236 248 L315 402 C332 434 346 467 358 496 L359 496 C361 466 363 434 368 402 L389 248 Z " />
<glyph glyph-name="Adieresis" unicode="&#xc4;" horiz-adv-x="621" d="M585 794 C585 828 557 859 519 859 C482 859 449 828 449 787 C449 751 477 721 515 721 C552 721 585 752 585 794 L585 794 Z M371 794 C371 828 343 859 305 859 C268 859 235 828 235 787 C235 751 264 721 301 721 C338 721 371 752 371 794 L371 794 Z M584 0 L481 675 L307 675 L-46 0 L111 0 L175 125 L404 125 L421 0 L584 0 Z M389 248 L236 248 L315 402 C332 434 346 467 358 496 L359 496 C361 466 363 434 368 402 L389 248 Z " />
<glyph glyph-name="Aring" unicode="&#xc5;" horiz-adv-x="621" d="M584 0 L488 628 C514 650 532 683 532 723 C532 793 476 847 401 847 C327 847 260 792 260 711 C260 682 270 657 288 638 L-46 0 L111 0 L175 125 L404 125 L421 0 L584 0 Z M446 720 C446 690 423 666 394 666 C366 666 346 688 346 715 C346 744 368 768 398 768 C427 768 446 746 446 720 L446 720 Z M388 248 L235 248 L302 375 C323 417 341 458 356 494 L358 494 C359 456 363 420 368 383 L388 248 Z " />
<glyph glyph-name="AE" unicode="&#xc6;" horiz-adv-x="767" d="M808 675 L350 675 L-79 0 L84 0 L169 134 L343 134 L316 0 L686 0 L711 134 L488 134 L517 283 L726 283 L750 410 L541 410 L567 544 L783 544 L808 675 Z M422 547 L366 256 L242 256 L331 393 C364 444 393 497 420 547 L422 547 Z " />
<glyph glyph-name="Ccedilla" unicode="&#xc7;" horiz-adv-x="540" d="M584 662 C546 673 499 680 446 680 C179 680 43 455 43 230 C43 125 86 -9 299 -9 C352 -9 418 1 466 16 L471 158 C434 143 391 133 345 133 C249 133 217 182 217 260 C217 371 267 540 433 540 C470 540 509 532 542 520 L584 662 Z M308 -39 L180 -74 C216 -136 197 -180 143 -234 L259 -234 C323 -180 345 -113 308 -39 L308 -39 Z " />
<glyph glyph-name="Egrave" unicode="&#xc8;" horiz-adv-x="477" d="M436 792 L227 867 L182 761 L403 710 L436 792 Z M518 675 L146 675 L18 0 L390 0 L415 134 L195 134 L224 283 L432 283 L457 410 L248 410 L273 544 L493 544 L518 675 Z " />
<glyph glyph-name="Eacute" unicode="&#xc9;" horiz-adv-x="477" d="M524 761 L505 867 L278 792 L292 710 L524 761 Z M518 675 L146 675 L18 0 L390 0 L415 134 L195 134 L224 283 L432 283 L457 410 L248 410 L273 544 L493 544 L518 675 Z " />
<glyph glyph-name="Ecircumflex" unicode="&#xca;" horiz-adv-x="477" d="M517 782 L360 869 L183 781 L209 710 L350 767 L478 710 L517 782 Z M518 675 L146 675 L18 0 L390 0 L415 134 L195 134 L224 283 L432 283 L457 410 L248 410 L273 544 L493 544 L518 675 Z " />
<glyph glyph-name="Edieresis" unicode="&#xcb;" horiz-adv-x="477" d="M524 794 C524 828 497 859 458 859 C421 859 388 828 388 787 C388 751 417 721 454 721 C492 721 524 752 524 794 L524 794 Z M310 794 C310 828 283 859 245 859 C207 859 175 828 175 787 C175 751 203 721 240 721 C278 721 310 752 310 794 L310 794 Z M518 675 L146 675 L18 0 L390 0 L415 134 L195 134 L224 283 L432 283 L457 410 L248 410 L273 544 L493 544 L518 675 Z " />
<glyph glyph-name="Igrave" unicode="&#xcc;" horiz-adv-x="270" d="M338 792 L128 867 L83 761 L304 710 L338 792 Z M298 675 L146 675 L18 0 L170 0 L298 675 Z " />
<glyph glyph-name="Iacute" unicode="&#xcd;" horiz-adv-x="270" d="M387 761 L369 867 L142 792 L156 710 L387 761 Z M298 675 L146 675 L18 0 L170 0 L298 675 Z " />
<glyph glyph-name="Icircumflex" unicode="&#xce;" horiz-adv-x="270" d="M409 782 L251 869 L75 781 L100 710 L242 767 L370 710 L409 782 Z M298 675 L146 675 L18 0 L170 0 L298 675 Z " />
<glyph glyph-name="Idieresis" unicode="&#xcf;" horiz-adv-x="270" d="M413 794 C413 828 385 859 347 859 C310 859 277 828 277 787 C277 751 306 721 343 721 C380 721 413 752 413 794 L413 794 Z M199 794 C199 828 172 859 133 859 C96 859 63 828 63 787 C63 751 92 721 129 721 C166 721 199 752 199 794 L199 794 Z M298 675 L146 675 L18 0 L170 0 L298 675 Z " />
<glyph glyph-name="Eth" unicode="&#xd0;" horiz-adv-x="663" d="M656 436 C656 601 553 679 373 679 C293 679 207 676 155 673 L103 399 L37 399 L15 282 L81 282 L27 1 C87 -2 150 -5 231 -5 C514 -5 656 208 656 436 L656 436 Z M493 421 C493 312 435 129 254 129 C237 129 218 131 205 133 L233 282 L338 282 L361 399 L256 399 L283 546 C301 548 321 548 353 548 C459 548 493 500 493 421 L493 421 Z " />
<glyph glyph-name="Ntilde" unicode="&#xd1;" horiz-adv-x="666" d="M636 811 L564 861 C548 834 532 820 509 820 C473 820 456 864 388 864 C332 864 288 833 254 776 L325 726 C342 753 357 767 381 767 C417 767 433 723 501 723 C556 723 602 754 636 811 L636 811 Z M695 675 L547 675 L498 418 C488 364 478 299 472 245 C459 297 443 355 423 411 L326 675 L146 675 L18 0 L166 0 L219 283 C230 339 237 384 243 436 C254 391 268 338 286 287 L387 0 L566 0 L695 675 Z " />
<glyph glyph-name="Ograve" unicode="&#xd2;" horiz-adv-x="688" d="M549 792 L339 867 L294 761 L515 710 L549 792 Z M693 438 C693 597 607 688 440 688 C213 688 40 477 40 235 C40 83 120 -13 295 -13 C513 -13 693 177 693 438 L693 438 Z M531 420 C531 267 443 130 318 130 C243 130 204 176 204 262 C204 403 283 546 415 546 C495 546 531 494 531 420 L531 420 Z " />
<glyph glyph-name="Oacute" unicode="&#xd3;" horiz-adv-x="688" d="M622 761 L603 867 L376 792 L390 710 L622 761 Z M693 438 C693 597 607 688 440 688 C213 688 40 477 40 235 C40 83 120 -13 295 -13 C513 -13 693 177 693 438 L693 438 Z M531 420 C531 267 443 130 318 130 C243 130 204 176 204 262 C204 403 283 546 415 546 C495 546 531 494 531 420 L531 420 Z " />
<glyph glyph-name="Ocircumflex" unicode="&#xd4;" horiz-adv-x="688" d="M630 782 L472 869 L296 781 L321 710 L463 767 L591 710 L630 782 Z M693 438 C693 597 607 688 440 688 C213 688 40 477 40 235 C40 83 120 -13 295 -13 C513 -13 693 177 693 438 L693 438 Z M531 420 C531 267 443 130 318 130 C243 130 204 176 204 262 C204 403 283 546 415 546 C495 546 531 494 531 420 L531 420 Z " />
<glyph glyph-name="Otilde" unicode="&#xd5;" horiz-adv-x="688" d="M657 811 L586 861 C569 834 554 820 531 820 C495 820 478 864 410 864 C353 864 309 833 275 776 L347 726 C363 753 378 767 402 767 C438 767 454 723 522 723 C578 723 624 754 657 811 L657 811 Z M693 438 C693 597 607 688 440 688 C213 688 40 477 40 235 C40 83 120 -13 295 -13 C513 -13 693 177 693 438 L693 438 Z M531 420 C531 267 443 130 318 130 C243 130 204 176 204 262 C204 403 283 546 415 546 C495 546 531 494 531 420 L531 420 Z " />
<glyph glyph-name="Odieresis" unicode="&#xd6;" horiz-adv-x="688" d="M643 794 C643 828 615 859 577 859 C540 859 507 828 507 787 C507 751 535 721 573 721 C610 721 643 752 643 794 L643 794 Z M429 794 C429 828 401 859 363 859 C326 859 293 828 293 787 C293 751 321 721 359 721 C396 721 429 752 429 794 L429 794 Z M693 438 C693 597 607 688 440 688 C213 688 40 477 40 235 C40 83 120 -13 295 -13 C513 -13 693 177 693 438 L693 438 Z M531 420 C531 267 443 130 318 130 C243 130 204 176 204 262 C204 403 283 546 415 546 C495 546 531 494 531 420 L531 420 Z " />
<glyph glyph-name="multiply" unicode="&#xd7;" horiz-adv-x="550" d="M552 441 L475 531 L304 387 L188 531 L84 449 L203 301 L27 153 L103 63 L276 210 L394 63 L497 146 L378 295 L552 441 Z " />
<glyph glyph-name="Oslash" unicode="&#xd8;" horiz-adv-x="688" d="M693 438 C693 539 658 612 591 651 L638 741 L531 776 L484 684 C469 687 454 688 439 688 C209 688 40 479 40 235 C40 140 71 69 135 27 L85 -70 L193 -107 L242 -8 C258 -11 276 -13 295 -13 C513 -13 693 177 693 438 L693 438 Z M537 423 C537 285 466 164 366 134 C348 129 331 126 314 126 L513 501 C529 482 537 455 537 423 L537 423 Z M412 550 L218 184 C205 202 199 228 199 259 C199 389 264 518 373 545 C386 548 399 550 412 550 L412 550 Z " />
<glyph glyph-name="Ugrave" unicode="&#xd9;" horiz-adv-x="660" d="M511 792 L301 867 L257 761 L478 710 L511 792 Z M688 675 L537 675 L458 260 C439 161 396 118 306 118 C225 118 199 160 215 241 L298 675 L145 675 L66 255 C37 106 78 -13 284 -13 C456 -13 572 68 606 248 L688 675 Z " />
<glyph glyph-name="Uacute" unicode="&#xda;" horiz-adv-x="660" d="M615 761 L596 867 L369 792 L384 710 L615 761 Z M688 675 L537 675 L458 260 C439 161 396 118 306 118 C225 118 199 160 215 241 L298 675 L145 675 L66 255 C37 106 78 -13 284 -13 C456 -13 572 68 606 248 L688 675 Z " />
<glyph glyph-name="Ucircumflex" unicode="&#xdb;" horiz-adv-x="660" d="M604 782 L447 869 L270 781 L296 710 L437 767 L565 710 L604 782 Z M688 675 L537 675 L458 260 C439 161 396 118 306 118 C225 118 199 160 215 241 L298 675 L145 675 L66 255 C37 106 78 -13 284 -13 C456 -13 572 68 606 248 L688 675 Z " />
<glyph glyph-name="Udieresis" unicode="&#xdc;" horiz-adv-x="660" d="M601 794 C601 828 574 859 536 859 C498 859 466 828 466 787 C466 751 494 721 531 721 C569 721 601 752 601 794 L601 794 Z M388 794 C388 828 360 859 322 859 C284 859 252 828 252 787 C252 751 280 721 318 721 C355 721 388 752 388 794 L388 794 Z M688 675 L537 675 L458 260 C439 161 396 118 306 118 C225 118 199 160 215 241 L298 675 L145 675 L66 255 C37 106 78 -13 284 -13 C456 -13 572 68 606 248 L688 675 Z " />
<glyph glyph-name="Yacute" unicode="&#xdd;" horiz-adv-x="566" d="M552 761 L533 867 L306 792 L321 710 L552 761 Z M655 675 L487 675 L387 517 C360 474 333 433 313 395 L311 395 C306 428 299 463 289 503 L246 675 L85 675 L209 235 L164 0 L316 0 L361 236 L655 675 Z " />
<glyph glyph-name="Thorn" unicode="&#xde;" horiz-adv-x="541" d="M561 409 C561 526 484 588 345 588 C320 588 300 587 282 586 L299 675 L146 675 L18 0 L170 0 L193 118 C205 117 219 117 243 117 C430 117 561 245 561 409 L561 409 Z M400 383 C400 307 345 243 260 243 C245 243 232 244 217 247 L257 459 C273 460 291 461 309 461 C375 461 400 427 400 383 L400 383 Z " />
<glyph glyph-name="germandbls" unicode="&#xdf;" horiz-adv-x="603" d="M586 595 C586 686 510 738 393 738 C253 738 142 661 110 490 L15 -11 C-1 -95 -25 -121 -76 -121 C-89 -121 -107 -120 -122 -116 L-156 -237 C-134 -242 -105 -245 -82 -245 C52 -245 133 -175 164 -14 L261 497 C277 580 320 620 375 620 C409 620 428 604 428 581 C428 499 295 476 295 354 C295 251 391 217 391 155 C391 125 368 107 326 107 C303 107 277 112 254 121 L228 -3 C253 -8 282 -11 316 -11 C476 -11 550 78 550 168 C550 270 450 313 450 368 C450 445 586 462 586 595 L586 595 Z " />
<glyph glyph-name="agrave" unicode="&#xe0;" horiz-adv-x="580" d="M540 491 C478 503 412 508 350 508 C131 508 26 337 26 146 C26 39 68 -12 147 -12 C232 -12 297 57 340 129 L342 129 C323 76 312 36 304 -1 C378 -4 460 0 533 8 L551 106 C523 108 490 112 468 116 L540 491 Z M369 382 L364 355 C346 260 266 120 210 120 C190 120 181 137 181 175 C181 267 230 388 323 388 C342 388 356 385 369 382 L369 382 Z M480 636 L295 760 L227 660 L423 553 L480 636 Z " />
<glyph glyph-name="aacute" unicode="&#xe1;" horiz-adv-x="580" d="M540 491 C478 503 412 508 350 508 C131 508 26 337 26 146 C26 39 68 -12 147 -12 C232 -12 297 57 340 129 L342 129 C323 76 312 36 304 -1 C378 -4 460 0 533 8 L551 106 C523 108 490 112 468 116 L540 491 Z M369 382 L364 355 C346 260 266 120 210 120 C190 120 181 137 181 175 C181 267 230 388 323 388 C342 388 356 385 369 382 L369 382 Z M564 657 L507 760 L309 636 L358 553 L564 657 Z " />
<glyph glyph-name="acircumflex" unicode="&#xe2;" horiz-adv-x="580" d="M540 491 C478 503 412 508 350 508 C131 508 26 337 26 146 C26 39 68 -12 147 -12 C232 -12 297 57 340 129 L342 129 C323 76 312 36 304 -1 C378 -4 460 0 533 8 L551 106 C523 108 490 112 468 116 L540 491 Z M369 382 L364 355 C346 260 266 120 210 120 C190 120 181 137 181 175 C181 267 230 388 323 388 C342 388 356 385 369 382 L369 382 Z M542 622 L408 760 L223 622 L271 553 L389 632 L478 553 L542 622 Z " />
<glyph glyph-name="atilde" unicode="&#xe3;" horiz-adv-x="580" d="M540 491 C478 503 412 508 350 508 C131 508 26 337 26 146 C26 39 68 -12 147 -12 C232 -12 297 57 340 129 L342 129 C323 76 312 36 304 -1 C378 -4 460 0 533 8 L551 106 C523 108 490 112 468 116 L540 491 Z M369 382 L364 355 C346 260 266 120 210 120 C190 120 181 137 181 175 C181 267 230 388 323 388 C342 388 356 385 369 382 L369 382 Z M582 667 L514 721 C498 692 480 677 458 677 C423 677 407 725 341 725 C287 725 241 691 208 628 L277 574 C293 603 310 618 332 618 C368 618 383 570 449 570 C503 570 551 604 582 667 L582 667 Z " />
<glyph glyph-name="adieresis" unicode="&#xe4;" horiz-adv-x="580" d="M540 491 C478 503 412 508 350 508 C131 508 26 337 26 146 C26 39 68 -12 147 -12 C232 -12 297 57 340 129 L342 129 C323 76 312 36 304 -1 C378 -4 460 0 533 8 L551 106 C523 108 490 112 468 116 L540 491 Z M369 382 L364 355 C346 260 266 120 210 120 C190 120 181 137 181 175 C181 267 230 388 323 388 C342 388 356 385 369 382 L369 382 Z M577 647 C577 688 544 724 501 724 C457 724 419 688 419 643 C419 601 452 566 495 566 C539 566 577 601 577 647 L577 647 Z M368 647 C368 688 336 724 292 724 C248 724 210 688 210 643 C210 601 243 566 286 566 C330 566 368 601 368 647 L368 647 Z " />
<glyph glyph-name="aring" unicode="&#xe5;" horiz-adv-x="580" d="M540 491 C478 503 412 508 350 508 C131 508 26 337 26 146 C26 39 68 -12 147 -12 C232 -12 297 57 340 129 L342 129 C323 76 312 36 304 -1 C378 -4 460 0 533 8 L551 106 C523 108 490 112 468 116 L540 491 Z M369 382 L364 355 C346 260 266 120 210 120 C190 120 181 137 181 175 C181 267 230 388 323 388 C342 388 356 385 369 382 L369 382 Z M537 676 C537 746 481 800 406 800 C332 800 265 745 265 664 C265 594 321 541 395 541 C470 541 537 596 537 676 L537 676 Z M451 673 C451 643 428 619 398 619 C371 619 351 641 351 668 C351 696 373 721 403 721 C432 721 451 698 451 673 L451 673 Z " />
<glyph glyph-name="ae" unicode="&#xe6;" horiz-adv-x="762" d="M756 381 C756 441 721 509 583 509 C526 509 464 484 429 458 C405 489 366 510 286 510 C229 510 164 500 110 481 L110 358 C157 380 209 390 252 390 C317 390 333 363 323 321 L319 299 C130 296 13 239 13 113 C13 53 45 -11 150 -11 C217 -11 284 24 322 78 C341 24 383 -11 481 -11 C547 -11 616 1 676 22 L676 138 C628 119 576 108 528 108 C466 108 447 123 447 166 C447 177 447 188 449 199 C667 204 756 272 756 381 L756 381 Z M610 361 C610 314 549 298 465 296 C479 347 515 398 567 398 C593 398 610 383 610 361 L610 361 Z M300 203 C294 151 252 104 197 104 C171 104 157 118 157 138 C157 186 212 201 300 203 L300 203 Z " />
<glyph glyph-name="ccedilla" unicode="&#xe7;" horiz-adv-x="398" d="M420 497 C390 504 359 508 325 508 C144 508 28 357 28 166 C28 56 84 -12 219 -12 C258 -12 298 -6 332 6 L344 137 C320 128 291 123 264 123 C207 123 187 156 187 199 C187 280 227 378 318 378 C343 378 365 374 385 365 L420 497 Z M225 -39 L97 -74 C133 -136 114 -180 60 -234 L176 -234 C240 -180 262 -113 225 -39 L225 -39 Z " />
<glyph glyph-name="egrave" unicode="&#xe8;" horiz-adv-x="491" d="M485 381 C485 441 450 508 314 508 C167 508 28 380 28 162 C28 54 75 -11 210 -11 C277 -11 346 1 406 22 L405 138 C357 119 305 108 258 108 C195 108 178 123 178 166 C178 173 178 184 179 192 C363 197 485 254 485 381 L485 381 Z M339 361 C339 312 285 292 194 290 C209 343 243 396 298 396 C324 396 339 383 339 361 L339 361 Z M440 636 L255 760 L187 660 L383 553 L440 636 Z " />
<glyph glyph-name="eacute" unicode="&#xe9;" horiz-adv-x="491" d="M485 381 C485 441 450 508 314 508 C167 508 28 380 28 162 C28 54 75 -11 210 -11 C277 -11 346 1 406 22 L405 138 C357 119 305 108 258 108 C195 108 178 123 178 166 C178 173 178 184 179 192 C363 197 485 254 485 381 L485 381 Z M339 361 C339 312 285 292 194 290 C209 343 243 396 298 396 C324 396 339 383 339 361 L339 361 Z M495 657 L438 760 L240 636 L289 553 L495 657 Z " />
<glyph glyph-name="ecircumflex" unicode="&#xea;" horiz-adv-x="491" d="M485 381 C485 441 450 508 314 508 C167 508 28 380 28 162 C28 54 75 -11 210 -11 C277 -11 346 1 406 22 L405 138 C357 119 305 108 258 108 C195 108 178 123 178 166 C178 173 178 184 179 192 C363 197 485 254 485 381 L485 381 Z M339 361 C339 312 285 292 194 290 C209 343 243 396 298 396 C324 396 339 383 339 361 L339 361 Z M490 622 L356 760 L171 622 L219 553 L337 632 L426 553 L490 622 Z " />
<glyph glyph-name="edieresis" unicode="&#xeb;" horiz-adv-x="491" d="M485 381 C485 441 450 508 314 508 C167 508 28 380 28 162 C28 54 75 -11 210 -11 C277 -11 346 1 406 22 L405 138 C357 119 305 108 258 108 C195 108 178 123 178 166 C178 173 178 184 179 192 C363 197 485 254 485 381 L485 381 Z M339 361 C339 312 285 292 194 290 C209 343 243 396 298 396 C324 396 339 383 339 361 L339 361 Z M525 647 C525 688 492 724 449 724 C405 724 367 688 367 643 C367 601 400 566 443 566 C487 566 525 601 525 647 L525 647 Z M316 647 C316 688 284 724 240 724 C196 724 158 688 158 643 C158 601 191 566 234 566 C278 566 316 601 316 647 L316 647 Z " />
<glyph glyph-name="igrave" unicode="&#xec;" horiz-adv-x="302" d="M297 498 C214 501 132 497 60 489 L41 391 C70 389 103 385 125 381 L52 0 L202 0 L297 498 Z M345 636 L160 760 L92 660 L288 553 L345 636 Z " />
<glyph glyph-name="iacute" unicode="&#xed;" horiz-adv-x="302" d="M297 498 C214 501 132 497 60 489 L41 391 C70 389 103 385 125 381 L52 0 L202 0 L297 498 Z M378 657 L321 760 L123 636 L172 553 L378 657 Z " />
<glyph glyph-name="icircumflex" unicode="&#xee;" horiz-adv-x="302" d="M297 498 C214 501 132 497 60 489 L41 391 C70 389 103 385 125 381 L52 0 L202 0 L297 498 Z M383 622 L249 760 L64 622 L112 553 L230 632 L319 553 L383 622 Z " />
<glyph glyph-name="idieresis" unicode="&#xef;" horiz-adv-x="302" d="M297 498 C214 501 132 497 60 489 L41 391 C70 389 103 385 125 381 L52 0 L202 0 L297 498 Z M428 647 C428 688 395 724 352 724 C308 724 270 688 270 643 C270 601 303 566 346 566 C390 566 428 601 428 647 L428 647 Z M219 647 C219 688 187 724 143 724 C99 724 61 688 61 643 C61 601 94 566 137 566 C181 566 219 601 219 647 L219 647 Z " />
<glyph glyph-name="eth" unicode="&#xf0;" horiz-adv-x="549" d="M555 668 L510 739 L418 701 C403 719 384 737 366 754 L220 691 C239 676 259 660 277 642 L194 607 L239 536 L335 576 C348 557 358 537 367 518 C372 508 377 497 382 484 C370 499 346 505 317 505 C181 505 59 391 35 237 C7 61 90 -11 236 -11 C376 -11 502 108 528 285 C546 406 538 522 470 632 L555 668 Z M373 282 C361 196 327 121 250 121 C205 121 179 158 188 231 C199 319 245 378 312 378 C361 378 381 338 373 282 L373 282 Z " />
<glyph glyph-name="ntilde" unicode="&#xf1;" horiz-adv-x="592" d="M558 346 C576 439 548 509 450 509 C361 509 299 447 254 370 L252 370 C274 429 284 470 290 498 C215 501 132 497 60 489 L41 391 C70 389 103 385 125 381 L52 0 L202 0 L228 136 C248 246 331 377 381 377 C404 377 412 358 402 308 L343 0 L493 0 L558 346 Z M553 667 L485 721 C469 692 451 677 429 677 C394 677 378 725 312 725 C258 725 212 691 179 628 L248 574 C264 603 281 618 303 618 C339 618 354 570 420 570 C474 570 522 604 553 667 L553 667 Z " />
<glyph glyph-name="ograve" unicode="&#xf2;" horiz-adv-x="549" d="M535 325 C535 431 482 508 334 508 C176 508 27 383 27 169 C27 57 81 -11 229 -11 C389 -11 535 121 535 325 L535 325 Z M377 306 C377 217 330 121 248 121 C200 121 184 150 184 192 C184 273 228 377 310 377 C359 377 377 352 377 306 L377 306 Z M444 636 L259 760 L191 660 L387 553 L444 636 Z " />
<glyph glyph-name="oacute" unicode="&#xf3;" horiz-adv-x="549" d="M535 325 C535 431 482 508 334 508 C176 508 27 383 27 169 C27 57 81 -11 229 -11 C389 -11 535 121 535 325 L535 325 Z M377 306 C377 217 330 121 248 121 C200 121 184 150 184 192 C184 273 228 377 310 377 C359 377 377 352 377 306 L377 306 Z M522 657 L465 760 L267 636 L316 553 L522 657 Z " />
<glyph glyph-name="ocircumflex" unicode="&#xf4;" horiz-adv-x="549" d="M535 325 C535 431 482 508 334 508 C176 508 27 383 27 169 C27 57 81 -11 229 -11 C389 -11 535 121 535 325 L535 325 Z M377 306 C377 217 330 121 248 121 C200 121 184 150 184 192 C184 273 228 377 310 377 C359 377 377 352 377 306 L377 306 Z M520 622 L386 760 L201 622 L249 553 L367 632 L456 553 L520 622 Z " />
<glyph glyph-name="otilde" unicode="&#xf5;" horiz-adv-x="549" d="M535 325 C535 431 482 508 334 508 C176 508 27 383 27 169 C27 57 81 -11 229 -11 C389 -11 535 121 535 325 L535 325 Z M377 306 C377 217 330 121 248 121 C200 121 184 150 184 192 C184 273 228 377 310 377 C359 377 377 352 377 306 L377 306 Z M552 667 L484 721 C468 692 450 677 428 677 C393 677 377 725 311 725 C257 725 211 691 178 628 L247 574 C263 603 280 618 302 618 C338 618 353 570 419 570 C473 570 521 604 552 667 L552 667 Z " />
<glyph glyph-name="odieresis" unicode="&#xf6;" horiz-adv-x="549" d="M535 325 C535 431 482 508 334 508 C176 508 27 383 27 169 C27 57 81 -11 229 -11 C389 -11 535 121 535 325 L535 325 Z M377 306 C377 217 330 121 248 121 C200 121 184 150 184 192 C184 273 228 377 310 377 C359 377 377 352 377 306 L377 306 Z M546 647 C546 688 513 724 470 724 C426 724 388 688 388 643 C388 601 421 566 464 566 C508 566 546 601 546 647 L546 647 Z M337 647 C337 688 305 724 261 724 C217 724 179 688 179 643 C179 601 212 566 255 566 C299 566 337 601 337 647 L337 647 Z " />
<glyph glyph-name="divide" unicode="&#xf7;" horiz-adv-x="550" d="M417 502 C417 548 380 588 331 588 C281 588 238 548 238 494 C238 449 275 408 325 408 C374 408 417 449 417 502 L417 502 Z M540 362 L64 362 L40 234 L515 234 L540 362 Z M341 101 C341 147 303 187 254 187 C205 187 161 147 161 93 C161 48 199 7 248 7 C297 7 341 48 341 101 L341 101 Z " />
<glyph glyph-name="oslash" unicode="&#xf8;" horiz-adv-x="549" d="M536 325 C536 393 514 449 459 480 L513 575 L436 611 L376 505 C363 507 348 508 334 508 C154 508 28 366 28 169 C28 101 49 48 98 19 L47 -71 L125 -108 L182 -7 C197 -10 213 -11 231 -11 C390 -11 536 121 536 325 L536 325 Z M391 305 C391 233 354 129 274 114 C264 112 255 112 247 113 L379 346 C388 334 391 321 391 305 L391 305 Z M310 385 L181 158 C174 169 171 184 171 200 C171 293 221 373 286 384 C294 385 303 386 310 385 L310 385 Z " />
<glyph glyph-name="ugrave" unicode="&#xf9;" horiz-adv-x="624" d="M587 497 L437 497 L412 361 C391 251 309 120 258 120 C235 120 228 139 237 189 L296 498 C220 501 134 497 60 489 L41 391 C70 389 103 385 125 381 L81 151 C63 58 91 -12 190 -12 C278 -12 341 50 386 127 L388 127 C365 68 355 27 351 -1 C424 -4 506 0 579 8 L597 106 C569 108 536 112 514 116 L587 497 Z M461 636 L276 760 L208 660 L404 553 L461 636 Z " />
<glyph glyph-name="uacute" unicode="&#xfa;" horiz-adv-x="624" d="M587 497 L437 497 L412 361 C391 251 309 120 258 120 C235 120 228 139 237 189 L296 498 C220 501 134 497 60 489 L41 391 C70 389 103 385 125 381 L81 151 C63 58 91 -12 190 -12 C278 -12 341 50 386 127 L388 127 C365 68 355 27 351 -1 C424 -4 506 0 579 8 L597 106 C569 108 536 112 514 116 L587 497 Z M541 657 L484 760 L286 636 L335 553 L541 657 Z " />
<glyph glyph-name="ucircumflex" unicode="&#xfb;" horiz-adv-x="624" d="M587 497 L437 497 L412 361 C391 251 309 120 258 120 C235 120 228 139 237 189 L296 498 C220 501 134 497 60 489 L41 391 C70 389 103 385 125 381 L81 151 C63 58 91 -12 190 -12 C278 -12 341 50 386 127 L388 127 C365 68 355 27 351 -1 C424 -4 506 0 579 8 L597 106 C569 108 536 112 514 116 L587 497 Z M532 622 L398 760 L213 622 L261 553 L379 632 L468 553 L532 622 Z " />
<glyph glyph-name="udieresis" unicode="&#xfc;" horiz-adv-x="624" d="M587 497 L437 497 L412 361 C391 251 309 120 258 120 C235 120 228 139 237 189 L296 498 C220 501 134 497 60 489 L41 391 C70 389 103 385 125 381 L81 151 C63 58 91 -12 190 -12 C278 -12 341 50 386 127 L388 127 C365 68 355 27 351 -1 C424 -4 506 0 579 8 L597 106 C569 108 536 112 514 116 L587 497 Z M562 647 C562 688 529 724 486 724 C442 724 404 688 404 643 C404 601 437 566 480 566 C524 566 562 601 562 647 L562 647 Z M353 647 C353 688 321 724 277 724 C233 724 195 688 195 643 C195 601 228 566 271 566 C315 566 353 601 353 647 L353 647 Z " />
<glyph glyph-name="yacute" unicode="&#xfd;" horiz-adv-x="529" d="M567 479 L425 518 C369 370 315 247 257 136 L255 136 C257 145 258 156 258 165 C258 270 237 401 212 497 L45 497 C91 333 125 169 125 20 C125 -33 111 -65 86 -88 C64 -108 34 -118 4 -118 C-16 -118 -36 -115 -56 -108 L-80 -237 C-59 -242 -28 -245 -3 -245 C65 -245 127 -219 197 -150 C310 -37 416 131 567 479 L567 479 Z M512 657 L455 760 L257 636 L306 553 L512 657 Z " />
<glyph glyph-name="thorn" unicode="&#xfe;" horiz-adv-x="548" d="M535 351 C535 458 495 509 416 509 C337 509 272 454 224 374 L222 374 C253 451 266 505 282 588 L309 731 C226 734 144 730 71 722 L53 624 C82 622 115 618 137 614 L-25 -237 L125 -237 L168 -7 C186 -10 198 -10 211 -10 C430 -10 535 160 535 351 L535 351 Z M380 322 C380 230 331 109 238 109 C222 109 205 112 192 117 L197 143 C215 237 295 377 351 377 C371 377 380 360 380 322 L380 322 Z " />
<glyph glyph-name="ydieresis" unicode="&#xff;" horiz-adv-x="529" d="M567 479 L425 518 C369 370 315 247 257 136 L255 136 C257 145 258 156 258 165 C258 270 237 401 212 497 L45 497 C91 333 125 169 125 20 C125 -33 111 -65 86 -88 C64 -108 34 -118 4 -118 C-16 -118 -36 -115 -56 -108 L-80 -237 C-59 -242 -28 -245 -3 -245 C65 -245 127 -219 197 -150 C310 -37 416 131 567 479 L567 479 Z M514 647 C514 688 481 724 438 724 C394 724 356 688 356 643 C356 601 389 566 432 566 C476 566 514 601 514 647 L514 647 Z M305 647 C305 688 273 724 229 724 C185 724 147 688 147 643 C147 601 180 566 223 566 C267 566 305 601 305 647 L305 647 Z " />
<glyph glyph-name="dotlessi" unicode="&#x131;" horiz-adv-x="302" d="M297 498 C214 501 132 497 60 489 L41 391 C70 389 103 385 125 381 L52 0 L202 0 L297 498 Z " />
<glyph glyph-name="Lslash" unicode="&#x141;" horiz-adv-x="432" d="M405 138 L204 138 L233 290 L346 321 L348 438 L256 412 L307 675 L154 675 L95 371 L13 347 L12 231 L71 249 L23 0 L378 0 L405 138 Z " />
<glyph glyph-name="lslash" unicode="&#x142;" horiz-adv-x="299" d="M343 435 L339 548 L280 518 L321 731 C238 734 156 730 84 722 L65 624 C94 622 127 618 149 614 L116 441 L29 397 L33 284 L92 314 L32 0 L182 0 L257 391 L343 435 Z " />
<glyph glyph-name="OE" unicode="&#x152;" horiz-adv-x="841" d="M882 675 L543 675 C512 683 479 688 440 688 C213 688 40 477 40 235 C40 83 120 -13 295 -13 C329 -13 364 -7 398 0 L753 0 L779 134 L560 134 L588 283 L796 283 L821 410 L612 410 L638 544 L857 544 L882 675 Z M483 533 L410 147 C382 137 352 130 318 130 C242 130 204 177 204 262 C204 403 283 546 415 546 C437 546 462 541 483 533 L483 533 Z " />
<glyph glyph-name="oe" unicode="&#x153;" horiz-adv-x="823" d="M818 381 C818 441 784 508 647 508 C578 508 529 484 488 446 C458 486 407 508 333 508 C176 508 27 383 27 169 C27 57 82 -11 230 -11 C294 -11 354 12 399 53 C421 10 468 -11 544 -11 C610 -11 679 1 739 22 L738 138 C690 119 639 108 591 108 C528 108 511 123 511 166 C511 173 512 184 512 192 C694 197 818 254 818 381 L818 381 Z M672 361 C672 312 618 292 527 290 C543 343 576 396 631 396 C658 396 672 383 672 361 L672 361 Z M377 306 C377 217 330 121 248 121 C200 121 184 150 184 192 C184 273 228 377 310 377 C359 377 377 352 377 306 L377 306 Z " />
<glyph glyph-name="Scaron" unicode="&#x160;" horiz-adv-x="465" d="M522 798 L496 869 L355 812 L227 869 L188 797 L345 710 L522 798 Z M475 678 C437 684 399 688 357 688 C171 688 80 579 80 449 C80 288 266 290 266 203 C266 152 227 125 152 125 C115 125 75 133 41 149 L14 3 C50 -8 96 -13 143 -13 C314 -13 433 96 433 231 C433 394 246 397 246 485 C246 524 276 558 353 558 C382 558 417 551 448 541 L475 678 Z " />
<glyph glyph-name="scaron" unicode="&#x161;" horiz-adv-x="374" d="M366 502 C341 506 312 508 282 508 C131 508 58 435 58 340 C58 224 171 208 171 150 C171 124 147 109 105 109 C82 109 54 115 32 124 L6 -1 C31 -8 61 -11 94 -11 C257 -11 330 80 330 164 C330 271 214 306 214 355 C214 380 234 396 277 396 C297 396 318 393 338 387 L366 502 Z M453 691 L405 760 L287 681 L198 760 L134 691 L268 553 L453 691 Z " />
<glyph glyph-name="Ydieresis" unicode="&#x178;" horiz-adv-x="566" d="M560 794 C560 828 532 859 494 859 C457 859 424 828 424 787 C424 751 453 721 490 721 C527 721 560 752 560 794 L560 794 Z M346 794 C346 828 318 859 280 859 C243 859 210 828 210 787 C210 751 239 721 276 721 C313 721 346 752 346 794 L346 794 Z M655 675 L487 675 L387 517 C360 474 333 433 313 395 L311 395 C306 428 299 463 289 503 L246 675 L85 675 L209 235 L164 0 L316 0 L361 236 L655 675 Z " />
<glyph glyph-name="Zcaron" unicode="&#x17d;" horiz-adv-x="521" d="M558 798 L533 869 L391 812 L263 869 L224 797 L382 710 L558 798 Z M561 675 L137 675 L111 535 L241 535 C304 535 325 536 343 537 C327 520 312 503 298 485 L25 122 L2 0 L438 0 L465 144 L348 144 C270 144 234 144 220 142 C233 156 243 168 253 180 L537 548 L561 675 Z " />
<glyph glyph-name="zcaron" unicode="&#x17e;" horiz-adv-x="441" d="M448 497 L103 497 L76 360 L144 360 C188 360 217 361 230 362 L23 109 L2 0 L356 0 L382 140 L317 140 C286 140 240 140 224 139 L426 388 L448 497 Z M473 691 L425 760 L307 681 L218 760 L154 691 L288 553 L473 691 Z " />
<glyph glyph-name="florin" unicode="&#x192;" horiz-adv-x="550" d="M596 694 C568 700 533 704 506 704 C356 704 273 632 235 488 L207 383 L82 383 L64 265 L178 265 L124 61 C105 -11 72 -36 25 -36 C0 -36 -34 -29 -59 -22 L-88 -151 C-60 -158 -24 -161 2 -161 C148 -161 237 -94 276 60 L329 265 L477 265 L495 383 L358 383 L384 481 C403 554 434 579 485 579 C508 579 538 573 565 564 L596 694 Z " />
<glyph glyph-name="circumflex" unicode="&#x2c6;" horiz-adv-x="413" d="M436 622 L302 760 L117 622 L165 553 L283 632 L372 553 L436 622 Z " />
<glyph glyph-name="caron" unicode="&#x2c7;" horiz-adv-x="413" d="M445 691 L397 760 L279 681 L190 760 L126 691 L260 553 L445 691 Z " />
<glyph glyph-name="breve" unicode="&#x2d8;" horiz-adv-x="347" d="M414 727 L313 727 C309 690 289 673 262 673 C232 673 221 694 225 727 L127 727 C116 641 146 561 249 561 C352 561 404 639 414 727 L414 727 Z " />
<glyph glyph-name="dotaccent" unicode="&#x2d9;" horiz-adv-x="283" d="M312 652 C312 695 276 735 225 735 C174 735 126 694 126 639 C126 595 162 555 214 555 C265 555 312 595 312 652 L312 652 Z " />
<glyph glyph-name="ring" unicode="&#x2da;" horiz-adv-x="347" d="M392 646 C392 716 336 770 261 770 C187 770 120 715 120 634 C120 564 176 511 250 511 C325 511 392 566 392 646 L392 646 Z M306 643 C306 613 283 589 253 589 C226 589 206 611 206 638 C206 666 228 691 258 691 C287 691 306 668 306 643 L306 643 Z " />
<glyph glyph-name="ogonek" unicode="&#x2db;" horiz-adv-x="328" d="M204 0 L48 0 C0 -33 -37 -85 -37 -135 C-37 -186 -5 -232 82 -232 C146 -232 199 -205 242 -161 L192 -90 C175 -109 154 -118 136 -118 C119 -118 108 -109 108 -96 C108 -71 130 -35 204 0 L204 0 Z " />
<glyph glyph-name="tilde" unicode="&#x2dc;" horiz-adv-x="439" d="M481 667 L413 721 C397 692 379 677 357 677 C322 677 306 725 240 725 C186 725 140 691 107 628 L176 574 C192 603 209 618 231 618 C267 618 282 570 348 570 C402 570 450 604 481 667 L481 667 Z " />
<glyph glyph-name="hungarumlaut" unicode="&#x2dd;" horiz-adv-x="501" d="M569 689 L497 767 L330 613 L393 553 L569 689 Z M358 705 L280 777 L128 612 L194 553 L358 705 Z " />
<glyph glyph-name="pi" unicode="&#x3c0;" horiz-adv-x="646" d="M655 497 L87 497 L63 373 L152 373 L80 0 L218 0 L290 373 L405 373 L356 118 C340 32 366 -12 452 -12 C495 -12 537 -7 569 0 L579 103 C567 99 551 97 535 97 C501 97 492 108 508 193 L543 373 L631 373 L655 497 Z " />
<glyph glyph-name="endash" unicode="&#x2013;" horiz-adv-x="550" d="M578 365 L28 365 L2 231 L552 231 L578 365 Z " />
<glyph glyph-name="emdash" unicode="&#x2014;" horiz-adv-x="1000" d="M922 365 L133 365 L108 231 L897 231 L922 365 Z " />
<glyph glyph-name="quoteleft" unicode="&#x2018;" horiz-adv-x="276" d="M332 697 L278 759 C17 580 81 402 187 402 C265 402 301 488 266 541 C236 586 248 627 332 697 L332 697 Z " />
<glyph glyph-name="quoteright" unicode="&#x2019;" horiz-adv-x="276" d="M221 750 C143 750 107 664 142 611 C171 566 159 525 75 455 L129 393 C391 572 326 750 221 750 L221 750 Z " />
<glyph glyph-name="quotesinglbase" unicode="&#x201a;" horiz-adv-x="276" d="M114 172 C36 172 0 86 36 33 C65 -12 53 -53 -31 -122 L23 -185 C284 -6 220 172 114 172 L114 172 Z " />
<glyph glyph-name="quotedblleft" unicode="&#x201c;" horiz-adv-x="509" d="M574 696 L520 759 C259 579 323 402 429 402 C507 402 543 487 508 541 C478 585 490 626 574 696 L574 696 Z M332 696 L278 759 C17 579 81 402 187 402 C265 402 301 487 266 541 C236 585 248 626 332 696 L332 696 Z " />
<glyph glyph-name="quotedblright" unicode="&#x201d;" horiz-adv-x="509" d="M462 750 C385 750 348 664 384 611 C413 566 401 525 317 455 L371 393 C633 572 568 750 462 750 L462 750 Z M221 750 C143 750 107 664 142 611 C171 566 159 525 75 455 L129 393 C391 572 326 750 221 750 L221 750 Z " />
<glyph glyph-name="quotedblbase" unicode="&#x201e;" horiz-adv-x="509" d="M356 172 C279 172 242 86 278 33 C307 -12 295 -53 211 -122 L265 -185 C527 -6 462 172 356 172 L356 172 Z M114 172 C36 172 0 86 36 33 C65 -12 53 -53 -31 -122 L23 -185 C284 -6 220 172 114 172 L114 172 Z " />
<glyph glyph-name="dagger" unicode="&#x2020;" horiz-adv-x="454" d="M497 635 L369 635 L418 771 L247 771 L245 635 L117 635 L94 518 L223 518 L184 436 L161 178 L280 178 L355 436 L347 518 L475 518 L497 635 Z " />
<glyph glyph-name="daggerdbl" unicode="&#x2021;" horiz-adv-x="454" d="M501 654 L374 654 L418 771 L247 771 L247 654 L120 654 L98 537 L225 537 L189 468 L198 398 L71 398 L49 281 L176 281 L131 164 L304 164 L302 281 L428 281 L450 398 L325 398 L360 468 L352 537 L479 537 L501 654 Z " />
<glyph glyph-name="bullet" unicode="&#x2022;" horiz-adv-x="424" d="M392 300 C392 391 321 463 229 463 C137 463 62 386 62 294 C62 203 133 131 225 131 C316 131 392 208 392 300 L392 300 Z " />
<glyph glyph-name="ellipsis" unicode="&#x2026;" horiz-adv-x="747" d="M677 81 C677 127 639 167 591 167 C542 167 500 127 500 75 C500 28 538 -12 586 -12 C635 -12 677 28 677 81 L677 81 Z M436 81 C436 127 399 167 350 167 C301 167 260 127 260 75 C260 28 297 -12 345 -12 C394 -12 436 28 436 81 L436 81 Z M195 81 C195 127 158 167 109 167 C61 167 19 127 19 75 C19 28 56 -12 105 -12 C153 -12 195 28 195 81 L195 81 Z " />
<glyph glyph-name="perthousand" unicode="&#x2030;" horiz-adv-x="1058" d="M1012 189 C1012 270 962 308 885 308 C800 308 709 231 709 108 C709 29 754 -13 834 -13 C921 -13 1012 62 1012 189 L1012 189 Z M387 543 C387 625 338 663 260 663 C175 663 84 585 84 463 C84 383 129 342 210 342 C297 342 387 417 387 543 L387 543 Z M731 598 L657 671 L34 51 L109 -22 L731 598 Z M684 189 C684 270 634 308 557 308 C472 308 381 231 381 108 C381 29 426 -13 506 -13 C593 -13 684 62 684 189 L684 189 Z M906 179 C906 137 886 81 844 81 C828 81 815 88 815 116 C815 156 835 215 877 215 C894 215 906 205 906 179 L906 179 Z M281 534 C281 491 261 435 219 435 C203 435 190 443 190 471 C190 510 211 569 252 569 C270 569 281 560 281 534 L281 534 Z M578 179 C578 137 558 81 516 81 C500 81 487 88 487 116 C487 156 507 215 549 215 C567 215 578 205 578 179 L578 179 Z " />
<glyph glyph-name="guilsinglleft" unicode="&#x2039;" horiz-adv-x="306" d="M301 440 L191 495 L46 299 L123 91 L247 142 L189 292 L301 440 Z " />
<glyph glyph-name="guilsinglright" unicode="&#x203a;" horiz-adv-x="306" d="M290 287 L214 495 L89 443 L147 294 L36 146 L145 91 L290 287 Z " />
<glyph glyph-name="fraction" unicode="&#x2044;" horiz-adv-x="438" d="M594 618 L501 703 L-104 46 L-11 -39 L594 618 Z " />
<glyph glyph-name="Euro" unicode="&#x20ac;" horiz-adv-x="550" d="M598 637 C558 652 508 663 463 663 C290 663 188 569 135 449 L55 449 L37 357 L105 357 C99 337 95 313 92 294 L25 294 L8 202 L85 202 C86 58 160 -13 315 -13 C374 -13 438 -2 490 19 L471 135 C432 119 393 109 351 109 C280 109 248 138 243 202 L397 202 L414 294 L247 294 C250 314 254 337 260 357 L426 357 L443 449 L298 449 C327 503 373 542 440 542 C478 542 519 532 547 516 L598 637 Z " />
<glyph glyph-name="trademark" unicode="&#x2122;" horiz-adv-x="669" d="M685 675 L563 675 L518 571 L506 535 L506 573 L499 675 L377 675 L280 394 L378 394 L413 505 L422 541 L421 503 L426 394 L519 394 L564 500 L578 541 L575 498 L570 394 L679 394 L685 675 Z M331 675 L106 675 L88 583 L151 583 L115 394 L218 394 L255 583 L314 583 L331 675 Z " />
<glyph glyph-name="Omega" unicode="&#x2126;" horiz-adv-x="765" d="M710 435 C710 600 611 688 457 688 C241 688 82 497 82 291 C82 204 116 150 157 114 L36 114 L15 0 L282 0 L303 106 C250 145 223 198 223 273 C223 402 296 563 437 563 C517 563 558 503 558 417 C558 299 493 163 390 106 L370 0 L638 0 L660 114 L545 114 C660 184 710 315 710 435 L710 435 Z " />
<glyph glyph-name="partialdiff" unicode="&#x2202;" horiz-adv-x="620" d="M605 452 C605 619 499 736 320 738 L277 609 C372 609 437 559 450 480 C453 457 450 430 450 412 C429 443 379 457 335 457 C181 457 53 336 53 171 C53 73 119 -7 244 -7 C470 -7 605 239 605 452 L605 452 Z M397 257 C397 185 345 125 277 125 C227 125 201 154 201 199 C201 268 248 328 316 328 C373 328 397 297 397 257 L397 257 Z " />
<glyph glyph-name="Delta" unicode="&#x2206;" horiz-adv-x="751" d="M691 0 L543 700 L397 700 L-17 0 L691 0 Z M499 140 L222 140 L429 497 L499 140 Z " />
<glyph glyph-name="product" unicode="&#x220f;" horiz-adv-x="790" d="M829 730 L136 730 L111 601 L201 601 L41 -237 L181 -237 L341 601 L577 601 L417 -237 L555 -237 L715 601 L804 601 L829 730 Z " />
<glyph glyph-name="summation" unicode="&#x2211;" horiz-adv-x="615" d="M633 730 L151 730 L127 610 L317 256 L-27 -118 L-50 -237 L464 -237 L490 -105 L163 -105 L488 246 L298 601 L609 601 L633 730 Z " />
<glyph glyph-name="minus" unicode="&#x2212;" horiz-adv-x="550" d="M540 365 L65 365 L40 231 L515 231 L540 365 Z " />
<glyph glyph-name="radical" unicode="&#x221a;" horiz-adv-x="612" d="M712 758 L545 758 L323 256 C311 230 301 204 290 173 L289 173 C290 203 287 232 285 259 L261 497 L58 497 L36 383 L118 383 L168 0 L343 0 L712 758 Z " />
<glyph glyph-name="infinity" unicode="&#x221e;" horiz-adv-x="979" d="M959 339 C959 421 907 494 779 494 C696 494 600 444 513 388 C445 444 370 494 288 494 C168 494 44 410 44 260 C44 170 98 104 225 104 C313 104 406 152 490 206 C558 151 630 104 705 104 C864 104 959 213 959 339 L959 339 Z M814 314 C814 269 779 237 730 237 C696 237 660 262 621 296 C676 332 724 361 759 361 C797 361 814 338 814 314 L814 314 Z M378 301 C322 265 275 237 242 237 C205 237 189 260 189 287 C189 329 223 361 270 361 C301 361 337 335 378 301 L378 301 Z " />
<glyph glyph-name="integral" unicode="&#x222b;" horiz-adv-x="343" d="M415 733 C400 737 379 739 365 739 C249 739 175 677 135 468 C98 276 88 152 59 -5 C42 -96 21 -116 -15 -116 C-27 -116 -40 -115 -53 -110 L-79 -242 C-61 -246 -40 -248 -22 -248 C99 -248 162 -182 201 24 C237 212 249 344 279 502 C296 589 316 608 350 608 C365 608 379 605 390 602 L415 733 Z " />
<glyph glyph-name="approxequal" unicode="&#x2248;" horiz-adv-x="550" d="M551 377 L502 478 C472 453 437 434 405 434 C349 434 309 492 222 492 C169 492 109 461 67 423 L115 323 C147 349 183 365 217 365 C290 365 323 308 402 308 C459 308 512 337 551 377 L551 377 Z M512 162 L464 263 C433 234 398 222 367 222 C288 222 264 280 174 280 C118 280 63 243 26 211 L76 110 C108 136 142 153 176 153 C240 153 273 96 360 96 C409 96 469 123 512 162 L512 162 Z " />
<glyph glyph-name="notequal" unicode="&#x2260;" horiz-adv-x="550" d="M553 460 L455 460 L518 568 L378 568 L314 460 L88 460 L65 338 L244 338 L196 256 L49 256 L26 134 L125 134 L61 25 L202 25 L265 134 L491 134 L514 256 L336 256 L384 338 L530 338 L553 460 Z " />
<glyph glyph-name="lessequal" unicode="&#x2264;" horiz-adv-x="550" d="M529 578 L442 682 L90 427 L364 157 L473 254 L286 419 L529 578 Z M460 127 L55 127 L31 0 L435 0 L460 127 Z " />
<glyph glyph-name="greaterequal" unicode="&#x2265;" horiz-adv-x="550" d="M531 411 L257 682 L148 585 L336 420 L93 261 L179 157 L531 411 Z M460 127 L55 127 L31 0 L435 0 L460 127 Z " />
<glyph glyph-name="lozenge" unicode="&#x25ca;" horiz-adv-x="618" d="M629 336 L447 685 L354 685 L40 338 L223 -10 L317 -10 L629 336 Z M465 333 L302 155 L205 341 L364 518 L465 333 Z " />
<glyph glyph-name="fi" unicode="&#xfb01;" horiz-adv-x="589" d="M591 721 C539 733 495 739 432 739 C253 739 165 657 141 512 L139 497 L65 497 L41 380 L116 380 L43 -11 C26 -98 -2 -118 -48 -118 C-63 -118 -84 -115 -99 -111 L-134 -236 C-106 -242 -75 -245 -46 -245 C79 -245 162 -171 192 -13 L265 380 L412 380 L340 0 L489 0 L584 497 L288 497 L292 519 C303 583 344 613 426 613 C464 613 508 606 542 594 L591 721 Z " />
<glyph glyph-name="fl" unicode="&#xfb02;" horiz-adv-x="588" d="M627 720 C561 732 487 739 422 739 C267 739 172 674 148 547 L138 497 L65 497 L41 380 L116 380 L43 -11 C26 -98 -2 -118 -48 -118 C-63 -118 -84 -115 -99 -111 L-134 -236 C-106 -242 -75 -245 -46 -245 C79 -245 162 -171 192 -13 L265 380 L354 380 L378 497 L288 497 L295 535 C306 589 341 614 399 614 C415 614 438 613 457 609 L341 0 L490 0 L627 720 Z " />
</font>
</svg>
