<?xml version="1.0" encoding="utf-8"?>
<!-- Generator: Adobe Illustrator 23.0.1, SVG Export Plug-In . SVG Version: 6.00 Build 0)  -->
<svg version="1.1" id="Layer_1" xmlns="http://www.w3.org/2000/svg" xmlns:xlink="http://www.w3.org/1999/xlink" x="0px" y="0px"
	 viewBox="0 0 493.7 250" style="enable-background:new 0 0 493.7 250;" xml:space="preserve">
<style type="text/css">
	.st0{fill:#3CC382;}
	.st1{fill:#F07DB9;}
	.st2{fill:#FF7320;}
	.st3{fill:#FFFFFF;}
	.st4{fill:#B84040;}
	.st5{fill:#0987B4;}
	.st6{fill:#B45E8B;}
	.st7{fill:#2D8F62;}
	.st8{fill:#BF9B23;}
	.st9{fill:none;stroke:#B45E8B;}
</style>
<path class="st0" d="M247.8,24.4v103.2l-102.6-10.8c-0.5,4.3-0.6,6.5-0.6,10.8c0,57,46.2,103.2,103.2,103.2
	c57,0,103.2-46.2,103.2-103.2C351,70.6,304.8,24.4,247.8,24.4z"/>
<g>
	<polygon class="st3" points="390,158.1 396.6,158.1 396.6,156.1 392.4,156.1 392.4,152.8 396.4,152.8 396.4,150.9 392.4,150.9 
		392.4,147.9 396.6,147.9 396.6,145.9 390,145.9 	"/>
	<path class="st3" d="M400.6,145c-0.8,0-1.4,0.6-1.4,1.4s0.6,1.4,1.4,1.4c0.8,0,1.4-0.6,1.4-1.4C402,145.6,401.4,145,400.6,145z"/>
	<path class="st3" d="M397.9,149.3v1.4c0.5,0,1.1,0.1,1.6,0.2v7.2h2.3v-9C400.4,149.1,399,149.2,397.9,149.3z"/>
	<path class="st3" d="M409.9,149c-1.5,0-2.5,0.7-3,1.8h0c0.1-0.5,0.1-1.2,0.1-1.6c-1.2,0-2.6,0-3.7,0.2v1.4c0.5,0,1.1,0.1,1.6,0.2
		v7.2h2.3v-4.3c0-1.6,0.9-2.9,2.1-2.9c0.8,0,1.1,0.6,1.1,1.5v5.7h2.3v-6.3C412.6,150.2,411.9,149,409.9,149z"/>
	<path class="st3" d="M422.6,144.9c-1.3,0-2.7,0-3.9,0.2v1.4c0.5,0,1.1,0.1,1.6,0.2v2.3c-0.4-0.1-0.8-0.1-1.1-0.1
		c-3,0-4.7,2.1-4.7,5.1c0,2.6,1.1,4.2,3.3,4.2c1.4,0,2.4-0.7,2.8-1.7h0c-0.1,0.5-0.1,1.1-0.1,1.5c1.2,0,2.6,0,3.7-0.2v-1.4
		c-0.5,0-1.1-0.1-1.6-0.2V144.9z M420.4,153.5c0,1.5-0.7,2.9-1.9,2.9c-1,0-1.5-0.9-1.5-2.5c0-2.2,0.9-3,2.3-3c0.4,0,0.8,0.1,1.2,0.1
		V153.5z"/>
	<path class="st3" d="M431,149c-1.4,0-2.4,0.7-3,1.7h0c0.1-0.5,0.2-1.3,0.2-1.8v-3.9c-1.3,0-2.7,0-3.9,0.2v1.4
		c0.5,0,1.1,0.1,1.6,0.2v11.4h2.3v-4.3c0-1.6,0.9-2.9,2.1-2.9c0.9,0,1.1,0.6,1.1,1.5v5.7h2.3v-6.3C433.6,150.2,433,149,431,149z"/>
	<path class="st3" d="M440.1,149c-2.7,0-4.6,2-4.6,4.8c0,3.2,1.6,4.5,4.2,4.5c2.7,0,4.6-2,4.6-4.8C444.2,150.4,442.6,149,440.1,149z
		 M439.9,156.3c-1.3,0-2-0.9-2-2.8s1-2.6,2-2.6c1.3,0,2,0.9,2,2.7C441.9,155.4,441,156.3,439.9,156.3z"/>
	<path class="st3" d="M449.8,153.3c-0.2,0.6-0.4,1.3-0.5,1.9h0c-0.2-0.6-0.4-1.3-0.6-2l-1.4-4h-2.5l3.3,8.9h2.3l3.3-8.9h-2.4
		L449.8,153.3z"/>
	<path class="st3" d="M458.4,149c-2.7,0-4.2,2-4.2,4.8c0,3.2,1.6,4.6,4.4,4.6c1.1,0,2.3-0.2,3.2-0.6l-0.3-1.7
		c-0.8,0.4-1.7,0.5-2.6,0.5c-1.7,0-2.5-0.8-2.5-2.5h5.5c0.1-0.4,0.1-0.8,0.1-1.1C462.2,150.7,461,149,458.4,149z M456.6,152.5
		c0.1-1.1,0.8-1.8,1.7-1.8c1,0,1.6,0.7,1.5,1.8H456.6z"/>
	<path class="st3" d="M469.8,149c-1.5,0-2.5,0.7-3,1.8h0c0.1-0.5,0.1-1.2,0.1-1.6c-1.2,0-2.6,0-3.7,0.2v1.4c0.5,0,1.1,0.1,1.6,0.2
		v7.2h2.3v-4.3c0-1.6,0.9-2.9,2.1-2.9c0.8,0,1.1,0.6,1.1,1.5v5.7h2.3v-6.3C472.5,150.2,471.8,149,469.8,149z"/>
	<path class="st3" d="M395.9,125.3c-1.6,0-3-0.2-4.4-0.7l-0.4,3.9c1.1,0.3,2.8,0.6,4.5,0.6c6,0,10.1-2.8,10.1-7.6
		c0-2.6-1.9-4.8-4.5-5.1l0-0.1c2.5-0.7,4-2.5,4-5.1c0-3.3-2.5-5.6-7.6-5.6c-2.4,0-4.4,0.4-6.2,1.1l0.4,3.8c1.3-0.7,2.9-1.2,4.9-1.2
		c2.5,0,3.8,1,3.8,2.7c0,2.4-2.8,3.5-7.1,3.5h-1v3.5c1.2-0.1,2.3-0.2,3.6-0.2c3.4,0,5,1.3,5,3.2
		C400.9,123.8,399.3,125.3,395.9,125.3z"/>
	<path class="st3" d="M425.1,121c0-3.8-3-6.5-8.4-6.5c-0.4,0-0.9,0-1.4,0v-4.5h8.8v-4.2h-13.1v12.5c1-0.2,2.4-0.3,3.9-0.3
		c3.2,0,5.2,1.2,5.2,3.4c0,2.3-1.7,3.7-4.8,3.7c-1.9,0-3.3-0.2-4.7-0.7v4c1.3,0.3,2.7,0.5,4.3,0.5C421.1,129,425.1,125.9,425.1,121z
		"/>
	<rect x="428.8" y="117.1" class="st3" width="8.6" height="3.6"/>
	<path class="st3" d="M447.6,114.5c-0.4,0-0.9,0-1.4,0v-4.5h8.8v-4.2H442v12.5c1-0.2,2.4-0.3,3.9-0.3c3.2,0,5.2,1.2,5.2,3.4
		c0,2.3-1.7,3.7-4.8,3.7c-1.9,0-3.3-0.2-4.7-0.7v4c1.3,0.3,2.7,0.5,4.3,0.5c6,0,10-3.1,10-8C456.1,117.2,453.1,114.5,447.6,114.5z"
		/>
	<path class="st3" d="M468,105.5c-5,0-8.6,3.7-8.6,11.7c0,9.1,3.1,11.9,8.2,11.9c4.6,0,8.6-3.5,8.6-11.9
		C476.2,108.5,473.2,105.5,468,105.5z M467.8,125.2c-2.6,0-3.6-1.8-3.6-8.2c0-6,1.5-7.7,3.5-7.7c2.4,0,3.6,1.5,3.6,7.9
		C471.4,123.1,470.1,125.2,467.8,125.2z"/>
</g>
<g>
	<path class="st7" d="M248.7,23.4L248.7,23.4l-0.8,0c0,0-0.1,0-0.1,0h-1v0c-25.3,0.2-49.7,9.7-68.7,26.8c-19,17.1-31,40.3-33.8,65.5
		l0,0l-0.1,1c0,0,0,0,0,0.1l-0.1,0.9l0,0c-0.4,3.8-0.5,5.9-0.5,10c0,57.5,46.7,104.2,104.2,104.2S352,185.1,352,127.6
		C352,70.5,305.7,23.9,248.7,23.4z M179.5,51.7c18.6-16.7,42.4-26.1,67.3-26.3v101l-100.4-10.6C149.1,91.2,160.9,68.5,179.5,51.7z
		 M247.8,229.8c-44.7,0-82.7-28.8-96.6-68.8l6.7-2.2l-0.6-1.9l-6.7,2.2c-3.2-9.9-5-20.5-5-31.5c0-4,0.1-6,0.5-9.7l97.9,10.3
		l-3.3,1.1l0.6,1.9l7.5-2.5l0,0v0l0,0l0-0.1V25.4C304.7,26,350,71.6,350,127.6C350,184,304.1,229.8,247.8,229.8z"/>
	<rect x="180.1" y="148.1" transform="matrix(0.9496 -0.3136 0.3136 0.9496 -37.4566 65.2381)" class="st7" width="8" height="2"/>
	<rect x="164.9" y="153.1" transform="matrix(0.9496 -0.3136 0.3136 0.9496 -39.7927 60.7363)" class="st7" width="8" height="2"/>
	<rect x="210.4" y="138" transform="matrix(0.9496 -0.3136 0.3136 0.9496 -32.7845 74.2415)" class="st7" width="8" height="2"/>
	<rect x="225.6" y="133" transform="matrix(0.9496 -0.3136 0.3136 0.9496 -30.4484 78.7433)" class="st7" width="8" height="2"/>
	<rect x="195.2" y="143" transform="matrix(0.9496 -0.3136 0.3136 0.9496 -35.1206 69.7397)" class="st7" width="8" height="2"/>
</g>
<g>
	<path class="st3" d="M12.6,152.7c-0.2,0.7-0.3,1.5-0.4,2.3h0c-0.1-0.8-0.3-1.7-0.5-2.4l-1.9-6.8H7.3l-1.9,6.8
		c-0.2,0.8-0.3,1.6-0.5,2.4h0c-0.1-0.8-0.3-1.7-0.5-2.5l-1.7-6.7H0.3l3.1,12.2h2.7l1.8-6.8c0.2-0.8,0.4-1.6,0.5-2.4h0
		c0.1,0.9,0.3,1.7,0.5,2.5l1.8,6.7h2.9l3.1-12.2h-2.3L12.6,152.7z"/>
	<path class="st3" d="M20.5,150.7c1.3,0,1.7,0.5,1.7,1.4v0.4c-3,0-5.2,1.1-5.2,3.3c0,1.4,0.9,2.4,2.6,2.4c1.3,0,2.4-0.7,2.9-1.7l0,0
		c-0.1,0.5-0.1,1-0.1,1.5c1.2,0,2.6,0,3.7-0.2v-1.4c-0.5,0-1.1-0.1-1.6-0.2v-4.3c0-2-0.8-3.1-3.7-3.1c-1.1,0-2.3,0.2-3.2,0.5
		l0.3,1.9C18.6,151,19.7,150.7,20.5,150.7z M22.2,154.4c0,1.1-0.8,2.2-1.9,2.2c-0.7,0-1.1-0.4-1.1-1c0-0.8,0.6-1.4,3-1.4V154.4z"/>
	<path class="st3" d="M27,155.8c0,1.4,0.9,2.4,2.6,2.4c1.3,0,2.4-0.7,2.9-1.7l0,0c-0.1,0.5-0.1,1-0.1,1.5c1.2,0,2.6,0,3.7-0.2v-1.4
		c-0.5,0-1.1-0.1-1.6-0.2v-4.3c0-2-0.8-3.1-3.7-3.1c-1.1,0-2.3,0.2-3.2,0.5l0.3,1.9c0.7-0.4,1.8-0.6,2.6-0.6c1.3,0,1.7,0.5,1.7,1.4
		v0.4C29.1,152.6,27,153.7,27,155.8z M32.2,154.4c0,1.1-0.8,2.2-1.9,2.2c-0.7,0-1.1-0.4-1.1-1c0-0.8,0.6-1.4,3-1.4V154.4z"/>
	<path class="st3" d="M36,146.5c0.5,0,1.1,0.1,1.6,0.2v11.4h2.3v-13.2c-1.3,0-2.7,0-3.9,0.2V146.5z"/>
	<path class="st3" d="M45.2,158.1v-3.7c0-2.5,0.8-3.6,2.5-3.2l0.1-2.3c-1.6-0.1-2.5,0.8-2.9,2h0c0.1-0.6,0.2-1.4,0.2-1.8
		c-1.2,0-2.6,0-3.7,0.2v1.4c0.5,0,1.1,0.1,1.6,0.2v7.2H45.2z"/>
	<path class="st3" d="M53.1,158.3c1.1,0,2.3-0.2,3.2-0.6l-0.3-1.7c-0.8,0.4-1.7,0.5-2.6,0.5c-1.7,0-2.5-0.8-2.5-2.5h5.5
		c0.1-0.4,0.1-0.8,0.1-1.1c0-2.2-1.2-4-3.8-4c-2.7,0-4.2,2-4.2,4.8C48.7,156.9,50.2,158.3,53.1,158.3z M52.8,150.6
		c1,0,1.6,0.7,1.5,1.8H51C51.2,151.3,51.8,150.6,52.8,150.6z"/>
	<path class="st3" d="M66.6,161.2c-1.4-2.5-2.1-5.2-2.1-8.3c0-2.9,0.7-5.8,2.1-8.2l-1.7-0.8c-2,3.1-2.7,6.2-2.7,9
		c0,2.9,0.6,5.8,2.7,9L66.6,161.2z"/>
	<path class="st3" d="M73.5,155.3c0-2.9-3.7-2.2-3.7-3.7c0-0.6,0.4-0.9,1.3-0.9c0.6,0,1.1,0.1,1.6,0.2l0.1-1.8
		c-0.5-0.1-1.1-0.2-1.6-0.2c-2.6,0-3.8,1.3-3.8,2.9c0,3,3.6,2.1,3.6,3.7c0,0.6-0.6,1-1.4,1c-0.7,0-1.4-0.1-1.9-0.4l-0.2,1.9
		c0.6,0.2,1.3,0.2,2,0.2C72,158.3,73.5,157.1,73.5,155.3z"/>
	<path class="st3" d="M74.5,149.3v1.4c0.5,0,1.1,0.1,1.6,0.2v7.2h2.3v-9C77,149.1,75.6,149.2,74.5,149.3z"/>
	<path class="st3" d="M77.2,145c-0.8,0-1.4,0.6-1.4,1.4s0.6,1.4,1.4,1.4c0.8,0,1.4-0.6,1.4-1.4C78.6,145.6,78,145,77.2,145z"/>
	<path class="st3" d="M86.5,149c-1.5,0-2.5,0.7-3,1.8h0c0.1-0.5,0.1-1.2,0.1-1.6c-1.2,0-2.6,0-3.7,0.2v1.4c0.5,0,1.1,0.1,1.6,0.2
		v7.2h2.3v-4.3c0-1.6,0.9-2.9,2.1-2.9c0.8,0,1.1,0.6,1.1,1.5v5.7h2.3v-6.3C89.2,150.2,88.6,149,86.5,149z"/>
	<path class="st3" d="M94.3,158.3c1.4,0,2.4-0.7,2.8-1.7h0c-0.1,0.5-0.1,1.1-0.1,1.5c1.2,0,2.6,0,3.7-0.2v-1.4
		c-0.5,0-1.1-0.1-1.6-0.2v-11.4c-1.3,0-2.7,0-3.9,0.2v1.4c0.5,0,1.1,0.1,1.6,0.2v2.3c-0.4-0.1-0.8-0.1-1.1-0.1c-3,0-4.7,2.1-4.7,5.1
		C91.1,156.7,92.2,158.3,94.3,158.3z M95.7,150.8c0.4,0,0.8,0.1,1.2,0.1v2.5c0,1.5-0.7,2.9-1.9,2.9c-1,0-1.5-0.9-1.5-2.5
		C93.5,151.6,94.4,150.8,95.7,150.8z"/>
	<path class="st3" d="M105.4,155.5c0,0.6-0.6,1-1.4,1c-0.7,0-1.4-0.1-1.9-0.4l-0.2,1.9c0.6,0.2,1.3,0.2,2,0.2c2.4,0,3.9-1.2,3.9-3
		c0-2.9-3.7-2.2-3.7-3.7c0-0.6,0.4-0.9,1.3-0.9c0.6,0,1.1,0.1,1.6,0.2l0.1-1.8c-0.5-0.1-1.1-0.2-1.6-0.2c-2.6,0-3.8,1.3-3.8,2.9
		C101.7,154.9,105.4,153.9,105.4,155.5z"/>
	<path class="st3" d="M3,176.8c0-0.6,0.4-0.9,1.3-0.9c0.6,0,1.1,0.1,1.6,0.2l0.1-1.8c-0.5-0.1-1.1-0.2-1.6-0.2
		c-2.6,0-3.8,1.3-3.8,2.9c0,3,3.6,2.1,3.6,3.7c0,0.6-0.6,1-1.4,1c-0.7,0-1.4-0.1-1.9-0.4l-0.2,1.9c0.6,0.2,1.3,0.2,2,0.2
		c2.4,0,3.9-1.2,3.9-3C6.7,177.5,3,178.3,3,176.8z"/>
	<path class="st3" d="M12.2,174.1c-2.7,0-4.2,2-4.2,4.8c0,3.2,1.6,4.6,4.4,4.6c1.1,0,2.3-0.2,3.2-0.6l-0.3-1.7
		c-0.8,0.4-1.7,0.5-2.6,0.5c-1.7,0-2.5-0.8-2.5-2.5h5.5c0.1-0.4,0.1-0.8,0.1-1.1C16,175.9,14.8,174.1,12.2,174.1z M10.4,177.6
		c0.1-1.1,0.8-1.8,1.7-1.8c1,0,1.6,0.7,1.5,1.8H10.4z"/>
	<path class="st3" d="M23.4,174.1c-1.4,0-2.3,0.6-2.8,1.7h0c0.1-0.5,0.1-1.1,0.1-1.5c-1.2,0-2.6,0-3.7,0.2v1.4
		c0.5,0,1.1,0.1,1.6,0.2v11.5h2.3v-4.3c0.4,0.1,0.7,0.1,1.2,0.1c3.1,0,4.7-2,4.7-5.1C26.6,175.7,25.5,174.1,23.4,174.1z M22,181.6
		c-0.5,0-0.8-0.1-1.2-0.2V179c0-1.5,0.7-2.9,1.9-2.9c1,0,1.5,0.9,1.5,2.5C24.2,180.8,23.3,181.6,22,181.6z"/>
	<path class="st3" d="M32.3,181.5c-0.8,0-1.1-0.3-1.1-1.5v-3.9h2.2v-1.8h-2.2v-3.4l-2.3,0.6v2.8h-1.5v1.8h1.5v4.5
		c0,2.1,0.6,2.8,2.6,2.8c0.6,0,1.4-0.1,1.9-0.3l-0.2-1.8C33,181.5,32.7,181.5,32.3,181.5z"/>
	<path class="st3" d="M38.8,174.1c-2.7,0-4.2,2-4.2,4.8c0,3.2,1.6,4.6,4.4,4.6c1.1,0,2.3-0.2,3.2-0.6l-0.3-1.7
		c-0.8,0.4-1.7,0.5-2.6,0.5c-1.7,0-2.5-0.8-2.5-2.5h5.5c0.1-0.4,0.1-0.8,0.1-1.1C42.6,175.9,41.4,174.1,38.8,174.1z M37,177.6
		c0.1-1.1,0.8-1.8,1.7-1.8c1,0,1.6,0.7,1.5,1.8H37z"/>
	<path class="st3" d="M55.5,174.1c-1.5,0-2.5,0.9-2.9,1.8c-0.2-0.9-0.9-1.8-2.5-1.8c-1.3,0-2.4,0.7-3,1.8l0,0
		c0.1-0.5,0.1-1.2,0.1-1.6c-1.2,0-2.6,0-3.7,0.2v1.4c0.5,0,1.1,0.1,1.6,0.2v7.2h2.3V179c0-1.7,1-2.9,2.1-2.9c0.9,0,1.1,0.6,1.1,1.5
		v5.7h2.3V179c0-1.7,1-2.9,2.1-2.9c0.8,0,1.1,0.6,1.1,1.5v5.7h2.3v-6.2C58.2,175.1,57.3,174.1,55.5,174.1z"/>
	<path class="st3" d="M65.7,174.1c-1.3,0-2.3,0.6-2.7,1.6h0c0.1-0.5,0.1-1.2,0.1-1.7v-3.9c-1.3,0-2.7,0-3.9,0.2v1.4
		c0.5,0,1.1,0.1,1.6,0.2V183c1,0.3,2,0.4,3.3,0.4c3.1,0,4.8-2.1,4.8-5.1C68.9,175.7,67.8,174.1,65.7,174.1z M64.3,181.6
		c-0.5,0-0.9-0.1-1.2-0.2v-2.5c0-1.5,0.7-2.9,1.9-2.9c1,0,1.5,0.8,1.5,2.5C66.5,180.8,65.6,181.6,64.3,181.6z"/>
	<path class="st3" d="M74.4,174.1c-2.7,0-4.2,2-4.2,4.8c0,3.2,1.6,4.6,4.4,4.6c1.1,0,2.3-0.2,3.2-0.6l-0.3-1.7
		c-0.8,0.4-1.7,0.5-2.6,0.5c-1.7,0-2.5-0.8-2.5-2.5h5.5c0.1-0.4,0.1-0.8,0.1-1.1C78.1,175.9,77,174.1,74.4,174.1z M72.6,177.6
		c0.1-1.1,0.8-1.8,1.7-1.8c1,0,1.6,0.7,1.5,1.8H72.6z"/>
	<path class="st3" d="M82.7,176.1L82.7,176.1c0.1-0.6,0.1-1.4,0.1-1.8c-1.2,0-2.6,0-3.7,0.2v1.4c0.5,0,1.1,0.1,1.6,0.2v7.2H83v-3.7
		c0-2.5,0.8-3.6,2.5-3.2l0.1-2.3C84,174,83.1,175,82.7,176.1z"/>
	<path class="st3" d="M93.9,181.1L93.9,181.1l1.4-1.4c2.3-2.2,2.9-3.4,2.9-4.9c0-1.8-1.2-3.5-4-3.5c-1.3,0-2.5,0.4-3.4,0.9l0.5,2.1
		c0.6-0.4,1.5-0.8,2.5-0.8c1.3,0,2,0.8,2,1.7c0,1-0.5,1.7-3.2,4.4l-1.8,1.7v1.9h8V181h-1.4C95.9,181,94.7,181.1,93.9,181.1z"/>
	<path class="st3" d="M104.7,171.4c-2.6,0-4.4,1.9-4.4,6c0,4.7,1.6,6.1,4.2,6.1c2.3,0,4.4-1.8,4.4-6.1
		C108.9,172.9,107.4,171.4,104.7,171.4z M104.6,181.5c-1.3,0-1.8-0.9-1.8-4.2c0-3.1,0.8-4,1.8-4c1.2,0,1.8,0.8,1.8,4.1
		C106.4,180.4,105.8,181.5,104.6,181.5z"/>
	<polygon class="st3" points="116.1,171.6 114.3,171.6 110.7,172.8 111.1,175 113.7,173.9 113.7,181.2 110.8,181.2 110.8,183.3 
		118.6,183.3 118.6,181.2 116.1,181.2 	"/>
	<path class="st3" d="M126.5,177.1c1-0.7,1.9-1.5,1.9-2.8c0-1.7-1.4-2.9-3.8-2.9c-2.4,0-4.1,1.3-4.1,3.3c0,1.3,0.7,2.1,1.9,2.8
		c-1.2,0.7-2.2,1.6-2.2,3c0,1.9,1.6,3.1,4.1,3.1c2.4,0,4.3-1.2,4.3-3.4C128.6,178.5,127.6,177.7,126.5,177.1z M124.4,173.1
		c1.1,0,1.7,0.6,1.7,1.3c0,0.8-0.7,1.3-1.5,1.7c-1.1-0.5-1.7-1-1.7-1.8C122.8,173.8,123.3,173.1,124.4,173.1z M124.5,181.6
		c-1.3,0-1.9-0.6-1.9-1.4c0-0.9,0.8-1.4,1.7-1.9c1.1,0.5,2,1,2,2C126.3,181.1,125.5,181.6,124.5,181.6z"/>
	<path class="st3" d="M131.4,169.1l-1.7,0.8c1.4,2.5,2.1,5.2,2.1,8.3c0,3-0.7,5.8-2.1,8.2l1.7,0.8c2-3.1,2.7-6.2,2.7-9.1
		C134,175.2,133.3,172.3,131.4,169.1z"/>
	<polygon class="st3" points="7.9,110.5 7.9,124.6 2.2,124.6 2.2,128.6 17.5,128.6 17.5,124.6 12.6,124.6 12.6,105.9 9.1,105.9 
		2.1,108.2 2.8,112.5 	"/>
	<path class="st3" d="M30.1,123.7v4.9h4.4v-4.9h3.2v-4h-3.2v-13.8h-6.1L19.8,120l0.4,3.7H30.1z M30.1,110.3L30.1,110.3l0,9.3
		c-1.1,0-4.3,0-5.9,0.1L30.1,110.3z"/>
</g>
</svg>
