<?xml version="1.0" encoding="UTF-8"?>
<svg xmlns="http://www.w3.org/2000/svg" xmlns:xlink="http://www.w3.org/1999/xlink" version="1.2" >
<font id="TheMix B7 Bold Italic">
<font-face  font-family="TheMix" units-per-em="1000" ascent="750" descent="-250" font-style="italic" font-weight="700" font-stretch="normal" slope="-11" cap-height="750" x-height="500" underline-position="-144" underline-thickness="102" />
<missing-glyph  horiz-adv-x="550" d="" />
<glyph glyph-name="NULL" d="" />
<glyph glyph-name="CR" unicode="&#xd;" horiz-adv-x="250" d="" />
<glyph glyph-name="space" unicode="&#x20;" horiz-adv-x="218" d="" />
<glyph glyph-name="exclam" unicode="&#x21;" horiz-adv-x="315" d="M332 708 L185 708 L106 188 L214 188 L332 708 Z M214 69 C214 107 184 141 140 141 C96 141 58 107 58 60 C58 22 88 -11 132 -11 C176 -11 214 22 214 69 L214 69 Z " />
<glyph glyph-name="quotedbl" unicode="&#x22;" horiz-adv-x="397" d="M444 702 L319 702 L287 448 L380 448 L444 702 Z M260 702 L134 702 L102 448 L195 448 L260 702 Z " />
<glyph glyph-name="numbersign" unicode="&#x23;" horiz-adv-x="550" d="M572 483 L497 483 L545 650 L452 650 L404 483 L277 483 L326 650 L233 650 L184 483 L99 483 L82 396 L158 396 L118 259 L33 259 L16 171 L92 171 L41 0 L134 0 L185 171 L312 171 L261 0 L354 0 L405 171 L490 171 L506 259 L431 259 L471 396 L555 396 L572 483 Z M378 396 L338 259 L211 259 L251 396 L378 396 Z " />
<glyph glyph-name="dollar" unicode="&#x24;" horiz-adv-x="550" d="M495 631 C465 637 433 640 400 642 L417 730 L325 730 L308 637 C195 620 117 539 117 445 C117 273 331 302 331 199 C331 157 284 121 211 121 C166 121 118 131 85 143 L62 28 C96 21 139 15 176 15 L156 -85 L247 -85 L267 20 C383 40 469 124 469 227 C469 395 252 375 252 466 C252 507 291 538 362 538 C395 538 436 533 473 521 L495 631 Z " />
<glyph glyph-name="percent" unicode="&#x25;" horiz-adv-x="745" d="M392 546 C392 621 346 661 265 661 C181 661 85 590 85 460 C85 386 127 342 210 342 C295 342 392 413 392 546 L392 546 Z M730 609 L662 670 L50 39 L118 -22 L730 609 Z M699 192 C699 268 653 308 572 308 C489 308 392 236 392 106 C392 32 434 -11 518 -11 C603 -11 699 60 699 192 L699 192 Z M297 536 C297 474 263 423 219 423 C194 423 179 435 179 468 C179 528 213 581 257 581 C284 581 297 568 297 536 L297 536 Z M604 182 C604 121 571 69 526 69 C501 69 487 81 487 115 C487 174 520 227 565 227 C591 227 604 214 604 182 L604 182 Z " />
<glyph glyph-name="ampersand" unicode="&#x26;" horiz-adv-x="784" d="M748 458 C681 461 608 458 546 451 L532 376 C553 374 584 370 604 366 C590 307 560 258 526 223 C468 278 412 336 369 390 C451 451 526 517 526 608 C526 685 476 739 360 739 C234 739 148 648 148 553 C148 509 170 457 206 400 C121 339 41 267 41 159 C41 65 101 -11 242 -11 C336 -11 430 18 511 73 C553 37 593 6 637 -26 L724 61 C687 89 648 120 610 153 C689 236 741 345 748 458 L748 458 Z M400 592 C400 545 358 509 307 472 C286 509 273 540 273 565 C273 609 305 642 348 642 C383 642 400 622 400 592 L400 592 Z M424 148 C372 114 316 98 268 98 C203 98 174 138 174 184 C174 238 218 278 270 317 C315 259 371 200 424 148 L424 148 Z " />
<glyph glyph-name="quotesingle" unicode="&#x27;" horiz-adv-x="211" d="M260 702 L134 702 L102 448 L195 448 L260 702 Z " />
<glyph glyph-name="parenleft" unicode="&#x28;" horiz-adv-x="300" d="M389 742 L302 786 C133 581 45 341 45 128 C45 4 69 -109 115 -215 L216 -172 C182 -79 168 17 168 134 C168 328 260 577 389 742 L389 742 Z " />
<glyph glyph-name="parenright" unicode="&#x29;" horiz-adv-x="300" d="M280 443 C280 568 256 681 210 786 L110 743 C143 651 158 555 158 437 C158 244 65 -6 -63 -171 L24 -215 C193 -9 280 231 280 443 L280 443 Z " />
<glyph glyph-name="asterisk" unicode="&#x2a;" horiz-adv-x="377" d="M420 599 L390 681 L295 620 L333 723 L244 735 L237 624 L166 698 L106 625 L198 577 L90 545 L120 463 L214 523 L176 421 L265 409 L273 519 L344 445 L403 519 L312 566 L420 599 Z " />
<glyph glyph-name="plus" unicode="&#x2b;" horiz-adv-x="550" d="M534 351 L359 351 L394 536 L272 536 L237 351 L63 351 L42 244 L217 244 L181 58 L303 58 L338 244 L514 244 L534 351 Z " />
<glyph glyph-name="comma" unicode="&#x2c;" horiz-adv-x="253" d="M101 149 C36 149 5 77 35 31 C61 -9 49 -52 -33 -119 L13 -172 C247 -10 195 149 101 149 L101 149 Z " />
<glyph glyph-name="hyphen" unicode="&#x2d;" horiz-adv-x="330" d="M306 329 L64 329 L44 226 L286 226 L306 329 Z " />
<glyph glyph-name="period" unicode="&#x2e;" horiz-adv-x="256" d="M183 74 C183 115 149 152 104 152 C59 152 20 115 20 67 C20 26 54 -11 99 -11 C144 -11 183 26 183 74 L183 74 Z " />
<glyph glyph-name="slash" unicode="&#x2f;" horiz-adv-x="454" d="M557 757 L430 757 L-91 -161 L37 -161 L557 757 Z " />
<glyph glyph-name="zero" unicode="0" horiz-adv-x="550" d="M547 460 C547 599 481 661 357 661 C125 661 41 381 41 190 C41 47 108 -11 232 -11 C462 -11 547 269 547 460 L547 460 Z M412 454 C412 366 367 99 248 99 C193 99 175 130 175 198 C175 286 220 553 340 553 C394 553 412 522 412 454 L412 454 Z " />
<glyph glyph-name="one" unicode="1" horiz-adv-x="550" d="M483 115 L340 115 L442 650 L340 650 L129 582 L130 460 L284 516 L208 115 L44 115 L22 0 L461 0 L483 115 Z " />
<glyph glyph-name="two" unicode="2" horiz-adv-x="550" d="M518 499 C518 589 457 661 325 661 C247 661 179 640 127 613 L134 498 C172 522 228 544 281 544 C343 544 371 512 371 471 C371 406 333 356 153 209 L28 106 L7 0 L449 0 L473 123 L396 123 C325 123 257 122 213 121 L213 122 L306 197 C482 337 518 411 518 499 L518 499 Z " />
<glyph glyph-name="three" unicode="3" horiz-adv-x="550" d="M522 520 C522 605 462 661 324 661 C265 661 199 648 146 629 L147 522 C191 541 240 555 291 555 C354 555 383 531 383 495 C383 430 308 378 160 378 L130 378 L111 279 C147 283 178 285 221 285 C303 285 341 255 341 211 C341 154 286 96 168 96 C126 96 83 103 55 114 L25 3 C50 -4 96 -11 148 -11 C396 -11 482 130 482 228 C482 293 445 341 379 352 L380 355 C471 379 522 445 522 520 L522 520 Z " />
<glyph glyph-name="four" unicode="4" horiz-adv-x="550" d="M519 650 L344 650 L22 249 L13 141 L296 141 L270 0 L395 0 L422 141 L512 141 L535 256 L444 256 L519 650 Z M372 520 L321 256 C289 256 199 255 154 254 L371 520 L372 520 Z " />
<glyph glyph-name="five" unicode="5" horiz-adv-x="550" d="M542 650 L168 650 L100 294 C126 299 168 302 206 302 C301 302 345 278 345 226 C345 149 277 99 176 99 C137 99 94 106 58 117 L35 1 C72 -7 108 -11 164 -11 C345 -11 488 93 488 248 C488 335 426 403 280 403 C269 403 254 403 242 402 L266 530 L519 530 L542 650 Z " />
<glyph glyph-name="six" unicode="6" horiz-adv-x="550" d="M537 655 C520 658 490 660 456 660 C153 660 41 373 41 188 C41 57 109 -11 236 -11 C398 -11 516 102 516 257 C516 351 457 414 342 414 C283 414 228 391 194 352 L193 352 C199 367 209 385 215 399 C261 496 332 552 440 552 C467 552 493 549 517 545 L537 655 Z M384 231 C384 153 328 93 256 93 C198 93 169 129 169 181 C169 249 221 309 300 309 C356 309 384 280 384 231 L384 231 Z " />
<glyph glyph-name="seven" unicode="7" horiz-adv-x="550" d="M580 650 L131 650 L107 525 L197 525 C274 525 376 526 404 527 C301 383 176 174 86 0 L238 0 C317 159 434 366 559 540 L580 650 Z " />
<glyph glyph-name="eight" unicode="8" horiz-adv-x="550" d="M547 523 C547 607 481 661 354 661 C212 661 102 566 102 451 C102 393 137 357 179 329 C95 287 26 232 26 133 C26 43 99 -11 233 -11 C368 -11 501 71 501 205 C501 271 458 309 409 339 C498 387 547 442 547 523 L547 523 Z M415 505 C415 460 386 430 308 391 C266 413 233 435 233 472 C233 520 272 562 339 562 C390 562 415 539 415 505 L415 505 Z M367 188 C367 125 312 91 249 91 C190 91 160 118 160 153 C160 192 183 230 280 277 C327 254 367 230 367 188 L367 188 Z " />
<glyph glyph-name="nine" unicode="9" horiz-adv-x="550" d="M544 463 C544 604 466 661 346 661 C174 661 70 529 70 394 C70 290 139 235 245 235 C298 235 347 253 384 286 L385 286 C381 277 377 266 372 252 C334 160 254 98 146 98 C116 98 78 103 54 111 L32 -3 C60 -8 90 -10 131 -10 C464 -10 544 308 544 463 L544 463 Z M413 472 C413 393 352 340 283 340 C230 340 201 367 201 418 C201 489 251 557 329 557 C384 557 413 523 413 472 L413 472 Z " />
<glyph glyph-name="colon" unicode="&#x3a;" horiz-adv-x="295" d="M266 357 C266 398 231 435 187 435 C142 435 103 398 103 350 C103 309 138 272 183 272 C227 272 266 309 266 357 L266 357 Z M212 74 C212 115 177 152 133 152 C88 152 49 115 49 67 C49 26 84 -11 129 -11 C173 -11 212 26 212 74 L212 74 Z " />
<glyph glyph-name="semicolon" unicode="&#x3b;" horiz-adv-x="295" d="M266 357 C266 398 231 435 187 435 C142 435 103 398 103 350 C103 309 138 272 183 272 C227 272 266 309 266 357 L266 357 Z M132 149 C67 149 36 77 65 31 C91 -9 79 -52 -2 -119 L44 -172 C277 -10 226 149 132 149 L132 149 Z " />
<glyph glyph-name="less" unicode="&#x3c;" horiz-adv-x="550" d="M518 507 L443 595 L77 308 L348 6 L441 87 L242 299 L518 507 Z " />
<glyph glyph-name="equal" unicode="&#x3d;" horiz-adv-x="550" d="M537 444 L94 444 L75 341 L518 341 L537 444 Z M501 253 L58 253 L39 150 L482 150 L501 253 Z " />
<glyph glyph-name="greater" unicode="&#x3e;" horiz-adv-x="550" d="M500 293 L230 595 L136 514 L336 302 L60 94 L134 6 L500 293 Z " />
<glyph glyph-name="question" unicode="&#x3f;" horiz-adv-x="442" d="M449 532 C449 627 361 707 175 717 L138 601 C234 593 308 565 308 509 C308 404 89 386 119 188 L242 188 C221 347 449 351 449 532 L449 532 Z M237 69 C237 107 207 141 163 141 C119 141 82 107 82 60 C82 22 111 -11 155 -11 C199 -11 237 22 237 69 L237 69 Z " />
<glyph glyph-name="at" unicode="&#x40;" horiz-adv-x="962" d="M899 451 C899 612 794 736 575 736 C291 736 87 496 87 230 C87 37 205 -82 433 -82 C494 -82 577 -70 645 -48 L636 52 C577 33 517 23 459 23 C284 23 204 108 204 247 C204 441 342 634 558 634 C724 634 785 541 785 437 C785 312 728 230 653 230 C613 230 602 257 621 322 L676 520 C648 531 602 540 555 540 C363 540 294 365 294 243 C294 167 328 130 384 130 C448 130 507 183 532 226 L535 226 C527 172 557 130 631 130 C800 130 899 275 899 451 L899 451 Z M560 449 L548 405 C513 283 459 229 421 229 C404 229 396 243 396 269 C396 356 453 455 520 455 C534 455 549 453 560 449 L560 449 Z " />
<glyph glyph-name="A" unicode="A" horiz-adv-x="614" d="M570 0 L462 675 L318 675 L-42 0 L91 0 L163 138 L413 138 L433 0 L570 0 Z M400 241 L215 241 L317 433 C334 465 348 497 360 526 L361 526 C363 497 366 464 371 432 L400 241 Z " />
<glyph glyph-name="B" unicode="B" horiz-adv-x="568" d="M566 542 C566 634 495 679 367 679 C293 679 210 677 154 674 L26 0 C110 0 180 -2 224 -2 C414 -2 527 106 527 234 C527 291 494 343 438 357 L438 358 C511 388 566 448 566 542 L566 542 Z M427 512 C427 439 368 395 275 395 C258 395 244 395 229 396 L263 572 C285 573 309 574 334 574 C405 574 427 550 427 512 L427 512 Z M390 225 C390 161 338 104 240 104 C214 104 189 106 175 108 L210 297 C224 298 255 298 279 298 C354 298 390 273 390 225 L390 225 Z " />
<glyph glyph-name="C" unicode="C" horiz-adv-x="549" d="M587 662 C547 673 499 681 444 681 C182 681 47 457 47 228 C47 117 93 -8 298 -8 C354 -8 421 3 472 20 L473 138 C433 121 386 110 336 110 C226 110 192 166 192 252 C192 386 253 565 431 565 C471 565 513 557 552 543 L587 662 Z " />
<glyph glyph-name="D" unicode="D" horiz-adv-x="654" d="M651 435 C651 593 556 679 365 679 C290 679 206 676 154 674 L26 1 C82 -1 139 -4 217 -4 C507 -4 651 209 651 435 L651 435 Z M512 422 C512 292 440 107 236 107 C218 107 192 109 175 112 L261 567 C282 569 310 570 345 570 C472 570 512 511 512 422 L512 422 Z " />
<glyph glyph-name="E" unicode="E" horiz-adv-x="482" d="M513 675 L154 675 L26 0 L385 0 L406 111 L175 111 L209 294 L429 294 L450 400 L229 400 L261 566 L493 566 L513 675 Z " />
<glyph glyph-name="F" unicode="F" horiz-adv-x="456" d="M508 675 L154 675 L26 0 L154 0 L208 284 L421 284 L442 391 L228 391 L261 565 L487 565 L508 675 Z " />
<glyph glyph-name="G" unicode="G" horiz-adv-x="661" d="M671 658 C612 676 545 685 478 685 C229 685 48 499 48 248 C48 96 136 -10 329 -10 C403 -10 488 4 558 30 L620 354 L493 354 L448 120 C419 112 387 107 352 107 C230 107 186 182 186 264 C186 426 291 569 466 569 C519 569 581 557 633 535 L671 658 Z " />
<glyph glyph-name="H" unicode="H" horiz-adv-x="673" d="M690 675 L562 675 L511 405 L230 405 L282 675 L154 675 L26 0 L154 0 L209 293 L490 293 L434 0 L562 0 L690 675 Z " />
<glyph glyph-name="I" unicode="I" horiz-adv-x="265" d="M282 675 L154 675 L26 0 L154 0 L282 675 Z " />
<glyph glyph-name="J" unicode="J" horiz-adv-x="327" d="M346 675 L219 675 L127 191 C114 123 81 101 33 101 C12 101 -7 105 -21 111 L-43 -1 C-22 -5 2 -9 37 -9 C174 -9 232 74 251 177 L346 675 Z " />
<glyph glyph-name="K" unicode="K" horiz-adv-x="573" d="M639 675 L476 675 L223 369 L281 675 L154 675 L26 0 L153 0 L215 324 L354 0 L513 0 L344 339 L639 675 Z " />
<glyph glyph-name="L" unicode="L" horiz-adv-x="420" d="M390 114 L175 114 L282 675 L154 675 L26 0 L368 0 L390 114 Z " />
<glyph glyph-name="M" unicode="M" horiz-adv-x="862" d="M814 675 L662 675 L484 326 C459 278 438 233 420 186 L418 186 C417 234 415 280 409 328 L365 675 L218 675 L-12 0 L121 0 L218 311 C237 370 253 424 270 483 L271 483 C270 429 274 371 281 315 L321 0 L446 0 L616 339 C642 392 663 440 679 483 L681 483 C676 431 673 378 670 320 L657 0 L790 0 L814 675 Z " />
<glyph glyph-name="N" unicode="N" horiz-adv-x="672" d="M690 675 L565 675 L514 396 C502 332 490 258 482 196 C468 247 452 303 431 356 L305 675 L154 675 L26 0 L150 0 L205 291 C218 358 228 421 236 484 C247 439 263 387 282 337 L412 0 L561 0 L690 675 Z " />
<glyph glyph-name="O" unicode="O" horiz-adv-x="689" d="M688 439 C688 596 602 686 439 686 C215 686 44 479 44 235 C44 82 123 -11 294 -11 C510 -11 688 179 688 439 L688 439 Z M551 424 C551 252 449 107 312 107 C227 107 181 162 181 257 C181 418 274 569 418 569 C509 569 551 511 551 424 L551 424 Z " />
<glyph glyph-name="P" unicode="P" horiz-adv-x="520" d="M547 507 C547 619 467 679 336 679 C268 679 209 678 154 675 L26 0 L153 0 L198 238 C214 237 231 236 243 236 C412 236 547 355 547 507 L547 507 Z M414 490 C414 410 343 345 256 345 C243 345 231 345 220 348 L262 572 C277 573 291 573 314 573 C387 573 414 539 414 490 L414 490 Z " />
<glyph glyph-name="Q" unicode="Q" horiz-adv-x="690" d="M688 439 C688 596 601 686 437 686 C211 686 44 480 44 235 C44 82 123 -11 294 -11 C510 -11 688 179 688 439 L688 439 Z M627 -89 C458 -113 418 -41 241 -62 L221 -173 C374 -153 421 -228 606 -199 L627 -89 Z M551 424 C551 252 449 107 312 107 C227 107 181 162 181 257 C181 418 274 569 418 569 C509 569 551 511 551 424 L551 424 Z " />
<glyph glyph-name="R" unicode="R" horiz-adv-x="555" d="M553 525 C553 623 488 679 341 679 C269 679 207 678 154 675 L26 0 L154 0 L207 279 L217 279 L343 0 L493 0 L383 222 C371 247 359 272 347 296 C466 323 553 405 553 525 L553 525 Z M417 501 C417 425 355 373 269 373 C250 373 234 374 225 375 L262 570 C275 572 296 573 320 573 C388 573 417 548 417 501 L417 501 Z " />
<glyph glyph-name="S" unicode="S" horiz-adv-x="460" d="M463 677 C425 684 391 686 352 686 C176 686 86 582 86 460 C86 299 279 299 279 201 C279 140 233 103 147 103 C111 103 71 112 39 127 L16 4 C51 -7 95 -11 138 -11 C303 -11 419 93 419 223 C419 385 224 388 224 490 C224 535 260 578 346 578 C374 578 409 573 441 562 L463 677 Z " />
<glyph glyph-name="T" unicode="T" horiz-adv-x="500" d="M570 675 L101 675 L80 564 L251 564 L144 0 L271 0 L379 564 L550 564 L570 675 Z " />
<glyph glyph-name="U" unicode="U" horiz-adv-x="667" d="M684 675 L558 675 L478 259 C456 143 404 97 304 97 C207 97 180 145 197 237 L281 675 L153 675 L72 247 C45 103 83 -11 286 -11 C456 -11 568 70 602 248 L684 675 Z " />
<glyph glyph-name="V" unicode="V" horiz-adv-x="616" d="M698 675 L562 675 L359 288 C335 243 311 194 292 148 L290 148 C288 190 283 242 278 280 L223 675 L89 675 L190 0 L338 0 L698 675 Z " />
<glyph glyph-name="W" unicode="W" horiz-adv-x="934" d="M995 675 L862 675 L700 298 C682 256 667 215 652 168 L651 168 C654 215 653 262 650 300 L618 675 L482 675 L310 298 C290 255 275 210 259 165 L258 165 C261 211 263 257 261 301 L240 675 L110 675 L149 0 L298 0 L466 375 C486 420 502 464 516 511 L517 511 C514 463 512 415 515 372 L541 0 L698 0 L995 675 Z " />
<glyph glyph-name="X" unicode="X" horiz-adv-x="615" d="M669 675 L519 675 L343 442 L252 675 L110 675 L245 348 L-34 0 L121 0 L310 248 L406 0 L560 0 L408 342 L669 675 Z " />
<glyph glyph-name="Y" unicode="Y" horiz-adv-x="550" d="M633 675 L492 675 L376 494 C348 451 320 408 299 369 L297 369 C291 404 283 441 273 481 L222 675 L88 675 L212 238 L167 0 L294 0 L339 239 L633 675 Z " />
<glyph glyph-name="Z" unicode="Z" horiz-adv-x="520" d="M558 675 L137 675 L116 558 L260 558 C326 558 354 559 378 560 C358 539 340 519 323 496 L20 100 L1 0 L434 0 L457 120 L324 120 C244 120 198 120 182 118 C197 134 209 149 221 165 L539 571 L558 675 Z " />
<glyph glyph-name="bracketleft" unicode="&#x5b;" horiz-adv-x="321" d="M391 777 L176 777 L-11 -205 L204 -205 L223 -102 L125 -102 L274 676 L371 676 L391 777 Z " />
<glyph glyph-name="backslash" unicode="&#x5c;" horiz-adv-x="470" d="M401 -161 L224 757 L110 757 L286 -161 L401 -161 Z " />
<glyph glyph-name="bracketright" unicode="&#x5d;" horiz-adv-x="321" d="M357 777 L141 777 L121 676 L219 676 L71 -102 L-27 -102 L-46 -205 L170 -205 L357 777 Z " />
<glyph glyph-name="asciicircum" unicode="&#x5e;" horiz-adv-x="550" d="M504 383 L393 675 L296 675 L79 382 L157 337 L328 584 L408 337 L504 383 Z " />
<glyph glyph-name="underscore" unicode="&#x5f;" horiz-adv-x="550" d="M473 -144 L-66 -144 L-86 -246 L453 -246 L473 -144 Z " />
<glyph glyph-name="grave" unicode="&#x60;" horiz-adv-x="366" d="M360 628 L198 754 L136 671 L308 560 L360 628 Z " />
<glyph glyph-name="a" unicode="a" horiz-adv-x="574" d="M525 491 C469 502 409 506 349 506 C131 506 30 332 30 144 C30 38 71 -11 147 -11 C246 -11 315 85 355 158 L357 158 C334 89 320 39 312 -1 C378 -3 454 0 518 8 L533 88 C505 90 472 94 450 98 L525 491 Z M383 399 L377 367 C357 262 268 99 197 99 C172 99 159 119 159 168 C159 272 212 406 327 406 C349 406 367 403 383 399 L383 399 Z " />
<glyph glyph-name="b" unicode="b" horiz-adv-x="547" d="M523 353 C523 459 482 508 406 508 C318 508 247 438 197 339 L195 339 C226 426 241 473 250 518 L290 731 C218 733 141 730 78 722 L63 642 C91 640 124 636 147 632 L28 9 C81 -3 138 -9 204 -9 C422 -9 523 165 523 353 L523 353 Z M393 329 C393 225 341 91 226 91 C203 91 187 94 170 98 L176 132 C197 235 284 398 356 398 C380 398 393 378 393 329 L393 329 Z " />
<glyph glyph-name="c" unicode="c" horiz-adv-x="404" d="M423 494 C392 502 360 507 324 507 C143 507 31 352 31 162 C31 58 82 -10 215 -10 C258 -10 301 -2 336 11 L344 120 C317 109 284 102 252 102 C184 102 164 143 164 190 C164 283 212 399 316 399 C346 399 371 394 393 384 L423 494 Z " />
<glyph glyph-name="d" unicode="d" horiz-adv-x="574" d="M571 731 C499 733 422 730 358 722 L343 642 C372 640 404 636 427 632 L402 502 C381 505 366 506 349 506 C131 506 30 332 30 144 C30 38 71 -11 147 -11 C246 -11 315 85 355 158 L357 158 C334 89 319 38 313 -1 C378 -3 454 0 518 8 L533 88 C505 90 472 94 450 98 L571 731 Z M383 399 L377 367 C357 262 268 99 197 99 C172 99 159 119 159 168 C159 272 212 406 327 406 C349 406 367 403 383 399 L383 399 Z " />
<glyph glyph-name="e" unicode="e" horiz-adv-x="485" d="M474 386 C474 446 436 507 313 507 C158 507 32 366 32 158 C32 48 82 -10 208 -10 C274 -10 339 1 395 22 L393 120 C347 101 297 90 249 90 C180 90 158 107 158 164 C158 175 160 192 161 203 C356 209 474 267 474 386 L474 386 Z M350 369 C350 316 290 292 175 288 C193 353 234 413 299 413 C331 413 350 397 350 369 L350 369 Z " />
<glyph glyph-name="f" unicode="f" horiz-adv-x="347" d="M465 730 C439 736 412 738 384 738 C244 738 175 667 151 534 L145 497 L60 497 L40 398 L125 398 L46 -17 C27 -116 -5 -142 -61 -142 C-78 -142 -101 -139 -119 -134 L-149 -239 C-121 -245 -91 -248 -62 -248 C61 -248 142 -178 172 -18 L250 398 L364 398 L383 497 L270 497 L276 530 C290 606 319 634 377 634 C395 634 418 631 436 626 L465 730 Z " />
<glyph glyph-name="g" unicode="g" horiz-adv-x="539" d="M525 491 C469 502 409 506 349 506 C131 506 30 332 30 144 C30 38 71 -11 147 -11 C246 -11 315 85 354 156 L356 155 C328 77 316 41 305 -16 C288 -105 234 -141 140 -141 C94 -141 43 -131 3 -112 L-26 -229 C13 -242 62 -250 118 -250 C312 -250 399 -168 425 -31 L525 491 Z M383 399 L377 367 C357 262 268 99 197 99 C172 99 159 119 159 168 C159 272 212 406 327 406 C349 406 367 403 383 399 L383 399 Z " />
<glyph glyph-name="h" unicode="h" horiz-adv-x="564" d="M518 343 C537 440 508 508 412 508 C317 508 248 431 203 342 L201 343 C231 426 246 476 254 520 L294 731 C222 733 145 730 81 722 L67 642 C95 640 128 636 151 632 L30 0 L155 0 L179 126 C201 242 291 398 358 398 C390 398 399 373 388 312 L328 0 L453 0 L518 343 Z " />
<glyph glyph-name="i" unicode="i" horiz-adv-x="294" d="M320 656 C320 692 290 726 246 726 C202 726 162 691 162 642 C162 605 192 571 236 571 C280 571 320 606 320 656 L320 656 Z M277 498 C205 500 128 497 64 489 L49 409 C78 407 111 403 133 399 L57 0 L182 0 L277 498 Z " />
<glyph glyph-name="j" unicode="j" horiz-adv-x="294" d="M320 656 C320 692 290 726 246 726 C202 726 162 691 162 642 C162 605 192 571 236 571 C280 571 320 606 320 656 L320 656 Z M277 498 C205 500 128 497 64 489 L49 409 C78 407 111 403 133 399 L51 -28 C34 -112 12 -141 -42 -141 C-57 -141 -78 -138 -95 -131 L-122 -240 C-103 -245 -78 -248 -54 -248 C86 -248 149 -172 173 -42 L277 498 Z " />
<glyph glyph-name="k" unicode="k" horiz-adv-x="508" d="M525 461 L427 526 L211 294 L294 731 C222 733 145 730 81 722 L67 642 C95 640 128 636 151 632 L30 0 L155 0 L203 249 L307 0 L459 0 L326 268 L525 461 Z " />
<glyph glyph-name="l" unicode="l" horiz-adv-x="266" d="M294 731 C222 733 145 730 81 722 L67 642 C95 640 128 636 151 632 L30 0 L155 0 L294 731 Z " />
<glyph glyph-name="m" unicode="m" horiz-adv-x="882" d="M837 343 C855 440 826 508 731 508 C638 508 569 431 523 339 L522 339 C532 372 536 391 536 411 C536 475 496 508 436 508 C342 508 275 431 229 342 L227 343 C246 395 262 448 272 498 C206 500 128 497 64 489 L49 409 C78 407 111 403 133 399 L57 0 L182 0 L206 126 C231 258 324 399 383 399 C413 399 423 373 411 312 L351 0 L476 0 L500 126 C525 258 618 399 677 399 C707 399 717 373 705 312 L646 0 L771 0 L837 343 Z " />
<glyph glyph-name="n" unicode="n" horiz-adv-x="590" d="M545 343 C564 440 535 508 438 508 C344 508 275 431 229 342 L227 343 C255 421 266 468 272 498 C206 500 128 497 64 489 L49 409 C78 407 111 403 133 399 L57 0 L182 0 L206 126 C227 242 318 398 385 398 C416 398 426 373 415 312 L355 0 L480 0 L545 343 Z " />
<glyph glyph-name="o" unicode="o" horiz-adv-x="545" d="M525 326 C525 431 472 507 330 507 C171 507 31 376 31 168 C31 56 86 -10 225 -10 C381 -10 525 121 525 326 L525 326 Z M393 310 C393 199 331 100 242 100 C184 100 162 134 162 188 C162 287 218 398 311 398 C369 398 393 367 393 310 L393 310 Z " />
<glyph glyph-name="p" unicode="p" horiz-adv-x="574" d="M554 353 C554 459 513 508 437 508 C349 508 278 438 229 340 L227 341 C253 418 264 459 272 498 C206 500 128 497 64 489 L49 409 C78 407 111 403 133 399 L11 -241 L136 -241 L181 -5 C201 -8 217 -9 235 -9 C453 -9 554 165 554 353 L554 353 Z M424 329 C424 225 371 91 257 91 C239 91 218 95 201 100 L207 132 C228 235 315 398 387 398 C411 398 424 378 424 329 L424 329 Z " />
<glyph glyph-name="q" unicode="q" horiz-adv-x="542" d="M525 490 C469 501 409 506 349 506 C131 506 30 332 30 144 C30 38 71 -11 147 -11 C246 -11 315 85 355 158 L357 158 C326 75 311 25 300 -36 L261 -242 C333 -244 410 -241 474 -233 L488 -153 C460 -151 427 -147 404 -143 L525 490 Z M383 399 L377 367 C357 262 268 99 197 99 C172 99 159 119 159 168 C159 272 212 406 327 406 C349 406 367 403 383 399 L383 399 Z " />
<glyph glyph-name="r" unicode="r" horiz-adv-x="390" d="M431 506 C338 526 283 453 230 347 L228 347 C251 415 263 459 270 498 C205 500 128 497 64 489 L49 409 C78 407 111 403 133 399 L57 0 L182 0 L202 108 C232 267 317 415 404 382 L431 506 Z " />
<glyph glyph-name="s" unicode="s" horiz-adv-x="377" d="M361 500 C336 505 309 507 277 507 C134 507 63 437 63 346 C63 229 191 214 191 147 C191 111 159 91 108 91 C83 91 55 97 32 106 L9 -1 C34 -7 63 -10 96 -10 C251 -10 323 76 323 159 C323 269 194 298 194 359 C194 391 219 412 271 412 C293 412 316 409 338 402 L361 500 Z " />
<glyph glyph-name="t" unicode="t" horiz-adv-x="367" d="M385 497 L267 497 L301 676 L171 650 L142 497 L58 497 L38 398 L123 398 L78 160 C55 41 85 -10 192 -10 C223 -10 261 -5 294 3 L306 105 C288 101 269 98 244 98 C203 98 195 114 206 174 L248 398 L365 398 L385 497 Z " />
<glyph glyph-name="u" unicode="u" horiz-adv-x="617" d="M574 497 L449 497 L425 371 C404 255 314 99 247 99 C215 99 205 124 217 185 L276 498 C209 500 129 497 64 489 L49 409 C78 407 111 403 133 399 L86 154 C67 57 97 -11 193 -11 C287 -11 356 66 402 155 L404 154 C376 76 365 29 360 -1 C426 -3 502 0 566 8 L581 88 C553 90 520 94 498 98 L574 497 Z " />
<glyph glyph-name="v" unicode="v" horiz-adv-x="492" d="M533 482 L411 519 L236 163 L234 163 C232 201 228 242 222 281 L189 497 L56 497 L141 0 L273 0 L533 482 Z " />
<glyph glyph-name="w" unicode="w" horiz-adv-x="781" d="M818 483 L697 518 C643 400 588 280 536 162 L535 162 C533 204 530 255 524 309 L500 497 L379 497 C324 383 269 268 221 163 L220 163 C219 211 215 260 211 309 L195 497 L64 497 L117 0 L246 0 C299 108 352 216 402 326 L403 326 C403 284 405 248 410 214 L437 0 L578 0 L818 483 Z " />
<glyph glyph-name="x" unicode="x" horiz-adv-x="523" d="M553 466 L452 526 L286 334 L216 497 L76 497 L189 259 L-25 32 L79 -30 L248 164 L317 0 L464 0 L347 242 L553 466 Z " />
<glyph glyph-name="y" unicode="y" horiz-adv-x="512" d="M544 484 L425 518 C360 352 301 222 235 100 L233 100 C236 113 238 129 238 142 C238 247 216 388 188 497 L48 497 C93 334 125 170 125 28 C125 -33 109 -70 79 -100 C52 -127 18 -141 -14 -141 C-35 -141 -56 -138 -75 -131 L-96 -241 C-75 -246 -47 -249 -22 -249 C43 -249 104 -221 170 -156 C288 -38 401 153 544 484 L544 484 Z " />
<glyph glyph-name="z" unicode="z" horiz-adv-x="437" d="M439 497 L102 497 L80 383 L158 383 C205 383 239 384 258 385 L19 91 L2 0 L348 0 L370 117 L292 117 C256 117 207 117 186 116 L421 406 L439 497 Z " />
<glyph glyph-name="braceleft" unicode="&#x7b;" horiz-adv-x="355" d="M430 777 L408 777 C278 777 215 702 188 556 L172 469 C156 385 120 365 53 361 L34 265 C97 261 128 237 111 153 L85 18 C55 -133 93 -205 221 -205 L241 -205 L261 -102 C197 -102 183 -80 201 17 L227 151 C248 257 219 303 168 311 L168 313 C224 321 268 362 289 472 L305 558 C324 654 346 676 411 676 L430 777 Z " />
<glyph glyph-name="bar" unicode="&#x7c;" horiz-adv-x="282" d="M291 759 L191 759 L1 -241 L100 -241 L291 759 Z " />
<glyph glyph-name="braceright" unicode="&#x7d;" horiz-adv-x="355" d="M358 361 C294 365 264 385 280 469 L298 556 C327 703 290 777 161 777 L141 777 L122 676 C185 676 200 655 182 558 L165 472 C144 366 173 323 225 315 L225 313 C169 306 124 261 103 151 L77 18 C59 -79 36 -102 -28 -102 L-47 -204 L-26 -204 C101 -204 165 -138 194 19 L220 153 C236 238 272 261 340 265 L358 361 Z " />
<glyph glyph-name="asciitilde" unicode="&#x7e;" horiz-adv-x="550" d="M571 584 L476 584 C470 532 452 503 419 503 C362 503 362 608 248 608 C155 608 92 544 86 430 L181 430 C187 481 205 510 238 510 C295 510 295 406 409 406 C502 406 566 469 571 584 L571 584 Z " />
<glyph glyph-name="nbspace" unicode="&#xa0;" horiz-adv-x="218" d="" />
<glyph glyph-name="exclamdown" unicode="&#xa1;" horiz-adv-x="315" d="M266 437 C266 475 237 508 192 508 C148 508 111 475 111 428 C111 390 140 356 184 356 C229 356 266 390 266 437 L266 437 Z M218 309 L111 309 L-7 -211 L139 -211 L218 309 Z " />
<glyph glyph-name="cent" unicode="&#xa2;" horiz-adv-x="550" d="M526 545 C496 557 459 565 428 567 L445 650 L348 650 L332 563 C187 539 87 427 87 271 C87 165 145 110 243 99 L224 0 L321 0 L340 98 C376 101 422 113 458 129 L441 228 C402 211 367 204 330 204 C260 204 223 235 223 294 C223 387 287 465 384 465 C419 465 453 457 481 443 L526 545 Z " />
<glyph glyph-name="sterling" unicode="&#xa3;" horiz-adv-x="550" d="M542 645 C503 655 454 661 417 661 C194 661 162 505 158 373 L75 373 L57 274 L153 274 C151 196 130 150 41 87 L25 0 L447 0 L468 110 L274 110 C248 110 222 109 201 108 C255 153 280 202 281 274 L420 274 L438 373 L287 373 C289 477 306 557 403 557 C440 557 476 548 503 538 L542 645 Z " />
<glyph glyph-name="currency" unicode="&#xa4;" horiz-adv-x="550" d="M574 537 L489 611 L400 515 C382 523 360 526 338 526 C313 526 289 522 264 513 L211 610 L103 543 L158 451 C110 400 91 338 91 279 C91 249 96 225 107 207 L22 121 L110 48 L197 143 C211 138 229 134 251 134 C276 134 303 140 328 150 L385 47 L494 116 L434 214 C481 269 498 327 498 388 C498 412 494 434 486 448 L574 537 Z M385 367 C385 306 347 227 270 227 C224 227 205 257 205 298 C205 366 247 433 317 433 C365 433 385 407 385 367 L385 367 Z " />
<glyph glyph-name="yen" unicode="&#xa5;" horiz-adv-x="550" d="M612 650 L470 650 L364 486 C343 453 318 412 303 383 L301 383 C296 410 290 447 281 483 L238 650 L101 650 L197 320 L72 320 L56 238 L211 238 L200 179 L46 179 L30 98 L185 98 L166 0 L295 0 L314 98 L469 98 L484 179 L329 179 L340 238 L495 238 L511 320 L386 320 L612 650 Z " />
<glyph glyph-name="brokenbar" unicode="&#xa6;" horiz-adv-x="282" d="M291 759 L191 759 L122 391 L221 391 L291 759 Z M172 137 L73 137 L1 -241 L100 -241 L172 137 Z " />
<glyph glyph-name="section" unicode="&#xa7;" horiz-adv-x="519" d="M483 730 C457 735 427 738 396 738 C219 738 159 623 159 551 C159 522 166 499 181 473 C115 428 77 367 77 295 C77 155 235 95 235 17 C235 -13 214 -62 135 -62 C111 -62 87 -57 61 -49 L34 -157 C60 -164 93 -167 126 -167 C286 -167 371 -71 371 27 C371 55 363 82 351 100 C413 140 454 204 454 272 C454 425 296 485 296 557 C296 590 315 634 389 634 C411 634 433 631 457 624 L483 730 Z M339 250 C339 221 325 189 292 167 C231 233 193 274 193 319 C193 352 207 383 240 405 C301 336 339 298 339 250 L339 250 Z " />
<glyph glyph-name="dieresis" unicode="&#xa8;" horiz-adv-x="535" d="M489 651 C489 687 461 717 423 717 C385 717 351 687 351 647 C351 610 380 579 418 579 C456 579 489 610 489 651 L489 651 Z M287 651 C287 687 259 717 220 717 C182 717 149 687 149 646 C149 610 177 579 216 579 C254 579 287 610 287 651 L287 651 Z " />
<glyph glyph-name="copyright" unicode="&#xa9;" horiz-adv-x="747" d="M737 352 C737 532 594 675 410 675 C220 675 52 520 52 316 C52 136 192 -8 379 -8 C568 -8 737 145 737 352 L737 352 Z M639 346 C639 197 519 86 384 86 C252 86 149 192 149 321 C149 470 269 581 405 581 C537 581 639 475 639 346 L639 346 Z M518 497 C498 506 472 512 433 512 C307 512 230 404 230 286 C230 205 278 157 363 157 C395 157 431 163 463 177 L460 259 C437 249 411 245 388 245 C352 245 334 265 334 301 C334 359 361 429 429 429 C453 429 475 423 488 413 L518 497 Z " />
<glyph glyph-name="ordfeminine" unicode="&#xaa;" horiz-adv-x="400" d="M315 597 L311 575 C298 492 241 407 195 407 C178 407 170 420 170 452 C170 522 209 602 277 602 C289 602 302 600 315 597 L315 597 Z M391 275 L66 275 L47 176 L372 176 L391 275 Z M440 403 C422 405 396 408 379 411 C384 439 422 638 429 673 C384 681 338 684 296 684 C145 684 66 564 66 429 C66 355 97 317 156 317 C212 317 258 352 293 414 L294 414 C282 379 272 349 267 325 C318 323 376 326 427 332 L440 403 Z " />
<glyph glyph-name="guillemotleft" unicode="&#xab;" horiz-adv-x="520" d="M508 435 L418 484 L269 298 L357 103 L460 149 L391 293 L508 435 Z M288 440 L195 489 L54 299 L132 98 L236 143 L176 293 L288 440 Z " />
<glyph glyph-name="logicalnot" unicode="&#xac;" horiz-adv-x="550" d="M513 351 L63 351 L42 244 L379 244 L351 95 L464 95 L513 351 Z " />
<glyph glyph-name="registered" unicode="&#xae;" horiz-adv-x="553" d="M565 543 C565 668 469 761 345 761 C219 761 103 659 103 516 C103 394 198 300 322 300 C448 300 565 402 565 543 L565 543 Z M487 540 C487 443 410 371 326 371 C244 371 181 441 181 523 C181 618 257 690 342 690 C424 690 487 620 487 540 L487 540 Z M433 594 C433 626 412 645 362 645 L276 645 L234 422 L292 422 L308 507 L317 507 L338 422 L407 422 L387 490 C384 500 379 512 375 519 C412 532 433 557 433 594 L433 594 Z M366 582 C366 562 351 548 327 548 L317 548 L326 599 L343 599 C359 599 366 594 366 582 L366 582 Z " />
<glyph glyph-name="macron" unicode="&#xaf;" horiz-adv-x="387" d="M415 692 L151 692 L134 600 L398 600 L415 692 Z " />
<glyph glyph-name="degree" unicode="&#xb0;" horiz-adv-x="380" d="M412 612 C412 678 374 738 273 738 C198 738 113 686 113 585 C113 511 160 458 250 458 C328 458 412 507 412 612 L412 612 Z M317 604 C317 564 292 539 260 539 C227 539 208 561 208 594 C208 634 235 658 267 658 C304 658 317 627 317 604 L317 604 Z " />
<glyph glyph-name="plusminus" unicode="&#xb1;" horiz-adv-x="550" d="M553 452 L378 452 L413 634 L292 634 L256 452 L81 452 L62 346 L237 346 L202 163 L324 163 L358 346 L533 346 L553 452 Z M484 107 L20 107 L-1 0 L464 0 L484 107 Z " />
<glyph glyph-name="twosuperior" unicode="&#xb2;" horiz-adv-x="316" d="M330 582 C330 627 297 660 222 660 C187 660 151 651 120 639 L128 564 C146 573 169 580 185 580 C206 580 216 570 216 555 C216 534 201 515 146 475 L80 425 L66 354 L296 354 L312 433 L209 433 L247 461 C306 505 330 537 330 582 L330 582 Z " />
<glyph glyph-name="threesuperior" unicode="&#xb3;" horiz-adv-x="466" d="M320 591 C320 629 292 660 217 660 C183 660 145 653 122 644 L127 582 C143 590 164 595 182 595 C206 595 214 585 214 574 C214 549 193 531 132 531 L120 531 L109 472 C170 481 196 472 196 450 C196 425 175 410 134 410 C118 410 99 413 86 417 L68 352 C82 349 115 344 140 344 C259 344 306 398 306 453 C306 481 290 503 262 507 C303 524 320 556 320 591 L320 591 Z " />
<glyph glyph-name="acute" unicode="&#xb4;" horiz-adv-x="385" d="M382 667 L330 754 L151 630 L193 560 L382 667 Z " />
<glyph glyph-name="mu" unicode="&#xb5;" horiz-adv-x="621" d="M581 60 L543 116 C530 99 516 88 499 88 C481 88 474 100 486 162 L550 497 L425 497 L395 340 C370 203 281 99 225 99 C197 99 180 124 192 185 L251 497 L127 497 L-14 -241 L118 -241 L147 13 C160 -1 180 -8 199 -8 C266 -8 338 54 371 121 L372 121 C365 96 362 81 362 64 C362 14 387 -10 445 -10 C504 -10 547 17 581 60 L581 60 Z " />
<glyph glyph-name="paragraph" unicode="&#xb6;" horiz-adv-x="583" d="M618 675 L449 675 L321 6 L253 6 L233 -96 L408 -96 L536 573 L600 573 L618 675 Z M372 675 C194 675 92 544 92 409 C92 303 154 230 288 231 L372 675 Z " />
<glyph glyph-name="periodcentered" unicode="&#xb7;" horiz-adv-x="269" d="M232 300 C232 343 197 380 151 380 C105 380 65 343 65 296 C65 252 99 215 145 215 C191 215 232 252 232 300 L232 300 Z " />
<glyph glyph-name="cedilla" unicode="&#xb8;" horiz-adv-x="392" d="M199 -40 L91 -72 C127 -132 108 -176 51 -234 L152 -234 C215 -176 237 -111 199 -40 L199 -40 Z " />
<glyph glyph-name="onesuperior" unicode="&#xb9;" horiz-adv-x="311" d="M304 650 L211 650 L115 614 L117 539 L187 567 L147 354 L248 354 L304 650 Z " />
<glyph glyph-name="ordmasculine" unicode="&#xba;" horiz-adv-x="417" d="M437 554 C437 627 403 686 296 686 C166 686 83 578 83 446 C83 367 127 317 221 317 C335 317 437 405 437 554 L437 554 Z M371 275 L63 275 L45 176 L352 176 L371 275 Z M332 540 C332 472 296 406 237 406 C202 406 188 428 188 463 C188 515 212 596 282 596 C321 596 332 572 332 540 L332 540 Z " />
<glyph glyph-name="guillemotright" unicode="&#xbb;" horiz-adv-x="520" d="M498 288 L421 489 L316 444 L377 295 L265 147 L358 99 L498 288 Z M284 289 L196 484 L93 439 L162 295 L44 152 L134 103 L284 289 Z " />
<glyph glyph-name="onequarter" unicode="&#xbc;" horiz-adv-x="710" d="M304 650 L210 650 L114 614 L117 539 L186 567 L146 354 L248 354 L304 650 Z M697 609 L629 670 L17 39 L84 -22 L697 609 Z M642 120 L598 120 L631 296 L497 296 L362 115 L356 49 L495 49 L485 0 L575 0 L584 49 L628 49 L642 120 Z M531 236 L509 119 L443 119 L531 236 Z " />
<glyph glyph-name="onehalf" unicode="&#xbd;" horiz-adv-x="713" d="M650 229 C650 273 617 306 542 306 C507 306 471 297 441 285 L449 210 C466 220 489 226 506 226 C527 226 536 216 536 201 C536 180 521 161 467 121 L400 72 L386 0 L617 0 L632 79 L529 79 L567 107 C626 151 650 183 650 229 L650 229 Z M697 609 L629 670 L17 39 L84 -22 L697 609 Z M304 650 L210 650 L114 614 L117 539 L186 567 L146 354 L248 354 L304 650 Z " />
<glyph glyph-name="threequarters" unicode="&#xbe;" horiz-adv-x="715" d="M537 236 L514 119 L448 119 L537 236 Z M647 120 L603 120 L637 296 L502 296 L367 115 L361 49 L500 49 L491 0 L580 0 L590 49 L634 49 L647 120 Z M701 609 L633 670 L22 39 L89 -22 L701 609 Z M323 591 C323 629 296 660 221 660 C187 660 149 653 125 644 L130 582 C147 590 167 595 186 595 C209 595 217 585 217 574 C217 549 197 531 136 531 L123 531 L112 472 C174 481 200 472 200 450 C200 425 178 410 138 410 C121 410 102 413 89 417 L71 352 C85 349 118 344 143 344 C262 344 309 398 309 453 C309 481 293 503 265 507 C306 524 323 556 323 591 L323 591 Z " />
<glyph glyph-name="questiondown" unicode="&#xbf;" horiz-adv-x="442" d="M370 437 C370 475 341 508 296 508 C252 508 215 475 215 428 C215 390 244 356 288 356 C332 356 370 390 370 437 L370 437 Z M333 309 L210 309 C231 150 3 146 3 -35 C3 -130 91 -210 276 -220 L314 -104 C217 -96 143 -68 143 -12 C143 93 363 111 333 309 L333 309 Z " />
<glyph glyph-name="Agrave" unicode="&#xc0;" horiz-adv-x="614" d="M464 786 L266 861 L226 769 L435 716 L464 786 Z M570 0 L462 675 L318 675 L-42 0 L91 0 L163 138 L413 138 L433 0 L570 0 Z M400 241 L215 241 L317 433 C334 465 348 497 360 526 L361 526 C363 497 366 464 371 432 L400 241 Z " />
<glyph glyph-name="Aacute" unicode="&#xc1;" horiz-adv-x="614" d="M553 769 L535 861 L322 786 L337 716 L553 769 Z M570 0 L462 675 L318 675 L-42 0 L91 0 L163 138 L413 138 L433 0 L570 0 Z M400 241 L215 241 L317 433 C334 465 348 497 360 526 L361 526 C363 497 366 464 371 432 L400 241 Z " />
<glyph glyph-name="Acircumflex" unicode="&#xc2;" horiz-adv-x="614" d="M560 779 L408 864 L235 777 L259 715 L400 775 L525 715 L560 779 Z M570 0 L462 675 L318 675 L-42 0 L91 0 L163 138 L413 138 L433 0 L570 0 Z M400 241 L215 241 L317 433 C334 465 348 497 360 526 L361 526 C363 497 366 464 371 432 L400 241 Z " />
<glyph glyph-name="Atilde" unicode="&#xc3;" horiz-adv-x="614" d="M590 810 L529 853 C512 825 494 811 471 811 C432 811 415 858 347 858 C295 858 253 829 221 776 L282 732 C300 761 317 775 341 775 C379 775 397 728 464 728 C515 728 559 757 590 810 L590 810 Z M570 0 L462 675 L318 675 L-42 0 L91 0 L163 138 L413 138 L433 0 L570 0 Z M400 241 L215 241 L317 433 C334 465 348 497 360 526 L361 526 C363 497 366 464 371 432 L400 241 Z " />
<glyph glyph-name="Adieresis" unicode="&#xc4;" horiz-adv-x="614" d="M571 790 C571 821 547 848 513 848 C479 848 450 820 450 784 C450 752 475 725 509 725 C542 725 571 753 571 790 L571 790 Z M359 790 C359 821 335 848 300 848 C267 848 238 820 238 784 C238 752 263 725 297 725 C330 725 359 753 359 790 L359 790 Z M570 0 L462 675 L318 675 L-42 0 L91 0 L163 138 L413 138 L433 0 L570 0 Z M400 241 L215 241 L317 433 C334 465 348 497 360 526 L361 526 C363 497 366 464 371 432 L400 241 Z " />
<glyph glyph-name="Aring" unicode="&#xc5;" horiz-adv-x="614" d="M570 0 L469 632 C498 652 520 687 520 729 C520 795 468 844 399 844 C330 844 267 793 267 716 C267 685 279 659 300 641 L-42 0 L91 0 L163 138 L413 138 L433 0 L570 0 Z M446 726 C446 694 421 669 391 669 C362 669 341 692 341 720 C341 751 365 776 396 776 C426 776 446 753 446 726 L446 726 Z M400 241 L214 241 L306 413 C327 452 344 491 359 525 L360 525 C362 489 366 454 371 418 L400 241 Z " />
<glyph glyph-name="AE" unicode="&#xc6;" horiz-adv-x="763" d="M794 675 L365 675 L-82 0 L55 0 L151 145 L343 145 L314 0 L673 0 L694 111 L458 111 L494 294 L713 294 L734 400 L514 400 L545 566 L773 566 L794 675 Z M423 567 L363 248 L214 248 L331 419 C369 474 396 522 422 567 L423 567 Z " />
<glyph glyph-name="Ccedilla" unicode="&#xc7;" horiz-adv-x="549" d="M587 662 C547 673 499 681 444 681 C182 681 47 457 47 228 C47 117 93 -8 298 -8 C354 -8 421 3 472 20 L473 138 C433 121 386 110 336 110 C226 110 192 166 192 252 C192 386 253 565 431 565 C471 565 513 557 552 543 L587 662 Z M303 -40 L195 -72 C231 -132 212 -176 155 -234 L256 -234 C319 -176 341 -111 303 -40 L303 -40 Z " />
<glyph glyph-name="Egrave" unicode="&#xc8;" horiz-adv-x="482" d="M428 786 L230 861 L190 769 L399 716 L428 786 Z M513 675 L154 675 L26 0 L385 0 L406 111 L175 111 L209 294 L429 294 L450 400 L229 400 L261 566 L493 566 L513 675 Z " />
<glyph glyph-name="Eacute" unicode="&#xc9;" horiz-adv-x="482" d="M510 769 L492 861 L279 786 L294 716 L510 769 Z M513 675 L154 675 L26 0 L385 0 L406 111 L175 111 L209 294 L429 294 L450 400 L229 400 L261 566 L493 566 L513 675 Z " />
<glyph glyph-name="Ecircumflex" unicode="&#xca;" horiz-adv-x="482" d="M515 779 L363 864 L190 777 L214 715 L354 775 L480 715 L515 779 Z M513 675 L154 675 L26 0 L385 0 L406 111 L175 111 L209 294 L429 294 L450 400 L229 400 L261 566 L493 566 L513 675 Z " />
<glyph glyph-name="Edieresis" unicode="&#xcb;" horiz-adv-x="482" d="M515 790 C515 821 490 848 456 848 C423 848 394 820 394 784 C394 752 419 725 453 725 C486 725 515 753 515 790 L515 790 Z M303 790 C303 821 278 848 244 848 C211 848 182 820 182 784 C182 752 207 725 240 725 C274 725 303 753 303 790 L303 790 Z M513 675 L154 675 L26 0 L385 0 L406 111 L175 111 L209 294 L429 294 L450 400 L229 400 L261 566 L493 566 L513 675 Z " />
<glyph glyph-name="Igrave" unicode="&#xcc;" horiz-adv-x="265" d="M317 786 L119 861 L80 769 L288 716 L317 786 Z M282 675 L154 675 L26 0 L154 0 L282 675 Z " />
<glyph glyph-name="Iacute" unicode="&#xcd;" horiz-adv-x="265" d="M380 769 L362 861 L150 786 L164 716 L380 769 Z M282 675 L154 675 L26 0 L154 0 L282 675 Z " />
<glyph glyph-name="Icircumflex" unicode="&#xce;" horiz-adv-x="265" d="M399 779 L246 864 L73 777 L97 715 L238 775 L363 715 L399 779 Z M282 675 L154 675 L26 0 L154 0 L282 675 Z " />
<glyph glyph-name="Idieresis" unicode="&#xcf;" horiz-adv-x="265" d="M400 790 C400 821 376 848 342 848 C308 848 279 820 279 784 C279 752 304 725 338 725 C372 725 400 753 400 790 L400 790 Z M188 790 C188 821 164 848 130 848 C96 848 67 820 67 784 C67 752 92 725 126 725 C159 725 188 753 188 790 L188 790 Z M282 675 L154 675 L26 0 L154 0 L282 675 Z " />
<glyph glyph-name="Eth" unicode="&#xd0;" horiz-adv-x="668" d="M657 435 C657 593 562 679 372 679 C297 679 215 676 164 674 L110 392 L32 392 L13 294 L91 294 L36 1 C91 -1 148 -4 227 -4 C516 -4 657 209 657 435 L657 435 Z M521 422 C521 292 450 107 246 107 C227 107 202 109 184 112 L219 294 L337 294 L356 392 L238 392 L271 567 C292 569 320 570 355 570 C481 570 521 511 521 422 L521 422 Z " />
<glyph glyph-name="Ntilde" unicode="&#xd1;" horiz-adv-x="672" d="M629 810 L568 853 C550 825 532 811 509 811 C471 811 453 858 386 858 C333 858 291 829 260 776 L321 732 C338 761 356 775 379 775 C418 775 435 728 502 728 C554 728 597 757 629 810 L629 810 Z M690 675 L565 675 L514 396 C502 332 490 258 482 196 C468 247 452 303 431 356 L305 675 L154 675 L26 0 L150 0 L205 291 C218 358 228 421 236 484 C247 439 263 387 282 337 L412 0 L561 0 L690 675 Z " />
<glyph glyph-name="Ograve" unicode="&#xd2;" horiz-adv-x="689" d="M534 786 L336 861 L296 769 L505 716 L534 786 Z M688 439 C688 596 602 686 439 686 C215 686 44 479 44 235 C44 82 123 -11 294 -11 C510 -11 688 179 688 439 L688 439 Z M551 424 C551 252 449 107 312 107 C227 107 181 162 181 257 C181 418 274 569 418 569 C509 569 551 511 551 424 L551 424 Z " />
<glyph glyph-name="Oacute" unicode="&#xd3;" horiz-adv-x="689" d="M615 769 L597 861 L385 786 L399 716 L615 769 Z M688 439 C688 596 602 686 439 686 C215 686 44 479 44 235 C44 82 123 -11 294 -11 C510 -11 688 179 688 439 L688 439 Z M551 424 C551 252 449 107 312 107 C227 107 181 162 181 257 C181 418 274 569 418 569 C509 569 551 511 551 424 L551 424 Z " />
<glyph glyph-name="Ocircumflex" unicode="&#xd4;" horiz-adv-x="689" d="M625 779 L472 864 L299 777 L323 715 L464 775 L589 715 L625 779 Z M688 439 C688 596 602 686 439 686 C215 686 44 479 44 235 C44 82 123 -11 294 -11 C510 -11 688 179 688 439 L688 439 Z M551 424 C551 252 449 107 312 107 C227 107 181 162 181 257 C181 418 274 569 418 569 C509 569 551 511 551 424 L551 424 Z " />
<glyph glyph-name="Otilde" unicode="&#xd5;" horiz-adv-x="689" d="M651 810 L591 853 C573 825 555 811 532 811 C493 811 476 858 408 858 C356 858 314 829 283 776 L343 732 C361 761 378 775 402 775 C441 775 458 728 525 728 C576 728 620 757 651 810 L651 810 Z M688 439 C688 596 602 686 439 686 C215 686 44 479 44 235 C44 82 123 -11 294 -11 C510 -11 688 179 688 439 L688 439 Z M551 424 C551 252 449 107 312 107 C227 107 181 162 181 257 C181 418 274 569 418 569 C509 569 551 511 551 424 L551 424 Z " />
<glyph glyph-name="Odieresis" unicode="&#xd6;" horiz-adv-x="689" d="M634 790 C634 821 609 848 575 848 C542 848 513 820 513 784 C513 752 538 725 571 725 C605 725 634 753 634 790 L634 790 Z M422 790 C422 821 397 848 363 848 C329 848 301 820 301 784 C301 752 326 725 359 725 C393 725 422 753 422 790 L422 790 Z M688 439 C688 596 602 686 439 686 C215 686 44 479 44 235 C44 82 123 -11 294 -11 C510 -11 688 179 688 439 L688 439 Z M551 424 C551 252 449 107 312 107 C227 107 181 162 181 257 C181 418 274 569 418 569 C509 569 551 511 551 424 L551 424 Z " />
<glyph glyph-name="multiply" unicode="&#xd7;" horiz-adv-x="550" d="M546 450 L482 526 L300 372 L176 526 L90 457 L216 301 L30 145 L93 69 L277 224 L402 69 L488 138 L362 295 L546 450 Z " />
<glyph glyph-name="Oslash" unicode="&#xd8;" horiz-adv-x="689" d="M688 439 C688 540 652 614 583 652 L631 742 L541 774 L492 681 C475 685 457 686 437 686 C211 686 44 480 44 235 C44 139 75 67 140 26 L88 -71 L179 -104 L231 -5 C250 -9 271 -11 294 -11 C510 -11 688 179 688 439 L688 439 Z M555 426 C555 266 466 132 348 110 C328 106 309 105 291 107 L518 528 C543 506 555 470 555 426 L555 426 Z M433 570 L210 156 C187 179 177 213 177 255 C177 407 260 548 386 568 C402 571 418 571 433 570 L433 570 Z " />
<glyph glyph-name="Ugrave" unicode="&#xd9;" horiz-adv-x="667" d="M502 786 L304 861 L265 769 L473 716 L502 786 Z M684 675 L558 675 L478 259 C456 143 404 97 304 97 C207 97 180 145 197 237 L281 675 L153 675 L72 247 C45 103 83 -11 286 -11 C456 -11 568 70 602 248 L684 675 Z " />
<glyph glyph-name="Uacute" unicode="&#xda;" horiz-adv-x="667" d="M606 769 L588 861 L376 786 L390 716 L606 769 Z M684 675 L558 675 L478 259 C456 143 404 97 304 97 C207 97 180 145 197 237 L281 675 L153 675 L72 247 C45 103 83 -11 286 -11 C456 -11 568 70 602 248 L684 675 Z " />
<glyph glyph-name="Ucircumflex" unicode="&#xdb;" horiz-adv-x="667" d="M600 779 L448 864 L275 777 L299 715 L440 775 L565 715 L600 779 Z M684 675 L558 675 L478 259 C456 143 404 97 304 97 C207 97 180 145 197 237 L281 675 L153 675 L72 247 C45 103 83 -11 286 -11 C456 -11 568 70 602 248 L684 675 Z " />
<glyph glyph-name="Udieresis" unicode="&#xdc;" horiz-adv-x="667" d="M594 790 C594 821 570 848 536 848 C502 848 473 820 473 784 C473 752 498 725 532 725 C565 725 594 753 594 790 L594 790 Z M382 790 C382 821 357 848 323 848 C290 848 261 820 261 784 C261 752 286 725 320 725 C353 725 382 753 382 790 L382 790 Z M684 675 L558 675 L478 259 C456 143 404 97 304 97 C207 97 180 145 197 237 L281 675 L153 675 L72 247 C45 103 83 -11 286 -11 C456 -11 568 70 602 248 L684 675 Z " />
<glyph glyph-name="Yacute" unicode="&#xdd;" horiz-adv-x="550" d="M535 769 L517 861 L305 786 L319 716 L535 769 Z M633 675 L492 675 L376 494 C348 451 320 408 299 369 L297 369 C291 404 283 441 273 481 L222 675 L88 675 L212 238 L167 0 L294 0 L339 239 L633 675 Z " />
<glyph glyph-name="Thorn" unicode="&#xde;" horiz-adv-x="532" d="M549 409 C549 519 476 583 336 583 C309 583 286 582 264 581 L282 675 L154 675 L26 0 L153 0 L177 126 C192 124 207 124 232 124 C424 124 549 253 549 409 L549 409 Z M414 387 C414 303 352 230 249 230 C231 230 215 231 198 234 L243 473 C262 475 286 477 305 477 C383 477 414 439 414 387 L414 387 Z " />
<glyph glyph-name="germandbls" unicode="&#xdf;" horiz-adv-x="589" d="M568 604 C568 687 499 737 390 737 C253 737 151 662 119 494 L22 -18 C3 -116 -25 -144 -83 -144 C-100 -144 -119 -143 -136 -138 L-165 -241 C-142 -245 -114 -249 -92 -249 C38 -249 116 -184 147 -19 L246 500 C264 595 311 638 374 638 C415 638 436 618 436 591 C436 500 291 487 291 358 C291 253 396 222 396 151 C396 113 367 90 316 90 C290 90 265 95 242 104 L220 -3 C245 -7 271 -10 306 -10 C454 -10 529 73 529 162 C529 267 421 305 421 372 C421 459 568 465 568 604 L568 604 Z " />
<glyph glyph-name="agrave" unicode="&#xe0;" horiz-adv-x="574" d="M525 491 C469 502 409 506 349 506 C131 506 30 332 30 144 C30 38 71 -11 147 -11 C246 -11 315 85 355 158 L357 158 C334 89 320 39 312 -1 C378 -3 454 0 518 8 L533 88 C505 90 472 94 450 98 L525 491 Z M383 399 L377 367 C357 262 268 99 197 99 C172 99 159 119 159 168 C159 272 212 406 327 406 C349 406 367 403 383 399 L383 399 Z M461 628 L299 754 L237 671 L409 560 L461 628 Z " />
<glyph glyph-name="aacute" unicode="&#xe1;" horiz-adv-x="574" d="M525 491 C469 502 409 506 349 506 C131 506 30 332 30 144 C30 38 71 -11 147 -11 C246 -11 315 85 355 158 L357 158 C334 89 320 39 312 -1 C378 -3 454 0 518 8 L533 88 C505 90 472 94 450 98 L525 491 Z M383 399 L377 367 C357 262 268 99 197 99 C172 99 159 119 159 168 C159 272 212 406 327 406 C349 406 367 403 383 399 L383 399 Z M546 667 L494 754 L315 630 L357 560 L546 667 Z " />
<glyph glyph-name="acircumflex" unicode="&#xe2;" horiz-adv-x="574" d="M525 491 C469 502 409 506 349 506 C131 506 30 332 30 144 C30 38 71 -11 147 -11 C246 -11 315 85 355 158 L357 158 C334 89 320 39 312 -1 C378 -3 454 0 518 8 L533 88 C505 90 472 94 450 98 L525 491 Z M383 399 L377 367 C357 262 268 99 197 99 C172 99 159 119 159 168 C159 272 212 406 327 406 C349 406 367 403 383 399 L383 399 Z M527 619 L401 754 L227 618 L269 560 L385 641 L471 560 L527 619 Z " />
<glyph glyph-name="atilde" unicode="&#xe3;" horiz-adv-x="574" d="M525 491 C469 502 409 506 349 506 C131 506 30 332 30 144 C30 38 71 -11 147 -11 C246 -11 315 85 355 158 L357 158 C334 89 320 39 312 -1 C378 -3 454 0 518 8 L533 88 C505 90 472 94 450 98 L525 491 Z M383 399 L377 367 C357 262 268 99 197 99 C172 99 159 119 159 168 C159 272 212 406 327 406 C349 406 367 403 383 399 L383 399 Z M567 669 L508 716 C491 686 473 671 451 671 C413 671 396 721 331 721 C281 721 237 690 207 632 L266 585 C283 615 302 630 324 630 C362 630 378 580 442 580 C493 580 537 611 567 669 L567 669 Z " />
<glyph glyph-name="adieresis" unicode="&#xe4;" horiz-adv-x="574" d="M525 491 C469 502 409 506 349 506 C131 506 30 332 30 144 C30 38 71 -11 147 -11 C246 -11 315 85 355 158 L357 158 C334 89 320 39 312 -1 C378 -3 454 0 518 8 L533 88 C505 90 472 94 450 98 L525 491 Z M383 399 L377 367 C357 262 268 99 197 99 C172 99 159 119 159 168 C159 272 212 406 327 406 C349 406 367 403 383 399 L383 399 Z M552 651 C552 687 524 717 486 717 C448 717 414 687 414 647 C414 610 443 579 481 579 C519 579 552 610 552 651 L552 651 Z M350 651 C350 687 322 717 283 717 C245 717 212 687 212 646 C212 610 240 579 279 579 C317 579 350 610 350 651 L350 651 Z " />
<glyph glyph-name="aring" unicode="&#xe5;" horiz-adv-x="574" d="M525 491 C469 502 409 506 349 506 C131 506 30 332 30 144 C30 38 71 -11 147 -11 C246 -11 315 85 355 158 L357 158 C334 89 320 39 312 -1 C378 -3 454 0 518 8 L533 88 C505 90 472 94 450 98 L525 491 Z M383 399 L377 367 C357 262 268 99 197 99 C172 99 159 119 159 168 C159 272 212 406 327 406 C349 406 367 403 383 399 L383 399 Z M523 673 C523 738 471 788 402 788 C333 788 270 737 270 660 C270 594 322 545 391 545 C460 545 523 598 523 673 L523 673 Z M449 670 C449 638 424 613 394 613 C365 613 344 636 344 664 C344 695 368 720 399 720 C429 720 449 697 449 670 L449 670 Z " />
<glyph glyph-name="ae" unicode="&#xe6;" horiz-adv-x="762" d="M751 386 C751 446 714 508 588 508 C524 508 462 477 427 447 C407 482 371 508 285 508 C228 508 166 497 112 477 L112 372 C159 396 214 408 257 408 C329 408 346 375 334 320 L328 294 C142 288 15 237 15 107 C15 46 49 -10 147 -10 C222 -10 292 32 328 88 C345 29 385 -10 485 -10 C551 -10 616 1 671 22 L671 120 C625 101 573 90 526 90 C457 90 434 107 434 164 C434 179 435 195 437 208 C669 216 751 283 751 386 L751 386 Z M627 369 C627 313 555 297 452 292 C470 356 512 414 575 414 C606 414 627 397 627 369 L627 369 Z M312 210 C302 145 251 87 185 87 C156 87 138 105 138 129 C138 189 208 206 312 210 L312 210 Z " />
<glyph glyph-name="ccedilla" unicode="&#xe7;" horiz-adv-x="404" d="M423 494 C392 502 360 507 324 507 C143 507 31 352 31 162 C31 58 82 -10 215 -10 C258 -10 301 -2 336 11 L344 120 C317 109 284 102 252 102 C184 102 164 143 164 190 C164 283 212 399 316 399 C346 399 371 394 393 384 L423 494 Z M216 -40 L108 -72 C144 -132 125 -176 68 -234 L169 -234 C232 -176 254 -111 216 -40 L216 -40 Z " />
<glyph glyph-name="egrave" unicode="&#xe8;" horiz-adv-x="485" d="M474 386 C474 446 436 507 313 507 C158 507 32 366 32 158 C32 48 82 -10 208 -10 C274 -10 339 1 395 22 L393 120 C347 101 297 90 249 90 C180 90 158 107 158 164 C158 175 160 192 161 203 C356 209 474 267 474 386 L474 386 Z M350 369 C350 316 290 292 175 288 C193 353 234 413 299 413 C331 413 350 397 350 369 L350 369 Z M422 628 L260 754 L198 671 L370 560 L422 628 Z " />
<glyph glyph-name="eacute" unicode="&#xe9;" horiz-adv-x="485" d="M474 386 C474 446 436 507 313 507 C158 507 32 366 32 158 C32 48 82 -10 208 -10 C274 -10 339 1 395 22 L393 120 C347 101 297 90 249 90 C180 90 158 107 158 164 C158 175 160 192 161 203 C356 209 474 267 474 386 L474 386 Z M350 369 C350 316 290 292 175 288 C193 353 234 413 299 413 C331 413 350 397 350 369 L350 369 Z M484 667 L432 754 L253 630 L295 560 L484 667 Z " />
<glyph glyph-name="ecircumflex" unicode="&#xea;" horiz-adv-x="485" d="M474 386 C474 446 436 507 313 507 C158 507 32 366 32 158 C32 48 82 -10 208 -10 C274 -10 339 1 395 22 L393 120 C347 101 297 90 249 90 C180 90 158 107 158 164 C158 175 160 192 161 203 C356 209 474 267 474 386 L474 386 Z M350 369 C350 316 290 292 175 288 C193 353 234 413 299 413 C331 413 350 397 350 369 L350 369 Z M478 619 L352 754 L178 618 L220 560 L336 641 L422 560 L478 619 Z " />
<glyph glyph-name="edieresis" unicode="&#xeb;" horiz-adv-x="485" d="M474 386 C474 446 436 507 313 507 C158 507 32 366 32 158 C32 48 82 -10 208 -10 C274 -10 339 1 395 22 L393 120 C347 101 297 90 249 90 C180 90 158 107 158 164 C158 175 160 192 161 203 C356 209 474 267 474 386 L474 386 Z M350 369 C350 316 290 292 175 288 C193 353 234 413 299 413 C331 413 350 397 350 369 L350 369 Z M510 651 C510 687 482 717 444 717 C406 717 372 687 372 647 C372 610 401 579 439 579 C477 579 510 610 510 651 L510 651 Z M308 651 C308 687 280 717 241 717 C203 717 170 687 170 646 C170 610 198 579 237 579 C275 579 308 610 308 651 L308 651 Z " />
<glyph glyph-name="igrave" unicode="&#xec;" horiz-adv-x="294" d="M277 498 C205 500 128 497 64 489 L49 409 C78 407 111 403 133 399 L57 0 L182 0 L277 498 Z M319 628 L157 754 L95 671 L267 560 L319 628 Z " />
<glyph glyph-name="iacute" unicode="&#xed;" horiz-adv-x="294" d="M277 498 C205 500 128 497 64 489 L49 409 C78 407 111 403 133 399 L57 0 L182 0 L277 498 Z M358 667 L306 754 L127 630 L169 560 L358 667 Z " />
<glyph glyph-name="icircumflex" unicode="&#xee;" horiz-adv-x="294" d="M277 498 C205 500 128 497 64 489 L49 409 C78 407 111 403 133 399 L57 0 L182 0 L277 498 Z M365 619 L239 754 L65 618 L107 560 L223 641 L309 560 L365 619 Z " />
<glyph glyph-name="idieresis" unicode="&#xef;" horiz-adv-x="294" d="M277 498 C205 500 128 497 64 489 L49 409 C78 407 111 403 133 399 L57 0 L182 0 L277 498 Z M404 651 C404 687 376 717 338 717 C300 717 266 687 266 647 C266 610 295 579 333 579 C371 579 404 610 404 651 L404 651 Z M202 651 C202 687 174 717 135 717 C97 717 64 687 64 646 C64 610 92 579 131 579 C169 579 202 610 202 651 L202 651 Z " />
<glyph glyph-name="eth" unicode="&#xf0;" horiz-adv-x="544" d="M547 670 L509 733 L410 692 C394 712 374 731 354 750 L232 697 C253 679 273 662 292 642 L201 604 L239 541 L341 584 C356 563 368 540 379 515 C384 505 390 490 395 474 C383 496 352 505 317 505 C170 505 55 377 36 220 C16 58 93 -10 230 -10 C382 -10 499 126 519 303 C532 417 520 528 455 631 L547 670 Z M389 294 C380 205 341 99 243 99 C188 99 157 141 164 219 C172 318 227 399 311 399 C369 399 395 356 389 294 L389 294 Z " />
<glyph glyph-name="ntilde" unicode="&#xf1;" horiz-adv-x="590" d="M545 343 C564 440 535 508 438 508 C344 508 275 431 229 342 L227 343 C255 421 266 468 272 498 C206 500 128 497 64 489 L49 409 C78 407 111 403 133 399 L57 0 L182 0 L206 126 C227 242 318 398 385 398 C416 398 426 373 415 312 L355 0 L480 0 L545 343 Z M547 669 L488 716 C471 686 453 671 431 671 C393 671 376 721 311 721 C261 721 217 690 187 632 L246 585 C263 615 282 630 304 630 C342 630 358 580 422 580 C473 580 517 611 547 669 L547 669 Z " />
<glyph glyph-name="ograve" unicode="&#xf2;" horiz-adv-x="545" d="M525 326 C525 431 472 507 330 507 C171 507 31 376 31 168 C31 56 86 -10 225 -10 C381 -10 525 121 525 326 L525 326 Z M393 310 C393 199 331 100 242 100 C184 100 162 134 162 188 C162 287 218 398 311 398 C369 398 393 367 393 310 L393 310 Z M430 628 L268 754 L206 671 L378 560 L430 628 Z " />
<glyph glyph-name="oacute" unicode="&#xf3;" horiz-adv-x="545" d="M525 326 C525 431 472 507 330 507 C171 507 31 376 31 168 C31 56 86 -10 225 -10 C381 -10 525 121 525 326 L525 326 Z M393 310 C393 199 331 100 242 100 C184 100 162 134 162 188 C162 287 218 398 311 398 C369 398 393 367 393 310 L393 310 Z M509 667 L457 754 L278 630 L320 560 L509 667 Z " />
<glyph glyph-name="ocircumflex" unicode="&#xf4;" horiz-adv-x="545" d="M525 326 C525 431 472 507 330 507 C171 507 31 376 31 168 C31 56 86 -10 225 -10 C381 -10 525 121 525 326 L525 326 Z M393 310 C393 199 331 100 242 100 C184 100 162 134 162 188 C162 287 218 398 311 398 C369 398 393 367 393 310 L393 310 Z M508 619 L382 754 L208 618 L250 560 L366 641 L452 560 L508 619 Z " />
<glyph glyph-name="otilde" unicode="&#xf5;" horiz-adv-x="545" d="M525 326 C525 431 472 507 330 507 C171 507 31 376 31 168 C31 56 86 -10 225 -10 C381 -10 525 121 525 326 L525 326 Z M393 310 C393 199 331 100 242 100 C184 100 162 134 162 188 C162 287 218 398 311 398 C369 398 393 367 393 310 L393 310 Z M540 669 L481 716 C464 686 446 671 424 671 C386 671 369 721 304 721 C254 721 210 690 180 632 L239 585 C256 615 275 630 297 630 C335 630 351 580 415 580 C466 580 510 611 540 669 L540 669 Z " />
<glyph glyph-name="odieresis" unicode="&#xf6;" horiz-adv-x="545" d="M525 326 C525 431 472 507 330 507 C171 507 31 376 31 168 C31 56 86 -10 225 -10 C381 -10 525 121 525 326 L525 326 Z M393 310 C393 199 331 100 242 100 C184 100 162 134 162 188 C162 287 218 398 311 398 C369 398 393 367 393 310 L393 310 Z M530 651 C530 687 502 717 464 717 C426 717 392 687 392 647 C392 610 421 579 459 579 C497 579 530 610 530 651 L530 651 Z M328 651 C328 687 300 717 261 717 C223 717 190 687 190 646 C190 610 218 579 257 579 C295 579 328 610 328 651 L328 651 Z " />
<glyph glyph-name="divide" unicode="&#xf7;" horiz-adv-x="550" d="M404 501 C404 541 371 577 328 577 C285 577 248 541 248 496 C248 455 280 420 323 420 C366 420 404 455 404 501 L404 501 Z M534 351 L63 351 L42 244 L514 244 L534 351 Z M326 100 C326 140 294 175 251 175 C208 175 171 140 171 94 C171 54 203 19 246 19 C289 19 326 54 326 100 L326 100 Z " />
<glyph glyph-name="oslash" unicode="&#xf8;" horiz-adv-x="545" d="M526 326 C526 395 503 451 449 481 L502 575 L435 607 L376 504 C362 506 347 507 331 507 C155 507 32 363 32 168 C32 100 53 49 100 20 L48 -73 L116 -106 L174 -5 C189 -8 207 -10 227 -10 C382 -10 526 121 526 326 L526 326 Z M404 310 C404 211 350 106 263 94 C249 93 238 94 228 96 L383 370 C397 356 404 335 404 310 L404 310 Z M321 403 L169 136 C158 150 153 170 153 195 C153 302 213 395 293 403 C303 404 312 404 321 403 L321 403 Z " />
<glyph glyph-name="ugrave" unicode="&#xf9;" horiz-adv-x="617" d="M574 497 L449 497 L425 371 C404 255 314 99 247 99 C215 99 205 124 217 185 L276 498 C209 500 129 497 64 489 L49 409 C78 407 111 403 133 399 L86 154 C67 57 97 -11 193 -11 C287 -11 356 66 402 155 L404 154 C376 76 365 29 360 -1 C426 -3 502 0 566 8 L581 88 C553 90 520 94 498 98 L574 497 Z M447 628 L285 754 L223 671 L395 560 L447 628 Z " />
<glyph glyph-name="uacute" unicode="&#xfa;" horiz-adv-x="617" d="M574 497 L449 497 L425 371 C404 255 314 99 247 99 C215 99 205 124 217 185 L276 498 C209 500 129 497 64 489 L49 409 C78 407 111 403 133 399 L86 154 C67 57 97 -11 193 -11 C287 -11 356 66 402 155 L404 154 C376 76 365 29 360 -1 C426 -3 502 0 566 8 L581 88 C553 90 520 94 498 98 L574 497 Z M529 667 L477 754 L298 630 L340 560 L529 667 Z " />
<glyph glyph-name="ucircumflex" unicode="&#xfb;" horiz-adv-x="617" d="M574 497 L449 497 L425 371 C404 255 314 99 247 99 C215 99 205 124 217 185 L276 498 C209 500 129 497 64 489 L49 409 C78 407 111 403 133 399 L86 154 C67 57 97 -11 193 -11 C287 -11 356 66 402 155 L404 154 C376 76 365 29 360 -1 C426 -3 502 0 566 8 L581 88 C553 90 520 94 498 98 L574 497 Z M519 619 L393 754 L219 618 L261 560 L377 641 L463 560 L519 619 Z " />
<glyph glyph-name="udieresis" unicode="&#xfc;" horiz-adv-x="617" d="M574 497 L449 497 L425 371 C404 255 314 99 247 99 C215 99 205 124 217 185 L276 498 C209 500 129 497 64 489 L49 409 C78 407 111 403 133 399 L86 154 C67 57 97 -11 193 -11 C287 -11 356 66 402 155 L404 154 C376 76 365 29 360 -1 C426 -3 502 0 566 8 L581 88 C553 90 520 94 498 98 L574 497 Z M546 651 C546 687 518 717 480 717 C442 717 408 687 408 647 C408 610 437 579 475 579 C513 579 546 610 546 651 L546 651 Z M344 651 C344 687 316 717 277 717 C239 717 206 687 206 646 C206 610 234 579 273 579 C311 579 344 610 344 651 L344 651 Z " />
<glyph glyph-name="yacute" unicode="&#xfd;" horiz-adv-x="512" d="M544 484 L425 518 C360 352 301 222 235 100 L233 100 C236 113 238 129 238 142 C238 247 216 388 188 497 L48 497 C93 334 125 170 125 28 C125 -33 109 -70 79 -100 C52 -127 18 -141 -14 -141 C-35 -141 -56 -138 -75 -131 L-96 -241 C-75 -246 -47 -249 -22 -249 C43 -249 104 -221 170 -156 C288 -38 401 153 544 484 L544 484 Z M484 667 L432 754 L253 630 L295 560 L484 667 Z " />
<glyph glyph-name="thorn" unicode="&#xfe;" horiz-adv-x="547" d="M527 353 C527 459 488 508 412 508 C324 508 253 438 205 344 L202 345 C236 436 249 491 263 565 L295 731 C223 733 145 730 82 722 L67 642 C96 640 128 636 151 632 L-16 -241 L110 -241 L154 -5 C174 -8 190 -9 208 -9 C426 -9 527 165 527 353 L527 353 Z M398 329 C398 225 345 91 230 91 C213 91 191 95 174 100 L181 132 C201 235 288 398 360 398 C384 398 398 378 398 329 L398 329 Z " />
<glyph glyph-name="ydieresis" unicode="&#xff;" horiz-adv-x="512" d="M544 484 L425 518 C360 352 301 222 235 100 L233 100 C236 113 238 129 238 142 C238 247 216 388 188 497 L48 497 C93 334 125 170 125 28 C125 -33 109 -70 79 -100 C52 -127 18 -141 -14 -141 C-35 -141 -56 -138 -75 -131 L-96 -241 C-75 -246 -47 -249 -22 -249 C43 -249 104 -221 170 -156 C288 -38 401 153 544 484 L544 484 Z M487 651 C487 687 459 717 421 717 C383 717 349 687 349 647 C349 610 378 579 416 579 C454 579 487 610 487 651 L487 651 Z M285 651 C285 687 257 717 218 717 C180 717 147 687 147 646 C147 610 175 579 214 579 C252 579 285 610 285 651 L285 651 Z " />
<glyph glyph-name="dotlessi" unicode="&#x131;" horiz-adv-x="294" d="M277 498 C205 500 128 497 64 489 L49 409 C78 407 111 403 133 399 L57 0 L182 0 L277 498 Z " />
<glyph glyph-name="Lslash" unicode="&#x141;" horiz-adv-x="430" d="M399 114 L184 114 L218 298 L340 334 L338 432 L238 402 L291 675 L162 675 L103 365 L9 336 L11 239 L83 262 L32 0 L377 0 L399 114 Z " />
<glyph glyph-name="lslash" unicode="&#x142;" horiz-adv-x="291" d="M336 450 L329 543 L261 507 L303 731 C231 733 154 730 91 722 L76 642 C104 640 137 636 160 632 L123 440 L26 389 L34 295 L102 332 L39 0 L164 0 L240 399 L336 450 Z " />
<glyph glyph-name="OE" unicode="&#x152;" horiz-adv-x="843" d="M874 675 L540 675 C509 682 477 686 439 686 C215 686 44 479 44 235 C44 82 123 -11 294 -11 C328 -11 364 -7 398 0 L745 0 L767 111 L535 111 L570 294 L790 294 L810 400 L590 400 L621 566 L853 566 L874 675 Z M491 556 L410 123 C381 113 348 107 312 107 C225 107 181 162 181 257 C181 418 274 569 418 569 C443 569 468 564 491 556 L491 556 Z " />
<glyph glyph-name="oe" unicode="&#x153;" horiz-adv-x="828" d="M818 386 C818 446 781 507 657 507 C583 507 530 478 487 432 C460 480 408 507 330 507 C171 507 31 376 31 168 C31 56 87 -10 226 -10 C294 -10 359 18 406 66 C425 13 473 -10 552 -10 C618 -10 683 1 739 22 L737 120 C692 101 641 90 593 90 C524 90 502 107 502 164 C502 175 504 192 505 203 C699 209 818 267 818 386 L818 386 Z M694 369 C694 316 634 292 519 288 C537 353 579 413 643 413 C675 413 694 397 694 369 L694 369 Z M393 310 C393 199 331 100 242 100 C184 100 162 134 162 188 C162 287 218 398 311 398 C369 398 393 367 393 310 L393 310 Z " />
<glyph glyph-name="Scaron" unicode="&#x160;" horiz-adv-x="460" d="M512 802 L488 864 L348 805 L222 864 L187 801 L339 715 L512 802 Z M463 677 C425 684 391 686 352 686 C176 686 86 582 86 460 C86 299 279 299 279 201 C279 140 233 103 147 103 C111 103 71 112 39 127 L16 4 C51 -7 95 -11 138 -11 C303 -11 419 93 419 223 C419 385 224 388 224 490 C224 535 260 578 346 578 C374 578 409 573 441 562 L463 677 Z " />
<glyph glyph-name="scaron" unicode="&#x161;" horiz-adv-x="377" d="M361 500 C336 505 309 507 277 507 C134 507 63 437 63 346 C63 229 191 214 191 147 C191 111 159 91 108 91 C83 91 55 97 32 106 L9 -1 C34 -7 63 -10 96 -10 C251 -10 323 76 323 159 C323 269 194 298 194 359 C194 391 219 412 271 412 C293 412 316 409 338 402 L361 500 Z M437 695 L395 754 L279 672 L192 754 L137 694 L263 560 L437 695 Z " />
<glyph glyph-name="Ydieresis" unicode="&#x178;" horiz-adv-x="550" d="M541 790 C541 821 517 848 482 848 C449 848 420 820 420 784 C420 752 445 725 479 725 C512 725 541 753 541 790 L541 790 Z M329 790 C329 821 304 848 270 848 C237 848 208 820 208 784 C208 752 233 725 266 725 C300 725 329 753 329 790 L329 790 Z M633 675 L492 675 L376 494 C348 451 320 408 299 369 L298 369 C291 404 284 441 274 481 L222 675 L88 675 L212 238 L167 0 L294 0 L340 239 L633 675 Z " />
<glyph glyph-name="Zcaron" unicode="&#x17d;" horiz-adv-x="520" d="M550 802 L526 864 L385 805 L260 864 L224 801 L377 715 L550 802 Z M558 675 L137 675 L116 558 L260 558 C326 558 354 559 378 560 C358 539 340 519 323 496 L20 100 L1 0 L434 0 L457 120 L324 120 C244 120 198 120 182 118 C197 134 209 149 221 165 L539 571 L558 675 Z " />
<glyph glyph-name="zcaron" unicode="&#x17e;" horiz-adv-x="437" d="M439 497 L102 497 L80 383 L158 383 C205 383 239 384 258 385 L19 91 L2 0 L348 0 L370 117 L292 117 C256 117 207 117 186 116 L421 406 L439 497 Z M459 695 L417 754 L301 672 L214 754 L159 694 L285 560 L459 695 Z " />
<glyph glyph-name="florin" unicode="&#x192;" horiz-adv-x="550" d="M595 692 C567 698 533 703 506 703 C367 703 288 635 250 496 L215 373 L92 373 L77 274 L191 274 L130 51 C109 -27 73 -56 20 -56 C-6 -56 -39 -49 -65 -42 L-90 -150 C-62 -157 -27 -161 -1 -161 C136 -161 219 -97 258 50 L318 274 L469 274 L484 373 L343 373 L375 490 C396 569 431 598 487 598 C511 598 542 593 569 583 L595 692 Z " />
<glyph glyph-name="circumflex" unicode="&#x2c6;" horiz-adv-x="418" d="M420 619 L294 754 L120 618 L162 560 L278 641 L364 560 L420 619 Z " />
<glyph glyph-name="caron" unicode="&#x2c7;" horiz-adv-x="418" d="M427 695 L385 754 L269 672 L182 754 L127 694 L253 560 L427 695 Z " />
<glyph glyph-name="breve" unicode="&#x2d8;" horiz-adv-x="365" d="M415 724 L329 724 C323 685 300 665 269 665 C235 665 222 690 227 724 L144 724 C133 645 161 571 257 571 C354 571 404 643 415 724 L415 724 Z " />
<glyph glyph-name="dotaccent" unicode="&#x2d9;" horiz-adv-x="281" d="M299 655 C299 692 269 726 225 726 C181 726 141 691 141 644 C141 605 171 571 216 571 C260 571 299 606 299 655 L299 655 Z " />
<glyph glyph-name="ring" unicode="&#x2da;" horiz-adv-x="358" d="M389 651 C389 716 337 766 268 766 C199 766 136 715 136 638 C136 572 188 523 257 523 C326 523 389 576 389 651 L389 651 Z M315 648 C315 616 290 591 260 591 C231 591 210 614 210 642 C210 673 234 698 265 698 C295 698 315 675 315 648 L315 648 Z " />
<glyph glyph-name="ogonek" unicode="&#x2db;" horiz-adv-x="310" d="M187 0 L54 0 C1 -34 -36 -88 -36 -137 C-36 -184 -6 -224 70 -224 C127 -224 176 -199 214 -157 L170 -98 C153 -117 132 -127 116 -127 C97 -127 88 -117 88 -104 C88 -78 110 -39 187 0 L187 0 Z " />
<glyph glyph-name="tilde" unicode="&#x2dc;" horiz-adv-x="458" d="M473 669 L414 716 C397 686 379 671 357 671 C319 671 302 721 237 721 C187 721 143 690 113 632 L172 585 C189 615 208 630 230 630 C268 630 284 580 348 580 C399 580 443 611 473 669 L473 669 Z " />
<glyph glyph-name="hungarumlaut" unicode="&#x2dd;" horiz-adv-x="494" d="M546 691 L484 758 L326 611 L380 560 L546 691 Z M348 704 L282 766 L136 611 L192 560 L348 704 Z " />
<glyph glyph-name="pi" unicode="&#x3c0;" horiz-adv-x="650" d="M647 497 L82 497 L61 393 L157 393 L82 0 L198 0 L274 393 L415 393 L363 122 C346 33 367 -11 453 -11 C492 -11 531 -6 560 0 L568 88 C555 84 537 82 521 82 C481 82 474 96 493 194 L531 393 L627 393 L647 497 Z " />
<glyph glyph-name="endash" unicode="&#x2013;" horiz-adv-x="550" d="M574 353 L24 353 L3 242 L553 242 L574 353 Z " />
<glyph glyph-name="emdash" unicode="&#x2014;" horiz-adv-x="1000" d="M913 353 L135 353 L113 242 L892 242 L913 353 Z " />
<glyph glyph-name="quoteleft" unicode="&#x2018;" horiz-adv-x="261" d="M315 702 L269 756 C35 593 87 434 181 434 C246 434 277 505 248 552 C222 592 234 635 315 702 L315 702 Z " />
<glyph glyph-name="quoteright" unicode="&#x2019;" horiz-adv-x="261" d="M215 747 C150 747 119 676 148 629 C174 589 162 546 81 479 L127 426 C361 588 309 747 215 747 L215 747 Z " />
<glyph glyph-name="quotesinglbase" unicode="&#x201a;" horiz-adv-x="261" d="M102 149 C37 149 6 77 35 31 C61 -9 49 -52 -32 -119 L14 -172 C247 -10 196 149 102 149 L102 149 Z " />
<glyph glyph-name="quotedblleft" unicode="&#x201c;" horiz-adv-x="475" d="M536 702 L490 755 C257 593 308 434 402 434 C467 434 498 505 469 551 C443 592 455 634 536 702 L536 702 Z M315 702 L269 755 C35 593 87 434 181 434 C246 434 277 505 248 551 C222 592 234 634 315 702 L315 702 Z " />
<glyph glyph-name="quotedblright" unicode="&#x201d;" horiz-adv-x="475" d="M436 747 C371 747 340 676 369 629 C395 589 383 546 302 479 L348 426 C581 588 530 747 436 747 L436 747 Z M215 747 C150 747 119 676 148 629 C174 589 162 546 81 479 L127 426 C361 588 309 747 215 747 L215 747 Z " />
<glyph glyph-name="quotedblbase" unicode="&#x201e;" horiz-adv-x="475" d="M323 149 C258 149 227 77 256 31 C282 -9 270 -52 189 -119 L235 -172 C469 -10 417 149 323 149 L323 149 Z M102 149 C37 149 6 77 35 31 C61 -9 49 -52 -32 -119 L14 -172 C247 -10 196 149 102 149 L102 149 Z " />
<glyph glyph-name="dagger" unicode="&#x2020;" horiz-adv-x="448" d="M485 632 L353 632 L400 768 L255 768 L251 632 L119 632 L100 533 L232 533 L195 445 L169 190 L267 190 L338 445 L335 533 L466 533 L485 632 Z " />
<glyph glyph-name="daggerdbl" unicode="&#x2021;" horiz-adv-x="448" d="M488 646 L357 646 L400 768 L255 768 L252 646 L122 646 L103 548 L234 548 L198 466 L202 385 L72 385 L53 287 L184 287 L140 165 L286 165 L288 287 L418 287 L436 385 L307 385 L342 466 L339 548 L469 548 L488 646 Z " />
<glyph glyph-name="bullet" unicode="&#x2022;" horiz-adv-x="423" d="M372 301 C372 380 309 445 227 445 C145 445 78 377 78 293 C78 214 141 149 222 149 C304 149 372 217 372 301 L372 301 Z " />
<glyph glyph-name="ellipsis" unicode="&#x2026;" horiz-adv-x="709" d="M631 70 C631 110 599 145 557 145 C514 145 478 110 478 64 C478 24 510 -11 552 -11 C595 -11 631 24 631 70 L631 70 Z M402 70 C402 110 371 145 328 145 C286 145 249 110 249 64 C249 24 281 -11 323 -11 C366 -11 402 24 402 70 L402 70 Z M174 70 C174 110 142 145 99 145 C57 145 20 110 20 64 C20 24 52 -11 95 -11 C137 -11 174 24 174 70 L174 70 Z " />
<glyph glyph-name="perthousand" unicode="&#x2030;" horiz-adv-x="1039" d="M984 189 C984 268 937 303 864 303 C773 303 691 218 691 103 C691 26 735 -11 810 -11 C902 -11 984 70 984 189 L984 189 Z M381 548 C381 627 333 661 260 661 C169 661 88 576 88 462 C88 385 131 347 207 347 C299 347 381 429 381 548 L381 548 Z M720 606 L657 669 L28 42 L91 -20 L720 606 Z M662 189 C662 268 615 303 542 303 C451 303 369 218 369 103 C369 26 413 -11 488 -11 C580 -11 662 70 662 189 L662 189 Z M892 181 C892 134 870 69 819 69 C796 69 783 80 783 111 C783 155 805 223 856 223 C880 223 892 210 892 181 L892 181 Z M289 539 C289 493 267 427 216 427 C193 427 179 438 179 469 C179 514 202 581 252 581 C276 581 289 568 289 539 L289 539 Z M570 181 C570 134 548 69 497 69 C475 69 461 80 461 111 C461 155 484 223 534 223 C558 223 570 210 570 181 L570 181 Z " />
<glyph glyph-name="guilsinglleft" unicode="&#x2039;" horiz-adv-x="306" d="M290 438 L199 487 L53 299 L135 100 L238 146 L174 293 L290 438 Z " />
<glyph glyph-name="guilsinglright" unicode="&#x203a;" horiz-adv-x="306" d="M281 288 L200 487 L97 441 L160 294 L44 149 L135 100 L281 288 Z " />
<glyph glyph-name="fraction" unicode="&#x2044;" horiz-adv-x="427" d="M575 631 L496 701 L-90 36 L-11 -34 L575 631 Z " />
<glyph glyph-name="Euro" unicode="&#x20ac;" horiz-adv-x="550" d="M590 635 C552 651 502 661 457 661 C286 661 187 562 137 442 L52 442 L37 363 L110 363 C103 339 98 311 96 289 L22 289 L8 210 L89 210 C88 68 153 -11 312 -11 C368 -11 432 0 484 21 L467 119 C428 103 385 92 342 92 C254 92 224 133 222 210 L392 210 L406 289 L226 289 C229 312 233 339 240 363 L420 363 L435 442 L272 442 C304 508 356 560 437 560 C476 560 518 549 547 533 L590 635 Z " />
<glyph glyph-name="trademark" unicode="&#x2122;" horiz-adv-x="676" d="M681 675 L574 675 L516 550 L503 511 L502 552 L492 675 L385 675 L289 394 L373 394 L415 526 L425 562 L425 522 L434 394 L516 394 L572 519 L589 562 L586 515 L580 394 L673 394 L681 675 Z M334 675 L114 675 L99 598 L166 598 L127 394 L216 394 L255 598 L319 598 L334 675 Z " />
<glyph glyph-name="Omega" unicode="&#x2126;" horiz-adv-x="779" d="M706 435 C706 599 610 686 459 686 C233 686 85 484 85 284 C85 187 125 131 168 96 L36 96 L18 0 L271 0 L289 92 C232 135 204 191 204 271 C204 406 282 582 441 582 C534 582 578 515 578 421 C578 294 512 157 398 91 L381 0 L633 0 L652 96 L527 96 C657 173 706 320 706 435 L706 435 Z " />
<glyph glyph-name="partialdiff" unicode="&#x2202;" horiz-adv-x="623" d="M599 459 C599 620 498 734 323 737 L286 630 C392 630 460 570 469 474 C472 443 465 409 465 386 C445 428 390 450 336 450 C184 450 61 331 61 169 C61 72 122 -7 248 -7 C472 -7 599 245 599 459 L599 459 Z M415 257 C415 171 351 103 275 103 C217 103 186 138 186 192 C186 275 242 342 319 342 C387 342 415 303 415 257 L415 257 Z " />
<glyph glyph-name="Delta" unicode="&#x2206;" horiz-adv-x="737" d="M673 0 L525 700 L400 700 L-13 0 L673 0 Z M513 117 L187 117 L429 536 L513 117 Z " />
<glyph glyph-name="product" unicode="&#x220f;" horiz-adv-x="808" d="M825 730 L137 730 L117 622 L212 622 L46 -241 L164 -241 L330 622 L593 622 L427 -241 L544 -241 L710 622 L804 622 L825 730 Z " />
<glyph glyph-name="summation" unicode="&#x2211;" horiz-adv-x="635" d="M630 730 L151 730 L131 630 L327 254 L-33 -142 L-52 -241 L459 -241 L481 -129 L128 -129 L472 245 L275 622 L609 622 L630 730 Z " />
<glyph glyph-name="minus" unicode="&#x2212;" horiz-adv-x="550" d="M535 353 L63 353 L42 242 L514 242 L535 353 Z " />
<glyph glyph-name="radical" unicode="&#x221a;" horiz-adv-x="609" d="M694 758 L555 758 L317 234 C304 204 292 176 279 142 L278 142 C277 175 274 208 270 239 L241 497 L55 497 L37 401 L121 401 L178 0 L324 0 L694 758 Z " />
<glyph glyph-name="infinity" unicode="&#x221e;" horiz-adv-x="979" d="M942 337 C942 415 893 483 772 483 C691 483 596 431 507 374 C439 431 364 483 281 483 C166 483 52 398 52 261 C52 177 103 115 222 115 C308 115 401 166 487 221 C555 165 627 115 705 115 C855 115 942 222 942 337 L942 337 Z M819 317 C819 265 779 226 723 226 C683 226 642 257 597 296 C660 337 716 372 756 372 C799 372 819 346 819 317 L819 317 Z M394 301 C331 260 275 226 236 226 C193 226 174 252 174 284 C174 333 214 372 268 372 C307 372 349 340 394 301 L394 301 Z " />
<glyph glyph-name="integral" unicode="&#x222b;" horiz-adv-x="340" d="M412 731 C397 735 377 738 362 738 C251 738 183 676 143 471 C105 271 94 145 64 -10 C44 -116 21 -141 -21 -141 C-34 -141 -49 -138 -62 -134 L-83 -245 C-66 -249 -47 -251 -29 -251 C86 -251 146 -187 185 16 C223 213 235 343 265 499 C285 604 308 628 348 628 C364 628 379 625 391 621 L412 731 Z " />
<glyph glyph-name="approxequal" unicode="&#x2248;" horiz-adv-x="550" d="M543 375 L501 461 C470 435 436 417 403 417 C341 417 306 476 218 476 C165 476 109 446 70 412 L111 327 C140 350 176 369 213 369 C289 369 316 311 400 311 C456 311 506 339 543 375 L543 375 Z M506 176 L465 261 C433 233 399 220 367 220 C287 220 264 279 174 279 C119 279 67 245 32 215 L74 129 C103 152 138 172 175 172 C244 172 271 114 362 114 C411 114 467 141 506 176 L506 176 Z " />
<glyph glyph-name="notequal" unicode="&#x2260;" horiz-adv-x="550" d="M544 444 L432 444 L503 565 L387 565 L315 444 L87 444 L68 341 L255 341 L204 253 L51 253 L32 150 L144 150 L73 29 L190 29 L261 150 L489 150 L508 253 L320 253 L372 341 L525 341 L544 444 Z " />
<glyph glyph-name="lessequal" unicode="&#x2264;" horiz-adv-x="550" d="M528 570 L458 659 L87 409 L379 145 L469 228 L255 401 L528 570 Z M456 107 L48 107 L27 0 L436 0 L456 107 Z " />
<glyph glyph-name="greaterequal" unicode="&#x2265;" horiz-adv-x="550" d="M526 395 L233 659 L143 576 L358 402 L84 233 L155 145 L526 395 Z M456 107 L48 107 L27 0 L436 0 L456 107 Z " />
<glyph glyph-name="lozenge" unicode="&#x25ca;" horiz-adv-x="613" d="M617 336 L436 684 L358 684 L48 339 L229 -9 L307 -9 L617 336 Z M480 333 L295 129 L185 341 L367 544 L480 333 Z " />
<glyph glyph-name="fi" unicode="&#xfb01;" horiz-adv-x="583" d="M579 719 C531 731 487 738 428 738 C258 738 171 659 148 515 L145 497 L61 497 L41 398 L126 398 L47 -17 C28 -116 -4 -142 -60 -142 C-78 -142 -101 -139 -119 -134 L-149 -239 C-121 -245 -90 -248 -62 -248 C62 -248 142 -178 172 -18 L250 398 L423 398 L348 0 L472 0 L567 497 L270 497 L274 523 C288 596 333 633 422 633 C458 633 503 625 537 614 L579 719 Z " />
<glyph glyph-name="fl" unicode="&#xfb02;" horiz-adv-x="582" d="M610 721 C549 731 482 738 418 738 C268 738 178 673 154 549 L145 497 L61 497 L41 398 L126 398 L47 -17 C28 -116 -4 -142 -60 -142 C-78 -142 -101 -139 -119 -134 L-149 -239 C-121 -245 -90 -248 -62 -248 C62 -248 142 -178 172 -18 L250 398 L356 398 L376 497 L270 497 L278 540 C290 605 331 634 400 634 C420 634 445 632 468 628 L348 0 L473 0 L610 721 Z " />
</font>
</svg>
