<?xml version="1.0" encoding="utf-8"?>
<!-- Generator: Adobe Illustrator 23.0.1, SVG Export Plug-In . SVG Version: 6.00 Build 0)  -->
<svg version="1.1" id="Layer_1" xmlns="http://www.w3.org/2000/svg" xmlns:xlink="http://www.w3.org/1999/xlink" x="0px" y="0px"
	 viewBox="0 0 493.7 250" style="enable-background:new 0 0 493.7 250;" xml:space="preserve">
<style type="text/css">
	.st0{fill:#3CC382;}
	.st1{fill:#F07DB9;}
	.st2{fill:#FF7320;}
	.st3{fill:#FFFFFF;}
	.st4{fill:#B84040;}
	.st5{fill:#0987B4;}
	.st6{fill:#B45E8B;}
	.st7{fill:#2D8F62;}
	.st8{fill:#BF9B23;}
	.st9{fill:none;stroke:#B45E8B;}
</style>
<g>
	<path class="st3" d="M7.4,157l-2.6-4.2v4.2H2.6v-10.7c-0.4-0.1-1-0.1-1.5-0.2v-1.4c1.1-0.1,2.4-0.2,3.7-0.2v7.5l2.5-3.5h2.7l-3,3.9
		l3.2,4.6H7.4z"/>
	<path class="st3" d="M12.1,157v-6.8c-0.4-0.1-1-0.1-1.5-0.2v-1.4c1.1-0.1,2.4-0.2,3.6-0.2v8.5H12.1z M13.1,147.3
		c-0.7,0-1.3-0.6-1.3-1.3s0.6-1.3,1.3-1.3c0.7,0,1.4,0.6,1.4,1.3C14.5,146.7,13.9,147.3,13.1,147.3z"/>
	<path class="st3" d="M22.3,157v-5.4c0-0.9-0.2-1.4-1-1.4c-1.1,0-2,1.2-2,2.7v4.1h-2.2v-6.8c-0.4-0.1-1-0.1-1.5-0.2v-1.4
		c1.1-0.1,2.4-0.2,3.5-0.2c0,0.4,0,1.1-0.1,1.5h0c0.5-1,1.5-1.7,2.9-1.7c1.9,0,2.5,1.2,2.5,2.7v5.9H22.3z"/>
	<path class="st3" d="M31.9,157c0-0.4,0-1,0.1-1.4h0c-0.4,0.9-1.4,1.6-2.7,1.6c-2.1,0-3.1-1.5-3.1-4c0-2.9,1.7-4.8,4.5-4.8
		c0.4,0,0.7,0,1.1,0.1v-2.2c-0.4-0.1-1-0.1-1.5-0.2v-1.4c1.1-0.1,2.4-0.2,3.6-0.2v10.8c0.4,0.1,1,0.1,1.5,0.2v1.4
		C34.3,157,33,157.1,31.9,157z M31.8,150.3c-0.4-0.1-0.8-0.1-1.1-0.1c-1.2,0-2.1,0.8-2.1,2.9c0,1.6,0.5,2.4,1.4,2.4
		c1.1,0,1.8-1.3,1.8-2.8V150.3z"/>
	<path class="st3" d="M43.6,153.2h-5.2c0,1.6,0.8,2.3,2.3,2.3c0.8,0,1.6-0.2,2.4-0.5l0.2,1.6c-0.9,0.4-2,0.6-3.1,0.6
		c-2.7,0-4.2-1.3-4.2-4.3c0-2.6,1.4-4.5,4-4.5c2.5,0,3.6,1.7,3.6,3.8C43.7,152.5,43.7,152.8,43.6,153.2z M40.1,150
		c-0.9,0-1.5,0.7-1.6,1.7h3.1C41.6,150.6,41,150,40.1,150z"/>
	<path class="st3" d="M50.6,150.6c-1.6-0.3-2.4,0.7-2.4,3v3.5h-2.2v-6.8c-0.4-0.1-1-0.1-1.5-0.2v-1.4c1.1-0.1,2.4-0.2,3.5-0.2
		c0,0.4-0.1,1.1-0.2,1.7h0c0.4-1.1,1.2-2,2.7-1.9L50.6,150.6z"/>
	<path class="st3" d="M58.9,153.2h-5.2c0,1.6,0.8,2.3,2.3,2.3c0.8,0,1.6-0.2,2.4-0.5l0.2,1.6c-0.9,0.4-2,0.6-3.1,0.6
		c-2.7,0-4.2-1.3-4.2-4.3c0-2.6,1.4-4.5,4-4.5c2.5,0,3.6,1.7,3.6,3.8C59,152.5,59,152.8,58.9,153.2z M55.4,150
		c-0.9,0-1.5,0.7-1.6,1.7h3.1C56.9,150.6,56.3,150,55.4,150z"/>
	<path class="st3" d="M66.5,157v-5.4c0-0.9-0.2-1.4-1-1.4c-1.1,0-2,1.2-2,2.7v4.1h-2.2v-6.8c-0.4-0.1-1-0.1-1.5-0.2v-1.4
		c1.1-0.1,2.4-0.2,3.5-0.2c0,0.4,0,1.1-0.1,1.5h0c0.5-1,1.5-1.7,2.9-1.7c1.9,0,2.5,1.2,2.5,2.7v5.9H66.5z"/>
	<path class="st3" d="M81.6,153.2h-5.2c0,1.6,0.8,2.3,2.3,2.3c0.8,0,1.6-0.2,2.4-0.5l0.2,1.6c-0.9,0.4-2,0.6-3.1,0.6
		c-2.7,0-4.2-1.3-4.2-4.3c0-2.6,1.4-4.5,4-4.5c2.5,0,3.6,1.7,3.6,3.8C81.7,152.5,81.7,152.8,81.6,153.2z M78.1,150
		c-0.9,0-1.5,0.7-1.6,1.7h3.1C79.6,150.6,79,150,78.1,150z"/>
	<path class="st3" d="M89.2,157v-5.4c0-0.9-0.2-1.4-1-1.4c-1.1,0-2,1.2-2,2.7v4.1h-2.2v-6.8c-0.4-0.1-1-0.1-1.5-0.2v-1.4
		c1.1-0.1,2.4-0.2,3.5-0.2c0,0.4,0,1.1-0.1,1.5h0c0.5-1,1.5-1.7,2.9-1.7c1.9,0,2.5,1.2,2.5,2.7v5.9H89.2z"/>
</g>
<g>
	<path class="st3" d="M2,181.6c-0.4,0-0.9-0.1-1.2-0.2l0.1-1.9c0.3,0.1,0.7,0.2,1,0.2c0.9,0,1.2-0.4,1.2-1.5v-7.6
		c-0.4-0.1-1-0.1-1.5-0.2v-1.4c1.1-0.1,2.4-0.2,3.7-0.2v9.1C5.3,180.3,4.5,181.6,2,181.6z M4.2,167.7c-0.7,0-1.4-0.6-1.4-1.3
		c0-0.7,0.6-1.3,1.4-1.3c0.7,0,1.3,0.6,1.3,1.3C5.5,167.1,4.9,167.7,4.2,167.7z"/>
	<path class="st3" d="M11,177.6c-2.4,0-3.9-1.2-3.9-4.2c0-2.6,1.7-4.5,4.3-4.5c2.4,0,3.9,1.3,3.9,4.2
		C15.3,175.7,13.5,177.6,11,177.6z M11.2,170.6c-1,0-1.9,0.7-1.9,2.5s0.6,2.6,1.9,2.6c1.1,0,1.9-0.9,1.9-2.6
		C13,171.5,12.5,170.6,11.2,170.6z"/>
	<path class="st3" d="M22.8,177.4V172c0-0.9-0.2-1.4-1-1.4c-1.1,0-2,1.2-2,2.7v4.1h-2.2v-6.8c-0.4-0.1-1-0.1-1.5-0.2v-1.4
		c1.1-0.1,2.4-0.2,3.5-0.2c0,0.4,0,1.1-0.1,1.5h0c0.5-1,1.5-1.7,2.9-1.7c1.9,0,2.5,1.2,2.5,2.7v5.9H22.8z"/>
	<path class="st3" d="M29.8,181.7c-1,0-1.9-0.1-2.6-0.3l0.2-2c0.7,0.3,1.7,0.5,2.5,0.5c1.6,0,2.4-0.6,2.4-2.1v-0.4
		c0-0.4,0-0.8,0.1-1.2h0c-0.4,1-1.4,1.6-2.5,1.6c-2,0-3.1-1.4-3.1-3.9c0-2.9,1.6-4.8,4.6-4.8c1.2,0,2.2,0.1,3.1,0.3v8.6
		C34.4,179.7,33.5,181.7,29.8,181.7z M32.3,170.7c-0.4-0.1-0.7-0.1-1.1-0.1c-1.2,0-2.1,0.8-2.1,2.9c0,1.6,0.5,2.4,1.4,2.4
		c1.1,0,1.8-1.3,1.8-2.8V170.7z"/>
	<path class="st3" d="M43.5,173.6h-5.2c0,1.6,0.8,2.3,2.3,2.3c0.8,0,1.6-0.2,2.4-0.5l0.2,1.6c-0.9,0.4-2,0.6-3.1,0.6
		c-2.7,0-4.2-1.3-4.2-4.3c0-2.6,1.4-4.5,4-4.5c2.5,0,3.6,1.7,3.6,3.8C43.5,172.9,43.5,173.2,43.5,173.6z M39.9,170.4
		c-0.9,0-1.5,0.7-1.6,1.7h3.1C41.4,171,40.8,170.4,39.9,170.4z"/>
	<path class="st3" d="M50.5,171c-1.6-0.3-2.4,0.7-2.4,3v3.5h-2.2v-6.8c-0.4-0.1-1-0.1-1.5-0.2v-1.4c1.1-0.1,2.4-0.2,3.5-0.2
		c0,0.4-0.1,1.1-0.2,1.7h0c0.4-1.1,1.2-2,2.7-1.9L50.5,171z"/>
	<path class="st3" d="M58.8,173.6h-5.2c0,1.6,0.8,2.3,2.3,2.3c0.8,0,1.6-0.2,2.4-0.5l0.2,1.6c-0.9,0.4-2,0.6-3.1,0.6
		c-2.7,0-4.2-1.3-4.2-4.3c0-2.6,1.4-4.5,4-4.5c2.5,0,3.6,1.7,3.6,3.8C58.8,172.9,58.8,173.2,58.8,173.6z M55.2,170.4
		c-0.9,0-1.5,0.7-1.6,1.7h3.1C56.7,171,56.1,170.4,55.2,170.4z"/>
	<path class="st3" d="M66.4,177.4V172c0-0.9-0.2-1.4-1-1.4c-1.1,0-2,1.2-2,2.7v4.1h-2.2v-6.8c-0.4-0.1-1-0.1-1.5-0.2v-1.4
		c1.1-0.1,2.4-0.2,3.5-0.2c0,0.4,0,1.1-0.1,1.5h0c0.5-1,1.5-1.7,2.9-1.7c1.9,0,2.5,1.2,2.5,2.7v5.9H66.4z"/>
</g>
<g>
	<path class="st3" d="M5.9,198c-2.5,0-4-1.3-4-5.8c0-3.9,1.7-5.7,4.2-5.7c2.5,0,4,1.5,4,5.6C10.1,196.3,8.1,198,5.9,198z M6,188.4
		c-1,0-1.7,0.8-1.7,3.8c0,3.1,0.5,4,1.7,4c1.1,0,1.7-1,1.7-3.9C7.8,189.2,7.2,188.4,6,188.4z"/>
	<path class="st3" d="M11.5,194v-1.8h4.2v1.8H11.5z"/>
	<path class="st3" d="M17.5,197.8v-2h2.8V189l-2.5,1l-0.4-2.1l3.4-1.2h1.7v9.1H25v2H17.5z"/>
	<path class="st3" d="M30.3,198c-2.4,0-3.9-1.1-3.9-2.9c0-1.3,1-2.1,2-2.8c-1.1-0.6-1.8-1.4-1.8-2.6c0-1.9,1.6-3.1,3.8-3.1
		c2.3,0,3.6,1.2,3.6,2.8c0,1.2-0.8,2-1.8,2.6c1.1,0.6,2.1,1.4,2.1,2.8C34.4,196.9,32.5,198,30.3,198z M30.2,193.1
		c-0.9,0.5-1.6,1-1.6,1.8c0,0.8,0.6,1.3,1.8,1.3c1,0,1.7-0.5,1.7-1.3C32.2,194.1,31.3,193.6,30.2,193.1z M30.4,188.3
		c-1,0-1.5,0.6-1.5,1.2c0,0.7,0.6,1.2,1.6,1.7c0.8-0.5,1.4-0.9,1.4-1.6C31.9,188.8,31.4,188.3,30.4,188.3z"/>
	<path class="st3" d="M39.4,202c-0.4,0-0.8-0.1-1.2-0.2l0.1-1.9c0.3,0.1,0.7,0.2,1,0.2c0.9,0,1.2-0.4,1.2-1.5V191
		c-0.4-0.1-1-0.1-1.5-0.2v-1.4c1.1-0.1,2.4-0.2,3.7-0.2v9.1C42.7,200.7,41.9,202,39.4,202z M41.6,188.1c-0.7,0-1.4-0.6-1.4-1.3
		s0.6-1.3,1.4-1.3c0.7,0,1.3,0.6,1.3,1.3C43,187.5,42.4,188.1,41.6,188.1z"/>
	<path class="st3" d="M49.6,197.8c0-0.5,0-1,0.1-1.4l0,0c-0.4,1-1.4,1.6-2.7,1.6c-1.5,0-2.4-0.9-2.4-2.3c0-2,2-3.1,4.9-3.1v-0.4
		c0-0.9-0.4-1.3-1.6-1.3c-0.8,0-1.8,0.3-2.5,0.6l-0.3-1.8c0.9-0.3,2-0.5,3-0.5c2.8,0,3.5,1.1,3.5,2.9v4c0.4,0.1,1,0.1,1.5,0.2v1.4
		C52,197.8,50.7,197.9,49.6,197.8z M49.4,194c-2.2,0-2.8,0.6-2.8,1.3c0,0.6,0.4,1,1,1c1.1,0,1.8-1,1.8-2V194z"/>
	<path class="st3" d="M59,197.8c0-0.5,0-1,0.1-1.4l0,0c-0.4,1-1.4,1.6-2.7,1.6c-1.5,0-2.4-0.9-2.4-2.3c0-2,2-3.1,4.9-3.1v-0.4
		c0-0.9-0.4-1.3-1.6-1.3c-0.8,0-1.8,0.3-2.5,0.6l-0.3-1.8c0.9-0.3,2-0.5,3-0.5c2.8,0,3.5,1.1,3.5,2.9v4c0.4,0.1,1,0.1,1.5,0.2v1.4
		C61.4,197.8,60.1,197.9,59,197.8z M58.8,194c-2.2,0-2.8,0.6-2.8,1.3c0,0.6,0.4,1,1,1c1.1,0,1.8-1,1.8-2V194z"/>
	<path class="st3" d="M69,191.4c-1.6-0.3-2.4,0.7-2.4,3v3.5h-2.2V191c-0.4-0.1-1-0.1-1.5-0.2v-1.4c1.1-0.1,2.4-0.2,3.5-0.2
		c0,0.4-0.1,1.1-0.2,1.7h0c0.4-1.1,1.2-2,2.7-1.9L69,191.4z"/>
</g>
<g>
	<path class="st3" d="M394.6,157h-2.2l-3.1-8.4h2.4l1.3,3.8c0.2,0.6,0.4,1.3,0.6,1.9h0c0.1-0.6,0.3-1.2,0.5-1.8l1.4-3.9h2.3
		L394.6,157z"/>
	<path class="st3" d="M402,157.2c-2.4,0-3.9-1.2-3.9-4.2c0-2.6,1.8-4.5,4.3-4.5c2.4,0,3.9,1.3,3.9,4.2
		C406.3,155.3,404.5,157.2,402,157.2z M402.2,150.2c-1,0-1.9,0.7-1.9,2.5c0,1.7,0.6,2.6,1.9,2.6c1.1,0,1.9-0.9,1.9-2.6
		C404.1,151.1,403.5,150.2,402.2,150.2z"/>
	<path class="st3" d="M408.2,157v-10.7c-0.4-0.1-1-0.1-1.5-0.2v-1.4c1.1-0.1,2.4-0.2,3.7-0.2V157H408.2z"/>
	<path class="st3" d="M422.2,157h-2.4l-1.2-3.8c-0.2-0.6-0.3-1.2-0.5-1.9h0c-0.2,0.8-0.4,1.4-0.6,2.1l-1.1,3.5h-2.2l-2.6-8.4h2.4
		l0.9,3.2c0.2,0.8,0.5,1.7,0.7,2.5h0c0.2-0.9,0.4-1.7,0.6-2.4l1-3.3h2.1l1,3.2c0.3,1,0.5,1.7,0.7,2.5h0c0.2-0.9,0.3-1.6,0.6-2.4
		l1-3.3h2.2L422.2,157z"/>
	<path class="st3" d="M430.4,157c0-0.5,0-1,0.1-1.4l0,0c-0.4,1-1.4,1.6-2.7,1.6c-1.5,0-2.4-0.9-2.4-2.3c0-2,2-3.1,4.9-3.1v-0.4
		c0-0.9-0.4-1.3-1.6-1.3c-0.8,0-1.8,0.3-2.5,0.6l-0.3-1.8c0.9-0.3,2-0.5,3-0.5c2.8,0,3.5,1.1,3.5,2.9v4c0.4,0.1,1,0.1,1.5,0.2v1.4
		C432.9,157,431.5,157.1,430.4,157z M430.3,153.2c-2.2,0-2.8,0.6-2.8,1.3c0,0.6,0.4,1,1,1c1.1,0,1.8-1,1.8-2V153.2z"/>
	<path class="st3" d="M436.8,157.2c-0.7,0-1.3-0.1-1.9-0.2l0.2-1.8c0.5,0.2,1.2,0.3,1.8,0.3c0.8,0,1.4-0.4,1.4-0.9
		c0-1.5-3.4-0.6-3.4-3.5c0-1.5,1.1-2.7,3.6-2.7c0.5,0,1.1,0.1,1.5,0.2l-0.1,1.7c-0.5-0.1-1-0.2-1.5-0.2c-0.8,0-1.2,0.3-1.2,0.9
		c0,1.4,3.5,0.7,3.5,3.5C440.6,156.1,439.1,157.2,436.8,157.2z"/>
	<path class="st3" d="M443.9,157.2c-0.7,0-1.3-0.1-1.9-0.2l0.2-1.8c0.5,0.2,1.2,0.3,1.8,0.3c0.8,0,1.4-0.4,1.4-0.9
		c0-1.5-3.4-0.6-3.4-3.5c0-1.5,1.1-2.7,3.6-2.7c0.5,0,1.1,0.1,1.5,0.2l-0.1,1.7c-0.5-0.1-1-0.2-1.5-0.2c-0.8,0-1.2,0.3-1.2,0.9
		c0,1.4,3.5,0.7,3.5,3.5C447.6,156.1,446.2,157.2,443.9,157.2z"/>
	<path class="st3" d="M456.3,153.2h-5.2c0,1.6,0.8,2.3,2.3,2.3c0.8,0,1.6-0.2,2.4-0.5l0.2,1.6c-0.9,0.4-2,0.6-3.1,0.6
		c-2.7,0-4.2-1.3-4.2-4.3c0-2.6,1.4-4.5,4-4.5c2.5,0,3.6,1.7,3.6,3.8C456.4,152.5,456.4,152.8,456.3,153.2z M452.8,150
		c-0.9,0-1.5,0.7-1.6,1.7h3.1C454.3,150.6,453.7,150,452.8,150z"/>
	<path class="st3" d="M463.9,157v-5.4c0-0.9-0.2-1.4-1-1.4c-1.1,0-2,1.2-2,2.7v4.1h-2.2v-6.8c-0.4-0.1-1-0.1-1.5-0.2v-1.4
		c1.1-0.1,2.4-0.2,3.5-0.2c0,0.4,0,1.1-0.1,1.5h0c0.5-1,1.5-1.7,2.9-1.7c1.9,0,2.5,1.2,2.5,2.7v5.9H463.9z"/>
	<path class="st3" d="M475.3,153.2h-5.2c0,1.6,0.8,2.3,2.3,2.3c0.8,0,1.6-0.2,2.4-0.5l0.2,1.6c-0.9,0.4-2,0.6-3.1,0.6
		c-2.7,0-4.2-1.3-4.2-4.3c0-2.6,1.4-4.5,4-4.5c2.5,0,3.6,1.7,3.6,3.8C475.4,152.5,475.4,152.8,475.3,153.2z M471.8,150
		c-0.9,0-1.5,0.7-1.6,1.7h3.1C473.3,150.6,472.7,150,471.8,150z"/>
	<path class="st3" d="M482.9,157v-5.4c0-0.9-0.2-1.4-1-1.4c-1.1,0-2,1.2-2,2.7v4.1h-2.2v-6.8c-0.4-0.1-1-0.1-1.5-0.2v-1.4
		c1.1-0.1,2.4-0.2,3.5-0.2c0,0.4,0,1.1-0.1,1.5h0c0.5-1,1.5-1.7,2.9-1.7c1.9,0,2.5,1.2,2.5,2.7v5.9H482.9z"/>
</g>
<g>
	<path class="st3" d="M3.3,128.5V125h4.9v-12.1l-4.3,1.7L3.3,111l6-2h3v16h4.3v3.4H3.3z"/>
	<path class="st3" d="M25.9,128.8c-4.4,0-7-2.3-7-10.2c0-6.8,3-10,7.3-10c4.4,0,7,2.6,7,9.9C33.3,125.8,29.8,128.8,25.9,128.8z
		 M26.1,111.9c-1.8,0-3,1.5-3,6.6c0,5.4,0.8,7,3.1,7c1.9,0,3-1.7,3-6.8C29.1,113.2,28.2,111.9,26.1,111.9z"/>
	<path class="st3" d="M38.2,128.8c-1.4,0-2.5-1.1-2.5-2.5c0-1.3,1.1-2.4,2.5-2.4c1.3,0,2.4,1.1,2.4,2.4
		C40.7,127.7,39.6,128.8,38.2,128.8z"/>
	<path class="st3" d="M43.6,128.5v-3.1l2.9-2.9c4.6-4.5,5.4-5.8,5.4-7.4c0-1.7-1.1-2.9-3.3-2.9c-1.6,0-3.1,0.7-4.1,1.4l-0.8-3.4
		c1.5-0.8,3.5-1.5,5.7-1.5c4.6,0,6.7,2.8,6.7,5.8c0,2.6-1,4.6-4.9,8.2l-2.4,2.2v0c1.4,0,3.4-0.1,5.5-0.1h2.4v3.7H43.6z"/>
	<path class="st3" d="M66.9,128.5h-4.4c1.7-5.2,4.3-11.5,6.6-15.8c-0.9,0-4.1,0.1-6.4,0.1h-2.6V109h13.5v3.3
		C70.8,117.5,68.4,123.7,66.9,128.5z"/>
	<path class="st3" d="M83.4,128.5H79c1.7-5.2,4.3-11.5,6.6-15.8c-0.9,0-4.1,0.1-6.4,0.1h-2.6V109h13.5v3.3
		C87.3,117.5,84.9,123.7,83.4,128.5z"/>
</g>
<g>
	<path class="st3" d="M391.2,128.5V125h4.9v-12.1l-4.4,1.7l-0.6-3.6l6-2h3v16h4.3v3.4H391.2z"/>
	<path class="st3" d="M413.8,128.8c-4.4,0-7-2.3-7-10.2c0-6.8,3-10,7.3-10c4.4,0,7,2.6,7,9.9C421.1,125.8,417.7,128.8,413.8,128.8z
		 M413.9,111.9c-1.8,0-3,1.5-3,6.6c0,5.4,0.8,7,3.1,7c1.9,0,3-1.7,3-6.8C417,113.2,416,111.9,413.9,111.9z"/>
	<path class="st3" d="M426.1,128.8c-1.4,0-2.5-1.1-2.5-2.5c0-1.3,1.1-2.4,2.5-2.4c1.3,0,2.4,1.1,2.4,2.4
		C428.5,127.7,427.4,128.8,426.1,128.8z"/>
	<path class="st3" d="M436,128.8c-1.4,0-2.6-0.1-3.7-0.4v-3.5c1.2,0.4,2.4,0.6,4,0.6c2.6,0,4.1-1.2,4.1-3.1c0-1.9-1.7-2.9-4.4-2.9
		c-1.3,0-2.5,0.1-3.4,0.2V109h11.2v3.6h-7.6v3.8c0.4,0,0.8,0,1.2,0c4.7,0,7.2,2.3,7.2,5.6C444.6,126.1,441.2,128.8,436,128.8z"/>
	<path class="st3" d="M454.8,128.8c-4.4,0-7.1-2.8-7.1-8.5c0-7.8,4-11.6,10.2-11.6c0.8,0,1.6,0,2.2,0.1v3.3
		c-0.8-0.2-1.6-0.2-2.5-0.2c-3.3,0-5.1,1.8-5.9,4.8c-0.1,0.3-0.2,0.7-0.3,1.2h0c0.9-1.2,2.4-1.9,4.3-1.9c4,0,6.1,2.6,6.1,5.7
		C461.9,126.2,459,128.8,454.8,128.8z M454.9,119.2c-2,0-3.2,1.5-3.2,3c0,2,1.1,3.5,3.3,3.5c1.9,0,3-1.4,3-3.3
		C458,120.4,456.9,119.2,454.9,119.2z"/>
	<path class="st3" d="M469,128.8c-1.4,0-2.6-0.1-3.7-0.4v-3.5c1.2,0.4,2.4,0.6,4,0.6c2.6,0,4.1-1.2,4.1-3.1c0-1.9-1.7-2.9-4.4-2.9
		c-1.3,0-2.5,0.1-3.4,0.2V109h11.2v3.6h-7.6v3.8c0.4,0,0.8,0,1.2,0c4.7,0,7.2,2.3,7.2,5.6C477.6,126.1,474.2,128.8,469,128.8z"/>
</g>
<g>
	<path class="st1" d="M246.7,128.3l-5.4,102.4c56.6,3,104.8-40.5,107.8-97.1c3-56.6-40.5-104.8-97.1-107.8c-1.5-0.1-3.8-0.1-5.4-0.1
		V128.3z"/>
</g>
<path class="st6" d="M323.7,59c-18.5-20.6-43.9-32.7-71.5-34.1c-1.2-0.1-3-0.1-4.4-0.1v0h-1h-1v0c-56.6,0.5-102.6,46.8-102.6,103.5
	c0,26.9,10,52.3,28.3,71.5c18,19,42.4,30.3,68.9,31.9l0,0l1,0.1l1,0.1l0,0c1.5,0.1,3,0.1,4.5,0.1c25.6,0,50-9.3,69.2-26.6
	c20.6-18.5,32.7-43.9,34.1-71.5C351.6,106.1,342.2,79.6,323.7,59z M172.8,198.4c-17.9-18.8-27.7-43.7-27.7-70.1
	c0-55.7,45-101,100.6-101.6v101.5l-5.3,101.4C214.4,228.1,190.5,217,172.8,198.4z M348.1,133.7c-1.4,27.1-13.3,52-33.5,70.2
	c-19.9,17.9-45.5,27.1-72.3,26l5.3-101.4l0-101.6c1.4,0,3.1,0.1,4.3,0.1c27.1,1.4,52,13.3,70.2,33.5
	C340.3,80.5,349.5,106.6,348.1,133.7z"/>
</svg>
