<?xml version="1.0" encoding="utf-8"?>
<!-- Generator: Adobe Illustrator 23.0.1, SVG Export Plug-In . SVG Version: 6.00 Build 0)  -->
<svg version="1.1" id="Layer_1" xmlns="http://www.w3.org/2000/svg" xmlns:xlink="http://www.w3.org/1999/xlink" x="0px" y="0px"
	 viewBox="0 0 493.7 250" style="enable-background:new 0 0 493.7 250;" xml:space="preserve">
<style type="text/css">
	.st0{fill:#3CC382;}
	.st1{fill:#F07DB9;}
	.st2{fill:#FF7320;}
	.st3{fill:#FFFFFF;}
	.st4{fill:#B84040;}
	.st5{fill:#0987B4;}
	.st6{fill:#B45E8B;}
	.st7{fill:#2D8F62;}
	.st8{fill:#BF9B23;}
	.st9{fill:none;stroke:#B45E8B;}
</style>
<g>
	<path class="st3" d="M7.8,157.4l-2.6-4.2v4.2H3v-10.7c-0.4-0.1-1-0.1-1.5-0.2v-1.4c1.1-0.1,2.4-0.2,3.7-0.2v7.5l2.5-3.5h2.7l-3,3.9
		l3.2,4.6H7.8z"/>
	<path class="st3" d="M12.4,157.4v-6.8c-0.4-0.1-1-0.1-1.5-0.2v-1.4c1.1-0.1,2.4-0.2,3.6-0.2v8.5H12.4z M13.5,147.7
		c-0.7,0-1.3-0.6-1.3-1.3s0.6-1.3,1.3-1.3c0.7,0,1.4,0.6,1.4,1.3C14.8,147.1,14.2,147.7,13.5,147.7z"/>
	<path class="st3" d="M22.6,157.4V152c0-0.9-0.2-1.4-1-1.4c-1.1,0-2,1.2-2,2.7v4.1h-2.2v-6.8c-0.4-0.1-1-0.1-1.5-0.2v-1.4
		c1.1-0.1,2.4-0.2,3.5-0.2c0,0.4,0,1.1-0.1,1.5h0c0.5-1,1.5-1.7,2.9-1.7c1.9,0,2.5,1.2,2.5,2.7v5.9H22.6z"/>
	<path class="st3" d="M32.3,157.4c0-0.4,0-1,0.1-1.4h0c-0.4,0.9-1.4,1.6-2.7,1.6c-2.1,0-3.1-1.5-3.1-4c0-2.9,1.7-4.8,4.5-4.8
		c0.4,0,0.7,0,1.1,0.1v-2.2c-0.4-0.1-1-0.1-1.5-0.2v-1.4c1.1-0.1,2.4-0.2,3.6-0.2v10.8c0.4,0.1,1,0.1,1.5,0.2v1.4
		C34.7,157.4,33.4,157.5,32.3,157.4z M32.1,150.7c-0.4-0.1-0.8-0.1-1.1-0.1c-1.2,0-2.1,0.8-2.1,2.9c0,1.6,0.5,2.4,1.4,2.4
		c1.1,0,1.8-1.3,1.8-2.8V150.7z"/>
	<path class="st3" d="M44,153.5h-5.2c0,1.6,0.8,2.3,2.3,2.3c0.8,0,1.6-0.2,2.4-0.5l0.2,1.6c-0.9,0.4-2,0.6-3.1,0.6
		c-2.7,0-4.2-1.3-4.2-4.3c0-2.6,1.4-4.5,4-4.5c2.5,0,3.6,1.7,3.6,3.8C44,152.8,44,153.2,44,153.5z M40.4,150.4
		c-0.9,0-1.5,0.7-1.6,1.7h3.1C41.9,151,41.3,150.4,40.4,150.4z"/>
	<path class="st3" d="M51,150.9c-1.6-0.3-2.4,0.7-2.4,3v3.5h-2.2v-6.8c-0.4-0.1-1-0.1-1.5-0.2v-1.4c1.1-0.1,2.4-0.2,3.5-0.2
		c0,0.4-0.1,1.1-0.2,1.7h0c0.4-1.1,1.2-2,2.7-1.9L51,150.9z"/>
	<path class="st3" d="M59.3,153.5H54c0,1.6,0.8,2.3,2.3,2.3c0.8,0,1.7-0.2,2.4-0.5l0.2,1.6c-0.9,0.4-2,0.6-3.1,0.6
		c-2.7,0-4.2-1.3-4.2-4.3c0-2.6,1.4-4.5,4-4.5c2.5,0,3.6,1.7,3.6,3.8C59.3,152.8,59.3,153.2,59.3,153.5z M55.7,150.4
		c-0.9,0-1.5,0.7-1.7,1.7h3.1C57.2,151,56.6,150.4,55.7,150.4z"/>
	<path class="st3" d="M66.9,157.4V152c0-0.9-0.2-1.4-1-1.4c-1.1,0-2,1.2-2,2.7v4.1h-2.2v-6.8c-0.4-0.1-1-0.1-1.5-0.2v-1.4
		c1.1-0.1,2.4-0.2,3.5-0.2c0,0.4,0,1.1-0.1,1.5h0c0.5-1,1.5-1.7,2.9-1.7c1.9,0,2.5,1.2,2.5,2.7v5.9H66.9z"/>
	<path class="st3" d="M82,153.5h-5.2c0,1.6,0.8,2.3,2.3,2.3c0.8,0,1.7-0.2,2.4-0.5l0.2,1.6c-0.9,0.4-2,0.6-3.1,0.6
		c-2.7,0-4.2-1.3-4.2-4.3c0-2.6,1.4-4.5,4-4.5c2.5,0,3.6,1.7,3.6,3.8C82,152.8,82,153.2,82,153.5z M78.4,150.4
		c-0.9,0-1.5,0.7-1.7,1.7h3.1C79.9,151,79.3,150.4,78.4,150.4z"/>
	<path class="st3" d="M89.6,157.4V152c0-0.9-0.2-1.4-1-1.4c-1.1,0-2,1.2-2,2.7v4.1h-2.2v-6.8c-0.4-0.1-1-0.1-1.5-0.2v-1.4
		c1.1-0.1,2.4-0.2,3.5-0.2c0,0.4,0,1.1-0.1,1.5h0c0.5-1,1.5-1.7,2.9-1.7c1.9,0,2.5,1.2,2.5,2.7v5.9H89.6z"/>
</g>
<g>
	<path class="st3" d="M2.4,182c-0.4,0-0.9-0.1-1.2-0.2l0.1-1.9c0.3,0.1,0.7,0.2,1,0.2c0.9,0,1.2-0.4,1.2-1.5V171
		c-0.4-0.1-1-0.1-1.5-0.2v-1.4c1.1-0.1,2.4-0.2,3.7-0.2v9.1C5.6,180.7,4.8,182,2.4,182z M4.6,168.1c-0.7,0-1.4-0.6-1.4-1.3
		s0.6-1.3,1.4-1.3c0.7,0,1.3,0.6,1.3,1.3C5.9,167.5,5.3,168.1,4.6,168.1z"/>
	<path class="st3" d="M11.3,178c-2.4,0-3.9-1.2-3.9-4.2c0-2.6,1.7-4.5,4.3-4.5c2.4,0,3.9,1.3,3.9,4.2C15.6,176.1,13.8,178,11.3,178z
		 M11.5,171c-1,0-1.9,0.7-1.9,2.5c0,1.7,0.6,2.6,1.9,2.6c1.1,0,1.9-0.9,1.9-2.6C13.4,171.9,12.8,171,11.5,171z"/>
	<path class="st3" d="M23.1,177.8v-5.4c0-0.9-0.2-1.4-1-1.4c-1.1,0-2,1.2-2,2.7v4.1h-2.2V171c-0.4-0.1-1-0.1-1.5-0.2v-1.4
		c1.1-0.1,2.4-0.2,3.5-0.2c0,0.4,0,1.1-0.1,1.5h0c0.5-1,1.5-1.7,2.9-1.7c1.9,0,2.5,1.2,2.5,2.7v5.9H23.1z"/>
	<path class="st3" d="M30.1,182c-1,0-1.9-0.1-2.6-0.3l0.2-2c0.7,0.3,1.7,0.5,2.5,0.5c1.6,0,2.4-0.6,2.4-2.1v-0.4
		c0-0.4,0-0.8,0.1-1.2h0c-0.4,1-1.4,1.6-2.5,1.6c-2,0-3.1-1.4-3.1-3.9c0-2.9,1.6-4.8,4.6-4.8c1.2,0,2.2,0.1,3.1,0.3v8.6
		C34.8,180.1,33.9,182,30.1,182z M32.6,171.1c-0.4-0.1-0.7-0.1-1.1-0.1c-1.2,0-2.1,0.8-2.1,2.9c0,1.6,0.5,2.4,1.4,2.4
		c1.1,0,1.8-1.3,1.8-2.8V171.1z"/>
	<path class="st3" d="M43.8,173.9h-5.2c0,1.6,0.8,2.3,2.3,2.3c0.8,0,1.6-0.2,2.4-0.5l0.2,1.6c-0.9,0.4-2,0.6-3.1,0.6
		c-2.7,0-4.2-1.3-4.2-4.3c0-2.6,1.4-4.5,4-4.5c2.5,0,3.6,1.7,3.6,3.8C43.9,173.2,43.9,173.6,43.8,173.9z M40.3,170.8
		c-0.9,0-1.5,0.7-1.6,1.7h3.1C41.8,171.4,41.2,170.8,40.3,170.8z"/>
	<path class="st3" d="M50.8,171.3c-1.6-0.3-2.4,0.7-2.4,3v3.5h-2.2V171c-0.4-0.1-1-0.1-1.5-0.2v-1.4c1.1-0.1,2.4-0.2,3.5-0.2
		c0,0.4-0.1,1.1-0.2,1.7h0c0.4-1.1,1.2-2,2.7-1.9L50.8,171.3z"/>
	<path class="st3" d="M59.1,173.9h-5.2c0,1.6,0.8,2.3,2.3,2.3c0.8,0,1.7-0.2,2.4-0.5l0.2,1.6c-0.9,0.4-2,0.6-3.1,0.6
		c-2.7,0-4.2-1.3-4.2-4.3c0-2.6,1.4-4.5,4-4.5c2.5,0,3.6,1.7,3.6,3.8C59.2,173.2,59.2,173.6,59.1,173.9z M55.6,170.8
		c-0.9,0-1.5,0.7-1.7,1.7H57C57.1,171.4,56.5,170.8,55.6,170.8z"/>
	<path class="st3" d="M66.7,177.8v-5.4c0-0.9-0.2-1.4-1-1.4c-1.1,0-2,1.2-2,2.7v4.1h-2.2V171c-0.4-0.1-1-0.1-1.5-0.2v-1.4
		c1.1-0.1,2.4-0.2,3.5-0.2c0,0.4,0,1.1-0.1,1.5h0c0.5-1,1.5-1.7,2.9-1.7c1.9,0,2.5,1.2,2.5,2.7v5.9H66.7z"/>
</g>
<g>
	<path class="st3" d="M6.3,198.4c-2.5,0-4-1.3-4-5.8c0-3.9,1.7-5.7,4.2-5.7c2.5,0,4,1.5,4,5.6C10.4,196.7,8.5,198.4,6.3,198.4z
		 M6.4,188.8c-1,0-1.7,0.8-1.7,3.8c0,3.1,0.5,4,1.7,4c1.1,0,1.7-1,1.7-3.9C8.1,189.6,7.5,188.8,6.4,188.8z"/>
	<path class="st3" d="M11.8,194.4v-1.8H16v1.8H11.8z"/>
	<path class="st3" d="M17.9,198.2v-2h2.8v-6.9l-2.5,1l-0.4-2.1l3.4-1.2h1.7v9.1h2.4v2H17.9z"/>
	<path class="st3" d="M30.6,198.4c-2.4,0-3.9-1.1-3.9-2.9c0-1.3,1-2.1,2-2.8c-1.1-0.6-1.8-1.4-1.8-2.6c0-1.9,1.6-3.1,3.8-3.1
		c2.3,0,3.6,1.2,3.6,2.8c0,1.2-0.8,2-1.8,2.6c1.1,0.6,2.1,1.4,2.1,2.8C34.7,197.3,32.9,198.4,30.6,198.4z M30.6,193.5
		c-0.9,0.5-1.6,1-1.6,1.8c0,0.8,0.6,1.3,1.8,1.3c1,0,1.7-0.5,1.7-1.3C32.5,194.4,31.6,194,30.6,193.5z M30.7,188.7
		c-1,0-1.5,0.6-1.5,1.2c0,0.7,0.6,1.2,1.6,1.7c0.8-0.5,1.4-0.9,1.4-1.6C32.3,189.2,31.8,188.7,30.7,188.7z"/>
	<path class="st3" d="M39.8,202.4c-0.4,0-0.8-0.1-1.2-0.2l0.1-1.9c0.3,0.1,0.7,0.2,1,0.2c0.9,0,1.2-0.4,1.2-1.5v-7.6
		c-0.4-0.1-1-0.1-1.5-0.2v-1.4c1.1-0.1,2.4-0.2,3.7-0.2v9.1C43.1,201.1,42.2,202.4,39.8,202.4z M42,188.5c-0.7,0-1.4-0.6-1.4-1.3
		c0-0.7,0.6-1.3,1.4-1.3c0.7,0,1.3,0.6,1.3,1.3C43.3,187.9,42.7,188.5,42,188.5z"/>
	<path class="st3" d="M49.9,198.2c0-0.5,0-1,0.1-1.4l0,0c-0.4,1-1.4,1.6-2.7,1.6c-1.5,0-2.4-0.9-2.4-2.3c0-2,2-3.1,4.9-3.1v-0.4
		c0-0.9-0.4-1.3-1.6-1.3c-0.8,0-1.8,0.3-2.5,0.6l-0.3-1.8c0.9-0.3,2-0.5,3-0.5c2.8,0,3.5,1.1,3.5,2.9v4c0.4,0.1,1,0.1,1.5,0.2v1.4
		C52.4,198.2,51,198.3,49.9,198.2z M49.8,194.4c-2.2,0-2.8,0.6-2.8,1.3c0,0.6,0.4,1,1,1c1.1,0,1.8-1,1.8-2V194.4z"/>
	<path class="st3" d="M59.3,198.2c0-0.5,0-1,0.1-1.4l0,0c-0.4,1-1.4,1.6-2.7,1.6c-1.5,0-2.4-0.9-2.4-2.3c0-2,2-3.1,4.9-3.1v-0.4
		c0-0.9-0.4-1.3-1.6-1.3c-0.8,0-1.8,0.3-2.5,0.6l-0.3-1.8c0.9-0.3,2-0.5,3-0.5c2.8,0,3.5,1.1,3.5,2.9v4c0.4,0.1,1,0.1,1.5,0.2v1.4
		C61.7,198.2,60.4,198.3,59.3,198.2z M59.2,194.4c-2.2,0-2.8,0.6-2.8,1.3c0,0.6,0.4,1,1,1c1.1,0,1.8-1,1.8-2V194.4z"/>
	<path class="st3" d="M69.3,191.7c-1.6-0.3-2.4,0.7-2.4,3v3.5h-2.2v-6.8c-0.4-0.1-1-0.1-1.5-0.2v-1.4c1.1-0.1,2.4-0.2,3.5-0.2
		c0,0.4-0.1,1.1-0.2,1.7h0c0.4-1.1,1.2-2,2.7-1.9L69.3,191.7z"/>
</g>
<g>
	<path class="st3" d="M395.2,156.9H393l-3.1-8.4h2.4l1.3,3.8c0.2,0.6,0.4,1.3,0.6,1.9h0c0.1-0.6,0.3-1.2,0.5-1.8l1.4-3.9h2.3
		L395.2,156.9z"/>
	<path class="st3" d="M402.7,157.1c-2.4,0-3.9-1.2-3.9-4.2c0-2.6,1.8-4.5,4.3-4.5c2.4,0,3.9,1.3,3.9,4.2
		C407,155.2,405.2,157.1,402.7,157.1z M402.9,150.1c-1,0-1.9,0.7-1.9,2.5c0,1.7,0.6,2.6,1.9,2.6c1.1,0,1.9-0.9,1.9-2.6
		C404.7,151,404.1,150.1,402.9,150.1z"/>
	<path class="st3" d="M408.8,156.9v-10.7c-0.4-0.1-1-0.1-1.5-0.2v-1.4c1.1-0.1,2.4-0.2,3.7-0.2v12.4H408.8z"/>
	<path class="st3" d="M422.9,156.9h-2.4l-1.2-3.8c-0.2-0.6-0.3-1.2-0.5-1.9h0c-0.2,0.8-0.4,1.4-0.6,2.1l-1.1,3.5h-2.2l-2.6-8.4h2.4
		l0.9,3.2c0.2,0.8,0.5,1.7,0.7,2.5h0c0.2-0.9,0.4-1.7,0.6-2.4l1-3.3h2.1l1,3.2c0.3,1,0.5,1.7,0.7,2.5h0c0.2-0.9,0.3-1.6,0.6-2.4
		l1-3.3h2.2L422.9,156.9z"/>
	<path class="st3" d="M431.1,156.9c0-0.5,0-1,0.1-1.4l0,0c-0.4,1-1.4,1.6-2.7,1.6c-1.5,0-2.4-0.9-2.4-2.3c0-2,2-3.1,4.9-3.1v-0.4
		c0-0.9-0.4-1.3-1.6-1.3c-0.8,0-1.8,0.3-2.5,0.6l-0.3-1.8c0.9-0.3,2-0.5,3-0.5c2.8,0,3.5,1.1,3.5,2.9v4c0.4,0.1,1,0.1,1.5,0.2v1.4
		C433.5,156.9,432.2,157,431.1,156.9z M430.9,153.1c-2.2,0-2.8,0.6-2.8,1.3c0,0.6,0.4,1,1,1c1.1,0,1.8-1,1.8-2V153.1z"/>
	<path class="st3" d="M437.5,157.1c-0.7,0-1.3-0.1-1.9-0.2l0.2-1.8c0.5,0.2,1.2,0.3,1.8,0.3c0.8,0,1.4-0.4,1.4-0.9
		c0-1.5-3.4-0.6-3.4-3.5c0-1.5,1.1-2.7,3.6-2.7c0.5,0,1.1,0.1,1.5,0.2l-0.1,1.7c-0.5-0.1-1-0.2-1.5-0.2c-0.8,0-1.2,0.3-1.2,0.9
		c0,1.4,3.5,0.7,3.5,3.5C441.2,156,439.7,157.1,437.5,157.1z"/>
	<path class="st3" d="M444.6,157.1c-0.7,0-1.3-0.1-1.9-0.2l0.2-1.8c0.5,0.2,1.2,0.3,1.8,0.3c0.8,0,1.4-0.4,1.4-0.9
		c0-1.5-3.4-0.6-3.4-3.5c0-1.5,1.1-2.7,3.6-2.7c0.5,0,1.1,0.1,1.5,0.2l-0.1,1.7c-0.5-0.1-1-0.2-1.5-0.2c-0.8,0-1.2,0.3-1.2,0.9
		c0,1.4,3.5,0.7,3.5,3.5C448.3,156,446.8,157.1,444.6,157.1z"/>
	<path class="st3" d="M457,153h-5.2c0,1.6,0.8,2.3,2.3,2.3c0.8,0,1.7-0.2,2.4-0.5l0.2,1.6c-0.9,0.4-2,0.6-3.1,0.6
		c-2.7,0-4.2-1.3-4.2-4.3c0-2.6,1.4-4.5,4-4.5c2.5,0,3.6,1.7,3.6,3.8C457.1,152.3,457,152.7,457,153z M453.4,149.9
		c-0.9,0-1.5,0.7-1.7,1.7h3.1C454.9,150.5,454.3,149.9,453.4,149.9z"/>
	<path class="st3" d="M464.6,156.9v-5.4c0-0.9-0.2-1.4-1-1.4c-1.1,0-2,1.2-2,2.7v4.1h-2.2v-6.8c-0.4-0.1-1-0.1-1.5-0.2v-1.4
		c1.1-0.1,2.4-0.2,3.5-0.2c0,0.4,0,1.1-0.1,1.5h0c0.5-1,1.5-1.7,2.9-1.7c1.9,0,2.5,1.2,2.5,2.7v5.9H464.6z"/>
	<path class="st3" d="M476,153h-5.2c0,1.6,0.8,2.3,2.3,2.3c0.8,0,1.7-0.2,2.4-0.5l0.2,1.6c-0.9,0.4-2,0.6-3.1,0.6
		c-2.7,0-4.2-1.3-4.2-4.3c0-2.6,1.4-4.5,4-4.5c2.5,0,3.6,1.7,3.6,3.8C476,152.3,476,152.7,476,153z M472.4,149.9
		c-0.9,0-1.5,0.7-1.7,1.7h3.1C473.9,150.5,473.3,149.9,472.4,149.9z"/>
	<path class="st3" d="M483.6,156.9v-5.4c0-0.9-0.2-1.4-1-1.4c-1.1,0-2,1.2-2,2.7v4.1h-2.2v-6.8c-0.4-0.1-1-0.1-1.5-0.2v-1.4
		c1.1-0.1,2.4-0.2,3.5-0.2c0,0.4,0,1.1-0.1,1.5h0c0.5-1,1.5-1.7,2.9-1.7c1.9,0,2.5,1.2,2.5,2.7v5.9H483.6z"/>
</g>
<g>
	<path class="st3" d="M3.7,128.6v-3.4h4.9v-12.1l-4.3,1.7l-0.6-3.6l6-2h3v16h4.3v3.4H3.7z"/>
	<path class="st3" d="M22.1,129c-1.3,0-2.5-1.1-2.5-2.5c0-1.3,1.1-2.4,2.5-2.4s2.4,1.1,2.4,2.4C24.5,127.9,23.4,129,22.1,129z"/>
	<path class="st3" d="M34,129c-4.4,0-7-2.3-7-10.2c0-6.8,3-10,7.3-10c4.4,0,7,2.6,7,9.9C41.4,126,37.9,129,34,129z M34.2,112.1
		c-1.8,0-3,1.5-3,6.6c0,5.4,0.8,7,3.1,7c1.9,0,3-1.7,3-6.8C37.2,113.4,36.2,112.1,34.2,112.1z"/>
	<path class="st3" d="M48.5,129c-1.4,0-2.6-0.1-3.7-0.4v-3.5c1.2,0.4,2.4,0.6,4,0.6c2.6,0,4.1-1.2,4.1-3.1c0-1.9-1.7-2.9-4.4-2.9
		c-1.3,0-2.5,0.1-3.4,0.2v-10.7h11.2v3.6h-7.6v3.8c0.4,0,0.8,0,1.2,0c4.7,0,7.2,2.3,7.2,5.6C57.1,126.3,53.7,129,48.5,129z"/>
	<path class="st3" d="M65,129c-1.4,0-2.6-0.1-3.7-0.4v-3.5c1.2,0.4,2.4,0.6,4,0.6c2.6,0,4.1-1.2,4.1-3.1c0-1.9-1.7-2.9-4.4-2.9
		c-1.3,0-2.5,0.1-3.4,0.2v-10.7h11.2v3.6h-7.6v3.8c0.4,0,0.8,0,1.2,0c4.7,0,7.2,2.3,7.2,5.6C73.6,126.3,70.2,129,65,129z"/>
</g>
<g>
	<path class="st3" d="M398.2,128.5c-4.4,0-7.1-2.8-7.1-8.5c0-7.8,4-11.6,10.2-11.6c0.8,0,1.6,0,2.2,0.1v3.3
		c-0.8-0.2-1.6-0.2-2.5-0.2c-3.3,0-5.1,1.8-5.9,4.8c-0.1,0.3-0.2,0.7-0.3,1.2h0c0.9-1.2,2.4-1.9,4.3-1.9c4,0,6.1,2.6,6.1,5.7
		C405.3,125.8,402.5,128.5,398.2,128.5z M398.3,118.9c-2,0-3.2,1.5-3.2,3c0,2,1.1,3.5,3.3,3.5c1.9,0,3-1.4,3-3.3
		C401.4,120.1,400.4,118.9,398.3,118.9z"/>
	<path class="st3" d="M412.4,128.5c-1.4,0-2.6-0.1-3.7-0.4v-3.5c1.2,0.4,2.4,0.6,4,0.6c2.6,0,4.1-1.2,4.1-3.1c0-1.9-1.7-2.9-4.4-2.9
		c-1.3,0-2.5,0.1-3.4,0.2v-10.7h11.2v3.6h-7.6v3.8c0.4,0,0.8,0,1.2,0c4.7,0,7.2,2.3,7.2,5.6C421,125.8,417.6,128.5,412.4,128.5z"/>
	<path class="st3" d="M430.9,128.5c-4.4,0-7-2.3-7-10.2c0-6.8,3-10,7.3-10c4.4,0,7,2.6,7,9.9C438.3,125.5,434.8,128.5,430.9,128.5z
		 M431.1,111.6c-1.8,0-3,1.5-3,6.6c0,5.4,0.8,7,3.1,7c1.9,0,3-1.7,3-6.8C434.1,112.9,433.1,111.6,431.1,111.6z"/>
</g>
<g>
	<path class="st1" d="M247,128.5V24.8c57.7,0,104.5,46.4,104.5,103.7S304.7,232.2,247,232.2c-27.4,0-49.5-8.4-69.9-26.6L247,128.5z"
		/>
</g>
<path class="st6" d="M247.9,23.8L247.9,23.8l-0.4,0c-0.2,0-0.4,0-0.6,0h-1v0c-30.8,0.1-55.5,12.1-76.1,34.8
	c-19,20.9-28.7,47.9-27.2,76c1.4,27.2,13.1,52.3,33,71l0,0l0.8,0.7c20.5,18.3,42.9,26.9,70.6,26.9c58.1,0,105.5-47,105.5-104.7
	C352.4,71.1,305.6,24.3,247.9,23.8z M144.7,134.5c-1.4-27.5,8-54,26.7-74.5C191,38.4,216.8,26.6,246,25.8v102.3l-68.9,76
	C156.8,185.7,146.1,161.8,144.7,134.5z M247,231.2c-26.8,0-48.5-8.2-68.5-25.7l54.3-59.9l14-15.4l0.1-0.2l1-1.1V25.8
	c56.6,0.5,102.5,46.4,102.5,102.7C350.4,185.1,304,231.2,247,231.2z"/>
</svg>
