<?xml version="1.0" encoding="utf-8"?>
<!-- Generator: Adobe Illustrator 23.0.1, SVG Export Plug-In . SVG Version: 6.00 Build 0)  -->
<svg version="1.1" id="Layer_1" xmlns="http://www.w3.org/2000/svg" xmlns:xlink="http://www.w3.org/1999/xlink" x="0px" y="0px"
	 viewBox="0 0 493.7 250" style="enable-background:new 0 0 493.7 250;" xml:space="preserve">
<style type="text/css">
	.st0{fill:#3CC382;}
	.st1{fill:#F07DB9;}
	.st2{fill:#FF7320;}
	.st3{fill:#FFFFFF;}
	.st4{fill:#B84040;}
	.st5{fill:#0987B4;}
	.st6{fill:#B45E8B;}
	.st7{fill:#2D8F62;}
	.st8{fill:#BF9B23;}
	.st9{fill:none;stroke:#B45E8B;}
</style>
<g>
	<path class="st3" d="M1.3,157.5V146h6.2v1.9h-4v2.8h3.8v1.8H3.5v3.1h4v1.9H1.3z"/>
	<path class="st3" d="M10.2,157.5v-6.8c-0.4-0.1-1-0.1-1.5-0.2v-1.4c1.1-0.1,2.4-0.2,3.6-0.2v8.5H10.2z M11.3,147.7
		c-0.7,0-1.3-0.6-1.3-1.3c0-0.7,0.6-1.3,1.3-1.3c0.7,0,1.4,0.6,1.4,1.3C12.6,147.1,12,147.7,11.3,147.7z"/>
	<path class="st3" d="M20.4,157.5V152c0-0.9-0.2-1.4-1-1.4c-1.1,0-2,1.2-2,2.7v4.1h-2.2v-6.8c-0.4-0.1-1-0.1-1.5-0.2v-1.4
		c1.1-0.1,2.4-0.2,3.5-0.2c0,0.4,0,1.1-0.1,1.5h0c0.5-1,1.5-1.7,2.9-1.7c1.9,0,2.5,1.2,2.5,2.7v5.9H20.4z"/>
	<path class="st3" d="M30.1,157.5c0-0.4,0-1,0.1-1.4h0c-0.4,0.9-1.4,1.6-2.7,1.6c-2.1,0-3.1-1.5-3.1-4c0-2.9,1.7-4.8,4.5-4.8
		c0.4,0,0.7,0,1.1,0.1v-2.2c-0.4-0.1-1-0.1-1.5-0.2v-1.4c1.1-0.1,2.4-0.2,3.6-0.2v10.8c0.4,0.1,1,0.1,1.5,0.2v1.4
		C32.5,157.5,31.2,157.5,30.1,157.5z M29.9,150.7c-0.4-0.1-0.8-0.1-1.1-0.1c-1.2,0-2.1,0.8-2.1,2.9c0,1.6,0.5,2.4,1.4,2.4
		c1.1,0,1.8-1.3,1.8-2.8V150.7z"/>
	<path class="st3" d="M40.3,157.5V152c0-0.9-0.2-1.4-1.1-1.4c-1.1,0-2,1.2-2,2.7v4.1h-2.2v-10.7c-0.4-0.1-1-0.1-1.5-0.2v-1.4
		c1.1-0.1,2.4-0.2,3.7-0.2v3.7c0,0.5,0,1.2-0.2,1.7h0c0.5-0.9,1.5-1.6,2.8-1.6c1.9,0,2.5,1.2,2.5,2.7v5.9H40.3z"/>
	<path class="st3" d="M48.2,157.6c-2.4,0-3.9-1.2-3.9-4.2c0-2.6,1.8-4.5,4.3-4.5c2.4,0,3.9,1.3,3.9,4.2
		C52.5,155.7,50.7,157.6,48.2,157.6z M48.4,150.7c-1,0-1.9,0.7-1.9,2.5s0.6,2.6,1.9,2.6c1.1,0,1.9-0.9,1.9-2.6
		C50.2,151.6,49.7,150.7,48.4,150.7z"/>
	<path class="st3" d="M58.3,157.5h-2.2l-3.1-8.4h2.4l1.3,3.8c0.2,0.6,0.4,1.3,0.6,1.9h0c0.1-0.6,0.3-1.2,0.5-1.8l1.4-3.9h2.3
		L58.3,157.5z"/>
	<path class="st3" d="M69.4,153.6h-5.2c0,1.6,0.8,2.3,2.3,2.3c0.8,0,1.6-0.2,2.4-0.5l0.2,1.6c-0.9,0.4-2,0.6-3.1,0.6
		c-2.7,0-4.2-1.3-4.2-4.3c0-2.6,1.4-4.5,4-4.5c2.5,0,3.6,1.7,3.6,3.8C69.4,152.9,69.4,153.2,69.4,153.6z M65.8,150.4
		c-0.9,0-1.5,0.7-1.6,1.7h3.1C67.3,151,66.7,150.4,65.8,150.4z"/>
	<path class="st3" d="M77,157.5V152c0-0.9-0.2-1.4-1-1.4c-1.1,0-2,1.2-2,2.7v4.1h-2.2v-6.8c-0.4-0.1-1-0.1-1.5-0.2v-1.4
		c1.1-0.1,2.4-0.2,3.5-0.2c0,0.4,0,1.1-0.1,1.5h0c0.5-1,1.5-1.7,2.9-1.7c1.9,0,2.5,1.2,2.5,2.7v5.9H77z"/>
</g>
<g>
	<path class="st3" d="M402.6,157.5h-2.7l-1.7-6.3c-0.2-0.7-0.3-1.5-0.4-2.4h0c-0.1,0.8-0.2,1.5-0.4,2.3l-1.7,6.4h-2.6l-2.9-11.5h2.4
		l1.6,6.3c0.2,0.7,0.3,1.5,0.4,2.3h0c0.1-0.8,0.2-1.5,0.4-2.3l1.8-6.4h2.3l1.8,6.4c0.2,0.6,0.4,1.4,0.5,2.2h0
		c0.1-0.8,0.3-1.5,0.4-2.2l1.6-6.4h2.2L402.6,157.5z"/>
	<path class="st3" d="M411,157.5c0-0.5,0-1,0.1-1.4l0,0c-0.4,1-1.4,1.6-2.7,1.6c-1.5,0-2.4-0.9-2.4-2.3c0-2,2-3.1,4.9-3.1v-0.4
		c0-0.9-0.4-1.3-1.6-1.3c-0.8,0-1.8,0.3-2.5,0.6l-0.3-1.8c0.9-0.3,2-0.5,3-0.5c2.8,0,3.5,1.1,3.5,2.9v4c0.4,0.1,1,0.1,1.5,0.2v1.4
		C413.4,157.5,412.1,157.5,411,157.5z M410.8,153.7c-2.2,0-2.8,0.6-2.8,1.3c0,0.6,0.4,1,1,1c1.1,0,1.8-1,1.8-2V153.7z"/>
	<path class="st3" d="M420.4,157.5c0-0.5,0-1,0.1-1.4l0,0c-0.4,1-1.4,1.6-2.7,1.6c-1.5,0-2.4-0.9-2.4-2.3c0-2,2-3.1,4.9-3.1v-0.4
		c0-0.9-0.4-1.3-1.6-1.3c-0.8,0-1.8,0.3-2.5,0.6l-0.3-1.8c0.9-0.3,2-0.5,3-0.5c2.8,0,3.5,1.1,3.5,2.9v4c0.4,0.1,1,0.1,1.5,0.2v1.4
		C422.8,157.5,421.5,157.5,420.4,157.5z M420.2,153.7c-2.2,0-2.8,0.6-2.8,1.3c0,0.6,0.4,1,1,1c1.1,0,1.8-1,1.8-2V153.7z"/>
	<path class="st3" d="M425.3,157.5v-10.7c-0.4-0.1-1-0.1-1.5-0.2v-1.4c1.1-0.1,2.4-0.2,3.7-0.2v12.4H425.3z"/>
	<path class="st3" d="M434.9,151c-1.6-0.3-2.4,0.7-2.4,3v3.5h-2.2v-6.8c-0.4-0.1-1-0.1-1.5-0.2v-1.4c1.1-0.1,2.4-0.2,3.5-0.2
		c0,0.4-0.1,1.1-0.2,1.7h0c0.4-1.1,1.2-2,2.7-1.9L434.9,151z"/>
	<path class="st3" d="M443.2,153.6H438c0,1.6,0.8,2.3,2.3,2.3c0.8,0,1.6-0.2,2.4-0.5l0.2,1.6c-0.9,0.4-2,0.6-3.1,0.6
		c-2.7,0-4.2-1.3-4.2-4.3c0-2.6,1.4-4.5,4-4.5c2.5,0,3.6,1.7,3.6,3.8C443.3,152.9,443.3,153.2,443.2,153.6z M439.7,150.4
		c-0.9,0-1.5,0.7-1.6,1.7h3.1C441.2,151,440.6,150.4,439.7,150.4z"/>
</g>
<g>
	<path class="st3" d="M2.1,128.7v-3.4H7v-12.1l-4.3,1.7L2,111.2l6-2h3v16h4.3v3.4H2.1z"/>
	<path class="st3" d="M24.6,129c-4.2,0-6.8-2-6.8-5.1c0-2.3,1.7-3.8,3.6-5c-1.9-1-3.1-2.4-3.1-4.6c0-3.3,2.8-5.5,6.8-5.5
		c4,0,6.4,2,6.4,4.9c0,2.1-1.4,3.5-3.2,4.6c1.9,1,3.6,2.4,3.6,5C31.9,127,28.6,129,24.6,129z M24.5,120.4c-1.5,0.9-2.8,1.7-2.8,3.2
		c0,1.3,1.1,2.3,3.2,2.3c1.7,0,2.9-0.9,2.9-2.3C27.9,122,26.4,121.2,24.5,120.4z M24.8,111.8c-1.7,0-2.6,1-2.6,2.2
		c0,1.3,1,2,2.9,2.9c1.4-0.8,2.5-1.6,2.5-2.9C27.5,112.8,26.6,111.8,24.8,111.8z"/>
	<path class="st3" d="M37,129c-1.3,0-2.5-1.1-2.5-2.5c0-1.3,1.1-2.4,2.5-2.4s2.4,1.1,2.4,2.4C39.4,127.9,38.3,129,37,129z"/>
	<path class="st3" d="M48.9,129c-4.2,0-6.8-2-6.8-5.1c0-2.3,1.7-3.8,3.6-5c-1.9-1-3.1-2.4-3.1-4.6c0-3.3,2.8-5.5,6.8-5.5
		c4,0,6.4,2,6.4,4.9c0,2.1-1.4,3.5-3.2,4.6c1.9,1,3.6,2.4,3.6,5C56.1,127,52.8,129,48.9,129z M48.8,120.4c-1.5,0.9-2.8,1.7-2.8,3.2
		c0,1.3,1.1,2.3,3.2,2.3c1.7,0,2.9-0.9,2.9-2.3C52.1,122,50.6,121.2,48.8,120.4z M49,111.8c-1.7,0-2.6,1-2.6,2.2c0,1.3,1,2,2.9,2.9
		c1.4-0.8,2.5-1.6,2.5-2.9C51.8,112.8,50.8,111.8,49,111.8z"/>
	<path class="st3" d="M65.4,129c-4.4,0-7-2.3-7-10.2c0-6.8,3-10,7.3-10c4.4,0,7,2.6,7,9.9C72.7,126,69.3,129,65.4,129z M65.5,112.1
		c-1.8,0-3,1.5-3,6.6c0,5.4,0.8,7,3.1,7c1.9,0,3-1.7,3-6.8C68.6,113.4,67.6,112.1,65.5,112.1z"/>
	<path class="st3" d="M82.2,129c-4.4,0-7.1-2.8-7.1-8.5c0-7.8,4-11.6,10.2-11.6c0.8,0,1.6,0,2.2,0.1v3.3c-0.8-0.2-1.6-0.2-2.5-0.2
		c-3.3,0-5.1,1.8-5.9,4.8c-0.1,0.3-0.2,0.7-0.3,1.2h0c0.9-1.2,2.4-1.9,4.3-1.9c4,0,6.1,2.6,6.1,5.7C89.3,126.4,86.4,129,82.2,129z
		 M82.3,119.4c-2,0-3.2,1.5-3.2,3c0,2,1.1,3.5,3.3,3.5c1.9,0,3-1.4,3-3.3C85.4,120.6,84.3,119.4,82.3,119.4z"/>
</g>
<g>
	<path class="st3" d="M391.7,128.7v-3.4h4.9v-12.1l-4.3,1.7l-0.6-3.6l6-2h3v16h4.3v3.4H391.7z"/>
	<path class="st3" d="M410.1,129c-1.3,0-2.5-1.1-2.5-2.5c0-1.3,1.1-2.4,2.5-2.4s2.4,1.1,2.4,2.4C412.5,127.9,411.4,129,410.1,129z"
		/>
	<path class="st3" d="M420.1,129c-1.4,0-2.6-0.1-3.7-0.4v-3.5c1.2,0.4,2.4,0.6,4,0.6c2.6,0,4.1-1.2,4.1-3.1c0-1.9-1.7-2.9-4.4-2.9
		c-1.3,0-2.5,0.1-3.4,0.2v-10.7h11.2v3.6h-7.6v3.8c0.4,0,0.8,0,1.2,0c4.7,0,7.2,2.3,7.2,5.6C428.6,126.3,425.2,129,420.1,129z"/>
	<path class="st3" d="M438.5,129c-4.4,0-7-2.3-7-10.2c0-6.8,3-10,7.3-10c4.4,0,7,2.6,7,9.9C445.9,126,442.4,129,438.5,129z
		 M438.7,112.1c-1.8,0-3,1.5-3,6.6c0,5.4,0.8,7,3.1,7c1.9,0,3-1.7,3-6.8C441.7,113.4,440.8,112.1,438.7,112.1z"/>
	<path class="st3" d="M455,129c-4.4,0-7-2.3-7-10.2c0-6.8,3-10,7.3-10c4.4,0,7,2.6,7,9.9C462.4,126,458.9,129,455,129z M455.2,112.1
		c-1.8,0-3,1.5-3,6.6c0,5.4,0.8,7,3.1,7c1.9,0,3-1.7,3-6.8C458.2,113.4,457.3,112.1,455.2,112.1z"/>
</g>
<g>
	<path class="st1" d="M247.2,128l46.4-91.1c-14.8-7.6-29.7-11.1-46.4-11.1V128z"/>
</g>
<path class="st6" d="M295,36.5L295,36.5l-0.9-0.5l-0.9-0.5l0,0c-14.5-7.2-28.8-10.7-45-10.8v0h-1h-1v0C189.8,25.3,144,71.4,144,128
	c0,56.9,46.3,103.2,103.2,103.2S350.4,184.9,350.4,128C350.4,88.1,330.2,54.9,295,36.5z M292.3,37.4l-44.1,86.5v-97
	C264.1,26.9,278.1,30.3,292.3,37.4z M247.2,229.2C191.4,229.2,146,183.8,146,128c0-55.5,44.9-100.7,100.2-101.2v105.4l47.8-93.9
	c34.6,18,54.4,50.6,54.4,89.7C348.4,183.8,303,229.2,247.2,229.2z"/>
</svg>
