<?xml version="1.0" encoding="utf-8"?>
<!-- Generator: Adobe Illustrator 23.0.1, SVG Export Plug-In . SVG Version: 6.00 Build 0)  -->
<svg version="1.1" id="Layer_1" xmlns="http://www.w3.org/2000/svg" xmlns:xlink="http://www.w3.org/1999/xlink" x="0px" y="0px"
	 viewBox="0 0 493.7 110" style="enable-background:new 0 0 493.7 110;" xml:space="preserve">
<style type="text/css">
	.st0{fill:#3CC382;}
	.st1{fill:#F07DB9;}
	.st2{fill:#FF7320;}
	.st3{fill:#FFFFFF;}
	.st4{fill:#B84040;}
	.st5{fill:#0987B4;}
	.st6{fill:#B45E8B;}
	.st7{fill:#2D8F62;}
	.st8{fill:#BF9B23;}
	.st9{fill:none;stroke:#B45E8B;}
</style>
<path class="st1" d="M171.7,105c17.7,0,32.1-14,32.1-31.3c0-17.2-14.4-31.3-32.1-31.3s-32.1,14-32.1,31.3
	C139.6,91,154,105,171.7,105"/>
<path class="st1" d="M337.2,105c28.3,0,51.3-22.4,51.3-50s-23-50-51.3-50c-28.3,0-51.3,22.4-51.3,50S309,105,337.2,105"/>
<g>
	<path class="st1" d="M19.5,105c9.9,0,18-7.9,18-17.5c0-9.7-8.1-17.5-18-17.5s-18,7.9-18,17.5C1.6,97.2,9.6,105,19.5,105"/>
</g>
<path class="st6" d="M19.5,106c-10.5,0-19-8.3-19-18.5S9.1,69,19.5,69s19,8.3,19,18.5S30,106,19.5,106z M19.5,71
	c-9.4,0-17,7.4-17,16.5s7.6,16.5,17,16.5s17-7.4,17-16.5S28.9,71,19.5,71z"/>
<path class="st6" d="M171.7,106c-18.2,0-33.1-14.5-33.1-32.3c0-17.8,14.8-32.3,33.1-32.3c18.2,0,33.1,14.5,33.1,32.3
	C204.8,91.5,189.9,106,171.7,106z M171.7,43.5c-17.1,0-31.1,13.6-31.1,30.3c0,16.7,13.9,30.3,31.1,30.3c17.1,0,31.1-13.6,31.1-30.3
	C202.8,57.1,188.8,43.5,171.7,43.5z"/>
<path class="st6" d="M337.2,106c-28.8,0-52.3-22.9-52.3-51c0-28.1,23.5-51,52.3-51c28.8,0,52.3,22.9,52.3,51
	C389.6,83.1,366.1,106,337.2,106z M337.2,6c-27.7,0-50.3,22-50.3,49c0,27,22.6,49,50.3,49c27.7,0,50.3-22,50.3-49
	C387.6,28,365,6,337.2,6z"/>
</svg>
