<?xml version="1.0" encoding="utf-8"?>
<!-- Generator: Adobe Illustrator 23.0.1, SVG Export Plug-In . SVG Version: 6.00 Build 0)  -->
<svg version="1.1" id="Layer_1" xmlns="http://www.w3.org/2000/svg" xmlns:xlink="http://www.w3.org/1999/xlink" x="0px" y="0px"
	 viewBox="0 0 325 210" style="enable-background:new 0 0 325 210;" xml:space="preserve">
<style type="text/css">
	.st0{fill:#3CC382;}
	.st1{fill:#F07DB9;}
	.st2{fill:#FF7320;}
	.st3{fill:#FFFFFF;}
	.st4{fill:#B84040;}
	.st5{fill:#0987B4;}
	.st6{fill:#B45E8B;}
	.st7{fill:#2D8F62;}
	.st8{fill:#BF9B23;}
	.st9{fill:none;stroke:#B45E8B;}
</style>
<rect x="6" y="6.2" class="st2" width="313" height="197.6"/>
<g>
	<path class="st3" d="M57.1,118.8v-12.5l6.8-6.6C80.4,83.7,83,79.3,83,74.8c0-4.6-3.2-8-9.4-8c-5.2,0-9.9,1.8-13.3,4.1l-2.7-13.7
		c5.1-2.7,12.1-4.6,19.5-4.6c16.2,0,23,9.5,23,19.4c0,8.7-3.6,15.5-16.5,27.4l-5,4.7v0.2c5-0.2,11-0.3,17.1-0.3h6.6v14.8H57.1z"/>
	<path class="st3" d="M134.5,120.1c-14.8,0-24.3-7.3-24.3-34c0-22.7,10.3-33.6,25.3-33.6c16,0,24.2,9.4,24.2,33.4
		C159.7,109.4,148.2,120.1,134.5,120.1z M134.9,65.5c-5,0-8.3,3.9-8.3,20.2c0,17.8,2.6,21.2,8.4,21.2c5.3,0,8.3-4.3,8.3-20.7
		C143.3,68.6,140.5,65.5,134.9,65.5z"/>
	<path class="st3" d="M168.5,118.8v-13.7h15.6V69.7L170.6,75l-2.4-14.5l20.2-6.7H200v51.3h13.5v13.7H168.5z"/>
	<path class="st3" d="M244.3,120.1c-14.8,0-23.6-6.8-23.6-17.7c0-7.3,4.7-12.1,10.6-15.9c-5.4-3.3-9.2-7.7-9.2-14.8
		c0-11.7,10-19.2,23.7-19.2c13.8,0,22,7.1,22,16.6c0,6.9-4.1,11.5-9.4,15.1c5.9,3.3,10.9,7.8,10.9,15.9
		C269.3,113.3,257.6,120.1,244.3,120.1z M243.8,92.3c-4.1,2.5-7.4,5-7.4,8.9c0,3.8,3,6.7,9,6.7c4.9,0,8.1-2.6,8.1-6.5
		C253.5,97,249.2,94.7,243.8,92.3z M244.8,64.3c-5,0-7.4,2.9-7.4,6c0,3.7,3.1,5.9,8.4,8.3c3.8-2.2,6.7-4.7,6.7-8.2
		C252.5,67.1,250.3,64.3,244.8,64.3z"/>
</g>
<g>
	<path class="st3" d="M81.4,153.8v-7.6h-8v7.6h-2.7v-16.9h2.7v7h8v-7h2.7v16.9H81.4z"/>
	<path class="st3" d="M97.9,147.8H90c-0.1,2.8,1.2,4.1,3.7,4.1c1.2,0,2.4-0.2,3.6-0.8l0.3,2.1c-1.3,0.5-2.8,0.8-4.4,0.8
		c-3.8,0-5.9-2-5.9-6.4c0-3.7,2-6.5,5.7-6.5c3.5,0,5.1,2.4,5.1,5.4C98,146.9,98,147.3,97.9,147.8z M92.9,143.1
		c-1.5,0-2.5,1.1-2.8,2.8h5.3C95.4,144.2,94.4,143.1,92.9,143.1z"/>
	<path class="st3" d="M105.3,154c-2.6,0-3.4-1-3.4-3.8v-6.8h-2.4v-2.1h2.4v-3.9l2.7-0.7v4.7h3.2v2.1h-3.2v5.9c0,1.8,0.4,2.3,1.6,2.3
		c0.5,0,1.1-0.1,1.5-0.2l0.2,2.1C107.1,153.9,106.1,154,105.3,154z"/>
	<path class="st3" d="M115.7,160.1c-0.5,0-1.2-0.1-1.7-0.2l0.2-2.3c0.5,0.2,1,0.3,1.5,0.3c1.5,0,1.9-0.6,1.9-2.6v-11.8
		c-0.6-0.1-1.5-0.2-2.2-0.2v-1.6c1.4-0.2,3.2-0.2,4.8-0.2V155C120.2,158.3,119.1,160.1,115.7,160.1z M118.9,139.2
		c-0.9,0-1.7-0.7-1.7-1.7c0-0.9,0.8-1.7,1.7-1.7c1,0,1.7,0.8,1.7,1.7S119.8,139.2,118.9,139.2z"/>
	<path class="st3" d="M131,153.8c0-0.8,0-1.6,0.1-2.3l0,0c-0.6,1.5-2.1,2.6-4.1,2.6c-2.1,0-3.5-1.3-3.5-3.3c0-2.8,2.8-4.4,7.3-4.4
		v-0.7c0-1.5-0.6-2.3-2.6-2.3c-1.2,0-2.6,0.4-3.6,0.9l-0.4-2.2c1.2-0.5,2.8-0.8,4.4-0.8c3.8,0,4.9,1.6,4.9,4.2v6.4
		c0.6,0.1,1.4,0.2,2.2,0.2v1.7C134.3,153.8,132.5,153.9,131,153.8z M130.8,148.1c-3.7,0-4.7,1-4.7,2.2c0,1,0.6,1.7,1.7,1.7
		c1.8,0,3-1.8,3-3.5V148.1z"/>
	<path class="st3" d="M144.9,153.8c0-0.8,0-1.6,0.1-2.3l0,0c-0.6,1.5-2.1,2.6-4.1,2.6c-2.1,0-3.5-1.3-3.5-3.3c0-2.8,2.8-4.4,7.3-4.4
		v-0.7c0-1.5-0.6-2.3-2.6-2.3c-1.2,0-2.6,0.4-3.6,0.9l-0.4-2.2c1.2-0.5,2.8-0.8,4.4-0.8c3.8,0,4.9,1.6,4.9,4.2v6.4
		c0.6,0.1,1.4,0.2,2.2,0.2v1.7C148.2,153.8,146.3,153.9,144.9,153.8z M144.7,148.1c-3.7,0-4.7,1-4.7,2.2c0,1,0.6,1.7,1.7,1.7
		c1.8,0,3-1.8,3-3.5V148.1z"/>
	<path class="st3" d="M159.3,143.8c-2.6-0.5-3.8,1.2-3.8,5v5h-2.6v-10.3c-0.6-0.1-1.5-0.2-2.2-0.2v-1.6c1.4-0.2,3.2-0.2,4.7-0.2
		c0,0.7-0.1,1.8-0.2,2.7h0c0.5-1.7,1.8-3.2,4.2-3L159.3,143.8z"/>
	<path class="st3" d="M168.5,153.8v-10.3c-0.6-0.1-1.5-0.2-2.2-0.2v-1.6c1.4-0.2,3.2-0.2,4.8-0.2v12.4H168.5z M169.8,139.2
		c-0.9,0-1.7-0.7-1.7-1.7c0-0.9,0.8-1.7,1.7-1.7c1,0,1.7,0.8,1.7,1.7S170.8,139.2,169.8,139.2z"/>
	<path class="st3" d="M183.8,153.8v-8c0-1.5-0.4-2.5-1.9-2.5c-1.8,0-3.2,2-3.2,4.5v6H176v-10.3c-0.6-0.1-1.5-0.2-2.2-0.2v-1.6
		c1.4-0.2,3.2-0.2,4.7-0.2c0,0.6-0.1,1.7-0.2,2.4h0.1c0.7-1.6,2.2-2.7,4.3-2.7c2.8,0,3.7,1.8,3.7,4v8.7H183.8z"/>
	<path class="st3" d="M200.9,154c-1.8,0-3-0.2-4.4-0.5v-15.8c-0.6-0.1-1.5-0.2-2.2-0.2v-1.7c1.4-0.1,3.2-0.2,4.8-0.2v5.7
		c0,0.7-0.1,1.7-0.2,2.4h0c0.7-1.5,2.1-2.5,3.9-2.5c2.9,0,4.6,2.1,4.6,5.8C207.5,151.3,205,154,200.9,154z M202.2,143.4
		c-2,0-3.1,2.3-3.1,4.4v3.8c0.5,0.2,1.2,0.2,2,0.2c2.1,0,3.6-1.3,3.6-4.6C204.7,144.7,203.9,143.4,202.2,143.4z"/>
	<path class="st3" d="M220.3,147.8h-7.9c-0.1,2.8,1.2,4.1,3.7,4.1c1.2,0,2.4-0.2,3.6-0.8l0.3,2.1c-1.3,0.5-2.8,0.8-4.4,0.8
		c-3.8,0-5.9-2-5.9-6.4c0-3.7,2-6.5,5.7-6.5c3.5,0,5.1,2.4,5.1,5.4C220.4,146.9,220.4,147.3,220.3,147.8z M215.2,143.1
		c-1.5,0-2.5,1.1-2.8,2.8h5.3C217.8,144.2,216.8,143.1,215.2,143.1z"/>
	<path class="st3" d="M233.4,147.8h-7.9c-0.1,2.8,1.2,4.1,3.7,4.1c1.2,0,2.4-0.2,3.6-0.8l0.3,2.1c-1.3,0.5-2.8,0.8-4.4,0.8
		c-3.8,0-5.9-2-5.9-6.4c0-3.7,2-6.5,5.7-6.5c3.5,0,5.1,2.4,5.1,5.4C233.4,146.9,233.4,147.3,233.4,147.8z M228.3,143.1
		c-1.5,0-2.5,1.1-2.8,2.8h5.3C230.8,144.2,229.8,143.1,228.3,143.1z"/>
	<path class="st3" d="M236.9,153.8v-16.2c-0.6-0.1-1.5-0.2-2.2-0.2v-1.7c1.4-0.1,3.2-0.2,4.8-0.2v18.2H236.9z"/>
	<path class="st3" d="M251.2,153.8c0-0.7,0.1-1.6,0.2-2.3h-0.1c-0.7,1.5-2.1,2.6-4,2.6c-3,0-4.6-2.2-4.6-5.8c0-4.3,2.5-7,6.5-7
		c0.6,0,1.2,0,1.9,0.1v-3.6c-0.6-0.1-1.4-0.2-2.2-0.2v-1.7c1.4-0.1,3.2-0.2,4.8-0.2v16.2c0.6,0.1,1.5,0.2,2.2,0.2v1.7
		C254.5,153.8,252.7,153.9,251.2,153.8z M251,143.5c-0.7-0.2-1.3-0.2-2-0.2c-2.1,0-3.6,1.3-3.6,4.6c0,2.5,0.8,3.9,2.5,3.9
		c2,0,3.1-2.3,3.1-4.5V143.5z"/>
</g>
</svg>
